M48
; DRILL file {KiCad (6.0.6)} date Mon Oct 17 00:56:48 2022
; FORMAT={-:-/ absolute / inch / decimal}
; #@! TF.CreationDate,2022-10-17T00:56:48+02:00
; #@! TF.GenerationSoftware,Kicad,Pcbnew,(6.0.6)
; #@! TF.FileFunction,Plated,1,2,PTH
FMAT,2
INCH
; #@! TA.AperFunction,Plated,PTH,ViaDrill
T1C0.0118
; #@! TA.AperFunction,Plated,PTH,ComponentDrill
T2C0.0138
; #@! TA.AperFunction,Plated,PTH,ComponentDrill
T3C0.0173
; #@! TA.AperFunction,Plated,PTH,ComponentDrill
T4C0.0394
; #@! TA.AperFunction,Plated,PTH,ComponentDrill
T5C0.0433
%
G90
G05
T1
X2.6575Y-5.876
X2.6575Y-5.9154
X2.6575Y-5.9744
X2.7067Y-6.3287
X2.7264Y-5.6201
X2.8031Y-6.3396
X2.8428Y-6.0263
X2.8701Y-5.9808
X2.874Y-5.4488
X2.9035Y-6.3189
X2.9052Y-6.0263
X2.9134Y-5.6594
X2.9626Y-5.9449
X2.9724Y-5.6594
X2.9921Y-5.4488
X3.002Y-6.3189
X3.0217Y-5.876
X3.0217Y-5.9154
X3.061Y-6.3189
X3.0709Y-5.6201
X3.1102Y-5.4488
X3.1575Y-6.3366
X3.1872Y-6.0263
X3.2244Y-5.981
X3.2283Y-5.4488
X3.2579Y-5.6594
X3.2579Y-6.3189
X3.2677Y-6.0236
X3.2835Y-5.4488
X3.3268Y-5.6594
X3.3268Y-5.9449
X3.3563Y-6.3287
X3.376Y-5.876
X3.376Y-5.9154
X3.4016Y-5.4488
X3.4154Y-6.3287
X3.435Y-5.6201
X3.5118Y-6.3366
X3.5197Y-5.4488
X3.5416Y-6.0263
X3.5787Y-5.981
X3.6122Y-5.6594
X3.6122Y-6.3189
X3.6135Y-6.0297
X3.6417Y-5.44
X3.6811Y-5.6594
X3.6811Y-5.9449
X3.7106Y-6.3287
X3.7303Y-5.876
X3.7303Y-5.9154
X3.7338Y-5.3718
X3.7697Y-6.3287
X3.7795Y-5.6201
X3.8091Y-5.4395
X3.8661Y-6.3366
X3.8959Y-6.0263
X3.933Y-5.981
X3.9469Y-5.4395
X3.9665Y-5.6594
X3.9665Y-6.3189
X3.9772Y-6.0246
X4.0059Y-5.4395
X4.0256Y-5.6594
X4.0354Y-5.2362
X4.0354Y-5.9449
X4.0551Y-6.2402
X4.0551Y-6.2992
X4.0748Y-5.9449
X4.0748Y-5.9843
X4.1237Y-6.2363
X4.1339Y-6.0335
X4.1437Y-5.6594
X4.1437Y-5.7087
X4.1634Y-5.4035
X4.1831Y-5.2362
X4.1929Y-5.6791
X4.3652Y-6.0335
X4.3701Y-5.7185
X4.3898Y-5.1378
X4.3898Y-5.1673
X4.3898Y-5.1969
X4.4094Y-5.9055
X4.4094Y-5.9449
X4.4094Y-5.9843
X4.4193Y-5.1378
X4.4193Y-5.1673
X4.4193Y-5.1969
X4.439Y-6.2205
X4.4488Y-5.1378
X4.4488Y-5.1673
X4.4488Y-5.1969
X4.4783Y-6.4469
X4.498Y-5.6791
X4.503Y-6.2106
X4.5276Y-5.748
X4.5276Y-5.9252
X4.5276Y-5.9646
X4.5374Y-5.8858
X4.5374Y-6.0236
X4.5524Y-6.0513
X4.5669Y-5.748
X4.5719Y-6.0261
X4.6Y-6.0118
X4.6042Y-5.6035
X4.626Y-5.4528
X4.626Y-5.7382
X4.6356Y-6.0234
X4.672Y-6.0204
X4.6752Y-5.2067
X4.685Y-6.3711
X4.7047Y-5.5512
X4.7161Y-6.0148
X4.7244Y-5.2067
X4.7343Y-5.2756
X4.7398Y-6.0384
X4.7638Y-5.7382
X4.7638Y-6.063
X4.7831Y-6.2012
X4.7835Y-5.4921
X4.7933Y-5.7579
X4.8031Y-4.9606
X4.8228Y-6.0531
X4.872Y-4.9902
X4.872Y-5.0197
X4.872Y-5.0492
X4.8819Y-6.1319
X4.8917Y-5.5906
X4.8917Y-6.4075
X4.9213Y-6.3583
X4.9311Y-5.5906
X4.9705Y-5.561
X5.0394Y-4.9902
X5.0394Y-5.0197
X5.0394Y-5.0492
X5.0394Y-6.3287
X5.0984Y-4.9902
X5.0984Y-5.0197
X5.0984Y-5.0492
X5.2756Y-4.9902
X5.2756Y-5.0197
X5.2756Y-5.0492
X5.3346Y-5.4823
X5.4232Y-5.3839
X5.4232Y-5.4232
X5.4232Y-5.4626
X5.4232Y-5.502
X5.4232Y-5.5413
X5.4626Y-5.3642
X5.4626Y-5.5413
X5.502Y-5.3642
X5.5118Y-5.561
X5.5413Y-5.3642
X5.5807Y-5.3642
X5.5906Y-6.3287
X5.6201Y-5.3642
X5.6299Y-5.5512
T3
X4.6339Y-6.5667
X4.6594Y-6.5274
X4.685Y-6.5667
X4.7106Y-6.5274
X4.7362Y-6.5667
T4
X4.9522Y-6.4669
X4.9522Y-6.5669
X5.0522Y-6.4669
X5.0522Y-6.5669
T5
X2.9581Y-5.1083
X2.9965Y-6.4961
X3.0581Y-5.1083
X3.0965Y-6.4961
X3.1581Y-5.1083
X3.1965Y-6.4961
X3.2581Y-5.1083
X3.2965Y-6.4961
X3.3581Y-5.1083
X3.3965Y-6.4961
X3.4581Y-5.1083
X3.4965Y-6.4961
X3.5581Y-5.1083
X3.5965Y-6.4961
X3.6581Y-5.1083
X3.6965Y-6.4961
X3.8341Y-5.1083
X3.9341Y-5.1083
X4.1392Y-5.1083
X4.1724Y-6.4961
X4.2392Y-5.1083
X4.2724Y-6.4961
T2
G00X4.5443Y-6.5778
M15
G01X4.5443Y-6.5384
M16
G05
G00X4.8258Y-6.5778
M15
G01X4.8258Y-6.5384
M16
G05
T0
M30
