%TF.GenerationSoftware,KiCad,Pcbnew,(6.0.6)*%
%TF.CreationDate,2022-10-17T00:56:45+02:00*%
%TF.ProjectId,Cobot,436f626f-742e-46b6-9963-61645f706362,rev?*%
%TF.SameCoordinates,Original*%
%TF.FileFunction,Soldermask,Bot*%
%TF.FilePolarity,Negative*%
%FSLAX46Y46*%
G04 Gerber Fmt 4.6, Leading zero omitted, Abs format (unit mm)*
G04 Created by KiCad (PCBNEW (6.0.6)) date 2022-10-17 00:56:45*
%MOMM*%
%LPD*%
G01*
G04 APERTURE LIST*
%ADD10C,1.100000*%
%ADD11R,2.200000X2.200000*%
%ADD12C,2.200000*%
%ADD13R,0.840000X0.840000*%
%ADD14C,0.840000*%
%ADD15O,0.850000X1.850000*%
%ADD16R,1.700000X1.700000*%
%ADD17O,1.700000X1.700000*%
%ADD18C,3.200000*%
G04 APERTURE END LIST*
D10*
%TO.C,J7*%
X105135000Y-132290000D03*
X107675000Y-132290000D03*
D11*
X105135000Y-129750000D03*
D12*
X107675000Y-129750000D03*
%TD*%
D11*
%TO.C,J5*%
X92915000Y-129750000D03*
D12*
X90375000Y-129750000D03*
X87835000Y-129750000D03*
X85295000Y-129750000D03*
X82755000Y-129750000D03*
X80215000Y-129750000D03*
X77675000Y-129750000D03*
X75135000Y-129750000D03*
%TD*%
D10*
%TO.C,J6*%
X97385000Y-132290000D03*
X99925000Y-132290000D03*
D11*
X97385000Y-129750000D03*
D12*
X99925000Y-129750000D03*
%TD*%
D13*
%TO.C,J1*%
X120300000Y-166795000D03*
D14*
X119650000Y-165795000D03*
X119000000Y-166795000D03*
X118350000Y-165795000D03*
X117700000Y-166795000D03*
D15*
X122575000Y-166575000D03*
X115425000Y-166575000D03*
%TD*%
D11*
%TO.C,J3*%
X76110000Y-165000000D03*
D12*
X78650000Y-165000000D03*
X81190000Y-165000000D03*
X83730000Y-165000000D03*
X86270000Y-165000000D03*
X88810000Y-165000000D03*
X91350000Y-165000000D03*
X93890000Y-165000000D03*
%TD*%
D10*
%TO.C,J4*%
X105980000Y-162460000D03*
X108520000Y-162460000D03*
D11*
X108520000Y-165000000D03*
D12*
X105980000Y-165000000D03*
%TD*%
D16*
%TO.C,J2*%
X128325000Y-166800000D03*
D17*
X125785000Y-166800000D03*
X128325000Y-164260000D03*
X125785000Y-164260000D03*
%TD*%
D18*
%TO.C,H4*%
X140500000Y-124750000D03*
%TD*%
%TO.C,H3*%
X69500000Y-124750000D03*
%TD*%
%TO.C,H1*%
X140500000Y-170250000D03*
%TD*%
%TO.C,H2*%
X69500000Y-170250000D03*
%TD*%
M02*
