%TF.GenerationSoftware,KiCad,Pcbnew,(6.0.6)*%
%TF.CreationDate,2022-10-17T00:56:45+02:00*%
%TF.ProjectId,Cobot,436f626f-742e-46b6-9963-61645f706362,rev?*%
%TF.SameCoordinates,Original*%
%TF.FileFunction,Other,ECO2*%
%FSLAX46Y46*%
G04 Gerber Fmt 4.6, Leading zero omitted, Abs format (unit mm)*
G04 Created by KiCad (PCBNEW (6.0.6)) date 2022-10-17 00:56:45*
%MOMM*%
%LPD*%
G01*
G04 APERTURE LIST*
%ADD10C,0.150000*%
G04 APERTURE END LIST*
D10*
X80502380Y-125357142D02*
X79502380Y-125357142D01*
X79502380Y-125119047D01*
X79550000Y-124976190D01*
X79645238Y-124880952D01*
X79740476Y-124833333D01*
X79930952Y-124785714D01*
X80073809Y-124785714D01*
X80264285Y-124833333D01*
X80359523Y-124880952D01*
X80454761Y-124976190D01*
X80502380Y-125119047D01*
X80502380Y-125357142D01*
X80502380Y-124357142D02*
X79502380Y-124357142D01*
X80597619Y-124119047D02*
X80597619Y-123357142D01*
X79502380Y-122690476D02*
X79502380Y-122880952D01*
X79550000Y-122976190D01*
X79597619Y-123023809D01*
X79740476Y-123119047D01*
X79930952Y-123166666D01*
X80311904Y-123166666D01*
X80407142Y-123119047D01*
X80454761Y-123071428D01*
X80502380Y-122976190D01*
X80502380Y-122785714D01*
X80454761Y-122690476D01*
X80407142Y-122642857D01*
X80311904Y-122595238D01*
X80073809Y-122595238D01*
X79978571Y-122642857D01*
X79930952Y-122690476D01*
X79883333Y-122785714D01*
X79883333Y-122976190D01*
X79930952Y-123071428D01*
X79978571Y-123119047D01*
X80073809Y-123166666D01*
X90662380Y-125357142D02*
X89662380Y-125357142D01*
X89662380Y-125119047D01*
X89710000Y-124976190D01*
X89805238Y-124880952D01*
X89900476Y-124833333D01*
X90090952Y-124785714D01*
X90233809Y-124785714D01*
X90424285Y-124833333D01*
X90519523Y-124880952D01*
X90614761Y-124976190D01*
X90662380Y-125119047D01*
X90662380Y-125357142D01*
X90662380Y-124357142D02*
X89662380Y-124357142D01*
X90757619Y-124119047D02*
X90757619Y-123357142D01*
X89757619Y-123166666D02*
X89710000Y-123119047D01*
X89662380Y-123023809D01*
X89662380Y-122785714D01*
X89710000Y-122690476D01*
X89757619Y-122642857D01*
X89852857Y-122595238D01*
X89948095Y-122595238D01*
X90090952Y-122642857D01*
X90662380Y-123214285D01*
X90662380Y-122595238D01*
X99916666Y-125464285D02*
X99916666Y-124988095D01*
X100202380Y-125559523D02*
X99202380Y-125226190D01*
X100202380Y-124892857D01*
X100202380Y-124559523D02*
X99202380Y-124559523D01*
X99202380Y-124321428D01*
X99250000Y-124178571D01*
X99345238Y-124083333D01*
X99440476Y-124035714D01*
X99630952Y-123988095D01*
X99773809Y-123988095D01*
X99964285Y-124035714D01*
X100059523Y-124083333D01*
X100154761Y-124178571D01*
X100202380Y-124321428D01*
X100202380Y-124559523D01*
X100107142Y-122988095D02*
X100154761Y-123035714D01*
X100202380Y-123178571D01*
X100202380Y-123273809D01*
X100154761Y-123416666D01*
X100059523Y-123511904D01*
X99964285Y-123559523D01*
X99773809Y-123607142D01*
X99630952Y-123607142D01*
X99440476Y-123559523D01*
X99345238Y-123511904D01*
X99250000Y-123416666D01*
X99202380Y-123273809D01*
X99202380Y-123178571D01*
X99250000Y-123035714D01*
X99297619Y-122988095D01*
X99297619Y-122607142D02*
X99250000Y-122559523D01*
X99202380Y-122464285D01*
X99202380Y-122226190D01*
X99250000Y-122130952D01*
X99297619Y-122083333D01*
X99392857Y-122035714D01*
X99488095Y-122035714D01*
X99630952Y-122083333D01*
X100202380Y-122654761D01*
X100202380Y-122035714D01*
X89122380Y-172642857D02*
X88122380Y-172642857D01*
X88122380Y-172404761D01*
X88170000Y-172261904D01*
X88265238Y-172166666D01*
X88360476Y-172119047D01*
X88550952Y-172071428D01*
X88693809Y-172071428D01*
X88884285Y-172119047D01*
X88979523Y-172166666D01*
X89074761Y-172261904D01*
X89122380Y-172404761D01*
X89122380Y-172642857D01*
X88122380Y-171452380D02*
X88122380Y-171261904D01*
X88170000Y-171166666D01*
X88265238Y-171071428D01*
X88455714Y-171023809D01*
X88789047Y-171023809D01*
X88979523Y-171071428D01*
X89074761Y-171166666D01*
X89122380Y-171261904D01*
X89122380Y-171452380D01*
X89074761Y-171547619D01*
X88979523Y-171642857D01*
X88789047Y-171690476D01*
X88455714Y-171690476D01*
X88265238Y-171642857D01*
X88170000Y-171547619D01*
X88122380Y-171452380D01*
X89217619Y-170833333D02*
X89217619Y-170071428D01*
X88122380Y-169404761D02*
X88122380Y-169595238D01*
X88170000Y-169690476D01*
X88217619Y-169738095D01*
X88360476Y-169833333D01*
X88550952Y-169880952D01*
X88931904Y-169880952D01*
X89027142Y-169833333D01*
X89074761Y-169785714D01*
X89122380Y-169690476D01*
X89122380Y-169500000D01*
X89074761Y-169404761D01*
X89027142Y-169357142D01*
X88931904Y-169309523D01*
X88693809Y-169309523D01*
X88598571Y-169357142D01*
X88550952Y-169404761D01*
X88503333Y-169500000D01*
X88503333Y-169690476D01*
X88550952Y-169785714D01*
X88598571Y-169833333D01*
X88693809Y-169880952D01*
X84042380Y-172642857D02*
X83042380Y-172642857D01*
X83042380Y-172404761D01*
X83090000Y-172261904D01*
X83185238Y-172166666D01*
X83280476Y-172119047D01*
X83470952Y-172071428D01*
X83613809Y-172071428D01*
X83804285Y-172119047D01*
X83899523Y-172166666D01*
X83994761Y-172261904D01*
X84042380Y-172404761D01*
X84042380Y-172642857D01*
X83042380Y-171452380D02*
X83042380Y-171261904D01*
X83090000Y-171166666D01*
X83185238Y-171071428D01*
X83375714Y-171023809D01*
X83709047Y-171023809D01*
X83899523Y-171071428D01*
X83994761Y-171166666D01*
X84042380Y-171261904D01*
X84042380Y-171452380D01*
X83994761Y-171547619D01*
X83899523Y-171642857D01*
X83709047Y-171690476D01*
X83375714Y-171690476D01*
X83185238Y-171642857D01*
X83090000Y-171547619D01*
X83042380Y-171452380D01*
X84137619Y-170833333D02*
X84137619Y-170071428D01*
X83375714Y-169404761D02*
X84042380Y-169404761D01*
X82994761Y-169642857D02*
X83709047Y-169880952D01*
X83709047Y-169261904D01*
X77962380Y-125357142D02*
X76962380Y-125357142D01*
X76962380Y-125119047D01*
X77010000Y-124976190D01*
X77105238Y-124880952D01*
X77200476Y-124833333D01*
X77390952Y-124785714D01*
X77533809Y-124785714D01*
X77724285Y-124833333D01*
X77819523Y-124880952D01*
X77914761Y-124976190D01*
X77962380Y-125119047D01*
X77962380Y-125357142D01*
X77962380Y-124357142D02*
X76962380Y-124357142D01*
X78057619Y-124119047D02*
X78057619Y-123357142D01*
X76962380Y-123214285D02*
X76962380Y-122547619D01*
X77962380Y-122976190D01*
X86582380Y-172642857D02*
X85582380Y-172642857D01*
X85582380Y-172404761D01*
X85630000Y-172261904D01*
X85725238Y-172166666D01*
X85820476Y-172119047D01*
X86010952Y-172071428D01*
X86153809Y-172071428D01*
X86344285Y-172119047D01*
X86439523Y-172166666D01*
X86534761Y-172261904D01*
X86582380Y-172404761D01*
X86582380Y-172642857D01*
X85582380Y-171452380D02*
X85582380Y-171261904D01*
X85630000Y-171166666D01*
X85725238Y-171071428D01*
X85915714Y-171023809D01*
X86249047Y-171023809D01*
X86439523Y-171071428D01*
X86534761Y-171166666D01*
X86582380Y-171261904D01*
X86582380Y-171452380D01*
X86534761Y-171547619D01*
X86439523Y-171642857D01*
X86249047Y-171690476D01*
X85915714Y-171690476D01*
X85725238Y-171642857D01*
X85630000Y-171547619D01*
X85582380Y-171452380D01*
X86677619Y-170833333D02*
X86677619Y-170071428D01*
X85582380Y-169357142D02*
X85582380Y-169833333D01*
X86058571Y-169880952D01*
X86010952Y-169833333D01*
X85963333Y-169738095D01*
X85963333Y-169500000D01*
X86010952Y-169404761D01*
X86058571Y-169357142D01*
X86153809Y-169309523D01*
X86391904Y-169309523D01*
X86487142Y-169357142D01*
X86534761Y-169404761D01*
X86582380Y-169500000D01*
X86582380Y-169738095D01*
X86534761Y-169833333D01*
X86487142Y-169880952D01*
X85582380Y-125357142D02*
X84582380Y-125357142D01*
X84582380Y-125119047D01*
X84630000Y-124976190D01*
X84725238Y-124880952D01*
X84820476Y-124833333D01*
X85010952Y-124785714D01*
X85153809Y-124785714D01*
X85344285Y-124833333D01*
X85439523Y-124880952D01*
X85534761Y-124976190D01*
X85582380Y-125119047D01*
X85582380Y-125357142D01*
X85582380Y-124357142D02*
X84582380Y-124357142D01*
X85677619Y-124119047D02*
X85677619Y-123357142D01*
X84915714Y-122690476D02*
X85582380Y-122690476D01*
X84534761Y-122928571D02*
X85249047Y-123166666D01*
X85249047Y-122547619D01*
X104500000Y-124761904D02*
X104452380Y-124857142D01*
X104452380Y-125000000D01*
X104500000Y-125142857D01*
X104595238Y-125238095D01*
X104690476Y-125285714D01*
X104880952Y-125333333D01*
X105023809Y-125333333D01*
X105214285Y-125285714D01*
X105309523Y-125238095D01*
X105404761Y-125142857D01*
X105452380Y-125000000D01*
X105452380Y-124904761D01*
X105404761Y-124761904D01*
X105357142Y-124714285D01*
X105023809Y-124714285D01*
X105023809Y-124904761D01*
X105452380Y-124285714D02*
X104452380Y-124285714D01*
X105452380Y-123714285D01*
X104452380Y-123714285D01*
X105452380Y-123238095D02*
X104452380Y-123238095D01*
X104452380Y-123000000D01*
X104500000Y-122857142D01*
X104595238Y-122761904D01*
X104690476Y-122714285D01*
X104880952Y-122666666D01*
X105023809Y-122666666D01*
X105214285Y-122714285D01*
X105309523Y-122761904D01*
X105404761Y-122857142D01*
X105452380Y-123000000D01*
X105452380Y-123238095D01*
X91672380Y-172642857D02*
X90672380Y-172642857D01*
X90672380Y-172404761D01*
X90720000Y-172261904D01*
X90815238Y-172166666D01*
X90910476Y-172119047D01*
X91100952Y-172071428D01*
X91243809Y-172071428D01*
X91434285Y-172119047D01*
X91529523Y-172166666D01*
X91624761Y-172261904D01*
X91672380Y-172404761D01*
X91672380Y-172642857D01*
X90672380Y-171452380D02*
X90672380Y-171261904D01*
X90720000Y-171166666D01*
X90815238Y-171071428D01*
X91005714Y-171023809D01*
X91339047Y-171023809D01*
X91529523Y-171071428D01*
X91624761Y-171166666D01*
X91672380Y-171261904D01*
X91672380Y-171452380D01*
X91624761Y-171547619D01*
X91529523Y-171642857D01*
X91339047Y-171690476D01*
X91005714Y-171690476D01*
X90815238Y-171642857D01*
X90720000Y-171547619D01*
X90672380Y-171452380D01*
X91767619Y-170833333D02*
X91767619Y-170071428D01*
X90672380Y-169928571D02*
X90672380Y-169261904D01*
X91672380Y-169690476D01*
X78922380Y-172642857D02*
X77922380Y-172642857D01*
X77922380Y-172404761D01*
X77970000Y-172261904D01*
X78065238Y-172166666D01*
X78160476Y-172119047D01*
X78350952Y-172071428D01*
X78493809Y-172071428D01*
X78684285Y-172119047D01*
X78779523Y-172166666D01*
X78874761Y-172261904D01*
X78922380Y-172404761D01*
X78922380Y-172642857D01*
X77922380Y-171452380D02*
X77922380Y-171261904D01*
X77970000Y-171166666D01*
X78065238Y-171071428D01*
X78255714Y-171023809D01*
X78589047Y-171023809D01*
X78779523Y-171071428D01*
X78874761Y-171166666D01*
X78922380Y-171261904D01*
X78922380Y-171452380D01*
X78874761Y-171547619D01*
X78779523Y-171642857D01*
X78589047Y-171690476D01*
X78255714Y-171690476D01*
X78065238Y-171642857D01*
X77970000Y-171547619D01*
X77922380Y-171452380D01*
X79017619Y-170833333D02*
X79017619Y-170071428D01*
X78017619Y-169880952D02*
X77970000Y-169833333D01*
X77922380Y-169738095D01*
X77922380Y-169500000D01*
X77970000Y-169404761D01*
X78017619Y-169357142D01*
X78112857Y-169309523D01*
X78208095Y-169309523D01*
X78350952Y-169357142D01*
X78922380Y-169928571D01*
X78922380Y-169309523D01*
X83042380Y-125357142D02*
X82042380Y-125357142D01*
X82042380Y-125119047D01*
X82090000Y-124976190D01*
X82185238Y-124880952D01*
X82280476Y-124833333D01*
X82470952Y-124785714D01*
X82613809Y-124785714D01*
X82804285Y-124833333D01*
X82899523Y-124880952D01*
X82994761Y-124976190D01*
X83042380Y-125119047D01*
X83042380Y-125357142D01*
X83042380Y-124357142D02*
X82042380Y-124357142D01*
X83137619Y-124119047D02*
X83137619Y-123357142D01*
X82042380Y-122642857D02*
X82042380Y-123119047D01*
X82518571Y-123166666D01*
X82470952Y-123119047D01*
X82423333Y-123023809D01*
X82423333Y-122785714D01*
X82470952Y-122690476D01*
X82518571Y-122642857D01*
X82613809Y-122595238D01*
X82851904Y-122595238D01*
X82947142Y-122642857D01*
X82994761Y-122690476D01*
X83042380Y-122785714D01*
X83042380Y-123023809D01*
X82994761Y-123119047D01*
X82947142Y-123166666D01*
X107821428Y-125511904D02*
X107821428Y-124750000D01*
X108202380Y-125130952D02*
X107440476Y-125130952D01*
X107297619Y-124321428D02*
X107250000Y-124273809D01*
X107202380Y-124178571D01*
X107202380Y-123940476D01*
X107250000Y-123845238D01*
X107297619Y-123797619D01*
X107392857Y-123750000D01*
X107488095Y-123750000D01*
X107630952Y-123797619D01*
X108202380Y-124369047D01*
X108202380Y-123750000D01*
X107535714Y-122892857D02*
X108202380Y-122892857D01*
X107154761Y-123130952D02*
X107869047Y-123369047D01*
X107869047Y-122750000D01*
X107202380Y-122511904D02*
X108202380Y-122178571D01*
X107202380Y-121845238D01*
X81502380Y-172642857D02*
X80502380Y-172642857D01*
X80502380Y-172404761D01*
X80550000Y-172261904D01*
X80645238Y-172166666D01*
X80740476Y-172119047D01*
X80930952Y-172071428D01*
X81073809Y-172071428D01*
X81264285Y-172119047D01*
X81359523Y-172166666D01*
X81454761Y-172261904D01*
X81502380Y-172404761D01*
X81502380Y-172642857D01*
X80502380Y-171452380D02*
X80502380Y-171261904D01*
X80550000Y-171166666D01*
X80645238Y-171071428D01*
X80835714Y-171023809D01*
X81169047Y-171023809D01*
X81359523Y-171071428D01*
X81454761Y-171166666D01*
X81502380Y-171261904D01*
X81502380Y-171452380D01*
X81454761Y-171547619D01*
X81359523Y-171642857D01*
X81169047Y-171690476D01*
X80835714Y-171690476D01*
X80645238Y-171642857D01*
X80550000Y-171547619D01*
X80502380Y-171452380D01*
X81597619Y-170833333D02*
X81597619Y-170071428D01*
X80502380Y-169928571D02*
X80502380Y-169309523D01*
X80883333Y-169642857D01*
X80883333Y-169500000D01*
X80930952Y-169404761D01*
X80978571Y-169357142D01*
X81073809Y-169309523D01*
X81311904Y-169309523D01*
X81407142Y-169357142D01*
X81454761Y-169404761D01*
X81502380Y-169500000D01*
X81502380Y-169785714D01*
X81454761Y-169880952D01*
X81407142Y-169928571D01*
X108952380Y-172416666D02*
X107952380Y-172416666D01*
X107952380Y-172178571D01*
X108000000Y-172035714D01*
X108095238Y-171940476D01*
X108190476Y-171892857D01*
X108380952Y-171845238D01*
X108523809Y-171845238D01*
X108714285Y-171892857D01*
X108809523Y-171940476D01*
X108904761Y-172035714D01*
X108952380Y-172178571D01*
X108952380Y-172416666D01*
X108666666Y-171464285D02*
X108666666Y-170988095D01*
X108952380Y-171559523D02*
X107952380Y-171226190D01*
X108952380Y-170892857D01*
X108857142Y-169988095D02*
X108904761Y-170035714D01*
X108952380Y-170178571D01*
X108952380Y-170273809D01*
X108904761Y-170416666D01*
X108809523Y-170511904D01*
X108714285Y-170559523D01*
X108523809Y-170607142D01*
X108380952Y-170607142D01*
X108190476Y-170559523D01*
X108095238Y-170511904D01*
X108000000Y-170416666D01*
X107952380Y-170273809D01*
X107952380Y-170178571D01*
X108000000Y-170035714D01*
X108047619Y-169988095D01*
X108047619Y-169607142D02*
X108000000Y-169559523D01*
X107952380Y-169464285D01*
X107952380Y-169226190D01*
X108000000Y-169130952D01*
X108047619Y-169083333D01*
X108142857Y-169035714D01*
X108238095Y-169035714D01*
X108380952Y-169083333D01*
X108952380Y-169654761D01*
X108952380Y-169035714D01*
X88122380Y-125357142D02*
X87122380Y-125357142D01*
X87122380Y-125119047D01*
X87170000Y-124976190D01*
X87265238Y-124880952D01*
X87360476Y-124833333D01*
X87550952Y-124785714D01*
X87693809Y-124785714D01*
X87884285Y-124833333D01*
X87979523Y-124880952D01*
X88074761Y-124976190D01*
X88122380Y-125119047D01*
X88122380Y-125357142D01*
X88122380Y-124357142D02*
X87122380Y-124357142D01*
X88217619Y-124119047D02*
X88217619Y-123357142D01*
X87122380Y-123214285D02*
X87122380Y-122595238D01*
X87503333Y-122928571D01*
X87503333Y-122785714D01*
X87550952Y-122690476D01*
X87598571Y-122642857D01*
X87693809Y-122595238D01*
X87931904Y-122595238D01*
X88027142Y-122642857D01*
X88074761Y-122690476D01*
X88122380Y-122785714D01*
X88122380Y-123071428D01*
X88074761Y-123166666D01*
X88027142Y-123214285D01*
X97376666Y-125464285D02*
X97376666Y-124988095D01*
X97662380Y-125559523D02*
X96662380Y-125226190D01*
X97662380Y-124892857D01*
X97662380Y-124559523D02*
X96662380Y-124559523D01*
X96662380Y-124321428D01*
X96710000Y-124178571D01*
X96805238Y-124083333D01*
X96900476Y-124035714D01*
X97090952Y-123988095D01*
X97233809Y-123988095D01*
X97424285Y-124035714D01*
X97519523Y-124083333D01*
X97614761Y-124178571D01*
X97662380Y-124321428D01*
X97662380Y-124559523D01*
X97567142Y-122988095D02*
X97614761Y-123035714D01*
X97662380Y-123178571D01*
X97662380Y-123273809D01*
X97614761Y-123416666D01*
X97519523Y-123511904D01*
X97424285Y-123559523D01*
X97233809Y-123607142D01*
X97090952Y-123607142D01*
X96900476Y-123559523D01*
X96805238Y-123511904D01*
X96710000Y-123416666D01*
X96662380Y-123273809D01*
X96662380Y-123178571D01*
X96710000Y-123035714D01*
X96757619Y-122988095D01*
X97662380Y-122035714D02*
X97662380Y-122607142D01*
X97662380Y-122321428D02*
X96662380Y-122321428D01*
X96805238Y-122416666D01*
X96900476Y-122511904D01*
X96948095Y-122607142D01*
X94202380Y-172642857D02*
X93202380Y-172642857D01*
X93202380Y-172404761D01*
X93250000Y-172261904D01*
X93345238Y-172166666D01*
X93440476Y-172119047D01*
X93630952Y-172071428D01*
X93773809Y-172071428D01*
X93964285Y-172119047D01*
X94059523Y-172166666D01*
X94154761Y-172261904D01*
X94202380Y-172404761D01*
X94202380Y-172642857D01*
X93202380Y-171452380D02*
X93202380Y-171261904D01*
X93250000Y-171166666D01*
X93345238Y-171071428D01*
X93535714Y-171023809D01*
X93869047Y-171023809D01*
X94059523Y-171071428D01*
X94154761Y-171166666D01*
X94202380Y-171261904D01*
X94202380Y-171452380D01*
X94154761Y-171547619D01*
X94059523Y-171642857D01*
X93869047Y-171690476D01*
X93535714Y-171690476D01*
X93345238Y-171642857D01*
X93250000Y-171547619D01*
X93202380Y-171452380D01*
X94297619Y-170833333D02*
X94297619Y-170071428D01*
X93630952Y-169690476D02*
X93583333Y-169785714D01*
X93535714Y-169833333D01*
X93440476Y-169880952D01*
X93392857Y-169880952D01*
X93297619Y-169833333D01*
X93250000Y-169785714D01*
X93202380Y-169690476D01*
X93202380Y-169500000D01*
X93250000Y-169404761D01*
X93297619Y-169357142D01*
X93392857Y-169309523D01*
X93440476Y-169309523D01*
X93535714Y-169357142D01*
X93583333Y-169404761D01*
X93630952Y-169500000D01*
X93630952Y-169690476D01*
X93678571Y-169785714D01*
X93726190Y-169833333D01*
X93821428Y-169880952D01*
X94011904Y-169880952D01*
X94107142Y-169833333D01*
X94154761Y-169785714D01*
X94202380Y-169690476D01*
X94202380Y-169500000D01*
X94154761Y-169404761D01*
X94107142Y-169357142D01*
X94011904Y-169309523D01*
X93821428Y-169309523D01*
X93726190Y-169357142D01*
X93678571Y-169404761D01*
X93630952Y-169500000D01*
X106412380Y-172416666D02*
X105412380Y-172416666D01*
X105412380Y-172178571D01*
X105460000Y-172035714D01*
X105555238Y-171940476D01*
X105650476Y-171892857D01*
X105840952Y-171845238D01*
X105983809Y-171845238D01*
X106174285Y-171892857D01*
X106269523Y-171940476D01*
X106364761Y-172035714D01*
X106412380Y-172178571D01*
X106412380Y-172416666D01*
X106126666Y-171464285D02*
X106126666Y-170988095D01*
X106412380Y-171559523D02*
X105412380Y-171226190D01*
X106412380Y-170892857D01*
X106317142Y-169988095D02*
X106364761Y-170035714D01*
X106412380Y-170178571D01*
X106412380Y-170273809D01*
X106364761Y-170416666D01*
X106269523Y-170511904D01*
X106174285Y-170559523D01*
X105983809Y-170607142D01*
X105840952Y-170607142D01*
X105650476Y-170559523D01*
X105555238Y-170511904D01*
X105460000Y-170416666D01*
X105412380Y-170273809D01*
X105412380Y-170178571D01*
X105460000Y-170035714D01*
X105507619Y-169988095D01*
X106412380Y-169035714D02*
X106412380Y-169607142D01*
X106412380Y-169321428D02*
X105412380Y-169321428D01*
X105555238Y-169416666D01*
X105650476Y-169511904D01*
X105698095Y-169607142D01*
X93202380Y-125357142D02*
X92202380Y-125357142D01*
X92202380Y-125119047D01*
X92250000Y-124976190D01*
X92345238Y-124880952D01*
X92440476Y-124833333D01*
X92630952Y-124785714D01*
X92773809Y-124785714D01*
X92964285Y-124833333D01*
X93059523Y-124880952D01*
X93154761Y-124976190D01*
X93202380Y-125119047D01*
X93202380Y-125357142D01*
X93202380Y-124357142D02*
X92202380Y-124357142D01*
X93297619Y-124119047D02*
X93297619Y-123357142D01*
X93202380Y-122595238D02*
X93202380Y-123166666D01*
X93202380Y-122880952D02*
X92202380Y-122880952D01*
X92345238Y-122976190D01*
X92440476Y-123071428D01*
X92488095Y-123166666D01*
X76422380Y-172642857D02*
X75422380Y-172642857D01*
X75422380Y-172404761D01*
X75470000Y-172261904D01*
X75565238Y-172166666D01*
X75660476Y-172119047D01*
X75850952Y-172071428D01*
X75993809Y-172071428D01*
X76184285Y-172119047D01*
X76279523Y-172166666D01*
X76374761Y-172261904D01*
X76422380Y-172404761D01*
X76422380Y-172642857D01*
X75422380Y-171452380D02*
X75422380Y-171261904D01*
X75470000Y-171166666D01*
X75565238Y-171071428D01*
X75755714Y-171023809D01*
X76089047Y-171023809D01*
X76279523Y-171071428D01*
X76374761Y-171166666D01*
X76422380Y-171261904D01*
X76422380Y-171452380D01*
X76374761Y-171547619D01*
X76279523Y-171642857D01*
X76089047Y-171690476D01*
X75755714Y-171690476D01*
X75565238Y-171642857D01*
X75470000Y-171547619D01*
X75422380Y-171452380D01*
X76517619Y-170833333D02*
X76517619Y-170071428D01*
X76422380Y-169309523D02*
X76422380Y-169880952D01*
X76422380Y-169595238D02*
X75422380Y-169595238D01*
X75565238Y-169690476D01*
X75660476Y-169785714D01*
X75708095Y-169880952D01*
X75422380Y-125357142D02*
X74422380Y-125357142D01*
X74422380Y-125119047D01*
X74470000Y-124976190D01*
X74565238Y-124880952D01*
X74660476Y-124833333D01*
X74850952Y-124785714D01*
X74993809Y-124785714D01*
X75184285Y-124833333D01*
X75279523Y-124880952D01*
X75374761Y-124976190D01*
X75422380Y-125119047D01*
X75422380Y-125357142D01*
X75422380Y-124357142D02*
X74422380Y-124357142D01*
X75517619Y-124119047D02*
X75517619Y-123357142D01*
X74850952Y-122976190D02*
X74803333Y-123071428D01*
X74755714Y-123119047D01*
X74660476Y-123166666D01*
X74612857Y-123166666D01*
X74517619Y-123119047D01*
X74470000Y-123071428D01*
X74422380Y-122976190D01*
X74422380Y-122785714D01*
X74470000Y-122690476D01*
X74517619Y-122642857D01*
X74612857Y-122595238D01*
X74660476Y-122595238D01*
X74755714Y-122642857D01*
X74803333Y-122690476D01*
X74850952Y-122785714D01*
X74850952Y-122976190D01*
X74898571Y-123071428D01*
X74946190Y-123119047D01*
X75041428Y-123166666D01*
X75231904Y-123166666D01*
X75327142Y-123119047D01*
X75374761Y-123071428D01*
X75422380Y-122976190D01*
X75422380Y-122785714D01*
X75374761Y-122690476D01*
X75327142Y-122642857D01*
X75231904Y-122595238D01*
X75041428Y-122595238D01*
X74946190Y-122642857D01*
X74898571Y-122690476D01*
X74850952Y-122785714D01*
M02*
