%TF.GenerationSoftware,KiCad,Pcbnew,(6.0.6)*%
%TF.CreationDate,2022-10-17T00:58:34+02:00*%
%TF.ProjectId,Spanner,5370616e-6e65-4722-9e6b-696361645f70,rev?*%
%TF.SameCoordinates,Original*%
%TF.FileFunction,Copper,L2,Bot*%
%TF.FilePolarity,Positive*%
%FSLAX46Y46*%
G04 Gerber Fmt 4.6, Leading zero omitted, Abs format (unit mm)*
G04 Created by KiCad (PCBNEW (6.0.6)) date 2022-10-17 00:58:34*
%MOMM*%
%LPD*%
G01*
G04 APERTURE LIST*
%TA.AperFunction,ComponentPad*%
%ADD10R,1.700000X1.700000*%
%TD*%
%TA.AperFunction,ComponentPad*%
%ADD11O,1.700000X1.700000*%
%TD*%
%TA.AperFunction,ComponentPad*%
%ADD12R,0.840000X0.840000*%
%TD*%
%TA.AperFunction,ComponentPad*%
%ADD13C,0.840000*%
%TD*%
%TA.AperFunction,ComponentPad*%
%ADD14O,1.850000X0.850000*%
%TD*%
%TA.AperFunction,ComponentPad*%
%ADD15C,2.286000*%
%TD*%
%TA.AperFunction,ViaPad*%
%ADD16C,0.600000*%
%TD*%
%TA.AperFunction,Conductor*%
%ADD17C,0.600000*%
%TD*%
%TA.AperFunction,Conductor*%
%ADD18C,0.250000*%
%TD*%
%TA.AperFunction,Conductor*%
%ADD19C,1.000000*%
%TD*%
%TA.AperFunction,Conductor*%
%ADD20C,0.800000*%
%TD*%
G04 APERTURE END LIST*
D10*
%TO.P,J5,1,Pin_1*%
%TO.N,PWM_OUT_1*%
X87750000Y-128000000D03*
D11*
%TO.P,J5,2,Pin_2*%
%TO.N,+5V*%
X85210000Y-128000000D03*
%TO.P,J5,3,Pin_3*%
%TO.N,GND*%
X82670000Y-128000000D03*
%TD*%
D10*
%TO.P,J8,1,Pin_1*%
%TO.N,+24V*%
X121000000Y-101000000D03*
D11*
%TO.P,J8,2,Pin_2*%
%TO.N,POWER_FET_OUT*%
X121000000Y-103540000D03*
%TO.P,J8,3,Pin_3*%
%TO.N,GND*%
X121000000Y-106080000D03*
%TD*%
D10*
%TO.P,J4,1,Pin_1*%
%TO.N,PWM_OUT_2*%
X97250000Y-128000000D03*
D11*
%TO.P,J4,2,Pin_2*%
%TO.N,+5V*%
X94710000Y-128000000D03*
%TO.P,J4,3,Pin_3*%
%TO.N,GND*%
X92170000Y-128000000D03*
%TD*%
D10*
%TO.P,J7,1,Pin_1*%
%TO.N,+5V*%
X118500000Y-128000000D03*
D11*
%TO.P,J7,2,Pin_2*%
%TO.N,GND*%
X115960000Y-128000000D03*
%TD*%
D12*
%TO.P,J1,1,VBUS*%
%TO.N,VBUS*%
X120530000Y-122750000D03*
D13*
%TO.P,J1,2,D-*%
%TO.N,/Main/D-*%
X121530000Y-122100000D03*
%TO.P,J1,3,D+*%
%TO.N,/Main/D+*%
X120530000Y-121450000D03*
%TO.P,J1,4,ID*%
%TO.N,unconnected-(J1-Pad4)*%
X121530000Y-120800000D03*
%TO.P,J1,5,GND*%
%TO.N,GND*%
X120530000Y-120150000D03*
D14*
%TO.P,J1,6,Shield*%
X120750000Y-125025000D03*
X120750000Y-117875000D03*
%TD*%
D10*
%TO.P,J3,1,Pin_1*%
%TO.N,Net-(J3-Pad1)*%
X121000000Y-109750000D03*
D11*
%TO.P,J3,2,Pin_2*%
%TO.N,Net-(J3-Pad2)*%
X121000000Y-112290000D03*
%TO.P,J3,3,Pin_3*%
%TO.N,Net-(J3-Pad3)*%
X121000000Y-114830000D03*
%TD*%
D10*
%TO.P,J2,1,Pin_1*%
%TO.N,+3.3V*%
X115254379Y-121212025D03*
D11*
%TO.P,J2,2,Pin_2*%
%TO.N,GND*%
X112714379Y-121212025D03*
%TO.P,J2,3,Pin_3*%
%TO.N,SWCLK*%
X115254379Y-118672025D03*
%TO.P,J2,4,Pin_4*%
%TO.N,SWDIO*%
X112714379Y-118672025D03*
%TD*%
D15*
%TO.P,U3,0*%
%TO.N,N/C*%
X89600000Y-80525000D03*
X118600000Y-92525000D03*
%TO.P,U3,1,VOUT*%
%TO.N,Net-(R11-Pad1)*%
X86300000Y-97725000D03*
%TO.P,U3,2,GND*%
%TO.N,GND*%
X88800000Y-97725000D03*
%TO.P,U3,3,VCC*%
%TO.N,+5V*%
X91300000Y-97725000D03*
%TD*%
D10*
%TO.P,J6,1,Pin_1*%
%TO.N,TTL_B_OUT*%
X101400000Y-128000000D03*
D11*
%TO.P,J6,2,Pin_2*%
%TO.N,+5V*%
X103940000Y-128000000D03*
%TO.P,J6,3,Pin_3*%
%TO.N,TTL_A_OUT*%
X106480000Y-128000000D03*
%TO.P,J6,4,Pin_4*%
%TO.N,TTL_INDEX*%
X109020000Y-128000000D03*
%TO.P,J6,5,Pin_5*%
%TO.N,GND*%
X111560000Y-128000000D03*
%TD*%
D16*
%TO.N,GND*%
X106000000Y-122250000D03*
X87750000Y-104250000D03*
X93962500Y-100750000D03*
X81750000Y-98500000D03*
X81000000Y-104500000D03*
X81750000Y-104500000D03*
X83250000Y-98500000D03*
X82282361Y-120420052D03*
X107437195Y-98902746D03*
X87750000Y-101750000D03*
X115585594Y-113060506D03*
X84000000Y-98500000D03*
X101830000Y-116580000D03*
X115250000Y-99750000D03*
X83750000Y-106500000D03*
X105250000Y-103500000D03*
X87750000Y-103000000D03*
X82500000Y-98500000D03*
X103250000Y-98000000D03*
X82500000Y-104500000D03*
X84000000Y-104500000D03*
X81000000Y-98500000D03*
X109750000Y-119000000D03*
X100000000Y-101500000D03*
X87750000Y-100500000D03*
X83250000Y-104500000D03*
X99000000Y-122250000D03*
X117500000Y-97500000D03*
X91679942Y-120420052D03*
%TO.N,+3V3*%
X109000000Y-124750000D03*
X107500000Y-115274500D03*
X103990213Y-113990213D03*
X115500000Y-101250000D03*
X108250000Y-126250000D03*
X116500000Y-101250000D03*
X102750000Y-117500000D03*
X109500000Y-126250000D03*
X101275000Y-117525000D03*
%TO.N,+5V*%
X88500000Y-123500000D03*
X98000000Y-123500000D03*
X99500000Y-100500000D03*
%TO.N,+24V*%
X115624500Y-105250000D03*
%TO.N,PWM_1*%
X109250000Y-110750000D03*
X100250000Y-118424500D03*
%TO.N,PWM_2*%
X106750000Y-110250000D03*
X99500000Y-119000000D03*
%TO.N,VOLTAGE_MEASUREMENT*%
X114000000Y-96500000D03*
X107500000Y-102750000D03*
%TO.N,RFM_DIO3*%
X100000000Y-105500500D03*
X110250000Y-105500000D03*
%TO.N,RFM_DIO0*%
X99250000Y-106000000D03*
X111250000Y-105500000D03*
%TO.N,RFM_DIO2*%
X99000000Y-107000000D03*
X107500000Y-107000000D03*
%TO.N,Net-(R5-Pad1)*%
X112250000Y-107000000D03*
X105301348Y-104699500D03*
%TD*%
D17*
%TO.N,+3V3*%
X109000000Y-119500000D02*
X109000000Y-124750000D01*
D18*
X104524500Y-115274500D02*
X107500000Y-115274500D01*
D17*
X109500000Y-126250000D02*
X109500000Y-125250000D01*
X114000000Y-114000000D02*
X114000000Y-103500000D01*
X108875000Y-119375000D02*
X108875000Y-115625000D01*
X109500000Y-125250000D02*
X109000000Y-124750000D01*
X114000000Y-102750000D02*
X114500000Y-102250000D01*
X112750000Y-115250000D02*
X113500000Y-114500000D01*
X109000000Y-119500000D02*
X108875000Y-119375000D01*
D18*
X108875000Y-115625000D02*
X108500000Y-115250000D01*
D17*
X102725000Y-117525000D02*
X102750000Y-117500000D01*
X115250000Y-101500000D02*
X115500000Y-101250000D01*
D18*
X103990213Y-113990213D02*
X103990213Y-114740213D01*
D17*
X102750000Y-117500000D02*
X107000000Y-117500000D01*
X113500000Y-114500000D02*
X114000000Y-114000000D01*
D18*
X108500000Y-115250000D02*
X107524500Y-115250000D01*
X107524500Y-115250000D02*
X107500000Y-115274500D01*
D17*
X108250000Y-125500000D02*
X109000000Y-124750000D01*
X108875000Y-115625000D02*
X109250000Y-115250000D01*
X108250000Y-126250000D02*
X108250000Y-125500000D01*
X111000000Y-115250000D02*
X112750000Y-115250000D01*
X114000000Y-103500000D02*
X114000000Y-102750000D01*
X109250000Y-115250000D02*
X111000000Y-115250000D01*
X114500000Y-102250000D02*
X115250000Y-101500000D01*
X115500000Y-101250000D02*
X116500000Y-101250000D01*
D18*
X103990213Y-114740213D02*
X104524500Y-115274500D01*
D17*
X101275000Y-117525000D02*
X102725000Y-117525000D01*
X107000000Y-117500000D02*
X109000000Y-119500000D01*
D18*
%TO.N,+5V*%
X91350000Y-99750000D02*
X91300000Y-99700000D01*
X99500000Y-100500000D02*
X99500000Y-100000000D01*
D19*
X81000000Y-128750000D02*
X82000000Y-129750000D01*
X85500000Y-129750000D02*
X89000000Y-129750000D01*
D20*
X94710000Y-128000000D02*
X94710000Y-129460000D01*
D19*
X91300000Y-99700000D02*
X91300000Y-114950000D01*
D20*
X85210000Y-128000000D02*
X85210000Y-129460000D01*
D18*
X89500000Y-129250000D02*
X89000000Y-129750000D01*
X99500000Y-100000000D02*
X99250000Y-99750000D01*
D19*
X103250000Y-129750000D02*
X104000000Y-129000000D01*
D20*
X94710000Y-129460000D02*
X95000000Y-129750000D01*
X85210000Y-129460000D02*
X85500000Y-129750000D01*
D18*
X98000000Y-123500000D02*
X99000000Y-124500000D01*
X99250000Y-99750000D02*
X91350000Y-99750000D01*
D19*
X118000000Y-129750000D02*
X118525000Y-129225000D01*
X95000000Y-129750000D02*
X99000000Y-129750000D01*
X89250000Y-117000000D02*
X83500000Y-117000000D01*
X99000000Y-129750000D02*
X103250000Y-129750000D01*
X82000000Y-129750000D02*
X85500000Y-129750000D01*
D18*
X88500000Y-123500000D02*
X89500000Y-124500000D01*
D19*
X104000000Y-128060000D02*
X103940000Y-128000000D01*
X103250000Y-129750000D02*
X118000000Y-129750000D01*
X83500000Y-117000000D02*
X81000000Y-119500000D01*
X81000000Y-119500000D02*
X81000000Y-128750000D01*
X91300000Y-114950000D02*
X89250000Y-117000000D01*
X91300000Y-97725000D02*
X91300000Y-99700000D01*
X89000000Y-129750000D02*
X95000000Y-129750000D01*
X118525000Y-129225000D02*
X118525000Y-128000000D01*
D18*
X99000000Y-124500000D02*
X99000000Y-129750000D01*
X89500000Y-124500000D02*
X89500000Y-129250000D01*
D19*
X104000000Y-129000000D02*
X104000000Y-128060000D01*
D18*
%TO.N,+24V*%
X118250000Y-101000000D02*
X117500000Y-101750000D01*
X121000000Y-101000000D02*
X118250000Y-101000000D01*
X117500000Y-104500000D02*
X116750000Y-105250000D01*
X116750000Y-105250000D02*
X115624500Y-105250000D01*
X117500000Y-101750000D02*
X117500000Y-104500000D01*
%TO.N,PWM_1*%
X100000000Y-118125500D02*
X100124500Y-118250000D01*
X101125000Y-110875000D02*
X109125000Y-110875000D01*
X100124500Y-118250000D02*
X100124500Y-118299000D01*
X100000000Y-117000000D02*
X100000000Y-118125500D01*
X109125000Y-110875000D02*
X109250000Y-110750000D01*
X100000000Y-112000000D02*
X101125000Y-110875000D01*
X100124500Y-118299000D02*
X100250000Y-118424500D01*
X100000000Y-117000000D02*
X100000000Y-112000000D01*
%TO.N,PWM_2*%
X101000000Y-110250000D02*
X106750000Y-110250000D01*
X99500000Y-119000000D02*
X99500000Y-111750000D01*
X99500000Y-111750000D02*
X101000000Y-110250000D01*
%TO.N,VOLTAGE_MEASUREMENT*%
X107500000Y-102750000D02*
X107500000Y-102500000D01*
X108000000Y-102000000D02*
X113250000Y-102000000D01*
X114000000Y-101250000D02*
X114000000Y-96500000D01*
X107500000Y-102500000D02*
X108000000Y-102000000D01*
X113250000Y-102000000D02*
X114000000Y-101250000D01*
%TO.N,RFM_DIO3*%
X100000500Y-105500000D02*
X100000000Y-105500500D01*
X110250000Y-105500000D02*
X100000500Y-105500000D01*
%TO.N,RFM_DIO0*%
X99250000Y-106000000D02*
X99375000Y-106125000D01*
X111250000Y-106000000D02*
X111250000Y-105500000D01*
X111125000Y-106125000D02*
X111250000Y-106000000D01*
X99375000Y-106125000D02*
X111125000Y-106125000D01*
%TO.N,RFM_DIO2*%
X99000000Y-107000000D02*
X107500000Y-107000000D01*
%TO.N,Net-(R5-Pad1)*%
X105301348Y-104699500D02*
X111949500Y-104699500D01*
X111949500Y-104699500D02*
X112250000Y-105000000D01*
X112250000Y-105000000D02*
X112250000Y-106500000D01*
X112250000Y-106500000D02*
X112250000Y-107000000D01*
%TD*%
%TA.AperFunction,Conductor*%
%TO.N,GND*%
G36*
X125192121Y-77528502D02*
G01*
X125238614Y-77582158D01*
X125250000Y-77634500D01*
X125250000Y-86139127D01*
X125235763Y-86197307D01*
X125160019Y-86342810D01*
X125009360Y-86706533D01*
X125008534Y-86709153D01*
X125008531Y-86709161D01*
X124891802Y-87079379D01*
X124890975Y-87082003D01*
X124805764Y-87466361D01*
X124754378Y-87856684D01*
X124754258Y-87859433D01*
X124754257Y-87859444D01*
X124738240Y-88226294D01*
X124737733Y-88231401D01*
X124737691Y-88234851D01*
X124736309Y-88243724D01*
X124737473Y-88252626D01*
X124737473Y-88252628D01*
X124740436Y-88275283D01*
X124741500Y-88291621D01*
X124741500Y-121200633D01*
X124740000Y-121220018D01*
X124737690Y-121234851D01*
X124737690Y-121234855D01*
X124736309Y-121243724D01*
X124737243Y-121250865D01*
X124737440Y-121255375D01*
X124737435Y-121255780D01*
X124737480Y-121256304D01*
X124741732Y-121353673D01*
X124753548Y-121624300D01*
X124754378Y-121643316D01*
X124765336Y-121726550D01*
X124804779Y-122026154D01*
X124805764Y-122033639D01*
X124806361Y-122036334D01*
X124806362Y-122036337D01*
X124820476Y-122100000D01*
X124890975Y-122417997D01*
X124891800Y-122420614D01*
X124891802Y-122420621D01*
X125001560Y-122768727D01*
X125009360Y-122793467D01*
X125160019Y-123157190D01*
X125193513Y-123221531D01*
X125235763Y-123302693D01*
X125250000Y-123360873D01*
X125250000Y-131615500D01*
X125229998Y-131683621D01*
X125176342Y-131730114D01*
X125124000Y-131741500D01*
X80126000Y-131741500D01*
X80057879Y-131721498D01*
X80011386Y-131667842D01*
X80000000Y-131615500D01*
X80000000Y-129473689D01*
X80020002Y-129405568D01*
X80073658Y-129359075D01*
X80143932Y-129348971D01*
X80208512Y-129378465D01*
X80224471Y-129395080D01*
X80230868Y-129403093D01*
X80246738Y-129422973D01*
X80249242Y-129425477D01*
X80249884Y-129426195D01*
X80253585Y-129430528D01*
X80280935Y-129464062D01*
X80316267Y-129493291D01*
X80325037Y-129501272D01*
X81243149Y-130419383D01*
X81252251Y-130429527D01*
X81275968Y-130459025D01*
X81280696Y-130462992D01*
X81314421Y-130491291D01*
X81318070Y-130494473D01*
X81319883Y-130496117D01*
X81322075Y-130498309D01*
X81355276Y-130525580D01*
X81356164Y-130526318D01*
X81391437Y-130555915D01*
X81422753Y-130582193D01*
X81422756Y-130582195D01*
X81427474Y-130586154D01*
X81432147Y-130588723D01*
X81436262Y-130592103D01*
X81441691Y-130595014D01*
X81441694Y-130595016D01*
X81518180Y-130636028D01*
X81519338Y-130636657D01*
X81595388Y-130678465D01*
X81600787Y-130681433D01*
X81605865Y-130683044D01*
X81610563Y-130685563D01*
X81699498Y-130712753D01*
X81700702Y-130713128D01*
X81789306Y-130741235D01*
X81794597Y-130741828D01*
X81799698Y-130743388D01*
X81892311Y-130752795D01*
X81893431Y-130752915D01*
X81943227Y-130758500D01*
X81946756Y-130758500D01*
X81947739Y-130758555D01*
X81953426Y-130759003D01*
X81973683Y-130761060D01*
X81990336Y-130762752D01*
X81990339Y-130762752D01*
X81996463Y-130763374D01*
X82042112Y-130759059D01*
X82053969Y-130758500D01*
X103188157Y-130758500D01*
X103201764Y-130759237D01*
X103233262Y-130762659D01*
X103233267Y-130762659D01*
X103239388Y-130763324D01*
X103287211Y-130759140D01*
X103289053Y-130758979D01*
X103300034Y-130758500D01*
X117938157Y-130758500D01*
X117951764Y-130759237D01*
X117983262Y-130762659D01*
X117983267Y-130762659D01*
X117989388Y-130763324D01*
X118015638Y-130761027D01*
X118039388Y-130758950D01*
X118044214Y-130758621D01*
X118046686Y-130758500D01*
X118049769Y-130758500D01*
X118061738Y-130757326D01*
X118092506Y-130754310D01*
X118093819Y-130754188D01*
X118138084Y-130750315D01*
X118186413Y-130746087D01*
X118191532Y-130744600D01*
X118196833Y-130744080D01*
X118285834Y-130717209D01*
X118286967Y-130716874D01*
X118370414Y-130692630D01*
X118370418Y-130692628D01*
X118376336Y-130690909D01*
X118381068Y-130688456D01*
X118386169Y-130686916D01*
X118398360Y-130680434D01*
X118468260Y-130643269D01*
X118469426Y-130642657D01*
X118546453Y-130602729D01*
X118551926Y-130599892D01*
X118556089Y-130596569D01*
X118560796Y-130594066D01*
X118566997Y-130589009D01*
X118575354Y-130582193D01*
X118632918Y-130535245D01*
X118633774Y-130534554D01*
X118672973Y-130503262D01*
X118675477Y-130500758D01*
X118676195Y-130500116D01*
X118680528Y-130496415D01*
X118714062Y-130469065D01*
X118743294Y-130433730D01*
X118751271Y-130424964D01*
X119194383Y-129981851D01*
X119204527Y-129972749D01*
X119229218Y-129952897D01*
X119234025Y-129949032D01*
X119266292Y-129910578D01*
X119269472Y-129906931D01*
X119271115Y-129905119D01*
X119273309Y-129902925D01*
X119300642Y-129869651D01*
X119301348Y-129868800D01*
X119357195Y-129802244D01*
X119361154Y-129797526D01*
X119363722Y-129792856D01*
X119367103Y-129788739D01*
X119410977Y-129706914D01*
X119411606Y-129705755D01*
X119453462Y-129629619D01*
X119453465Y-129629611D01*
X119456433Y-129624213D01*
X119458045Y-129619131D01*
X119460562Y-129614437D01*
X119487762Y-129525469D01*
X119488108Y-129524358D01*
X119496765Y-129497071D01*
X119516235Y-129435694D01*
X119516829Y-129430398D01*
X119518387Y-129425302D01*
X119519010Y-129419171D01*
X119519011Y-129419165D01*
X119520643Y-129403093D01*
X119547426Y-129337342D01*
X119585488Y-129305305D01*
X119588297Y-129303767D01*
X119596705Y-129300615D01*
X119713261Y-129213261D01*
X119800615Y-129096705D01*
X119851745Y-128960316D01*
X119858500Y-128898134D01*
X119858500Y-127101866D01*
X119851745Y-127039684D01*
X119800615Y-126903295D01*
X119713261Y-126786739D01*
X119596705Y-126699385D01*
X119460316Y-126648255D01*
X119398134Y-126641500D01*
X117601866Y-126641500D01*
X117539684Y-126648255D01*
X117403295Y-126699385D01*
X117286739Y-126786739D01*
X117199385Y-126903295D01*
X117196233Y-126911703D01*
X117196232Y-126911705D01*
X117154722Y-127022433D01*
X117112081Y-127079198D01*
X117045519Y-127103898D01*
X116976170Y-127088691D01*
X116943546Y-127063004D01*
X116892799Y-127007234D01*
X116885273Y-127000215D01*
X116718139Y-126868222D01*
X116709552Y-126862517D01*
X116523117Y-126759599D01*
X116513705Y-126755369D01*
X116312959Y-126684280D01*
X116302988Y-126681646D01*
X116231837Y-126668972D01*
X116218540Y-126670432D01*
X116214000Y-126684989D01*
X116214000Y-128128000D01*
X116193998Y-128196121D01*
X116140342Y-128242614D01*
X116088000Y-128254000D01*
X114643225Y-128254000D01*
X114629694Y-128257973D01*
X114628257Y-128267966D01*
X114658565Y-128402446D01*
X114661645Y-128412275D01*
X114724916Y-128568096D01*
X114732012Y-128638737D01*
X114699790Y-128702001D01*
X114638480Y-128737801D01*
X114608173Y-128741500D01*
X112911232Y-128741500D01*
X112843111Y-128721498D01*
X112796618Y-128667842D01*
X112786514Y-128597568D01*
X112798275Y-128559672D01*
X112824672Y-128506262D01*
X112828469Y-128496672D01*
X112890377Y-128292910D01*
X112892555Y-128282837D01*
X112893986Y-128271962D01*
X112891775Y-128257778D01*
X112878617Y-128254000D01*
X111432000Y-128254000D01*
X111363879Y-128233998D01*
X111317386Y-128180342D01*
X111306000Y-128128000D01*
X111306000Y-127727885D01*
X111814000Y-127727885D01*
X111818475Y-127743124D01*
X111819865Y-127744329D01*
X111827548Y-127746000D01*
X112878344Y-127746000D01*
X112891875Y-127742027D01*
X112893002Y-127734183D01*
X114624389Y-127734183D01*
X114625912Y-127742607D01*
X114638292Y-127746000D01*
X115687885Y-127746000D01*
X115703124Y-127741525D01*
X115704329Y-127740135D01*
X115706000Y-127732452D01*
X115706000Y-126683102D01*
X115702082Y-126669758D01*
X115687806Y-126667771D01*
X115649324Y-126673660D01*
X115639288Y-126676051D01*
X115436868Y-126742212D01*
X115427359Y-126746209D01*
X115238463Y-126844542D01*
X115229738Y-126850036D01*
X115059433Y-126977905D01*
X115051726Y-126984748D01*
X114904590Y-127138717D01*
X114898104Y-127146727D01*
X114778098Y-127322649D01*
X114773000Y-127331623D01*
X114683338Y-127524783D01*
X114679775Y-127534470D01*
X114624389Y-127734183D01*
X112893002Y-127734183D01*
X112893180Y-127732947D01*
X112851214Y-127565875D01*
X112847894Y-127556124D01*
X112762972Y-127360814D01*
X112758105Y-127351739D01*
X112642426Y-127172926D01*
X112636136Y-127164757D01*
X112492806Y-127007240D01*
X112485273Y-127000215D01*
X112318139Y-126868222D01*
X112309552Y-126862517D01*
X112123117Y-126759599D01*
X112113705Y-126755369D01*
X111912959Y-126684280D01*
X111902988Y-126681646D01*
X111831837Y-126668972D01*
X111818540Y-126670432D01*
X111814000Y-126684989D01*
X111814000Y-127727885D01*
X111306000Y-127727885D01*
X111306000Y-126683102D01*
X111302082Y-126669758D01*
X111287806Y-126667771D01*
X111249324Y-126673660D01*
X111239288Y-126676051D01*
X111036868Y-126742212D01*
X111027359Y-126746209D01*
X110838463Y-126844542D01*
X110829738Y-126850036D01*
X110659433Y-126977905D01*
X110651726Y-126984748D01*
X110504590Y-127138717D01*
X110498109Y-127146722D01*
X110393498Y-127300074D01*
X110338587Y-127345076D01*
X110268062Y-127353247D01*
X110204315Y-127321993D01*
X110183618Y-127297509D01*
X110102822Y-127172617D01*
X110102820Y-127172614D01*
X110100014Y-127168277D01*
X110096538Y-127164457D01*
X110096533Y-127164450D01*
X110001713Y-127060244D01*
X109970661Y-126996398D01*
X109979057Y-126925900D01*
X110006750Y-126885421D01*
X110061032Y-126832265D01*
X110062296Y-126831044D01*
X110118165Y-126777840D01*
X110118166Y-126777838D01*
X110123266Y-126772982D01*
X110126427Y-126768225D01*
X110130507Y-126764229D01*
X110134321Y-126758311D01*
X110134325Y-126758306D01*
X110176124Y-126693447D01*
X110177087Y-126691975D01*
X110219743Y-126627773D01*
X110219745Y-126627768D01*
X110223643Y-126621902D01*
X110225671Y-126616562D01*
X110228765Y-126611762D01*
X110257526Y-126532740D01*
X110258136Y-126531100D01*
X110285552Y-126458929D01*
X110285554Y-126458923D01*
X110288055Y-126452338D01*
X110288850Y-126446680D01*
X110290803Y-126441315D01*
X110301349Y-126357839D01*
X110301580Y-126356104D01*
X110304740Y-126333617D01*
X110313299Y-126272717D01*
X110313616Y-126250000D01*
X110309285Y-126211388D01*
X110308500Y-126197343D01*
X110308500Y-125293468D01*
X119353221Y-125293468D01*
X119356405Y-125308444D01*
X119360462Y-125320932D01*
X119434863Y-125488039D01*
X119441429Y-125499411D01*
X119548944Y-125647394D01*
X119557735Y-125657157D01*
X119693672Y-125779554D01*
X119704291Y-125787270D01*
X119862711Y-125878734D01*
X119874700Y-125884072D01*
X120048671Y-125940598D01*
X120061514Y-125943328D01*
X120197838Y-125957656D01*
X120204397Y-125958000D01*
X120477885Y-125958000D01*
X120493124Y-125953525D01*
X120494329Y-125952135D01*
X120496000Y-125944452D01*
X120496000Y-125939885D01*
X121004000Y-125939885D01*
X121008475Y-125955124D01*
X121009865Y-125956329D01*
X121017548Y-125958000D01*
X121295603Y-125958000D01*
X121302162Y-125957656D01*
X121438486Y-125943328D01*
X121451329Y-125940598D01*
X121625300Y-125884072D01*
X121637289Y-125878734D01*
X121795709Y-125787270D01*
X121806328Y-125779554D01*
X121942265Y-125657157D01*
X121951056Y-125647394D01*
X122058571Y-125499412D01*
X122065137Y-125488040D01*
X122139538Y-125320932D01*
X122143595Y-125308444D01*
X122146088Y-125296720D01*
X122145015Y-125282659D01*
X122135059Y-125279000D01*
X121022115Y-125279000D01*
X121006876Y-125283475D01*
X121005671Y-125284865D01*
X121004000Y-125292548D01*
X121004000Y-125939885D01*
X120496000Y-125939885D01*
X120496000Y-125297115D01*
X120491525Y-125281876D01*
X120490135Y-125280671D01*
X120482452Y-125279000D01*
X119368261Y-125279000D01*
X119354730Y-125282973D01*
X119353221Y-125293468D01*
X110308500Y-125293468D01*
X110308500Y-125259214D01*
X110308507Y-125257894D01*
X110309377Y-125174826D01*
X110309451Y-125167779D01*
X110300289Y-125125403D01*
X110298230Y-125112832D01*
X110296414Y-125096637D01*
X110293397Y-125069745D01*
X110282367Y-125038070D01*
X110278204Y-125023258D01*
X110272609Y-124997381D01*
X110271119Y-124990490D01*
X110252792Y-124951187D01*
X110248010Y-124939411D01*
X110233745Y-124898448D01*
X110230010Y-124892470D01*
X110215973Y-124870005D01*
X110208634Y-124856488D01*
X110197441Y-124832486D01*
X110197440Y-124832485D01*
X110194462Y-124826098D01*
X110185539Y-124814594D01*
X110167894Y-124791847D01*
X110160598Y-124781388D01*
X110143035Y-124753280D01*
X119353912Y-124753280D01*
X119354985Y-124767341D01*
X119364941Y-124771000D01*
X120477885Y-124771000D01*
X120493124Y-124766525D01*
X120494329Y-124765135D01*
X120496000Y-124757452D01*
X120496000Y-124752885D01*
X121004000Y-124752885D01*
X121008475Y-124768124D01*
X121009865Y-124769329D01*
X121017548Y-124771000D01*
X122131739Y-124771000D01*
X122145270Y-124767027D01*
X122146779Y-124756532D01*
X122143595Y-124741556D01*
X122139538Y-124729068D01*
X122065137Y-124561961D01*
X122058571Y-124550589D01*
X121951056Y-124402606D01*
X121942265Y-124392843D01*
X121806328Y-124270446D01*
X121795709Y-124262730D01*
X121637289Y-124171266D01*
X121625300Y-124165928D01*
X121451329Y-124109402D01*
X121438486Y-124106672D01*
X121302162Y-124092344D01*
X121295603Y-124092000D01*
X121022115Y-124092000D01*
X121006876Y-124096475D01*
X121005671Y-124097865D01*
X121004000Y-124105548D01*
X121004000Y-124752885D01*
X120496000Y-124752885D01*
X120496000Y-124110115D01*
X120491525Y-124094876D01*
X120490135Y-124093671D01*
X120482452Y-124092000D01*
X120204397Y-124092000D01*
X120197838Y-124092344D01*
X120061514Y-124106672D01*
X120048671Y-124109402D01*
X119874700Y-124165928D01*
X119862711Y-124171266D01*
X119704291Y-124262730D01*
X119693672Y-124270446D01*
X119557735Y-124392843D01*
X119548944Y-124402606D01*
X119441429Y-124550588D01*
X119434863Y-124561960D01*
X119360462Y-124729068D01*
X119356405Y-124741556D01*
X119353912Y-124753280D01*
X110143035Y-124753280D01*
X110141358Y-124750596D01*
X110141356Y-124750593D01*
X110137626Y-124744624D01*
X110129369Y-124736309D01*
X110109024Y-124715821D01*
X110108439Y-124715196D01*
X110107922Y-124714530D01*
X110081932Y-124688540D01*
X110009815Y-124615918D01*
X110008778Y-124615260D01*
X110007549Y-124614157D01*
X109845405Y-124452013D01*
X109811379Y-124389701D01*
X109808500Y-124362918D01*
X109808500Y-121479991D01*
X111382636Y-121479991D01*
X111412944Y-121614471D01*
X111416024Y-121624300D01*
X111496149Y-121821628D01*
X111500792Y-121830819D01*
X111612073Y-122012413D01*
X111618156Y-122020724D01*
X111757592Y-122181692D01*
X111764959Y-122188908D01*
X111928813Y-122324941D01*
X111937260Y-122330856D01*
X112121135Y-122438304D01*
X112130421Y-122442754D01*
X112329380Y-122518728D01*
X112339278Y-122521604D01*
X112442629Y-122542631D01*
X112456678Y-122541435D01*
X112460379Y-122531090D01*
X112460379Y-121484140D01*
X112455904Y-121468901D01*
X112454514Y-121467696D01*
X112446831Y-121466025D01*
X111397604Y-121466025D01*
X111384073Y-121469998D01*
X111382636Y-121479991D01*
X109808500Y-121479991D01*
X109808500Y-119509260D01*
X109808507Y-119507941D01*
X109809377Y-119424826D01*
X109809451Y-119417779D01*
X109800289Y-119375403D01*
X109798230Y-119362832D01*
X109796488Y-119347297D01*
X109793397Y-119319745D01*
X109782367Y-119288070D01*
X109778204Y-119273258D01*
X109772609Y-119247381D01*
X109771119Y-119240490D01*
X109752793Y-119201189D01*
X109748008Y-119189406D01*
X109733745Y-119148448D01*
X109715979Y-119120016D01*
X109708640Y-119106499D01*
X109695306Y-119077905D01*
X109683500Y-119024654D01*
X109683500Y-118638720D01*
X111351630Y-118638720D01*
X111351927Y-118643873D01*
X111351927Y-118643876D01*
X111357390Y-118738615D01*
X111364489Y-118861740D01*
X111365626Y-118866786D01*
X111365627Y-118866792D01*
X111382489Y-118941611D01*
X111413601Y-119079664D01*
X111497645Y-119286641D01*
X111534815Y-119347297D01*
X111611670Y-119472713D01*
X111614366Y-119477113D01*
X111760629Y-119645963D01*
X111845225Y-119716196D01*
X111927420Y-119784435D01*
X111932505Y-119788657D01*
X111973320Y-119812507D01*
X112006334Y-119831799D01*
X112055058Y-119883437D01*
X112068129Y-119953220D01*
X112041398Y-120018992D01*
X112000941Y-120052352D01*
X111992836Y-120056571D01*
X111984117Y-120062061D01*
X111813812Y-120189930D01*
X111806105Y-120196773D01*
X111658969Y-120350742D01*
X111652483Y-120358752D01*
X111532477Y-120534674D01*
X111527379Y-120543648D01*
X111437717Y-120736808D01*
X111434154Y-120746495D01*
X111378768Y-120946208D01*
X111380291Y-120954632D01*
X111392671Y-120958025D01*
X112842379Y-120958025D01*
X112910500Y-120978027D01*
X112956993Y-121031683D01*
X112968379Y-121084025D01*
X112968379Y-122530542D01*
X112972443Y-122544384D01*
X112985857Y-122546418D01*
X112992563Y-122545559D01*
X113002641Y-122543417D01*
X113206634Y-122482216D01*
X113216221Y-122478458D01*
X113407474Y-122384764D01*
X113416324Y-122379489D01*
X113589707Y-122255817D01*
X113597572Y-122249170D01*
X113702276Y-122144830D01*
X113764647Y-122110914D01*
X113835454Y-122116102D01*
X113892216Y-122158748D01*
X113909198Y-122189851D01*
X113953764Y-122308730D01*
X114041118Y-122425286D01*
X114157674Y-122512640D01*
X114294063Y-122563770D01*
X114356245Y-122570525D01*
X116152513Y-122570525D01*
X116214695Y-122563770D01*
X116351084Y-122512640D01*
X116467640Y-122425286D01*
X116554994Y-122308730D01*
X116606124Y-122172341D01*
X116612879Y-122110159D01*
X116612879Y-121450000D01*
X119596386Y-121450000D01*
X119597076Y-121456565D01*
X119606511Y-121546327D01*
X119616788Y-121644109D01*
X119677101Y-121829735D01*
X119680404Y-121835457D01*
X119680405Y-121835458D01*
X119710503Y-121887589D01*
X119727241Y-121956584D01*
X119702210Y-122026154D01*
X119659385Y-122083295D01*
X119608255Y-122219684D01*
X119601500Y-122281866D01*
X119601500Y-123218134D01*
X119608255Y-123280316D01*
X119659385Y-123416705D01*
X119746739Y-123533261D01*
X119863295Y-123620615D01*
X119999684Y-123671745D01*
X120061866Y-123678500D01*
X120998134Y-123678500D01*
X121060316Y-123671745D01*
X121196705Y-123620615D01*
X121313261Y-123533261D01*
X121400615Y-123416705D01*
X121451745Y-123280316D01*
X121458500Y-123218134D01*
X121458500Y-123154500D01*
X121478502Y-123086379D01*
X121532158Y-123039886D01*
X121584500Y-123028500D01*
X121627589Y-123028500D01*
X121634042Y-123027128D01*
X121634046Y-123027128D01*
X121723046Y-123008210D01*
X121818503Y-122987920D01*
X121834398Y-122980843D01*
X121990777Y-122911218D01*
X121990779Y-122911217D01*
X121996807Y-122908533D01*
X122060658Y-122862143D01*
X122149371Y-122797689D01*
X122154710Y-122793810D01*
X122173893Y-122772506D01*
X122280891Y-122653673D01*
X122280892Y-122653672D01*
X122285310Y-122648765D01*
X122358726Y-122521604D01*
X122379595Y-122485458D01*
X122379596Y-122485457D01*
X122382899Y-122479735D01*
X122436127Y-122315916D01*
X122441172Y-122300388D01*
X122441172Y-122300387D01*
X122443212Y-122294109D01*
X122463614Y-122100000D01*
X122454408Y-122012413D01*
X122443902Y-121912455D01*
X122443902Y-121912454D01*
X122443212Y-121905891D01*
X122437266Y-121887589D01*
X122384941Y-121726550D01*
X122382899Y-121720265D01*
X122285310Y-121551235D01*
X122270072Y-121534311D01*
X122239354Y-121470305D01*
X122248117Y-121399851D01*
X122270072Y-121365688D01*
X122280891Y-121353673D01*
X122280892Y-121353672D01*
X122285310Y-121348765D01*
X122359642Y-121220018D01*
X122379595Y-121185458D01*
X122379596Y-121185457D01*
X122382899Y-121179735D01*
X122443212Y-120994109D01*
X122453490Y-120896327D01*
X122462924Y-120806565D01*
X122463614Y-120800000D01*
X122454713Y-120715316D01*
X122443902Y-120612455D01*
X122443902Y-120612454D01*
X122443212Y-120605891D01*
X122416866Y-120524804D01*
X122384941Y-120426550D01*
X122382899Y-120420265D01*
X122285310Y-120251235D01*
X122270204Y-120234458D01*
X122159125Y-120111093D01*
X122159123Y-120111092D01*
X122154710Y-120106190D01*
X122013661Y-120003712D01*
X122002149Y-119995348D01*
X122002148Y-119995347D01*
X121996807Y-119991467D01*
X121990779Y-119988783D01*
X121990777Y-119988782D01*
X121824534Y-119914765D01*
X121824532Y-119914764D01*
X121818503Y-119912080D01*
X121700897Y-119887082D01*
X121634046Y-119872872D01*
X121634042Y-119872872D01*
X121627589Y-119871500D01*
X121506811Y-119871500D01*
X121438690Y-119851498D01*
X121392197Y-119797842D01*
X121386977Y-119784435D01*
X121384479Y-119776748D01*
X121379136Y-119764746D01*
X121349881Y-119714075D01*
X121339675Y-119704344D01*
X121331654Y-119707556D01*
X121013709Y-120025501D01*
X120998675Y-120038342D01*
X120905290Y-120106190D01*
X120900877Y-120111092D01*
X120900875Y-120111093D01*
X120803482Y-120219259D01*
X120774690Y-120251235D01*
X120771390Y-120256950D01*
X120771389Y-120256952D01*
X120764836Y-120268303D01*
X120744811Y-120294399D01*
X120619095Y-120420115D01*
X120556783Y-120454141D01*
X120485968Y-120449076D01*
X120440905Y-120420115D01*
X119731989Y-119711199D01*
X119719609Y-119704439D01*
X119712694Y-119709615D01*
X119680864Y-119764746D01*
X119675518Y-119776754D01*
X119619319Y-119949716D01*
X119616589Y-119962559D01*
X119597578Y-120143435D01*
X119597578Y-120156565D01*
X119616589Y-120337441D01*
X119619319Y-120350284D01*
X119675518Y-120523246D01*
X119680864Y-120535254D01*
X119771793Y-120692747D01*
X119779517Y-120703378D01*
X119790266Y-120715316D01*
X119820983Y-120779324D01*
X119812218Y-120849777D01*
X119790266Y-120883936D01*
X119774690Y-120901235D01*
X119677101Y-121070265D01*
X119616788Y-121255891D01*
X119616098Y-121262454D01*
X119616098Y-121262455D01*
X119605248Y-121365688D01*
X119596386Y-121450000D01*
X116612879Y-121450000D01*
X116612879Y-120313891D01*
X116606124Y-120251709D01*
X116554994Y-120115320D01*
X116467640Y-119998764D01*
X116351084Y-119911410D01*
X116324284Y-119901363D01*
X116232582Y-119866985D01*
X116175818Y-119824343D01*
X116151118Y-119757781D01*
X116166326Y-119688433D01*
X116187872Y-119659752D01*
X116205630Y-119642056D01*
X116292475Y-119555514D01*
X116315852Y-119522982D01*
X116419814Y-119378302D01*
X116422832Y-119374102D01*
X116427176Y-119365314D01*
X116440565Y-119338223D01*
X120081473Y-119338223D01*
X120083070Y-119343860D01*
X120517188Y-119777978D01*
X120531132Y-119785592D01*
X120532965Y-119785461D01*
X120539580Y-119781210D01*
X120971520Y-119349270D01*
X120978280Y-119336890D01*
X120974769Y-119332201D01*
X120824383Y-119265245D01*
X120811887Y-119261185D01*
X120633994Y-119223372D01*
X120620934Y-119222000D01*
X120439066Y-119222000D01*
X120426006Y-119223372D01*
X120248113Y-119261185D01*
X120235617Y-119265245D01*
X120092219Y-119329089D01*
X120081473Y-119338223D01*
X116440565Y-119338223D01*
X116519515Y-119178478D01*
X116519516Y-119178476D01*
X116521809Y-119173836D01*
X116586749Y-118960094D01*
X116615908Y-118738615D01*
X116616019Y-118734072D01*
X116617453Y-118675390D01*
X116617453Y-118675386D01*
X116617535Y-118672025D01*
X116599231Y-118449386D01*
X116544810Y-118232727D01*
X116505999Y-118143468D01*
X119353221Y-118143468D01*
X119356405Y-118158444D01*
X119360462Y-118170932D01*
X119434863Y-118338039D01*
X119441429Y-118349411D01*
X119548944Y-118497394D01*
X119557735Y-118507157D01*
X119693672Y-118629554D01*
X119704291Y-118637270D01*
X119862711Y-118728734D01*
X119874700Y-118734072D01*
X120048671Y-118790598D01*
X120061514Y-118793328D01*
X120197838Y-118807656D01*
X120204397Y-118808000D01*
X120477885Y-118808000D01*
X120493124Y-118803525D01*
X120494329Y-118802135D01*
X120496000Y-118794452D01*
X120496000Y-118789885D01*
X121004000Y-118789885D01*
X121008475Y-118805124D01*
X121009865Y-118806329D01*
X121017548Y-118808000D01*
X121295603Y-118808000D01*
X121302162Y-118807656D01*
X121438486Y-118793328D01*
X121451329Y-118790598D01*
X121625300Y-118734072D01*
X121637289Y-118728734D01*
X121795709Y-118637270D01*
X121806328Y-118629554D01*
X121942265Y-118507157D01*
X121951056Y-118497394D01*
X122058571Y-118349412D01*
X122065137Y-118338040D01*
X122139538Y-118170932D01*
X122143595Y-118158444D01*
X122146088Y-118146720D01*
X122145015Y-118132659D01*
X122135059Y-118129000D01*
X121022115Y-118129000D01*
X121006876Y-118133475D01*
X121005671Y-118134865D01*
X121004000Y-118142548D01*
X121004000Y-118789885D01*
X120496000Y-118789885D01*
X120496000Y-118147115D01*
X120491525Y-118131876D01*
X120490135Y-118130671D01*
X120482452Y-118129000D01*
X119368261Y-118129000D01*
X119354730Y-118132973D01*
X119353221Y-118143468D01*
X116505999Y-118143468D01*
X116455733Y-118027865D01*
X116397687Y-117938139D01*
X116337201Y-117844642D01*
X116337199Y-117844639D01*
X116334393Y-117840302D01*
X116184049Y-117675076D01*
X116179998Y-117671877D01*
X116179994Y-117671873D01*
X116093141Y-117603280D01*
X119353912Y-117603280D01*
X119354985Y-117617341D01*
X119364941Y-117621000D01*
X120477885Y-117621000D01*
X120493124Y-117616525D01*
X120494329Y-117615135D01*
X120496000Y-117607452D01*
X120496000Y-117602885D01*
X121004000Y-117602885D01*
X121008475Y-117618124D01*
X121009865Y-117619329D01*
X121017548Y-117621000D01*
X122131739Y-117621000D01*
X122145270Y-117617027D01*
X122146779Y-117606532D01*
X122143595Y-117591556D01*
X122139538Y-117579068D01*
X122065137Y-117411961D01*
X122058571Y-117400589D01*
X121951056Y-117252606D01*
X121942265Y-117242843D01*
X121806328Y-117120446D01*
X121795709Y-117112730D01*
X121637289Y-117021266D01*
X121625300Y-117015928D01*
X121451329Y-116959402D01*
X121438486Y-116956672D01*
X121302162Y-116942344D01*
X121295603Y-116942000D01*
X121022115Y-116942000D01*
X121006876Y-116946475D01*
X121005671Y-116947865D01*
X121004000Y-116955548D01*
X121004000Y-117602885D01*
X120496000Y-117602885D01*
X120496000Y-116960115D01*
X120491525Y-116944876D01*
X120490135Y-116943671D01*
X120482452Y-116942000D01*
X120204397Y-116942000D01*
X120197838Y-116942344D01*
X120061514Y-116956672D01*
X120048671Y-116959402D01*
X119874700Y-117015928D01*
X119862711Y-117021266D01*
X119704291Y-117112730D01*
X119693672Y-117120446D01*
X119557735Y-117242843D01*
X119548944Y-117252606D01*
X119441429Y-117400588D01*
X119434863Y-117411960D01*
X119360462Y-117579068D01*
X119356405Y-117591556D01*
X119353912Y-117603280D01*
X116093141Y-117603280D01*
X116012793Y-117539825D01*
X116012789Y-117539823D01*
X116008738Y-117536623D01*
X115813168Y-117428663D01*
X115808299Y-117426939D01*
X115808295Y-117426937D01*
X115607466Y-117355820D01*
X115607462Y-117355819D01*
X115602591Y-117354094D01*
X115597498Y-117353187D01*
X115597495Y-117353186D01*
X115387752Y-117315825D01*
X115387746Y-117315824D01*
X115382663Y-117314919D01*
X115308831Y-117314017D01*
X115164460Y-117312253D01*
X115164458Y-117312253D01*
X115159290Y-117312190D01*
X114938470Y-117345980D01*
X114726135Y-117415382D01*
X114527986Y-117518532D01*
X114523853Y-117521635D01*
X114523850Y-117521637D01*
X114391511Y-117621000D01*
X114349344Y-117652660D01*
X114195008Y-117814163D01*
X114087580Y-117971646D01*
X114032672Y-118016646D01*
X113962147Y-118024817D01*
X113898400Y-117993563D01*
X113877703Y-117969079D01*
X113797201Y-117844642D01*
X113797199Y-117844639D01*
X113794393Y-117840302D01*
X113644049Y-117675076D01*
X113639998Y-117671877D01*
X113639994Y-117671873D01*
X113472793Y-117539825D01*
X113472789Y-117539823D01*
X113468738Y-117536623D01*
X113273168Y-117428663D01*
X113268299Y-117426939D01*
X113268295Y-117426937D01*
X113067466Y-117355820D01*
X113067462Y-117355819D01*
X113062591Y-117354094D01*
X113057498Y-117353187D01*
X113057495Y-117353186D01*
X112847752Y-117315825D01*
X112847746Y-117315824D01*
X112842663Y-117314919D01*
X112768831Y-117314017D01*
X112624460Y-117312253D01*
X112624458Y-117312253D01*
X112619290Y-117312190D01*
X112398470Y-117345980D01*
X112186135Y-117415382D01*
X111987986Y-117518532D01*
X111983853Y-117521635D01*
X111983850Y-117521637D01*
X111851511Y-117621000D01*
X111809344Y-117652660D01*
X111655008Y-117814163D01*
X111652099Y-117818428D01*
X111652093Y-117818436D01*
X111573246Y-117934022D01*
X111529122Y-117998705D01*
X111513382Y-118032615D01*
X111460233Y-118147115D01*
X111435067Y-118201330D01*
X111375368Y-118416595D01*
X111351630Y-118638720D01*
X109683500Y-118638720D01*
X109683500Y-116184500D01*
X109703502Y-116116379D01*
X109757158Y-116069886D01*
X109809500Y-116058500D01*
X112740786Y-116058500D01*
X112742106Y-116058507D01*
X112832221Y-116059451D01*
X112874597Y-116050289D01*
X112887163Y-116048231D01*
X112930255Y-116043397D01*
X112936906Y-116041081D01*
X112936910Y-116041080D01*
X112961930Y-116032367D01*
X112976742Y-116028204D01*
X113002619Y-116022609D01*
X113009510Y-116021119D01*
X113048813Y-116002792D01*
X113060589Y-115998010D01*
X113101552Y-115983745D01*
X113107527Y-115980011D01*
X113107530Y-115980010D01*
X113129995Y-115965973D01*
X113143512Y-115958634D01*
X113167514Y-115947441D01*
X113167515Y-115947440D01*
X113173902Y-115944462D01*
X113208153Y-115917894D01*
X113218612Y-115910598D01*
X113249404Y-115891358D01*
X113249407Y-115891356D01*
X113255376Y-115887626D01*
X113267387Y-115875699D01*
X113284179Y-115859024D01*
X113284804Y-115858439D01*
X113285470Y-115857922D01*
X113311460Y-115831932D01*
X113384082Y-115759815D01*
X113384740Y-115758778D01*
X113385843Y-115757549D01*
X114346697Y-114796695D01*
X119637251Y-114796695D01*
X119637548Y-114801848D01*
X119637548Y-114801851D01*
X119642979Y-114896033D01*
X119650110Y-115019715D01*
X119651247Y-115024761D01*
X119651248Y-115024767D01*
X119658689Y-115057784D01*
X119699222Y-115237639D01*
X119783266Y-115444616D01*
X119827797Y-115517284D01*
X119895598Y-115627925D01*
X119899987Y-115635088D01*
X120046250Y-115803938D01*
X120218126Y-115946632D01*
X120411000Y-116059338D01*
X120415825Y-116061180D01*
X120415826Y-116061181D01*
X120423072Y-116063948D01*
X120619692Y-116139030D01*
X120624760Y-116140061D01*
X120624763Y-116140062D01*
X120732017Y-116161883D01*
X120838597Y-116183567D01*
X120843772Y-116183757D01*
X120843774Y-116183757D01*
X121056673Y-116191564D01*
X121056677Y-116191564D01*
X121061837Y-116191753D01*
X121066957Y-116191097D01*
X121066959Y-116191097D01*
X121278288Y-116164025D01*
X121278289Y-116164025D01*
X121283416Y-116163368D01*
X121315038Y-116153881D01*
X121492429Y-116100661D01*
X121492434Y-116100659D01*
X121497384Y-116099174D01*
X121697994Y-116000896D01*
X121879860Y-115871173D01*
X121893158Y-115857922D01*
X121993882Y-115757549D01*
X122038096Y-115713489D01*
X122046335Y-115702024D01*
X122165435Y-115536277D01*
X122168453Y-115532077D01*
X122173174Y-115522526D01*
X122265136Y-115336453D01*
X122265137Y-115336451D01*
X122267430Y-115331811D01*
X122299900Y-115224940D01*
X122330865Y-115123023D01*
X122330865Y-115123021D01*
X122332370Y-115118069D01*
X122361529Y-114896590D01*
X122363156Y-114830000D01*
X122344852Y-114607361D01*
X122290431Y-114390702D01*
X122201354Y-114185840D01*
X122137067Y-114086467D01*
X122082822Y-114002617D01*
X122082820Y-114002614D01*
X122080014Y-113998277D01*
X121929670Y-113833051D01*
X121925619Y-113829852D01*
X121925615Y-113829848D01*
X121758414Y-113697800D01*
X121758410Y-113697798D01*
X121754359Y-113694598D01*
X121713053Y-113671796D01*
X121663084Y-113621364D01*
X121648312Y-113551921D01*
X121673428Y-113485516D01*
X121700780Y-113458909D01*
X121744603Y-113427650D01*
X121879860Y-113331173D01*
X122038096Y-113173489D01*
X122097594Y-113090689D01*
X122165435Y-112996277D01*
X122168453Y-112992077D01*
X122267430Y-112791811D01*
X122332370Y-112578069D01*
X122361529Y-112356590D01*
X122363156Y-112290000D01*
X122344852Y-112067361D01*
X122290431Y-111850702D01*
X122201354Y-111645840D01*
X122147633Y-111562800D01*
X122082822Y-111462617D01*
X122082820Y-111462614D01*
X122080014Y-111458277D01*
X122076532Y-111454450D01*
X121932798Y-111296488D01*
X121901746Y-111232642D01*
X121910141Y-111162143D01*
X121955317Y-111107375D01*
X121981761Y-111093706D01*
X122088297Y-111053767D01*
X122096705Y-111050615D01*
X122213261Y-110963261D01*
X122300615Y-110846705D01*
X122351745Y-110710316D01*
X122358500Y-110648134D01*
X122358500Y-108851866D01*
X122351745Y-108789684D01*
X122300615Y-108653295D01*
X122213261Y-108536739D01*
X122096705Y-108449385D01*
X121960316Y-108398255D01*
X121898134Y-108391500D01*
X120101866Y-108391500D01*
X120039684Y-108398255D01*
X119903295Y-108449385D01*
X119786739Y-108536739D01*
X119699385Y-108653295D01*
X119648255Y-108789684D01*
X119641500Y-108851866D01*
X119641500Y-110648134D01*
X119648255Y-110710316D01*
X119699385Y-110846705D01*
X119786739Y-110963261D01*
X119903295Y-111050615D01*
X119911704Y-111053767D01*
X119911705Y-111053768D01*
X120020451Y-111094535D01*
X120077216Y-111137176D01*
X120101916Y-111203738D01*
X120086709Y-111273087D01*
X120067316Y-111299568D01*
X119953472Y-111418699D01*
X119940629Y-111432138D01*
X119937715Y-111436410D01*
X119937714Y-111436411D01*
X119862277Y-111546998D01*
X119814743Y-111616680D01*
X119799003Y-111650590D01*
X119736232Y-111785819D01*
X119720688Y-111819305D01*
X119660989Y-112034570D01*
X119637251Y-112256695D01*
X119637548Y-112261848D01*
X119637548Y-112261851D01*
X119643011Y-112356590D01*
X119650110Y-112479715D01*
X119651247Y-112484761D01*
X119651248Y-112484767D01*
X119671119Y-112572939D01*
X119699222Y-112697639D01*
X119783266Y-112904616D01*
X119899987Y-113095088D01*
X120046250Y-113263938D01*
X120218126Y-113406632D01*
X120288595Y-113447811D01*
X120291445Y-113449476D01*
X120340169Y-113501114D01*
X120353240Y-113570897D01*
X120326509Y-113636669D01*
X120286055Y-113670027D01*
X120273607Y-113676507D01*
X120269474Y-113679610D01*
X120269471Y-113679612D01*
X120110597Y-113798898D01*
X120094965Y-113810635D01*
X120091393Y-113814373D01*
X119994604Y-113915657D01*
X119940629Y-113972138D01*
X119937715Y-113976410D01*
X119937714Y-113976411D01*
X119911903Y-114014249D01*
X119814743Y-114156680D01*
X119720688Y-114359305D01*
X119660989Y-114574570D01*
X119637251Y-114796695D01*
X114346697Y-114796695D01*
X114565158Y-114578234D01*
X114566095Y-114577306D01*
X114625475Y-114519157D01*
X114625476Y-114519156D01*
X114630507Y-114514229D01*
X114653998Y-114477779D01*
X114661417Y-114467454D01*
X114688476Y-114433557D01*
X114703073Y-114403362D01*
X114710602Y-114389945D01*
X114713174Y-114385954D01*
X114728765Y-114361762D01*
X114731173Y-114355145D01*
X114731176Y-114355140D01*
X114743592Y-114321027D01*
X114748553Y-114309284D01*
X114764353Y-114276600D01*
X114764356Y-114276591D01*
X114767421Y-114270251D01*
X114774966Y-114237572D01*
X114779334Y-114222825D01*
X114790803Y-114191315D01*
X114791685Y-114184330D01*
X114791687Y-114184323D01*
X114796237Y-114148308D01*
X114798472Y-114135757D01*
X114806640Y-114100378D01*
X114808225Y-114093515D01*
X114808367Y-114052928D01*
X114808396Y-114052058D01*
X114808500Y-114051231D01*
X114808500Y-114014590D01*
X114808857Y-113912130D01*
X114808589Y-113910930D01*
X114808500Y-113909292D01*
X114808500Y-106347966D01*
X119668257Y-106347966D01*
X119698565Y-106482446D01*
X119701645Y-106492275D01*
X119781770Y-106689603D01*
X119786413Y-106698794D01*
X119897694Y-106880388D01*
X119903777Y-106888699D01*
X120043213Y-107049667D01*
X120050580Y-107056883D01*
X120214434Y-107192916D01*
X120222881Y-107198831D01*
X120406756Y-107306279D01*
X120416042Y-107310729D01*
X120615001Y-107386703D01*
X120624899Y-107389579D01*
X120728250Y-107410606D01*
X120742299Y-107409410D01*
X120746000Y-107399065D01*
X120746000Y-107398517D01*
X121254000Y-107398517D01*
X121258064Y-107412359D01*
X121271478Y-107414393D01*
X121278184Y-107413534D01*
X121288262Y-107411392D01*
X121492255Y-107350191D01*
X121501842Y-107346433D01*
X121693095Y-107252739D01*
X121701945Y-107247464D01*
X121875328Y-107123792D01*
X121883200Y-107117139D01*
X122034052Y-106966812D01*
X122040730Y-106958965D01*
X122165003Y-106786020D01*
X122170313Y-106777183D01*
X122264670Y-106586267D01*
X122268469Y-106576672D01*
X122330377Y-106372910D01*
X122332555Y-106362837D01*
X122333986Y-106351962D01*
X122331775Y-106337778D01*
X122318617Y-106334000D01*
X121272115Y-106334000D01*
X121256876Y-106338475D01*
X121255671Y-106339865D01*
X121254000Y-106347548D01*
X121254000Y-107398517D01*
X120746000Y-107398517D01*
X120746000Y-106352115D01*
X120741525Y-106336876D01*
X120740135Y-106335671D01*
X120732452Y-106334000D01*
X119683225Y-106334000D01*
X119669694Y-106337973D01*
X119668257Y-106347966D01*
X114808500Y-106347966D01*
X114808500Y-105880816D01*
X114828502Y-105812695D01*
X114882158Y-105766202D01*
X114952432Y-105756098D01*
X115017012Y-105785592D01*
X115025136Y-105793289D01*
X115100983Y-105871830D01*
X115100988Y-105871834D01*
X115105882Y-105876902D01*
X115257659Y-105976222D01*
X115264263Y-105978678D01*
X115264265Y-105978679D01*
X115421058Y-106036990D01*
X115421060Y-106036990D01*
X115427668Y-106039448D01*
X115511495Y-106050633D01*
X115600480Y-106062507D01*
X115600484Y-106062507D01*
X115607461Y-106063438D01*
X115614472Y-106062800D01*
X115614476Y-106062800D01*
X115756959Y-106049832D01*
X115788100Y-106046998D01*
X115794802Y-106044820D01*
X115794804Y-106044820D01*
X115953909Y-105993124D01*
X115953912Y-105993123D01*
X115960608Y-105990947D01*
X116111040Y-105901271D01*
X116175558Y-105883500D01*
X116671233Y-105883500D01*
X116682416Y-105884027D01*
X116689909Y-105885702D01*
X116697835Y-105885453D01*
X116697836Y-105885453D01*
X116757986Y-105883562D01*
X116761945Y-105883500D01*
X116789856Y-105883500D01*
X116793791Y-105883003D01*
X116793856Y-105882995D01*
X116805693Y-105882062D01*
X116837951Y-105881048D01*
X116841970Y-105880922D01*
X116849889Y-105880673D01*
X116869343Y-105875021D01*
X116888700Y-105871013D01*
X116900930Y-105869468D01*
X116900931Y-105869468D01*
X116908797Y-105868474D01*
X116916168Y-105865555D01*
X116916170Y-105865555D01*
X116949912Y-105852196D01*
X116961142Y-105848351D01*
X116995983Y-105838229D01*
X116995984Y-105838229D01*
X117003593Y-105836018D01*
X117010412Y-105831985D01*
X117010417Y-105831983D01*
X117021028Y-105825707D01*
X117038776Y-105817012D01*
X117057617Y-105809552D01*
X117080002Y-105793289D01*
X117093387Y-105783564D01*
X117103307Y-105777048D01*
X117134535Y-105758580D01*
X117134538Y-105758578D01*
X117141362Y-105754542D01*
X117155683Y-105740221D01*
X117170717Y-105727380D01*
X117180694Y-105720131D01*
X117187107Y-105715472D01*
X117215298Y-105681395D01*
X117223288Y-105672616D01*
X117892247Y-105003657D01*
X117900537Y-104996113D01*
X117907018Y-104992000D01*
X117953659Y-104942332D01*
X117956413Y-104939491D01*
X117976134Y-104919770D01*
X117978612Y-104916575D01*
X117986318Y-104907553D01*
X118004456Y-104888238D01*
X118016586Y-104875321D01*
X118024291Y-104861306D01*
X118026346Y-104857568D01*
X118037199Y-104841045D01*
X118044753Y-104831306D01*
X118049613Y-104825041D01*
X118067176Y-104784457D01*
X118072383Y-104773827D01*
X118093695Y-104735060D01*
X118095666Y-104727383D01*
X118095668Y-104727378D01*
X118098732Y-104715442D01*
X118105138Y-104696730D01*
X118107131Y-104692126D01*
X118113181Y-104678145D01*
X118114421Y-104670317D01*
X118114423Y-104670310D01*
X118120099Y-104634476D01*
X118122505Y-104622856D01*
X118131528Y-104587711D01*
X118131528Y-104587710D01*
X118133500Y-104580030D01*
X118133500Y-104559776D01*
X118135051Y-104540065D01*
X118136980Y-104527886D01*
X118138220Y-104520057D01*
X118134059Y-104476038D01*
X118133500Y-104464181D01*
X118133500Y-102064594D01*
X118153502Y-101996473D01*
X118170405Y-101975499D01*
X118475499Y-101670405D01*
X118537811Y-101636379D01*
X118564594Y-101633500D01*
X119515500Y-101633500D01*
X119583621Y-101653502D01*
X119630114Y-101707158D01*
X119641500Y-101759500D01*
X119641500Y-101898134D01*
X119648255Y-101960316D01*
X119699385Y-102096705D01*
X119786739Y-102213261D01*
X119903295Y-102300615D01*
X119911704Y-102303767D01*
X119911705Y-102303768D01*
X120020451Y-102344535D01*
X120077216Y-102387176D01*
X120101916Y-102453738D01*
X120086709Y-102523087D01*
X120067316Y-102549568D01*
X119965144Y-102656485D01*
X119940629Y-102682138D01*
X119937715Y-102686410D01*
X119937714Y-102686411D01*
X119922798Y-102708277D01*
X119814743Y-102866680D01*
X119720688Y-103069305D01*
X119660989Y-103284570D01*
X119637251Y-103506695D01*
X119637548Y-103511848D01*
X119637548Y-103511851D01*
X119643011Y-103606590D01*
X119650110Y-103729715D01*
X119651247Y-103734761D01*
X119651248Y-103734767D01*
X119671119Y-103822939D01*
X119699222Y-103947639D01*
X119783266Y-104154616D01*
X119899987Y-104345088D01*
X120046250Y-104513938D01*
X120218126Y-104656632D01*
X120260077Y-104681146D01*
X120291955Y-104699774D01*
X120340679Y-104751412D01*
X120353750Y-104821195D01*
X120327019Y-104886967D01*
X120286562Y-104920327D01*
X120278457Y-104924546D01*
X120269738Y-104930036D01*
X120099433Y-105057905D01*
X120091726Y-105064748D01*
X119944590Y-105218717D01*
X119938104Y-105226727D01*
X119818098Y-105402649D01*
X119813000Y-105411623D01*
X119723338Y-105604783D01*
X119719775Y-105614470D01*
X119664389Y-105814183D01*
X119665912Y-105822607D01*
X119678292Y-105826000D01*
X122318344Y-105826000D01*
X122331875Y-105822027D01*
X122333180Y-105812947D01*
X122291214Y-105645875D01*
X122287894Y-105636124D01*
X122202972Y-105440814D01*
X122198105Y-105431739D01*
X122082426Y-105252926D01*
X122076136Y-105244757D01*
X121932806Y-105087240D01*
X121925273Y-105080215D01*
X121758139Y-104948222D01*
X121749556Y-104942520D01*
X121712602Y-104922120D01*
X121662631Y-104871687D01*
X121647859Y-104802245D01*
X121672975Y-104735839D01*
X121700327Y-104709232D01*
X121729897Y-104688140D01*
X121879860Y-104581173D01*
X122038096Y-104423489D01*
X122097594Y-104340689D01*
X122165435Y-104246277D01*
X122168453Y-104242077D01*
X122193602Y-104191193D01*
X122265136Y-104046453D01*
X122265137Y-104046451D01*
X122267430Y-104041811D01*
X122308348Y-103907133D01*
X122330865Y-103833023D01*
X122330865Y-103833021D01*
X122332370Y-103828069D01*
X122361529Y-103606590D01*
X122361611Y-103603240D01*
X122363074Y-103543365D01*
X122363074Y-103543361D01*
X122363156Y-103540000D01*
X122344852Y-103317361D01*
X122290431Y-103100702D01*
X122201354Y-102895840D01*
X122161570Y-102834343D01*
X122082822Y-102712617D01*
X122082820Y-102712614D01*
X122080014Y-102708277D01*
X122076532Y-102704450D01*
X121932798Y-102546488D01*
X121901746Y-102482642D01*
X121910141Y-102412143D01*
X121955317Y-102357375D01*
X121981761Y-102343706D01*
X122088297Y-102303767D01*
X122096705Y-102300615D01*
X122213261Y-102213261D01*
X122300615Y-102096705D01*
X122351745Y-101960316D01*
X122358500Y-101898134D01*
X122358500Y-100101866D01*
X122351745Y-100039684D01*
X122300615Y-99903295D01*
X122213261Y-99786739D01*
X122096705Y-99699385D01*
X121960316Y-99648255D01*
X121898134Y-99641500D01*
X120101866Y-99641500D01*
X120039684Y-99648255D01*
X119903295Y-99699385D01*
X119786739Y-99786739D01*
X119699385Y-99903295D01*
X119648255Y-100039684D01*
X119641500Y-100101866D01*
X119641500Y-100240500D01*
X119621498Y-100308621D01*
X119567842Y-100355114D01*
X119515500Y-100366500D01*
X118328767Y-100366500D01*
X118317584Y-100365973D01*
X118310091Y-100364298D01*
X118302165Y-100364547D01*
X118302164Y-100364547D01*
X118242014Y-100366438D01*
X118238055Y-100366500D01*
X118210144Y-100366500D01*
X118206210Y-100366997D01*
X118206209Y-100366997D01*
X118206144Y-100367005D01*
X118194307Y-100367938D01*
X118162490Y-100368938D01*
X118158029Y-100369078D01*
X118150110Y-100369327D01*
X118132454Y-100374456D01*
X118130658Y-100374978D01*
X118111306Y-100378986D01*
X118104235Y-100379880D01*
X118091203Y-100381526D01*
X118083834Y-100384443D01*
X118083832Y-100384444D01*
X118050097Y-100397800D01*
X118038869Y-100401645D01*
X117996407Y-100413982D01*
X117989585Y-100418016D01*
X117989579Y-100418019D01*
X117978968Y-100424294D01*
X117961218Y-100432990D01*
X117949756Y-100437528D01*
X117949751Y-100437531D01*
X117942383Y-100440448D01*
X117935968Y-100445109D01*
X117906625Y-100466427D01*
X117896707Y-100472943D01*
X117886667Y-100478881D01*
X117858637Y-100495458D01*
X117844313Y-100509782D01*
X117829281Y-100522621D01*
X117812893Y-100534528D01*
X117797975Y-100552561D01*
X117784712Y-100568593D01*
X117776722Y-100577373D01*
X117430870Y-100923225D01*
X117368558Y-100957251D01*
X117297743Y-100952186D01*
X117240907Y-100909639D01*
X117234020Y-100898275D01*
X117233745Y-100898447D01*
X117187375Y-100824237D01*
X117186913Y-100823493D01*
X117164446Y-100786974D01*
X117141138Y-100749088D01*
X117139141Y-100747049D01*
X117137626Y-100744624D01*
X117075941Y-100682507D01*
X117075324Y-100681881D01*
X117056003Y-100662151D01*
X117014229Y-100619493D01*
X117011830Y-100617947D01*
X117009815Y-100615918D01*
X117004231Y-100612374D01*
X116935955Y-100569046D01*
X116935212Y-100568571D01*
X116861762Y-100521235D01*
X116859079Y-100520259D01*
X116856666Y-100518727D01*
X116774301Y-100489398D01*
X116773474Y-100489100D01*
X116697402Y-100461412D01*
X116697398Y-100461411D01*
X116691315Y-100459197D01*
X116688480Y-100458839D01*
X116685790Y-100457881D01*
X116639345Y-100452343D01*
X116598914Y-100447521D01*
X116598112Y-100447422D01*
X116551231Y-100441500D01*
X116549102Y-100441500D01*
X116546211Y-100441237D01*
X116534658Y-100439859D01*
X116505680Y-100436404D01*
X116498677Y-100437140D01*
X116498676Y-100437140D01*
X116463760Y-100440810D01*
X116450589Y-100441500D01*
X115555905Y-100441500D01*
X115540986Y-100440614D01*
X115537326Y-100440178D01*
X115505680Y-100436404D01*
X115498677Y-100437140D01*
X115498675Y-100437140D01*
X115469066Y-100440252D01*
X115454578Y-100440935D01*
X115417779Y-100440550D01*
X115410894Y-100442039D01*
X115410890Y-100442039D01*
X115378614Y-100449018D01*
X115365156Y-100451174D01*
X115331735Y-100454686D01*
X115331731Y-100454687D01*
X115325288Y-100455364D01*
X115322584Y-100456285D01*
X115319745Y-100456603D01*
X115313619Y-100458736D01*
X115313620Y-100458736D01*
X115288068Y-100467634D01*
X115273258Y-100471796D01*
X115240489Y-100478881D01*
X115234106Y-100481857D01*
X115234107Y-100481857D01*
X115204171Y-100495816D01*
X115191531Y-100500897D01*
X115159705Y-100511732D01*
X115159701Y-100511734D01*
X115153579Y-100513818D01*
X115151144Y-100515316D01*
X115148448Y-100516255D01*
X115142970Y-100519678D01*
X115120005Y-100534027D01*
X115106488Y-100541366D01*
X115082482Y-100552561D01*
X115076098Y-100555538D01*
X115044427Y-100580105D01*
X115033235Y-100587855D01*
X114999088Y-100608862D01*
X114997049Y-100610859D01*
X114994624Y-100612374D01*
X114990031Y-100616936D01*
X114990030Y-100616936D01*
X114965815Y-100640983D01*
X114965192Y-100641566D01*
X114964530Y-100642079D01*
X114938672Y-100667937D01*
X114932505Y-100674061D01*
X114931881Y-100674676D01*
X114869493Y-100735771D01*
X114867947Y-100738170D01*
X114865918Y-100740185D01*
X114865260Y-100741222D01*
X114864161Y-100742447D01*
X114848595Y-100758013D01*
X114786283Y-100792039D01*
X114715468Y-100786974D01*
X114658632Y-100744427D01*
X114633821Y-100677907D01*
X114633500Y-100668918D01*
X114633500Y-97045620D01*
X114654552Y-96975893D01*
X114719742Y-96877773D01*
X114723643Y-96871902D01*
X114788055Y-96702338D01*
X114789035Y-96695366D01*
X114812748Y-96526639D01*
X114812748Y-96526636D01*
X114813299Y-96522717D01*
X114813616Y-96500000D01*
X114793397Y-96319745D01*
X114791080Y-96313091D01*
X114736064Y-96155106D01*
X114736062Y-96155103D01*
X114733745Y-96148448D01*
X114637626Y-95994624D01*
X114623941Y-95980843D01*
X114514778Y-95870915D01*
X114514774Y-95870912D01*
X114509815Y-95865918D01*
X114498697Y-95858862D01*
X114450538Y-95828300D01*
X114356666Y-95768727D01*
X114327463Y-95758328D01*
X114192425Y-95710243D01*
X114192420Y-95710242D01*
X114185790Y-95707881D01*
X114178802Y-95707048D01*
X114178799Y-95707047D01*
X114055698Y-95692368D01*
X114005680Y-95686404D01*
X113998677Y-95687140D01*
X113998676Y-95687140D01*
X113832288Y-95704628D01*
X113832286Y-95704629D01*
X113825288Y-95705364D01*
X113653579Y-95763818D01*
X113647575Y-95767512D01*
X113505095Y-95855166D01*
X113505092Y-95855168D01*
X113499088Y-95858862D01*
X113494053Y-95863793D01*
X113494050Y-95863795D01*
X113374525Y-95980843D01*
X113369493Y-95985771D01*
X113271235Y-96138238D01*
X113268826Y-96144858D01*
X113268824Y-96144861D01*
X113231465Y-96247505D01*
X113209197Y-96308685D01*
X113186463Y-96488640D01*
X113204163Y-96669160D01*
X113261418Y-96841273D01*
X113265065Y-96847295D01*
X113265066Y-96847297D01*
X113348276Y-96984694D01*
X113366500Y-97049965D01*
X113366500Y-100935405D01*
X113346498Y-101003526D01*
X113329595Y-101024500D01*
X113024500Y-101329595D01*
X112962188Y-101363621D01*
X112935405Y-101366500D01*
X108078768Y-101366500D01*
X108067585Y-101365973D01*
X108060092Y-101364298D01*
X108052166Y-101364547D01*
X108052165Y-101364547D01*
X107992002Y-101366438D01*
X107988044Y-101366500D01*
X107960144Y-101366500D01*
X107956154Y-101367004D01*
X107944320Y-101367936D01*
X107900111Y-101369326D01*
X107892497Y-101371538D01*
X107892492Y-101371539D01*
X107880659Y-101374977D01*
X107861296Y-101378988D01*
X107841203Y-101381526D01*
X107833836Y-101384443D01*
X107833831Y-101384444D01*
X107800092Y-101397802D01*
X107788865Y-101401646D01*
X107746407Y-101413982D01*
X107739581Y-101418019D01*
X107728972Y-101424293D01*
X107711224Y-101432988D01*
X107692383Y-101440448D01*
X107685967Y-101445110D01*
X107685966Y-101445110D01*
X107656613Y-101466436D01*
X107646693Y-101472952D01*
X107615465Y-101491420D01*
X107615462Y-101491422D01*
X107608638Y-101495458D01*
X107594317Y-101509779D01*
X107579284Y-101522619D01*
X107562893Y-101534528D01*
X107536516Y-101566413D01*
X107534712Y-101568593D01*
X107526722Y-101577374D01*
X107107742Y-101996353D01*
X107099463Y-102003887D01*
X107092982Y-102008000D01*
X107049362Y-102054451D01*
X107046357Y-102057651D01*
X107043602Y-102060493D01*
X107023865Y-102080230D01*
X107021381Y-102083433D01*
X107013681Y-102092447D01*
X106990684Y-102116937D01*
X106986993Y-102120705D01*
X106869493Y-102235771D01*
X106771235Y-102388238D01*
X106768826Y-102394858D01*
X106768824Y-102394861D01*
X106723046Y-102520635D01*
X106709197Y-102558685D01*
X106686463Y-102738640D01*
X106704163Y-102919160D01*
X106761418Y-103091273D01*
X106765065Y-103097295D01*
X106765066Y-103097297D01*
X106789161Y-103137082D01*
X106855380Y-103246424D01*
X106860269Y-103251487D01*
X106860270Y-103251488D01*
X106928867Y-103322522D01*
X106981382Y-103376902D01*
X107133159Y-103476222D01*
X107139763Y-103478678D01*
X107139765Y-103478679D01*
X107296558Y-103536990D01*
X107296560Y-103536990D01*
X107303168Y-103539448D01*
X107386995Y-103550633D01*
X107475980Y-103562507D01*
X107475984Y-103562507D01*
X107482961Y-103563438D01*
X107489972Y-103562800D01*
X107489976Y-103562800D01*
X107632459Y-103549832D01*
X107663600Y-103546998D01*
X107670302Y-103544820D01*
X107670304Y-103544820D01*
X107829409Y-103493124D01*
X107829412Y-103493123D01*
X107836108Y-103490947D01*
X107991912Y-103398069D01*
X108123266Y-103272982D01*
X108223643Y-103121902D01*
X108288055Y-102952338D01*
X108289035Y-102945366D01*
X108312748Y-102776639D01*
X108312748Y-102776636D01*
X108313299Y-102772717D01*
X108313508Y-102757742D01*
X108334459Y-102689907D01*
X108388758Y-102644167D01*
X108439496Y-102633500D01*
X113065416Y-102633500D01*
X113133537Y-102653502D01*
X113180030Y-102707158D01*
X113191415Y-102759940D01*
X113191143Y-102837870D01*
X113191411Y-102839070D01*
X113191500Y-102840707D01*
X113191500Y-106541512D01*
X113171498Y-106609633D01*
X113117842Y-106656126D01*
X113047568Y-106666230D01*
X112982988Y-106636736D01*
X112958646Y-106608281D01*
X112902646Y-106518661D01*
X112883500Y-106451892D01*
X112883500Y-105078767D01*
X112884027Y-105067584D01*
X112885702Y-105060091D01*
X112883562Y-104992000D01*
X112883500Y-104988055D01*
X112883500Y-104960144D01*
X112882995Y-104956144D01*
X112882062Y-104944301D01*
X112881956Y-104940905D01*
X112880673Y-104900110D01*
X112875022Y-104880658D01*
X112871014Y-104861306D01*
X112869467Y-104849063D01*
X112868474Y-104841203D01*
X112864556Y-104831306D01*
X112852200Y-104800097D01*
X112848355Y-104788870D01*
X112842295Y-104768012D01*
X112836018Y-104746407D01*
X112831984Y-104739585D01*
X112831981Y-104739579D01*
X112825706Y-104728968D01*
X112817010Y-104711218D01*
X112812472Y-104699756D01*
X112812469Y-104699751D01*
X112809552Y-104692383D01*
X112783573Y-104656625D01*
X112777057Y-104646707D01*
X112758575Y-104615457D01*
X112754542Y-104608637D01*
X112740218Y-104594313D01*
X112727376Y-104579278D01*
X112715472Y-104562893D01*
X112681406Y-104534711D01*
X112672627Y-104526722D01*
X112453152Y-104307247D01*
X112445612Y-104298961D01*
X112441500Y-104292482D01*
X112391848Y-104245856D01*
X112389007Y-104243102D01*
X112369270Y-104223365D01*
X112366073Y-104220885D01*
X112357051Y-104213180D01*
X112330600Y-104188341D01*
X112324821Y-104182914D01*
X112317875Y-104179095D01*
X112317872Y-104179093D01*
X112307066Y-104173152D01*
X112290547Y-104162301D01*
X112286317Y-104159020D01*
X112274541Y-104149886D01*
X112267272Y-104146741D01*
X112267268Y-104146738D01*
X112233963Y-104132326D01*
X112223313Y-104127109D01*
X112184560Y-104105805D01*
X112164937Y-104100767D01*
X112146234Y-104094363D01*
X112134920Y-104089467D01*
X112134919Y-104089467D01*
X112127645Y-104086319D01*
X112119822Y-104085080D01*
X112119812Y-104085077D01*
X112083976Y-104079401D01*
X112072356Y-104076995D01*
X112037211Y-104067972D01*
X112037210Y-104067972D01*
X112029530Y-104066000D01*
X112009276Y-104066000D01*
X111989565Y-104064449D01*
X111977386Y-104062520D01*
X111969557Y-104061280D01*
X111961665Y-104062026D01*
X111925539Y-104065441D01*
X111913681Y-104066000D01*
X105848686Y-104066000D01*
X105781172Y-104046385D01*
X105747931Y-104025290D01*
X105658014Y-103968227D01*
X105586034Y-103942596D01*
X105493773Y-103909743D01*
X105493768Y-103909742D01*
X105487138Y-103907381D01*
X105480150Y-103906548D01*
X105480147Y-103906547D01*
X105357046Y-103891868D01*
X105307028Y-103885904D01*
X105300025Y-103886640D01*
X105300024Y-103886640D01*
X105133636Y-103904128D01*
X105133634Y-103904129D01*
X105126636Y-103904864D01*
X104954927Y-103963318D01*
X104948923Y-103967012D01*
X104806443Y-104054666D01*
X104806440Y-104054668D01*
X104800436Y-104058362D01*
X104795401Y-104063293D01*
X104795398Y-104063295D01*
X104675873Y-104180343D01*
X104670841Y-104185271D01*
X104572583Y-104337738D01*
X104570174Y-104344358D01*
X104570172Y-104344361D01*
X104526561Y-104464181D01*
X104510545Y-104508185D01*
X104487811Y-104688140D01*
X104488499Y-104695154D01*
X104491739Y-104728206D01*
X104478479Y-104797953D01*
X104429616Y-104849460D01*
X104366340Y-104866500D01*
X100546550Y-104866500D01*
X100479036Y-104846885D01*
X100433150Y-104817765D01*
X100356666Y-104769227D01*
X100327463Y-104758828D01*
X100192425Y-104710743D01*
X100192420Y-104710742D01*
X100185790Y-104708381D01*
X100178802Y-104707548D01*
X100178799Y-104707547D01*
X100051628Y-104692383D01*
X100005680Y-104686904D01*
X99998677Y-104687640D01*
X99998676Y-104687640D01*
X99832288Y-104705128D01*
X99832286Y-104705129D01*
X99825288Y-104705864D01*
X99653579Y-104764318D01*
X99620818Y-104784473D01*
X99505095Y-104855666D01*
X99505092Y-104855668D01*
X99499088Y-104859362D01*
X99494053Y-104864293D01*
X99494050Y-104864295D01*
X99400191Y-104956209D01*
X99369493Y-104986271D01*
X99318918Y-105064748D01*
X99272117Y-105137369D01*
X99218403Y-105183794D01*
X99179377Y-105194424D01*
X99137744Y-105198800D01*
X99082289Y-105204628D01*
X99082288Y-105204628D01*
X99075288Y-105205364D01*
X98903579Y-105263818D01*
X98897575Y-105267512D01*
X98755095Y-105355166D01*
X98755092Y-105355168D01*
X98749088Y-105358862D01*
X98744053Y-105363793D01*
X98744050Y-105363795D01*
X98624525Y-105480843D01*
X98619493Y-105485771D01*
X98521235Y-105638238D01*
X98518826Y-105644858D01*
X98518824Y-105644861D01*
X98470712Y-105777048D01*
X98459197Y-105808685D01*
X98436463Y-105988640D01*
X98454163Y-106169160D01*
X98456387Y-106175845D01*
X98487949Y-106270724D01*
X98490472Y-106341676D01*
X98456549Y-106400519D01*
X98369493Y-106485771D01*
X98271235Y-106638238D01*
X98268826Y-106644858D01*
X98268824Y-106644861D01*
X98228492Y-106755673D01*
X98209197Y-106808685D01*
X98186463Y-106988640D01*
X98204163Y-107169160D01*
X98261418Y-107341273D01*
X98265065Y-107347295D01*
X98265066Y-107347297D01*
X98313748Y-107427680D01*
X98355380Y-107496424D01*
X98481382Y-107626902D01*
X98633159Y-107726222D01*
X98639763Y-107728678D01*
X98639765Y-107728679D01*
X98796558Y-107786990D01*
X98796560Y-107786990D01*
X98803168Y-107789448D01*
X98886995Y-107800633D01*
X98975980Y-107812507D01*
X98975984Y-107812507D01*
X98982961Y-107813438D01*
X98989972Y-107812800D01*
X98989976Y-107812800D01*
X99132459Y-107799832D01*
X99163600Y-107796998D01*
X99170302Y-107794820D01*
X99170304Y-107794820D01*
X99329409Y-107743124D01*
X99329412Y-107743123D01*
X99336108Y-107740947D01*
X99486540Y-107651271D01*
X99551058Y-107633500D01*
X106953903Y-107633500D01*
X107022896Y-107654068D01*
X107133159Y-107726222D01*
X107139763Y-107728678D01*
X107139765Y-107728679D01*
X107296558Y-107786990D01*
X107296560Y-107786990D01*
X107303168Y-107789448D01*
X107386995Y-107800633D01*
X107475980Y-107812507D01*
X107475984Y-107812507D01*
X107482961Y-107813438D01*
X107489972Y-107812800D01*
X107489976Y-107812800D01*
X107632459Y-107799832D01*
X107663600Y-107796998D01*
X107670302Y-107794820D01*
X107670304Y-107794820D01*
X107829409Y-107743124D01*
X107829412Y-107743123D01*
X107836108Y-107740947D01*
X107991912Y-107648069D01*
X108123266Y-107522982D01*
X108223643Y-107371902D01*
X108288055Y-107202338D01*
X108289379Y-107192916D01*
X108312748Y-107026639D01*
X108312748Y-107026636D01*
X108313299Y-107022717D01*
X108313616Y-107000000D01*
X108302236Y-106898545D01*
X108314520Y-106828619D01*
X108362659Y-106776435D01*
X108427451Y-106758500D01*
X111046233Y-106758500D01*
X111057416Y-106759027D01*
X111064909Y-106760702D01*
X111072835Y-106760453D01*
X111072836Y-106760453D01*
X111132986Y-106758562D01*
X111136945Y-106758500D01*
X111164856Y-106758500D01*
X111168791Y-106758003D01*
X111168856Y-106757995D01*
X111180693Y-106757062D01*
X111212951Y-106756048D01*
X111216970Y-106755922D01*
X111224889Y-106755673D01*
X111244343Y-106750021D01*
X111263700Y-106746013D01*
X111275933Y-106744468D01*
X111275937Y-106744467D01*
X111283797Y-106743474D01*
X111291165Y-106740557D01*
X111294147Y-106739791D01*
X111365102Y-106742223D01*
X111423478Y-106782631D01*
X111450741Y-106848184D01*
X111450488Y-106877623D01*
X111436463Y-106988640D01*
X111454163Y-107169160D01*
X111511418Y-107341273D01*
X111515065Y-107347295D01*
X111515066Y-107347297D01*
X111563748Y-107427680D01*
X111605380Y-107496424D01*
X111731382Y-107626902D01*
X111883159Y-107726222D01*
X111889763Y-107728678D01*
X111889765Y-107728679D01*
X112046558Y-107786990D01*
X112046560Y-107786990D01*
X112053168Y-107789448D01*
X112136995Y-107800633D01*
X112225980Y-107812507D01*
X112225984Y-107812507D01*
X112232961Y-107813438D01*
X112239972Y-107812800D01*
X112239976Y-107812800D01*
X112382459Y-107799832D01*
X112413600Y-107796998D01*
X112420302Y-107794820D01*
X112420304Y-107794820D01*
X112579409Y-107743124D01*
X112579412Y-107743123D01*
X112586108Y-107740947D01*
X112741912Y-107648069D01*
X112873266Y-107522982D01*
X112914226Y-107461333D01*
X112960552Y-107391606D01*
X113014910Y-107345935D01*
X113085329Y-107336903D01*
X113149453Y-107367376D01*
X113186923Y-107427680D01*
X113191500Y-107461333D01*
X113191500Y-113612918D01*
X113171498Y-113681039D01*
X113154595Y-113702013D01*
X112452012Y-114404596D01*
X112389700Y-114438621D01*
X112362917Y-114441500D01*
X109259214Y-114441500D01*
X109257894Y-114441493D01*
X109256819Y-114441482D01*
X109167779Y-114440549D01*
X109125403Y-114449711D01*
X109112837Y-114451769D01*
X109069745Y-114456603D01*
X109063094Y-114458919D01*
X109063090Y-114458920D01*
X109038070Y-114467633D01*
X109023257Y-114471796D01*
X108990490Y-114478881D01*
X108951187Y-114497208D01*
X108939411Y-114501990D01*
X108898448Y-114516255D01*
X108892473Y-114519989D01*
X108892470Y-114519990D01*
X108870005Y-114534027D01*
X108856488Y-114541366D01*
X108832486Y-114552559D01*
X108826098Y-114555538D01*
X108820533Y-114559855D01*
X108820531Y-114559856D01*
X108791847Y-114582106D01*
X108781388Y-114589402D01*
X108744624Y-114612374D01*
X108743651Y-114610816D01*
X108686424Y-114633972D01*
X108654273Y-114633037D01*
X108634479Y-114629902D01*
X108622856Y-114627495D01*
X108587711Y-114618472D01*
X108587710Y-114618472D01*
X108580030Y-114616500D01*
X108559776Y-114616500D01*
X108540065Y-114614949D01*
X108527886Y-114613020D01*
X108520057Y-114611780D01*
X108512165Y-114612526D01*
X108476039Y-114615941D01*
X108464181Y-114616500D01*
X108008732Y-114616500D01*
X107941220Y-114596887D01*
X107856666Y-114543227D01*
X107791409Y-114519990D01*
X107692425Y-114484743D01*
X107692420Y-114484742D01*
X107685790Y-114482381D01*
X107678802Y-114481548D01*
X107678799Y-114481547D01*
X107555698Y-114466868D01*
X107505680Y-114460904D01*
X107498677Y-114461640D01*
X107498676Y-114461640D01*
X107332288Y-114479128D01*
X107332286Y-114479129D01*
X107325288Y-114479864D01*
X107153579Y-114538318D01*
X107017039Y-114622319D01*
X106951019Y-114641000D01*
X104839095Y-114641000D01*
X104770974Y-114620998D01*
X104749999Y-114604094D01*
X104704613Y-114558707D01*
X104670588Y-114496395D01*
X104675654Y-114425579D01*
X104688761Y-114399886D01*
X104713856Y-114362115D01*
X104778268Y-114192551D01*
X104779248Y-114185579D01*
X104802961Y-114016852D01*
X104802961Y-114016849D01*
X104803512Y-114012930D01*
X104803665Y-114001951D01*
X104803774Y-113994175D01*
X104803774Y-113994170D01*
X104803829Y-113990213D01*
X104783610Y-113809958D01*
X104781293Y-113803304D01*
X104726277Y-113645319D01*
X104726275Y-113645316D01*
X104723958Y-113638661D01*
X104681615Y-113570897D01*
X104631572Y-113490811D01*
X104627839Y-113484837D01*
X104614154Y-113471056D01*
X104504991Y-113361128D01*
X104504987Y-113361125D01*
X104500028Y-113356131D01*
X104488910Y-113349075D01*
X104440751Y-113318513D01*
X104346879Y-113258940D01*
X104317676Y-113248541D01*
X104182638Y-113200456D01*
X104182633Y-113200455D01*
X104176003Y-113198094D01*
X104169015Y-113197261D01*
X104169012Y-113197260D01*
X104045911Y-113182581D01*
X103995893Y-113176617D01*
X103988890Y-113177353D01*
X103988889Y-113177353D01*
X103822501Y-113194841D01*
X103822499Y-113194842D01*
X103815501Y-113195577D01*
X103643792Y-113254031D01*
X103581322Y-113292463D01*
X103495308Y-113345379D01*
X103495305Y-113345381D01*
X103489301Y-113349075D01*
X103484266Y-113354006D01*
X103484263Y-113354008D01*
X103386775Y-113449476D01*
X103359706Y-113475984D01*
X103261448Y-113628451D01*
X103259039Y-113635071D01*
X103259037Y-113635074D01*
X103242307Y-113681039D01*
X103199410Y-113798898D01*
X103176676Y-113978853D01*
X103194376Y-114159373D01*
X103251631Y-114331486D01*
X103255278Y-114337508D01*
X103255279Y-114337510D01*
X103338489Y-114474907D01*
X103356713Y-114540178D01*
X103356713Y-114661446D01*
X103356186Y-114672629D01*
X103354511Y-114680122D01*
X103354760Y-114688048D01*
X103354760Y-114688049D01*
X103356651Y-114748199D01*
X103356713Y-114752158D01*
X103356713Y-114780069D01*
X103357210Y-114784003D01*
X103357210Y-114784004D01*
X103357218Y-114784069D01*
X103358151Y-114795906D01*
X103359540Y-114840102D01*
X103365191Y-114859552D01*
X103369200Y-114878913D01*
X103371739Y-114899010D01*
X103374658Y-114906381D01*
X103374658Y-114906383D01*
X103388017Y-114940125D01*
X103391862Y-114951355D01*
X103404195Y-114993806D01*
X103408228Y-115000625D01*
X103408230Y-115000630D01*
X103414506Y-115011241D01*
X103423201Y-115028989D01*
X103430661Y-115047830D01*
X103435323Y-115054246D01*
X103435323Y-115054247D01*
X103456649Y-115083600D01*
X103463165Y-115093520D01*
X103474650Y-115112939D01*
X103485671Y-115131575D01*
X103499992Y-115145896D01*
X103512832Y-115160929D01*
X103524741Y-115177320D01*
X103556626Y-115203697D01*
X103558806Y-115205501D01*
X103567587Y-115213491D01*
X104020853Y-115666758D01*
X104028387Y-115675037D01*
X104032500Y-115681518D01*
X104062077Y-115709292D01*
X104082151Y-115728143D01*
X104084993Y-115730898D01*
X104104730Y-115750635D01*
X104107927Y-115753115D01*
X104116947Y-115760818D01*
X104149179Y-115791086D01*
X104156125Y-115794905D01*
X104156128Y-115794907D01*
X104166934Y-115800848D01*
X104183453Y-115811699D01*
X104199459Y-115824114D01*
X104206728Y-115827259D01*
X104206732Y-115827262D01*
X104240037Y-115841674D01*
X104250687Y-115846891D01*
X104289440Y-115868195D01*
X104297115Y-115870166D01*
X104297116Y-115870166D01*
X104309062Y-115873233D01*
X104327766Y-115879637D01*
X104334764Y-115882665D01*
X104346355Y-115887681D01*
X104354178Y-115888920D01*
X104354188Y-115888923D01*
X104390024Y-115894599D01*
X104401644Y-115897005D01*
X104436789Y-115906028D01*
X104444470Y-115908000D01*
X104464724Y-115908000D01*
X104484434Y-115909551D01*
X104504443Y-115912720D01*
X104512335Y-115911974D01*
X104548461Y-115908559D01*
X104560319Y-115908000D01*
X106953903Y-115908000D01*
X107022896Y-115928568D01*
X107126339Y-115996259D01*
X107133159Y-116000722D01*
X107139763Y-116003178D01*
X107139765Y-116003179D01*
X107296558Y-116061490D01*
X107296560Y-116061490D01*
X107303168Y-116063948D01*
X107386995Y-116075133D01*
X107475980Y-116087007D01*
X107475984Y-116087007D01*
X107482961Y-116087938D01*
X107489972Y-116087300D01*
X107489976Y-116087300D01*
X107632459Y-116074332D01*
X107663600Y-116071498D01*
X107670302Y-116069320D01*
X107670304Y-116069320D01*
X107829409Y-116017624D01*
X107829412Y-116017623D01*
X107836108Y-116015447D01*
X107854519Y-116004472D01*
X107875983Y-115991677D01*
X107944738Y-115973977D01*
X108012148Y-115996259D01*
X108056809Y-116051448D01*
X108066500Y-116099906D01*
X108066500Y-117118918D01*
X108046498Y-117187039D01*
X107992842Y-117233532D01*
X107922568Y-117243636D01*
X107857988Y-117214142D01*
X107851405Y-117208013D01*
X107578234Y-116934842D01*
X107577306Y-116933905D01*
X107519157Y-116874525D01*
X107519156Y-116874524D01*
X107514229Y-116869493D01*
X107477779Y-116846002D01*
X107467454Y-116838583D01*
X107433557Y-116811524D01*
X107403362Y-116796927D01*
X107389945Y-116789398D01*
X107389045Y-116788818D01*
X107361762Y-116771235D01*
X107355145Y-116768827D01*
X107355140Y-116768824D01*
X107321027Y-116756408D01*
X107309284Y-116751447D01*
X107276597Y-116735646D01*
X107276592Y-116735644D01*
X107270251Y-116732579D01*
X107263393Y-116730996D01*
X107263391Y-116730995D01*
X107237574Y-116725035D01*
X107222831Y-116720668D01*
X107191315Y-116709197D01*
X107184325Y-116708314D01*
X107184317Y-116708312D01*
X107148299Y-116703762D01*
X107135747Y-116701526D01*
X107100386Y-116693362D01*
X107100383Y-116693362D01*
X107093515Y-116691776D01*
X107086469Y-116691751D01*
X107086466Y-116691751D01*
X107052944Y-116691634D01*
X107052062Y-116691605D01*
X107051231Y-116691500D01*
X107014581Y-116691500D01*
X107014141Y-116691499D01*
X106915657Y-116691155D01*
X106915652Y-116691155D01*
X106912130Y-116691143D01*
X106910930Y-116691411D01*
X106909293Y-116691500D01*
X102805905Y-116691500D01*
X102790986Y-116690614D01*
X102787326Y-116690178D01*
X102755680Y-116686404D01*
X102748677Y-116687140D01*
X102748675Y-116687140D01*
X102719066Y-116690252D01*
X102704578Y-116690935D01*
X102667779Y-116690550D01*
X102660894Y-116692039D01*
X102660890Y-116692039D01*
X102628614Y-116699018D01*
X102615156Y-116701174D01*
X102575288Y-116705364D01*
X102572584Y-116706285D01*
X102569745Y-116706603D01*
X102561452Y-116709491D01*
X102558040Y-116710068D01*
X102556218Y-116710482D01*
X102556195Y-116710380D01*
X102520014Y-116716500D01*
X101330905Y-116716500D01*
X101315986Y-116715614D01*
X101312326Y-116715178D01*
X101280680Y-116711404D01*
X101234425Y-116716266D01*
X101231507Y-116716500D01*
X101229390Y-116716500D01*
X101187932Y-116721151D01*
X101187335Y-116721215D01*
X101100288Y-116730364D01*
X101097584Y-116731285D01*
X101094745Y-116731603D01*
X101012077Y-116760391D01*
X101011506Y-116760587D01*
X100928579Y-116788818D01*
X100926144Y-116790316D01*
X100923448Y-116791255D01*
X100917969Y-116794679D01*
X100917966Y-116794680D01*
X100849237Y-116837625D01*
X100848506Y-116838079D01*
X100829879Y-116849539D01*
X100825524Y-116852218D01*
X100757023Y-116870877D01*
X100689308Y-116849539D01*
X100643879Y-116794980D01*
X100633500Y-116744901D01*
X100633500Y-112314594D01*
X100653502Y-112246473D01*
X100670405Y-112225499D01*
X101350499Y-111545405D01*
X101412811Y-111511379D01*
X101439594Y-111508500D01*
X108947282Y-111508500D01*
X108991202Y-111516403D01*
X109046558Y-111536990D01*
X109046560Y-111536991D01*
X109053168Y-111539448D01*
X109136995Y-111550633D01*
X109225980Y-111562507D01*
X109225984Y-111562507D01*
X109232961Y-111563438D01*
X109239972Y-111562800D01*
X109239976Y-111562800D01*
X109382459Y-111549832D01*
X109413600Y-111546998D01*
X109420302Y-111544820D01*
X109420304Y-111544820D01*
X109579409Y-111493124D01*
X109579412Y-111493123D01*
X109586108Y-111490947D01*
X109741912Y-111398069D01*
X109873266Y-111272982D01*
X109973643Y-111121902D01*
X110038055Y-110952338D01*
X110052901Y-110846705D01*
X110062748Y-110776639D01*
X110062748Y-110776636D01*
X110063299Y-110772717D01*
X110063616Y-110750000D01*
X110043397Y-110569745D01*
X109983745Y-110398448D01*
X109887626Y-110244624D01*
X109811378Y-110167842D01*
X109764778Y-110120915D01*
X109764774Y-110120912D01*
X109759815Y-110115918D01*
X109748697Y-110108862D01*
X109676571Y-110063090D01*
X109606666Y-110018727D01*
X109577463Y-110008328D01*
X109442425Y-109960243D01*
X109442420Y-109960242D01*
X109435790Y-109957881D01*
X109428802Y-109957048D01*
X109428799Y-109957047D01*
X109305698Y-109942368D01*
X109255680Y-109936404D01*
X109248677Y-109937140D01*
X109248676Y-109937140D01*
X109082288Y-109954628D01*
X109082286Y-109954629D01*
X109075288Y-109955364D01*
X108903579Y-110013818D01*
X108897575Y-110017512D01*
X108755095Y-110105166D01*
X108755092Y-110105168D01*
X108749088Y-110108862D01*
X108650379Y-110205525D01*
X108587715Y-110238894D01*
X108562223Y-110241500D01*
X107675320Y-110241500D01*
X107607199Y-110221498D01*
X107560706Y-110167842D01*
X107550105Y-110129546D01*
X107544182Y-110076744D01*
X107543397Y-110069745D01*
X107504442Y-109957881D01*
X107486064Y-109905106D01*
X107486062Y-109905103D01*
X107483745Y-109898448D01*
X107405122Y-109772624D01*
X107391359Y-109750598D01*
X107387626Y-109744624D01*
X107359625Y-109716427D01*
X107264778Y-109620915D01*
X107264774Y-109620912D01*
X107259815Y-109615918D01*
X107248697Y-109608862D01*
X107200538Y-109578300D01*
X107106666Y-109518727D01*
X107077463Y-109508328D01*
X106942425Y-109460243D01*
X106942420Y-109460242D01*
X106935790Y-109457881D01*
X106928802Y-109457048D01*
X106928799Y-109457047D01*
X106805698Y-109442368D01*
X106755680Y-109436404D01*
X106748677Y-109437140D01*
X106748676Y-109437140D01*
X106582288Y-109454628D01*
X106582286Y-109454629D01*
X106575288Y-109455364D01*
X106403579Y-109513818D01*
X106267039Y-109597819D01*
X106201019Y-109616500D01*
X101078763Y-109616500D01*
X101067579Y-109615973D01*
X101060091Y-109614299D01*
X101052168Y-109614548D01*
X100992033Y-109616438D01*
X100988075Y-109616500D01*
X100960144Y-109616500D01*
X100956229Y-109616995D01*
X100956225Y-109616995D01*
X100956167Y-109617003D01*
X100956138Y-109617006D01*
X100944296Y-109617939D01*
X100900110Y-109619327D01*
X100882744Y-109624372D01*
X100880658Y-109624978D01*
X100861306Y-109628986D01*
X100854235Y-109629880D01*
X100841203Y-109631526D01*
X100833834Y-109634443D01*
X100833832Y-109634444D01*
X100800097Y-109647800D01*
X100788869Y-109651645D01*
X100746407Y-109663982D01*
X100739585Y-109668016D01*
X100739579Y-109668019D01*
X100728968Y-109674294D01*
X100711218Y-109682990D01*
X100699756Y-109687528D01*
X100699751Y-109687531D01*
X100692383Y-109690448D01*
X100685968Y-109695109D01*
X100656625Y-109716427D01*
X100646707Y-109722943D01*
X100628019Y-109733995D01*
X100608637Y-109745458D01*
X100594313Y-109759782D01*
X100579281Y-109772621D01*
X100562893Y-109784528D01*
X100534712Y-109818593D01*
X100526722Y-109827373D01*
X99107747Y-111246348D01*
X99099461Y-111253888D01*
X99092982Y-111258000D01*
X99087557Y-111263777D01*
X99046357Y-111307651D01*
X99043602Y-111310493D01*
X99023865Y-111330230D01*
X99021385Y-111333427D01*
X99013682Y-111342447D01*
X98983414Y-111374679D01*
X98979595Y-111381625D01*
X98979593Y-111381628D01*
X98973652Y-111392434D01*
X98962801Y-111408953D01*
X98950386Y-111424959D01*
X98947241Y-111432228D01*
X98947238Y-111432232D01*
X98932826Y-111465537D01*
X98927609Y-111476187D01*
X98906305Y-111514940D01*
X98904334Y-111522615D01*
X98904334Y-111522616D01*
X98901267Y-111534562D01*
X98894863Y-111553266D01*
X98886819Y-111571855D01*
X98885580Y-111579678D01*
X98885577Y-111579688D01*
X98879901Y-111615524D01*
X98877495Y-111627144D01*
X98872695Y-111645840D01*
X98866500Y-111669970D01*
X98866500Y-111690224D01*
X98864949Y-111709934D01*
X98861780Y-111729943D01*
X98862526Y-111737835D01*
X98865941Y-111773961D01*
X98866500Y-111785819D01*
X98866500Y-118453331D01*
X98846411Y-118521586D01*
X98775054Y-118632310D01*
X98775050Y-118632319D01*
X98771235Y-118638238D01*
X98768826Y-118644858D01*
X98768825Y-118644859D01*
X98714377Y-118794452D01*
X98709197Y-118808685D01*
X98686463Y-118988640D01*
X98704163Y-119169160D01*
X98761418Y-119341273D01*
X98765065Y-119347295D01*
X98765066Y-119347297D01*
X98841021Y-119472714D01*
X98855380Y-119496424D01*
X98860269Y-119501487D01*
X98860270Y-119501488D01*
X98875357Y-119517111D01*
X98981382Y-119626902D01*
X99019242Y-119651677D01*
X99117838Y-119716196D01*
X99133159Y-119726222D01*
X99139763Y-119728678D01*
X99139765Y-119728679D01*
X99296558Y-119786990D01*
X99296560Y-119786990D01*
X99303168Y-119789448D01*
X99367164Y-119797987D01*
X99475980Y-119812507D01*
X99475984Y-119812507D01*
X99482961Y-119813438D01*
X99489972Y-119812800D01*
X99489976Y-119812800D01*
X99632459Y-119799832D01*
X99663600Y-119796998D01*
X99670302Y-119794820D01*
X99670304Y-119794820D01*
X99829409Y-119743124D01*
X99829412Y-119743123D01*
X99836108Y-119740947D01*
X99991912Y-119648069D01*
X100123266Y-119522982D01*
X100223643Y-119371902D01*
X100226146Y-119365314D01*
X100248062Y-119307620D01*
X100290951Y-119251042D01*
X100354430Y-119226883D01*
X100406579Y-119222137D01*
X100413600Y-119221498D01*
X100420302Y-119219320D01*
X100420304Y-119219320D01*
X100579409Y-119167624D01*
X100579412Y-119167623D01*
X100586108Y-119165447D01*
X100684994Y-119106499D01*
X100735860Y-119076177D01*
X100735862Y-119076176D01*
X100741912Y-119072569D01*
X100873266Y-118947482D01*
X100973643Y-118796402D01*
X101022164Y-118668671D01*
X101035555Y-118633420D01*
X101035556Y-118633418D01*
X101038055Y-118626838D01*
X101063299Y-118447217D01*
X101063315Y-118446066D01*
X101088261Y-118380266D01*
X101145324Y-118338025D01*
X101205386Y-118331423D01*
X101257961Y-118338438D01*
X101264972Y-118337800D01*
X101264976Y-118337800D01*
X101306516Y-118334019D01*
X101317936Y-118333500D01*
X102715786Y-118333500D01*
X102717106Y-118333507D01*
X102807221Y-118334451D01*
X102849597Y-118325289D01*
X102862163Y-118323231D01*
X102905255Y-118318397D01*
X102913548Y-118315509D01*
X102916969Y-118314930D01*
X102918775Y-118314520D01*
X102918798Y-118314621D01*
X102954986Y-118308500D01*
X106612918Y-118308500D01*
X106681039Y-118328502D01*
X106702013Y-118345405D01*
X108154595Y-119797987D01*
X108188621Y-119860299D01*
X108191500Y-119887082D01*
X108191500Y-124362918D01*
X108171498Y-124431039D01*
X108154596Y-124452013D01*
X107918068Y-124688540D01*
X107684796Y-124921812D01*
X107683859Y-124922739D01*
X107654792Y-124951204D01*
X107619493Y-124985771D01*
X107596002Y-125022221D01*
X107588583Y-125032546D01*
X107561524Y-125066443D01*
X107558459Y-125072784D01*
X107558458Y-125072785D01*
X107546928Y-125096637D01*
X107539399Y-125110054D01*
X107521235Y-125138238D01*
X107518827Y-125144855D01*
X107518824Y-125144860D01*
X107506408Y-125178973D01*
X107501447Y-125190716D01*
X107485646Y-125223403D01*
X107485644Y-125223408D01*
X107482579Y-125229749D01*
X107475777Y-125259214D01*
X107475035Y-125262426D01*
X107470668Y-125277169D01*
X107459197Y-125308685D01*
X107458314Y-125315675D01*
X107458312Y-125315683D01*
X107453762Y-125351701D01*
X107451526Y-125364253D01*
X107441776Y-125406485D01*
X107441751Y-125413531D01*
X107441751Y-125413534D01*
X107441634Y-125447056D01*
X107441605Y-125447938D01*
X107441500Y-125448769D01*
X107441500Y-125485572D01*
X107441143Y-125587870D01*
X107441411Y-125589070D01*
X107441500Y-125590707D01*
X107441500Y-126190845D01*
X107440506Y-126206637D01*
X107436463Y-126238640D01*
X107440189Y-126276642D01*
X107440973Y-126284634D01*
X107441378Y-126289901D01*
X107441500Y-126292083D01*
X107441500Y-126295610D01*
X107441893Y-126299111D01*
X107445763Y-126333617D01*
X107445947Y-126335367D01*
X107454163Y-126419160D01*
X107455967Y-126424582D01*
X107456603Y-126430255D01*
X107458920Y-126436909D01*
X107458921Y-126436913D01*
X107484286Y-126509752D01*
X107484853Y-126511417D01*
X107509193Y-126584587D01*
X107509196Y-126584593D01*
X107511418Y-126591273D01*
X107514377Y-126596159D01*
X107516255Y-126601552D01*
X107519989Y-126607527D01*
X107519990Y-126607530D01*
X107560873Y-126672959D01*
X107561793Y-126674455D01*
X107598831Y-126735611D01*
X107605380Y-126746424D01*
X107609347Y-126750532D01*
X107612374Y-126755376D01*
X107617336Y-126760373D01*
X107617341Y-126760379D01*
X107671692Y-126815110D01*
X107672924Y-126816367D01*
X107726490Y-126871837D01*
X107726494Y-126871840D01*
X107731382Y-126876902D01*
X107736159Y-126880028D01*
X107740185Y-126884082D01*
X107746125Y-126887852D01*
X107746128Y-126887854D01*
X107811272Y-126929196D01*
X107812749Y-126930148D01*
X107830267Y-126941611D01*
X107883159Y-126976222D01*
X107888512Y-126978213D01*
X107893334Y-126981273D01*
X107896493Y-126982398D01*
X107947964Y-127029133D01*
X107966380Y-127097699D01*
X107944502Y-127165779D01*
X107853203Y-127299619D01*
X107798293Y-127344621D01*
X107727768Y-127352792D01*
X107664021Y-127321538D01*
X107643324Y-127297054D01*
X107562822Y-127172617D01*
X107562820Y-127172614D01*
X107560014Y-127168277D01*
X107409670Y-127003051D01*
X107405619Y-126999852D01*
X107405615Y-126999848D01*
X107238414Y-126867800D01*
X107238410Y-126867798D01*
X107234359Y-126864598D01*
X107198028Y-126844542D01*
X107144711Y-126815110D01*
X107038789Y-126756638D01*
X107033920Y-126754914D01*
X107033916Y-126754912D01*
X106833087Y-126683795D01*
X106833083Y-126683794D01*
X106828212Y-126682069D01*
X106823119Y-126681162D01*
X106823116Y-126681161D01*
X106613373Y-126643800D01*
X106613367Y-126643799D01*
X106608284Y-126642894D01*
X106534452Y-126641992D01*
X106390081Y-126640228D01*
X106390079Y-126640228D01*
X106384911Y-126640165D01*
X106164091Y-126673955D01*
X105951756Y-126743357D01*
X105919057Y-126760379D01*
X105780966Y-126832265D01*
X105753607Y-126846507D01*
X105749474Y-126849610D01*
X105749471Y-126849612D01*
X105579100Y-126977530D01*
X105574965Y-126980635D01*
X105549546Y-127007234D01*
X105463729Y-127097037D01*
X105420629Y-127142138D01*
X105313201Y-127299621D01*
X105258293Y-127344621D01*
X105187768Y-127352792D01*
X105124021Y-127321538D01*
X105103324Y-127297054D01*
X105022822Y-127172617D01*
X105022820Y-127172614D01*
X105020014Y-127168277D01*
X104869670Y-127003051D01*
X104865619Y-126999852D01*
X104865615Y-126999848D01*
X104698414Y-126867800D01*
X104698410Y-126867798D01*
X104694359Y-126864598D01*
X104658028Y-126844542D01*
X104604711Y-126815110D01*
X104498789Y-126756638D01*
X104493920Y-126754914D01*
X104493916Y-126754912D01*
X104293087Y-126683795D01*
X104293083Y-126683794D01*
X104288212Y-126682069D01*
X104283119Y-126681162D01*
X104283116Y-126681161D01*
X104073373Y-126643800D01*
X104073367Y-126643799D01*
X104068284Y-126642894D01*
X103994452Y-126641992D01*
X103850081Y-126640228D01*
X103850079Y-126640228D01*
X103844911Y-126640165D01*
X103624091Y-126673955D01*
X103411756Y-126743357D01*
X103379057Y-126760379D01*
X103240966Y-126832265D01*
X103213607Y-126846507D01*
X103209474Y-126849610D01*
X103209471Y-126849612D01*
X103039100Y-126977530D01*
X103034965Y-126980635D01*
X102956252Y-127063004D01*
X102954283Y-127065064D01*
X102892759Y-127100494D01*
X102821846Y-127097037D01*
X102764060Y-127055791D01*
X102745207Y-127022243D01*
X102703767Y-126911703D01*
X102700615Y-126903295D01*
X102613261Y-126786739D01*
X102496705Y-126699385D01*
X102360316Y-126648255D01*
X102298134Y-126641500D01*
X100501866Y-126641500D01*
X100439684Y-126648255D01*
X100303295Y-126699385D01*
X100186739Y-126786739D01*
X100099385Y-126903295D01*
X100048255Y-127039684D01*
X100041500Y-127101866D01*
X100041500Y-128615500D01*
X100021498Y-128683621D01*
X99967842Y-128730114D01*
X99915500Y-128741500D01*
X99759500Y-128741500D01*
X99691379Y-128721498D01*
X99644886Y-128667842D01*
X99633500Y-128615500D01*
X99633500Y-124578768D01*
X99634027Y-124567585D01*
X99635702Y-124560092D01*
X99633562Y-124492001D01*
X99633500Y-124488044D01*
X99633500Y-124460144D01*
X99632996Y-124456153D01*
X99632063Y-124444311D01*
X99630923Y-124408036D01*
X99630674Y-124400111D01*
X99625021Y-124380652D01*
X99621012Y-124361293D01*
X99620846Y-124359983D01*
X99618474Y-124341203D01*
X99615558Y-124333837D01*
X99615556Y-124333831D01*
X99602200Y-124300098D01*
X99598355Y-124288868D01*
X99588230Y-124254017D01*
X99588230Y-124254016D01*
X99586019Y-124246407D01*
X99575705Y-124228966D01*
X99567008Y-124211213D01*
X99562472Y-124199758D01*
X99559552Y-124192383D01*
X99533563Y-124156612D01*
X99527047Y-124146692D01*
X99508578Y-124115463D01*
X99504542Y-124108638D01*
X99490221Y-124094317D01*
X99477380Y-124079283D01*
X99470131Y-124069306D01*
X99465472Y-124062893D01*
X99459368Y-124057843D01*
X99459363Y-124057838D01*
X99431402Y-124034707D01*
X99422621Y-124026717D01*
X98834420Y-123438515D01*
X98800395Y-123376203D01*
X98798301Y-123363465D01*
X98798010Y-123360873D01*
X98793397Y-123319745D01*
X98737641Y-123159636D01*
X98736064Y-123155106D01*
X98736062Y-123155103D01*
X98733745Y-123148448D01*
X98637626Y-122994624D01*
X98628835Y-122985771D01*
X98514778Y-122870915D01*
X98514774Y-122870912D01*
X98509815Y-122865918D01*
X98498697Y-122858862D01*
X98399654Y-122796008D01*
X98356666Y-122768727D01*
X98327463Y-122758328D01*
X98192425Y-122710243D01*
X98192420Y-122710242D01*
X98185790Y-122707881D01*
X98178802Y-122707048D01*
X98178799Y-122707047D01*
X98055698Y-122692368D01*
X98005680Y-122686404D01*
X97998677Y-122687140D01*
X97998676Y-122687140D01*
X97832288Y-122704628D01*
X97832286Y-122704629D01*
X97825288Y-122705364D01*
X97653579Y-122763818D01*
X97604828Y-122793810D01*
X97505095Y-122855166D01*
X97505092Y-122855168D01*
X97499088Y-122858862D01*
X97494053Y-122863793D01*
X97494050Y-122863795D01*
X97374525Y-122980843D01*
X97369493Y-122985771D01*
X97271235Y-123138238D01*
X97268826Y-123144858D01*
X97268824Y-123144861D01*
X97211606Y-123302066D01*
X97209197Y-123308685D01*
X97186463Y-123488640D01*
X97204163Y-123669160D01*
X97261418Y-123841273D01*
X97265065Y-123847295D01*
X97265066Y-123847297D01*
X97326639Y-123948966D01*
X97355380Y-123996424D01*
X97360269Y-124001487D01*
X97360270Y-124001488D01*
X97392350Y-124034707D01*
X97481382Y-124126902D01*
X97521380Y-124153076D01*
X97581448Y-124192383D01*
X97633159Y-124226222D01*
X97639763Y-124228678D01*
X97639765Y-124228679D01*
X97796558Y-124286990D01*
X97796560Y-124286990D01*
X97803168Y-124289448D01*
X97810153Y-124290380D01*
X97810157Y-124290381D01*
X97845087Y-124295041D01*
X97865187Y-124297723D01*
X97930063Y-124326558D01*
X97937617Y-124333521D01*
X98329595Y-124725499D01*
X98363621Y-124787811D01*
X98366500Y-124814594D01*
X98366500Y-126526933D01*
X98346498Y-126595054D01*
X98292842Y-126641547D01*
X98222568Y-126651651D01*
X98216079Y-126650415D01*
X98210316Y-126648255D01*
X98148134Y-126641500D01*
X96351866Y-126641500D01*
X96289684Y-126648255D01*
X96153295Y-126699385D01*
X96036739Y-126786739D01*
X95949385Y-126903295D01*
X95946233Y-126911703D01*
X95904919Y-127021907D01*
X95862277Y-127078671D01*
X95795716Y-127103371D01*
X95726367Y-127088163D01*
X95693743Y-127062476D01*
X95643151Y-127006875D01*
X95643142Y-127006866D01*
X95639670Y-127003051D01*
X95635619Y-126999852D01*
X95635615Y-126999848D01*
X95468414Y-126867800D01*
X95468410Y-126867798D01*
X95464359Y-126864598D01*
X95428028Y-126844542D01*
X95374711Y-126815110D01*
X95268789Y-126756638D01*
X95263920Y-126754914D01*
X95263916Y-126754912D01*
X95063087Y-126683795D01*
X95063083Y-126683794D01*
X95058212Y-126682069D01*
X95053119Y-126681162D01*
X95053116Y-126681161D01*
X94843373Y-126643800D01*
X94843367Y-126643799D01*
X94838284Y-126642894D01*
X94764452Y-126641992D01*
X94620081Y-126640228D01*
X94620079Y-126640228D01*
X94614911Y-126640165D01*
X94394091Y-126673955D01*
X94181756Y-126743357D01*
X94149057Y-126760379D01*
X94010966Y-126832265D01*
X93983607Y-126846507D01*
X93979474Y-126849610D01*
X93979471Y-126849612D01*
X93809100Y-126977530D01*
X93804965Y-126980635D01*
X93779546Y-127007234D01*
X93693729Y-127097037D01*
X93650629Y-127142138D01*
X93647720Y-127146403D01*
X93647714Y-127146411D01*
X93632798Y-127168277D01*
X93543204Y-127299618D01*
X93542898Y-127300066D01*
X93487987Y-127345069D01*
X93417462Y-127353240D01*
X93353715Y-127321986D01*
X93333018Y-127297502D01*
X93252426Y-127172926D01*
X93246136Y-127164757D01*
X93102806Y-127007240D01*
X93095273Y-127000215D01*
X92928139Y-126868222D01*
X92919552Y-126862517D01*
X92733117Y-126759599D01*
X92723705Y-126755369D01*
X92522959Y-126684280D01*
X92512988Y-126681646D01*
X92441837Y-126668972D01*
X92428540Y-126670432D01*
X92424000Y-126684989D01*
X92424000Y-128128000D01*
X92403998Y-128196121D01*
X92350342Y-128242614D01*
X92298000Y-128254000D01*
X90853225Y-128254000D01*
X90839694Y-128257973D01*
X90838257Y-128267966D01*
X90868565Y-128402446D01*
X90871645Y-128412275D01*
X90934916Y-128568096D01*
X90942012Y-128638737D01*
X90909790Y-128702001D01*
X90848480Y-128737801D01*
X90818173Y-128741500D01*
X90259500Y-128741500D01*
X90191379Y-128721498D01*
X90144886Y-128667842D01*
X90133500Y-128615500D01*
X90133500Y-127734183D01*
X90834389Y-127734183D01*
X90835912Y-127742607D01*
X90848292Y-127746000D01*
X91897885Y-127746000D01*
X91913124Y-127741525D01*
X91914329Y-127740135D01*
X91916000Y-127732452D01*
X91916000Y-126683102D01*
X91912082Y-126669758D01*
X91897806Y-126667771D01*
X91859324Y-126673660D01*
X91849288Y-126676051D01*
X91646868Y-126742212D01*
X91637359Y-126746209D01*
X91448463Y-126844542D01*
X91439738Y-126850036D01*
X91269433Y-126977905D01*
X91261726Y-126984748D01*
X91114590Y-127138717D01*
X91108104Y-127146727D01*
X90988098Y-127322649D01*
X90983000Y-127331623D01*
X90893338Y-127524783D01*
X90889775Y-127534470D01*
X90834389Y-127734183D01*
X90133500Y-127734183D01*
X90133500Y-124578768D01*
X90134027Y-124567585D01*
X90135702Y-124560092D01*
X90133562Y-124492001D01*
X90133500Y-124488044D01*
X90133500Y-124460144D01*
X90132996Y-124456153D01*
X90132063Y-124444311D01*
X90130923Y-124408036D01*
X90130674Y-124400111D01*
X90125021Y-124380652D01*
X90121012Y-124361293D01*
X90120846Y-124359983D01*
X90118474Y-124341203D01*
X90115558Y-124333837D01*
X90115556Y-124333831D01*
X90102200Y-124300098D01*
X90098355Y-124288868D01*
X90088230Y-124254017D01*
X90088230Y-124254016D01*
X90086019Y-124246407D01*
X90075705Y-124228966D01*
X90067008Y-124211213D01*
X90062472Y-124199758D01*
X90059552Y-124192383D01*
X90033563Y-124156612D01*
X90027047Y-124146692D01*
X90008578Y-124115463D01*
X90004542Y-124108638D01*
X89990221Y-124094317D01*
X89977380Y-124079283D01*
X89970131Y-124069306D01*
X89965472Y-124062893D01*
X89959368Y-124057843D01*
X89959363Y-124057838D01*
X89931402Y-124034707D01*
X89922621Y-124026717D01*
X89334420Y-123438515D01*
X89300395Y-123376203D01*
X89298301Y-123363465D01*
X89298010Y-123360873D01*
X89293397Y-123319745D01*
X89237641Y-123159636D01*
X89236064Y-123155106D01*
X89236062Y-123155103D01*
X89233745Y-123148448D01*
X89137626Y-122994624D01*
X89128835Y-122985771D01*
X89014778Y-122870915D01*
X89014774Y-122870912D01*
X89009815Y-122865918D01*
X88998697Y-122858862D01*
X88899654Y-122796008D01*
X88856666Y-122768727D01*
X88827463Y-122758328D01*
X88692425Y-122710243D01*
X88692420Y-122710242D01*
X88685790Y-122707881D01*
X88678802Y-122707048D01*
X88678799Y-122707047D01*
X88555698Y-122692368D01*
X88505680Y-122686404D01*
X88498677Y-122687140D01*
X88498676Y-122687140D01*
X88332288Y-122704628D01*
X88332286Y-122704629D01*
X88325288Y-122705364D01*
X88153579Y-122763818D01*
X88104828Y-122793810D01*
X88005095Y-122855166D01*
X88005092Y-122855168D01*
X87999088Y-122858862D01*
X87994053Y-122863793D01*
X87994050Y-122863795D01*
X87874525Y-122980843D01*
X87869493Y-122985771D01*
X87771235Y-123138238D01*
X87768826Y-123144858D01*
X87768824Y-123144861D01*
X87711606Y-123302066D01*
X87709197Y-123308685D01*
X87686463Y-123488640D01*
X87704163Y-123669160D01*
X87761418Y-123841273D01*
X87765065Y-123847295D01*
X87765066Y-123847297D01*
X87826639Y-123948966D01*
X87855380Y-123996424D01*
X87860269Y-124001487D01*
X87860270Y-124001488D01*
X87892350Y-124034707D01*
X87981382Y-124126902D01*
X88021380Y-124153076D01*
X88081448Y-124192383D01*
X88133159Y-124226222D01*
X88139763Y-124228678D01*
X88139765Y-124228679D01*
X88296558Y-124286990D01*
X88296560Y-124286990D01*
X88303168Y-124289448D01*
X88310153Y-124290380D01*
X88310157Y-124290381D01*
X88345087Y-124295041D01*
X88365187Y-124297723D01*
X88430063Y-124326558D01*
X88437617Y-124333521D01*
X88829595Y-124725499D01*
X88863621Y-124787811D01*
X88866500Y-124814594D01*
X88866500Y-126526933D01*
X88846498Y-126595054D01*
X88792842Y-126641547D01*
X88722568Y-126651651D01*
X88716079Y-126650415D01*
X88710316Y-126648255D01*
X88648134Y-126641500D01*
X86851866Y-126641500D01*
X86789684Y-126648255D01*
X86653295Y-126699385D01*
X86536739Y-126786739D01*
X86449385Y-126903295D01*
X86446233Y-126911703D01*
X86404919Y-127021907D01*
X86362277Y-127078671D01*
X86295716Y-127103371D01*
X86226367Y-127088163D01*
X86193743Y-127062476D01*
X86143151Y-127006875D01*
X86143142Y-127006866D01*
X86139670Y-127003051D01*
X86135619Y-126999852D01*
X86135615Y-126999848D01*
X85968414Y-126867800D01*
X85968410Y-126867798D01*
X85964359Y-126864598D01*
X85928028Y-126844542D01*
X85874711Y-126815110D01*
X85768789Y-126756638D01*
X85763920Y-126754914D01*
X85763916Y-126754912D01*
X85563087Y-126683795D01*
X85563083Y-126683794D01*
X85558212Y-126682069D01*
X85553119Y-126681162D01*
X85553116Y-126681161D01*
X85343373Y-126643800D01*
X85343367Y-126643799D01*
X85338284Y-126642894D01*
X85264452Y-126641992D01*
X85120081Y-126640228D01*
X85120079Y-126640228D01*
X85114911Y-126640165D01*
X84894091Y-126673955D01*
X84681756Y-126743357D01*
X84649057Y-126760379D01*
X84510966Y-126832265D01*
X84483607Y-126846507D01*
X84479474Y-126849610D01*
X84479471Y-126849612D01*
X84309100Y-126977530D01*
X84304965Y-126980635D01*
X84279546Y-127007234D01*
X84193729Y-127097037D01*
X84150629Y-127142138D01*
X84147720Y-127146403D01*
X84147714Y-127146411D01*
X84132798Y-127168277D01*
X84043204Y-127299618D01*
X84042898Y-127300066D01*
X83987987Y-127345069D01*
X83917462Y-127353240D01*
X83853715Y-127321986D01*
X83833018Y-127297502D01*
X83752426Y-127172926D01*
X83746136Y-127164757D01*
X83602806Y-127007240D01*
X83595273Y-127000215D01*
X83428139Y-126868222D01*
X83419552Y-126862517D01*
X83233117Y-126759599D01*
X83223705Y-126755369D01*
X83022959Y-126684280D01*
X83012988Y-126681646D01*
X82941837Y-126668972D01*
X82928540Y-126670432D01*
X82924000Y-126684989D01*
X82924000Y-128128000D01*
X82903998Y-128196121D01*
X82850342Y-128242614D01*
X82798000Y-128254000D01*
X82542000Y-128254000D01*
X82473879Y-128233998D01*
X82427386Y-128180342D01*
X82416000Y-128128000D01*
X82416000Y-126683102D01*
X82412082Y-126669758D01*
X82397806Y-126667771D01*
X82359324Y-126673660D01*
X82349288Y-126676051D01*
X82173645Y-126733460D01*
X82102681Y-126735611D01*
X82041819Y-126699055D01*
X82010383Y-126635397D01*
X82008500Y-126613695D01*
X82008500Y-119969925D01*
X82028502Y-119901804D01*
X82045405Y-119880830D01*
X83880829Y-118045405D01*
X83943141Y-118011380D01*
X83969924Y-118008500D01*
X89188157Y-118008500D01*
X89201764Y-118009237D01*
X89233262Y-118012659D01*
X89233267Y-118012659D01*
X89239388Y-118013324D01*
X89265638Y-118011027D01*
X89289388Y-118008950D01*
X89294214Y-118008621D01*
X89296686Y-118008500D01*
X89299769Y-118008500D01*
X89311738Y-118007326D01*
X89342506Y-118004310D01*
X89343819Y-118004188D01*
X89388084Y-118000315D01*
X89436413Y-117996087D01*
X89441532Y-117994600D01*
X89446833Y-117994080D01*
X89535834Y-117967209D01*
X89536967Y-117966874D01*
X89620414Y-117942630D01*
X89620418Y-117942628D01*
X89626336Y-117940909D01*
X89631068Y-117938456D01*
X89636169Y-117936916D01*
X89641612Y-117934022D01*
X89718260Y-117893269D01*
X89719426Y-117892657D01*
X89796453Y-117852729D01*
X89801926Y-117849892D01*
X89806089Y-117846569D01*
X89810796Y-117844066D01*
X89882918Y-117785245D01*
X89883774Y-117784554D01*
X89922973Y-117753262D01*
X89925477Y-117750758D01*
X89926195Y-117750116D01*
X89930528Y-117746415D01*
X89964062Y-117719065D01*
X89993288Y-117683737D01*
X90001277Y-117674958D01*
X90985300Y-116690935D01*
X91969379Y-115706855D01*
X91979522Y-115697753D01*
X92004218Y-115677897D01*
X92009025Y-115674032D01*
X92041292Y-115635578D01*
X92044472Y-115631931D01*
X92046115Y-115630119D01*
X92048309Y-115627925D01*
X92075642Y-115594651D01*
X92076348Y-115593800D01*
X92124616Y-115536277D01*
X92136154Y-115522526D01*
X92138722Y-115517856D01*
X92142103Y-115513739D01*
X92186015Y-115431842D01*
X92186624Y-115430720D01*
X92228466Y-115354611D01*
X92228468Y-115354606D01*
X92231433Y-115349213D01*
X92233044Y-115344135D01*
X92235563Y-115339437D01*
X92262753Y-115250502D01*
X92263136Y-115249272D01*
X92289371Y-115166570D01*
X92291235Y-115160694D01*
X92291828Y-115155403D01*
X92293388Y-115150302D01*
X92294011Y-115144170D01*
X92294012Y-115144164D01*
X92302785Y-115057784D01*
X92302925Y-115056470D01*
X92303175Y-115054247D01*
X92306482Y-115024767D01*
X92308108Y-115010270D01*
X92308108Y-115010265D01*
X92308500Y-115006773D01*
X92308500Y-115003248D01*
X92308555Y-115002263D01*
X92309004Y-114996559D01*
X92312752Y-114959666D01*
X92312752Y-114959661D01*
X92313374Y-114953538D01*
X92309059Y-114907891D01*
X92308500Y-114896033D01*
X92308500Y-100509500D01*
X92328502Y-100441379D01*
X92382158Y-100394886D01*
X92434500Y-100383500D01*
X98561904Y-100383500D01*
X98630025Y-100403502D01*
X98676518Y-100457158D01*
X98687303Y-100497204D01*
X98704163Y-100669160D01*
X98761418Y-100841273D01*
X98765065Y-100847295D01*
X98765066Y-100847297D01*
X98828589Y-100952186D01*
X98855380Y-100996424D01*
X98981382Y-101126902D01*
X99133159Y-101226222D01*
X99139763Y-101228678D01*
X99139765Y-101228679D01*
X99296558Y-101286990D01*
X99296560Y-101286990D01*
X99303168Y-101289448D01*
X99386995Y-101300633D01*
X99475980Y-101312507D01*
X99475984Y-101312507D01*
X99482961Y-101313438D01*
X99489972Y-101312800D01*
X99489976Y-101312800D01*
X99632459Y-101299832D01*
X99663600Y-101296998D01*
X99670302Y-101294820D01*
X99670304Y-101294820D01*
X99829409Y-101243124D01*
X99829412Y-101243123D01*
X99836108Y-101240947D01*
X99991912Y-101148069D01*
X100123266Y-101022982D01*
X100223643Y-100871902D01*
X100270296Y-100749088D01*
X100285555Y-100708920D01*
X100285556Y-100708918D01*
X100288055Y-100702338D01*
X100291489Y-100677907D01*
X100312748Y-100526639D01*
X100312748Y-100526636D01*
X100313299Y-100522717D01*
X100313452Y-100511732D01*
X100313561Y-100503962D01*
X100313561Y-100503957D01*
X100313616Y-100500000D01*
X100293397Y-100319745D01*
X100233745Y-100148448D01*
X100152068Y-100017735D01*
X100133575Y-99960142D01*
X100133501Y-99960151D01*
X100133451Y-99959756D01*
X100132994Y-99956138D01*
X100132061Y-99944292D01*
X100130922Y-99908037D01*
X100130673Y-99900110D01*
X100125022Y-99880658D01*
X100121014Y-99861306D01*
X100119468Y-99849068D01*
X100119467Y-99849066D01*
X100118474Y-99841203D01*
X100102194Y-99800086D01*
X100098359Y-99788885D01*
X100086018Y-99746406D01*
X100081985Y-99739587D01*
X100081983Y-99739582D01*
X100075707Y-99728971D01*
X100067010Y-99711221D01*
X100059552Y-99692383D01*
X100033571Y-99656623D01*
X100027053Y-99646701D01*
X100008578Y-99615460D01*
X100008574Y-99615455D01*
X100004542Y-99608637D01*
X99990218Y-99594313D01*
X99977376Y-99579278D01*
X99965472Y-99562893D01*
X99931406Y-99534711D01*
X99922627Y-99526722D01*
X99753652Y-99357747D01*
X99746112Y-99349461D01*
X99742000Y-99342982D01*
X99692348Y-99296356D01*
X99689507Y-99293602D01*
X99669770Y-99273865D01*
X99666573Y-99271385D01*
X99657551Y-99263680D01*
X99631100Y-99238841D01*
X99625321Y-99233414D01*
X99618375Y-99229595D01*
X99618372Y-99229593D01*
X99607566Y-99223652D01*
X99591047Y-99212801D01*
X99590583Y-99212441D01*
X99575041Y-99200386D01*
X99567772Y-99197241D01*
X99567768Y-99197238D01*
X99534463Y-99182826D01*
X99523813Y-99177609D01*
X99485060Y-99156305D01*
X99465437Y-99151267D01*
X99446734Y-99144863D01*
X99435420Y-99139967D01*
X99435419Y-99139967D01*
X99428145Y-99136819D01*
X99420322Y-99135580D01*
X99420312Y-99135577D01*
X99384476Y-99129901D01*
X99372856Y-99127495D01*
X99337711Y-99118472D01*
X99337710Y-99118472D01*
X99330030Y-99116500D01*
X99309776Y-99116500D01*
X99290065Y-99114949D01*
X99277886Y-99113020D01*
X99270057Y-99111780D01*
X99262165Y-99112526D01*
X99226039Y-99115941D01*
X99214181Y-99116500D01*
X92554937Y-99116500D01*
X92486816Y-99096498D01*
X92440323Y-99042842D01*
X92430219Y-98972568D01*
X92459713Y-98907988D01*
X92465842Y-98901405D01*
X92467636Y-98899611D01*
X92471398Y-98896398D01*
X92640223Y-98698729D01*
X92776048Y-98477084D01*
X92845150Y-98310258D01*
X92873633Y-98241493D01*
X92873634Y-98241491D01*
X92875527Y-98236920D01*
X92896285Y-98150457D01*
X92935056Y-97988963D01*
X92935057Y-97988957D01*
X92936211Y-97984150D01*
X92956607Y-97725000D01*
X92936211Y-97465850D01*
X92909114Y-97352979D01*
X92876682Y-97217892D01*
X92875527Y-97213080D01*
X92873633Y-97208507D01*
X92777942Y-96977488D01*
X92777941Y-96977486D01*
X92776048Y-96972916D01*
X92640223Y-96751271D01*
X92564108Y-96662151D01*
X92474611Y-96557364D01*
X92471398Y-96553602D01*
X92273729Y-96384777D01*
X92052084Y-96248952D01*
X92047514Y-96247059D01*
X92047512Y-96247058D01*
X91816493Y-96151367D01*
X91816491Y-96151366D01*
X91811920Y-96149473D01*
X91725457Y-96128715D01*
X91563963Y-96089944D01*
X91563957Y-96089943D01*
X91559150Y-96088789D01*
X91300000Y-96068393D01*
X91040850Y-96088789D01*
X91036043Y-96089943D01*
X91036037Y-96089944D01*
X90874543Y-96128715D01*
X90788080Y-96149473D01*
X90783509Y-96151366D01*
X90783507Y-96151367D01*
X90552488Y-96247058D01*
X90552486Y-96247059D01*
X90547916Y-96248952D01*
X90326271Y-96384777D01*
X90128602Y-96553602D01*
X90125389Y-96557364D01*
X90035893Y-96662151D01*
X89959777Y-96751271D01*
X89823952Y-96972916D01*
X89822059Y-96977486D01*
X89822058Y-96977488D01*
X89771783Y-97098864D01*
X89744469Y-97139742D01*
X89172021Y-97712189D01*
X89164408Y-97726132D01*
X89164539Y-97727966D01*
X89168790Y-97734580D01*
X89744469Y-98310258D01*
X89771782Y-98351135D01*
X89823952Y-98477084D01*
X89959777Y-98698729D01*
X90128602Y-98896398D01*
X90134465Y-98901405D01*
X90247330Y-98997801D01*
X90286140Y-99057251D01*
X90291500Y-99093612D01*
X90291500Y-114480076D01*
X90271498Y-114548197D01*
X90254595Y-114569171D01*
X88869171Y-115954595D01*
X88806859Y-115988621D01*
X88780076Y-115991500D01*
X83561843Y-115991500D01*
X83548236Y-115990763D01*
X83516738Y-115987341D01*
X83516733Y-115987341D01*
X83510612Y-115986676D01*
X83484362Y-115988973D01*
X83460612Y-115991050D01*
X83455786Y-115991379D01*
X83453314Y-115991500D01*
X83450231Y-115991500D01*
X83438262Y-115992674D01*
X83407494Y-115995690D01*
X83406181Y-115995812D01*
X83361916Y-115999685D01*
X83313587Y-116003913D01*
X83308468Y-116005400D01*
X83303167Y-116005920D01*
X83214166Y-116032791D01*
X83213033Y-116033126D01*
X83129586Y-116057370D01*
X83129582Y-116057372D01*
X83123664Y-116059091D01*
X83118932Y-116061544D01*
X83113831Y-116063084D01*
X83108388Y-116065978D01*
X83031740Y-116106731D01*
X83030574Y-116107343D01*
X82969445Y-116139030D01*
X82948074Y-116150108D01*
X82943911Y-116153431D01*
X82939204Y-116155934D01*
X82867082Y-116214755D01*
X82866226Y-116215446D01*
X82827027Y-116246738D01*
X82824523Y-116249242D01*
X82823805Y-116249884D01*
X82819472Y-116253585D01*
X82785938Y-116280935D01*
X82782011Y-116285682D01*
X82782009Y-116285684D01*
X82756713Y-116316262D01*
X82748723Y-116325042D01*
X81642604Y-117431162D01*
X80723595Y-118350171D01*
X80661283Y-118384196D01*
X80590468Y-118379132D01*
X80533632Y-118336585D01*
X80508821Y-118270065D01*
X80508500Y-118261076D01*
X80508500Y-97725000D01*
X84643393Y-97725000D01*
X84663789Y-97984150D01*
X84664943Y-97988957D01*
X84664944Y-97988963D01*
X84703715Y-98150457D01*
X84724473Y-98236920D01*
X84726366Y-98241491D01*
X84726367Y-98241493D01*
X84754851Y-98310258D01*
X84823952Y-98477084D01*
X84959777Y-98698729D01*
X85128602Y-98896398D01*
X85326271Y-99065223D01*
X85547916Y-99201048D01*
X85552486Y-99202941D01*
X85552488Y-99202942D01*
X85782353Y-99298155D01*
X85788080Y-99300527D01*
X85874543Y-99321285D01*
X86036037Y-99360056D01*
X86036043Y-99360057D01*
X86040850Y-99361211D01*
X86300000Y-99381607D01*
X86559150Y-99361211D01*
X86563957Y-99360057D01*
X86563963Y-99360056D01*
X86725457Y-99321285D01*
X86811920Y-99300527D01*
X86817647Y-99298155D01*
X87047512Y-99202942D01*
X87047514Y-99202941D01*
X87052084Y-99201048D01*
X87273729Y-99065223D01*
X87277225Y-99062237D01*
X87828117Y-99062237D01*
X87832439Y-99068416D01*
X88043924Y-99198014D01*
X88052718Y-99202495D01*
X88283662Y-99298155D01*
X88293047Y-99301204D01*
X88536115Y-99359561D01*
X88545862Y-99361104D01*
X88795070Y-99380717D01*
X88804930Y-99380717D01*
X89054138Y-99361104D01*
X89063885Y-99359561D01*
X89306953Y-99301204D01*
X89316338Y-99298155D01*
X89547282Y-99202495D01*
X89556076Y-99198014D01*
X89766128Y-99069294D01*
X89771956Y-99060365D01*
X89765952Y-99050163D01*
X88812811Y-98097021D01*
X88798868Y-98089408D01*
X88797034Y-98089539D01*
X88790420Y-98093790D01*
X87835506Y-99048705D01*
X87828117Y-99062237D01*
X87277225Y-99062237D01*
X87471398Y-98896398D01*
X87640223Y-98698729D01*
X87776048Y-98477084D01*
X87828218Y-98351135D01*
X87855531Y-98310258D01*
X88427979Y-97737811D01*
X88435592Y-97723868D01*
X88435461Y-97722034D01*
X88431210Y-97715420D01*
X87855531Y-97139742D01*
X87828217Y-97098864D01*
X87777942Y-96977488D01*
X87777941Y-96977486D01*
X87776048Y-96972916D01*
X87640223Y-96751271D01*
X87564108Y-96662151D01*
X87474611Y-96557364D01*
X87471398Y-96553602D01*
X87279417Y-96389635D01*
X87828044Y-96389635D01*
X87834048Y-96399837D01*
X88787189Y-97352979D01*
X88801132Y-97360592D01*
X88802966Y-97360461D01*
X88809580Y-97356210D01*
X89764494Y-96401295D01*
X89771883Y-96387763D01*
X89767561Y-96381584D01*
X89556076Y-96251986D01*
X89547282Y-96247505D01*
X89316338Y-96151845D01*
X89306953Y-96148796D01*
X89063885Y-96090439D01*
X89054138Y-96088896D01*
X88804930Y-96069283D01*
X88795070Y-96069283D01*
X88545862Y-96088896D01*
X88536115Y-96090439D01*
X88293047Y-96148796D01*
X88283662Y-96151845D01*
X88052718Y-96247505D01*
X88043924Y-96251986D01*
X87833872Y-96380706D01*
X87828044Y-96389635D01*
X87279417Y-96389635D01*
X87273729Y-96384777D01*
X87052084Y-96248952D01*
X87047514Y-96247059D01*
X87047512Y-96247058D01*
X86816493Y-96151367D01*
X86816491Y-96151366D01*
X86811920Y-96149473D01*
X86725457Y-96128715D01*
X86563963Y-96089944D01*
X86563957Y-96089943D01*
X86559150Y-96088789D01*
X86300000Y-96068393D01*
X86040850Y-96088789D01*
X86036043Y-96089943D01*
X86036037Y-96089944D01*
X85874543Y-96128715D01*
X85788080Y-96149473D01*
X85783509Y-96151366D01*
X85783507Y-96151367D01*
X85552488Y-96247058D01*
X85552486Y-96247059D01*
X85547916Y-96248952D01*
X85326271Y-96384777D01*
X85128602Y-96553602D01*
X85125389Y-96557364D01*
X85035893Y-96662151D01*
X84959777Y-96751271D01*
X84823952Y-96972916D01*
X84822059Y-96977486D01*
X84822058Y-96977488D01*
X84726367Y-97208507D01*
X84724473Y-97213080D01*
X84723318Y-97217892D01*
X84690887Y-97352979D01*
X84663789Y-97465850D01*
X84643393Y-97725000D01*
X80508500Y-97725000D01*
X80508500Y-92525000D01*
X116943393Y-92525000D01*
X116963789Y-92784150D01*
X117024473Y-93036920D01*
X117123952Y-93277084D01*
X117259777Y-93498729D01*
X117428602Y-93696398D01*
X117626271Y-93865223D01*
X117847916Y-94001048D01*
X117852486Y-94002941D01*
X117852488Y-94002942D01*
X118083507Y-94098633D01*
X118088080Y-94100527D01*
X118174543Y-94121285D01*
X118336037Y-94160056D01*
X118336043Y-94160057D01*
X118340850Y-94161211D01*
X118600000Y-94181607D01*
X118859150Y-94161211D01*
X118863957Y-94160057D01*
X118863963Y-94160056D01*
X119025457Y-94121285D01*
X119111920Y-94100527D01*
X119116493Y-94098633D01*
X119347512Y-94002942D01*
X119347514Y-94002941D01*
X119352084Y-94001048D01*
X119573729Y-93865223D01*
X119771398Y-93696398D01*
X119940223Y-93498729D01*
X120076048Y-93277084D01*
X120175527Y-93036920D01*
X120236211Y-92784150D01*
X120256607Y-92525000D01*
X120236211Y-92265850D01*
X120175527Y-92013080D01*
X120076048Y-91772916D01*
X119940223Y-91551271D01*
X119771398Y-91353602D01*
X119573729Y-91184777D01*
X119352084Y-91048952D01*
X119347514Y-91047059D01*
X119347512Y-91047058D01*
X119116493Y-90951367D01*
X119116491Y-90951366D01*
X119111920Y-90949473D01*
X119025457Y-90928715D01*
X118863963Y-90889944D01*
X118863957Y-90889943D01*
X118859150Y-90888789D01*
X118600000Y-90868393D01*
X118340850Y-90888789D01*
X118336043Y-90889943D01*
X118336037Y-90889944D01*
X118174543Y-90928715D01*
X118088080Y-90949473D01*
X118083509Y-90951366D01*
X118083507Y-90951367D01*
X117852488Y-91047058D01*
X117852486Y-91047059D01*
X117847916Y-91048952D01*
X117626271Y-91184777D01*
X117428602Y-91353602D01*
X117259777Y-91551271D01*
X117123952Y-91772916D01*
X117024473Y-92013080D01*
X116963789Y-92265850D01*
X116943393Y-92525000D01*
X80508500Y-92525000D01*
X80508500Y-88303250D01*
X80510246Y-88282345D01*
X80512770Y-88267344D01*
X80512770Y-88267341D01*
X80513576Y-88262552D01*
X80513729Y-88250000D01*
X80513040Y-88245190D01*
X80512856Y-88242368D01*
X80512114Y-88234401D01*
X80495743Y-87859444D01*
X80495742Y-87859433D01*
X80495622Y-87856684D01*
X80444236Y-87466361D01*
X80359025Y-87082003D01*
X80358198Y-87079379D01*
X80241469Y-86709161D01*
X80241466Y-86709153D01*
X80240640Y-86706533D01*
X80089981Y-86342810D01*
X80014237Y-86197307D01*
X80000000Y-86139127D01*
X80000000Y-80525000D01*
X87943393Y-80525000D01*
X87963789Y-80784150D01*
X88024473Y-81036920D01*
X88123952Y-81277084D01*
X88259777Y-81498729D01*
X88428602Y-81696398D01*
X88626271Y-81865223D01*
X88847916Y-82001048D01*
X88852486Y-82002941D01*
X88852488Y-82002942D01*
X89083507Y-82098633D01*
X89088080Y-82100527D01*
X89174543Y-82121285D01*
X89336037Y-82160056D01*
X89336043Y-82160057D01*
X89340850Y-82161211D01*
X89600000Y-82181607D01*
X89859150Y-82161211D01*
X89863957Y-82160057D01*
X89863963Y-82160056D01*
X90025457Y-82121285D01*
X90111920Y-82100527D01*
X90116493Y-82098633D01*
X90347512Y-82002942D01*
X90347514Y-82002941D01*
X90352084Y-82001048D01*
X90573729Y-81865223D01*
X90771398Y-81696398D01*
X90940223Y-81498729D01*
X91076048Y-81277084D01*
X91175527Y-81036920D01*
X91236211Y-80784150D01*
X91256607Y-80525000D01*
X91236211Y-80265850D01*
X91175527Y-80013080D01*
X91076048Y-79772916D01*
X90940223Y-79551271D01*
X90771398Y-79353602D01*
X90573729Y-79184777D01*
X90352084Y-79048952D01*
X90347514Y-79047059D01*
X90347512Y-79047058D01*
X90116493Y-78951367D01*
X90116491Y-78951366D01*
X90111920Y-78949473D01*
X90025457Y-78928715D01*
X89863963Y-78889944D01*
X89863957Y-78889943D01*
X89859150Y-78888789D01*
X89600000Y-78868393D01*
X89340850Y-78888789D01*
X89336043Y-78889943D01*
X89336037Y-78889944D01*
X89174543Y-78928715D01*
X89088080Y-78949473D01*
X89083509Y-78951366D01*
X89083507Y-78951367D01*
X88852488Y-79047058D01*
X88852486Y-79047059D01*
X88847916Y-79048952D01*
X88626271Y-79184777D01*
X88428602Y-79353602D01*
X88259777Y-79551271D01*
X88123952Y-79772916D01*
X88024473Y-80013080D01*
X87963789Y-80265850D01*
X87943393Y-80525000D01*
X80000000Y-80525000D01*
X80000000Y-77634500D01*
X80020002Y-77566379D01*
X80073658Y-77519886D01*
X80126000Y-77508500D01*
X125124000Y-77508500D01*
X125192121Y-77528502D01*
G37*
%TD.AperFunction*%
%TD*%
M02*
