%TF.GenerationSoftware,KiCad,Pcbnew,(6.0.6)*%
%TF.CreationDate,2022-10-17T00:58:34+02:00*%
%TF.ProjectId,Spanner,5370616e-6e65-4722-9e6b-696361645f70,rev?*%
%TF.SameCoordinates,Original*%
%TF.FileFunction,Copper,L1,Top*%
%TF.FilePolarity,Positive*%
%FSLAX46Y46*%
G04 Gerber Fmt 4.6, Leading zero omitted, Abs format (unit mm)*
G04 Created by KiCad (PCBNEW (6.0.6)) date 2022-10-17 00:58:34*
%MOMM*%
%LPD*%
G01*
G04 APERTURE LIST*
G04 Aperture macros list*
%AMRoundRect*
0 Rectangle with rounded corners*
0 $1 Rounding radius*
0 $2 $3 $4 $5 $6 $7 $8 $9 X,Y pos of 4 corners*
0 Add a 4 corners polygon primitive as box body*
4,1,4,$2,$3,$4,$5,$6,$7,$8,$9,$2,$3,0*
0 Add four circle primitives for the rounded corners*
1,1,$1+$1,$2,$3*
1,1,$1+$1,$4,$5*
1,1,$1+$1,$6,$7*
1,1,$1+$1,$8,$9*
0 Add four rect primitives between the rounded corners*
20,1,$1+$1,$2,$3,$4,$5,0*
20,1,$1+$1,$4,$5,$6,$7,0*
20,1,$1+$1,$6,$7,$8,$9,0*
20,1,$1+$1,$8,$9,$2,$3,0*%
G04 Aperture macros list end*
%TA.AperFunction,SMDPad,CuDef*%
%ADD10RoundRect,0.200000X-0.200000X-0.275000X0.200000X-0.275000X0.200000X0.275000X-0.200000X0.275000X0*%
%TD*%
%TA.AperFunction,SMDPad,CuDef*%
%ADD11RoundRect,0.200000X-0.275000X0.200000X-0.275000X-0.200000X0.275000X-0.200000X0.275000X0.200000X0*%
%TD*%
%TA.AperFunction,SMDPad,CuDef*%
%ADD12C,1.000000*%
%TD*%
%TA.AperFunction,SMDPad,CuDef*%
%ADD13RoundRect,0.150000X-0.587500X-0.150000X0.587500X-0.150000X0.587500X0.150000X-0.587500X0.150000X0*%
%TD*%
%TA.AperFunction,SMDPad,CuDef*%
%ADD14RoundRect,0.225000X0.225000X0.250000X-0.225000X0.250000X-0.225000X-0.250000X0.225000X-0.250000X0*%
%TD*%
%TA.AperFunction,SMDPad,CuDef*%
%ADD15RoundRect,0.200000X0.275000X-0.200000X0.275000X0.200000X-0.275000X0.200000X-0.275000X-0.200000X0*%
%TD*%
%TA.AperFunction,SMDPad,CuDef*%
%ADD16R,0.600000X0.700000*%
%TD*%
%TA.AperFunction,SMDPad,CuDef*%
%ADD17RoundRect,0.200000X0.200000X0.275000X-0.200000X0.275000X-0.200000X-0.275000X0.200000X-0.275000X0*%
%TD*%
%TA.AperFunction,ComponentPad*%
%ADD18R,1.700000X1.700000*%
%TD*%
%TA.AperFunction,ComponentPad*%
%ADD19O,1.700000X1.700000*%
%TD*%
%TA.AperFunction,SMDPad,CuDef*%
%ADD20RoundRect,0.150000X0.150000X-0.587500X0.150000X0.587500X-0.150000X0.587500X-0.150000X-0.587500X0*%
%TD*%
%TA.AperFunction,SMDPad,CuDef*%
%ADD21RoundRect,0.150000X0.587500X0.150000X-0.587500X0.150000X-0.587500X-0.150000X0.587500X-0.150000X0*%
%TD*%
%TA.AperFunction,SMDPad,CuDef*%
%ADD22R,2.000000X1.000000*%
%TD*%
%TA.AperFunction,SMDPad,CuDef*%
%ADD23RoundRect,0.218750X0.256250X-0.218750X0.256250X0.218750X-0.256250X0.218750X-0.256250X-0.218750X0*%
%TD*%
%TA.AperFunction,SMDPad,CuDef*%
%ADD24RoundRect,0.225000X0.250000X-0.225000X0.250000X0.225000X-0.250000X0.225000X-0.250000X-0.225000X0*%
%TD*%
%TA.AperFunction,ComponentPad*%
%ADD25R,0.840000X0.840000*%
%TD*%
%TA.AperFunction,ComponentPad*%
%ADD26C,0.840000*%
%TD*%
%TA.AperFunction,ComponentPad*%
%ADD27O,1.850000X0.850000*%
%TD*%
%TA.AperFunction,SMDPad,CuDef*%
%ADD28RoundRect,0.150000X0.512500X0.150000X-0.512500X0.150000X-0.512500X-0.150000X0.512500X-0.150000X0*%
%TD*%
%TA.AperFunction,SMDPad,CuDef*%
%ADD29RoundRect,0.150000X-0.150000X0.512500X-0.150000X-0.512500X0.150000X-0.512500X0.150000X0.512500X0*%
%TD*%
%TA.AperFunction,SMDPad,CuDef*%
%ADD30RoundRect,0.218750X-0.256250X0.218750X-0.256250X-0.218750X0.256250X-0.218750X0.256250X0.218750X0*%
%TD*%
%TA.AperFunction,SMDPad,CuDef*%
%ADD31RoundRect,0.150000X-0.150000X0.587500X-0.150000X-0.587500X0.150000X-0.587500X0.150000X0.587500X0*%
%TD*%
%TA.AperFunction,SMDPad,CuDef*%
%ADD32RoundRect,0.225000X-0.250000X0.225000X-0.250000X-0.225000X0.250000X-0.225000X0.250000X0.225000X0*%
%TD*%
%TA.AperFunction,SMDPad,CuDef*%
%ADD33RoundRect,0.125000X-0.125000X0.625000X-0.125000X-0.625000X0.125000X-0.625000X0.125000X0.625000X0*%
%TD*%
%TA.AperFunction,SMDPad,CuDef*%
%ADD34RoundRect,0.125000X-0.625000X0.125000X-0.625000X-0.125000X0.625000X-0.125000X0.625000X0.125000X0*%
%TD*%
%TA.AperFunction,SMDPad,CuDef*%
%ADD35RoundRect,0.218750X-0.218750X-0.256250X0.218750X-0.256250X0.218750X0.256250X-0.218750X0.256250X0*%
%TD*%
%TA.AperFunction,SMDPad,CuDef*%
%ADD36R,1.050000X1.000000*%
%TD*%
%TA.AperFunction,SMDPad,CuDef*%
%ADD37R,2.200000X1.050000*%
%TD*%
%TA.AperFunction,ComponentPad*%
%ADD38C,2.286000*%
%TD*%
%TA.AperFunction,ViaPad*%
%ADD39C,0.600000*%
%TD*%
%TA.AperFunction,Conductor*%
%ADD40C,0.250000*%
%TD*%
%TA.AperFunction,Conductor*%
%ADD41C,0.350000*%
%TD*%
%TA.AperFunction,Conductor*%
%ADD42C,0.600000*%
%TD*%
%TA.AperFunction,Conductor*%
%ADD43C,0.200000*%
%TD*%
G04 APERTURE END LIST*
D10*
%TO.P,R10,1*%
%TO.N,GND*%
X82175000Y-121750000D03*
%TO.P,R10,2*%
%TO.N,Net-(Q1-Pad1)*%
X83825000Y-121750000D03*
%TD*%
D11*
%TO.P,R20,1*%
%TO.N,GND*%
X109250000Y-99925000D03*
%TO.P,R20,2*%
%TO.N,Net-(Q5-Pad1)*%
X109250000Y-101575000D03*
%TD*%
D12*
%TO.P,TP2,1,1*%
%TO.N,HALL_TTL_B*%
X102000000Y-119250000D03*
%TD*%
D13*
%TO.P,Q3,1,B*%
%TO.N,Net-(Q3-Pad1)*%
X93062500Y-123300000D03*
%TO.P,Q3,2,E*%
%TO.N,GND*%
X93062500Y-125200000D03*
%TO.P,Q3,3,C*%
%TO.N,PWM_OUT_2*%
X94937500Y-124250000D03*
%TD*%
D10*
%TO.P,R4,1*%
%TO.N,Net-(R4-Pad1)*%
X116675000Y-103750000D03*
%TO.P,R4,2*%
%TO.N,GND*%
X118325000Y-103750000D03*
%TD*%
D14*
%TO.P,C1,1*%
%TO.N,+3V3*%
X105415501Y-112797137D03*
%TO.P,C1,2*%
%TO.N,GND*%
X103865501Y-112797137D03*
%TD*%
D10*
%TO.P,R24,1*%
%TO.N,GND*%
X116675000Y-109750000D03*
%TO.P,R24,2*%
%TO.N,Net-(Q6-Pad1)*%
X118325000Y-109750000D03*
%TD*%
D15*
%TO.P,R5,1*%
%TO.N,Net-(R5-Pad1)*%
X97000000Y-99325000D03*
%TO.P,R5,2*%
%TO.N,Net-(D1-Pad2)*%
X97000000Y-97675000D03*
%TD*%
D16*
%TO.P,D4,1,K*%
%TO.N,HALL_TTL_A*%
X103525000Y-122250000D03*
%TO.P,D4,2,A*%
%TO.N,GND*%
X104925000Y-122250000D03*
%TD*%
D11*
%TO.P,R1k1,1*%
%TO.N,+5V*%
X87250000Y-123425000D03*
%TO.P,R1k1,2*%
%TO.N,PWM_OUT_1*%
X87250000Y-125075000D03*
%TD*%
D16*
%TO.P,D5,1,K*%
%TO.N,HALL_TTL_B*%
X101475000Y-122250000D03*
%TO.P,D5,2,A*%
%TO.N,GND*%
X100075000Y-122250000D03*
%TD*%
D13*
%TO.P,Q1,1,B*%
%TO.N,Net-(Q1-Pad1)*%
X83562500Y-123300000D03*
%TO.P,Q1,2,E*%
%TO.N,GND*%
X83562500Y-125200000D03*
%TO.P,Q1,3,C*%
%TO.N,PWM_OUT_1*%
X85437500Y-124250000D03*
%TD*%
D10*
%TO.P,R18,1*%
%TO.N,VOLTAGE_MEASUREMENT*%
X114425000Y-97500000D03*
%TO.P,R18,2*%
%TO.N,GND*%
X116075000Y-97500000D03*
%TD*%
D14*
%TO.P,C6,1*%
%TO.N,GND*%
X105000000Y-120750000D03*
%TO.P,C6,2*%
%TO.N,HALL_TTL_A*%
X103450000Y-120750000D03*
%TD*%
D10*
%TO.P,R23,1*%
%TO.N,LED_EXT*%
X116675000Y-111250000D03*
%TO.P,R23,2*%
%TO.N,Net-(Q6-Pad1)*%
X118325000Y-111250000D03*
%TD*%
D17*
%TO.P,R11,1*%
%TO.N,Net-(R11-Pad1)*%
X95575000Y-97500000D03*
%TO.P,R11,2*%
%TO.N,GND*%
X93925000Y-97500000D03*
%TD*%
D18*
%TO.P,J5,1,Pin_1*%
%TO.N,PWM_OUT_1*%
X87750000Y-128000000D03*
D19*
%TO.P,J5,2,Pin_2*%
%TO.N,+5V*%
X85210000Y-128000000D03*
%TO.P,J5,3,Pin_3*%
%TO.N,GND*%
X82670000Y-128000000D03*
%TD*%
D17*
%TO.P,R25,1*%
%TO.N,Net-(J3-Pad1)*%
X118325000Y-105250000D03*
%TO.P,R25,2*%
%TO.N,+24V*%
X116675000Y-105250000D03*
%TD*%
D20*
%TO.P,U5,1,OUT*%
%TO.N,+3V3*%
X108050000Y-124937500D03*
%TO.P,U5,2,IN*%
%TO.N,Net-(C3-Pad1)*%
X109950000Y-124937500D03*
%TO.P,U5,3,GND*%
%TO.N,GND*%
X109000000Y-123062500D03*
%TD*%
D11*
%TO.P,R7,1*%
%TO.N,Net-(R7-Pad1)*%
X105000000Y-116062500D03*
%TO.P,R7,2*%
%TO.N,USB_DM*%
X105000000Y-117712500D03*
%TD*%
D21*
%TO.P,Q5,1,B*%
%TO.N,Net-(Q5-Pad1)*%
X107437500Y-101700000D03*
%TO.P,Q5,2,E*%
%TO.N,GND*%
X107437500Y-99800000D03*
%TO.P,Q5,3,C*%
%TO.N,Net-(Q5-Pad3)*%
X105562500Y-100750000D03*
%TD*%
D11*
%TO.P,R14,1*%
%TO.N,+5V*%
X96765000Y-123425000D03*
%TO.P,R14,2*%
%TO.N,PWM_OUT_2*%
X96765000Y-125075000D03*
%TD*%
D22*
%TO.P,U4,1,GND*%
%TO.N,GND*%
X101830000Y-115500000D03*
%TO.P,U4,2,MISO*%
%TO.N,SPI_MOSI*%
X101830000Y-113500000D03*
%TO.P,U4,3,MOSI*%
%TO.N,SPI_MISO*%
X101830000Y-111500000D03*
%TO.P,U4,4,SCK*%
%TO.N,SPI_SCK*%
X101830000Y-109500000D03*
%TO.P,U4,5,NSS*%
%TO.N,RFM_NSS*%
X101830000Y-107500000D03*
%TO.P,U4,6,RESET*%
%TO.N,RFM_RST*%
X101830000Y-105500000D03*
%TO.P,U4,7,DIO5*%
%TO.N,RFM_DIO5*%
X101830000Y-103500000D03*
%TO.P,U4,8,GND*%
%TO.N,GND*%
X101830000Y-101500000D03*
%TO.P,U4,9,ANT*%
%TO.N,Net-(AE1-Pad1)*%
X85830000Y-101500000D03*
%TO.P,U4,10,GND*%
%TO.N,GND*%
X85830000Y-103500000D03*
%TO.P,U4,11,DIO3*%
%TO.N,RFM_DIO3*%
X85830000Y-105500000D03*
%TO.P,U4,12,DIO4*%
%TO.N,RFM_DIO4*%
X85830000Y-107500000D03*
%TO.P,U4,13,3.3V*%
%TO.N,+3V3*%
X85830000Y-109500000D03*
%TO.P,U4,14,DIO0*%
%TO.N,RFM_DIO0*%
X85830000Y-111500000D03*
%TO.P,U4,15,DIO1*%
%TO.N,RFM_DIO1*%
X85830000Y-113500000D03*
%TO.P,U4,16,DIO2*%
%TO.N,RFM_DIO2*%
X85830000Y-115500000D03*
%TD*%
D14*
%TO.P,C7,1*%
%TO.N,HALL_TTL_B*%
X101500000Y-120750000D03*
%TO.P,C7,2*%
%TO.N,GND*%
X99950000Y-120750000D03*
%TD*%
D23*
%TO.P,D6,1,A1*%
%TO.N,TTL_B_OUT*%
X99975000Y-125287500D03*
%TO.P,D6,2,A2*%
%TO.N,GND*%
X99975000Y-123712500D03*
%TD*%
D24*
%TO.P,C3,1*%
%TO.N,Net-(C3-Pad1)*%
X111500000Y-125275000D03*
%TO.P,C3,2*%
%TO.N,GND*%
X111500000Y-123725000D03*
%TD*%
D18*
%TO.P,J8,1,Pin_1*%
%TO.N,+24V*%
X121000000Y-101000000D03*
D19*
%TO.P,J8,2,Pin_2*%
%TO.N,POWER_FET_OUT*%
X121000000Y-103540000D03*
%TO.P,J8,3,Pin_3*%
%TO.N,GND*%
X121000000Y-106080000D03*
%TD*%
D18*
%TO.P,J4,1,Pin_1*%
%TO.N,PWM_OUT_2*%
X97250000Y-128000000D03*
D19*
%TO.P,J4,2,Pin_2*%
%TO.N,+5V*%
X94710000Y-128000000D03*
%TO.P,J4,3,Pin_3*%
%TO.N,GND*%
X92170000Y-128000000D03*
%TD*%
D18*
%TO.P,J7,1,Pin_1*%
%TO.N,+5V*%
X118500000Y-128000000D03*
D19*
%TO.P,J7,2,Pin_2*%
%TO.N,GND*%
X115960000Y-128000000D03*
%TD*%
D25*
%TO.P,J1,1,VBUS*%
%TO.N,VBUS*%
X120530000Y-122750000D03*
D26*
%TO.P,J1,2,D-*%
%TO.N,/Main/D-*%
X121530000Y-122100000D03*
%TO.P,J1,3,D+*%
%TO.N,/Main/D+*%
X120530000Y-121450000D03*
%TO.P,J1,4,ID*%
%TO.N,unconnected-(J1-Pad4)*%
X121530000Y-120800000D03*
%TO.P,J1,5,GND*%
%TO.N,GND*%
X120530000Y-120150000D03*
D27*
%TO.P,J1,6,Shield*%
X120750000Y-125025000D03*
X120750000Y-117875000D03*
%TD*%
D11*
%TO.P,R28,1*%
%TO.N,Net-(R28-Pad1)*%
X103834610Y-99213364D03*
%TO.P,R28,2*%
%TO.N,CURRENT_SENSE_OUT*%
X103834610Y-100863364D03*
%TD*%
D28*
%TO.P,U6,1*%
%TO.N,Net-(R28-Pad1)*%
X101775000Y-99250000D03*
%TO.P,U6,2,V-*%
%TO.N,GND*%
X101775000Y-98300000D03*
%TO.P,U6,3,+*%
%TO.N,Net-(R11-Pad1)*%
X101775000Y-97350000D03*
%TO.P,U6,4,-*%
%TO.N,Net-(R28-Pad1)*%
X99500000Y-97350000D03*
%TO.P,U6,5,V+*%
%TO.N,+5V*%
X99500000Y-99250000D03*
%TD*%
D17*
%TO.P,R12,1*%
%TO.N,PWM_2*%
X96325000Y-121750000D03*
%TO.P,R12,2*%
%TO.N,Net-(Q3-Pad1)*%
X94675000Y-121750000D03*
%TD*%
%TO.P,R9,1*%
%TO.N,PWM_1*%
X86825000Y-121750000D03*
%TO.P,R9,2*%
%TO.N,Net-(Q1-Pad1)*%
X85175000Y-121750000D03*
%TD*%
D15*
%TO.P,R15,1*%
%TO.N,TTL_A_OUT*%
X103475000Y-125325000D03*
%TO.P,R15,2*%
%TO.N,HALL_TTL_A*%
X103475000Y-123675000D03*
%TD*%
D10*
%TO.P,R17,1*%
%TO.N,+24V*%
X111175000Y-97500000D03*
%TO.P,R17,2*%
%TO.N,VOLTAGE_MEASUREMENT*%
X112825000Y-97500000D03*
%TD*%
%TO.P,R13,1*%
%TO.N,GND*%
X91675000Y-121750000D03*
%TO.P,R13,2*%
%TO.N,Net-(Q3-Pad1)*%
X93325000Y-121750000D03*
%TD*%
D29*
%TO.P,U2,1,I/O1*%
%TO.N,USB_DP*%
X108450000Y-118000000D03*
%TO.P,U2,2,GND*%
%TO.N,GND*%
X107500000Y-118000000D03*
%TO.P,U2,3,I/O2*%
%TO.N,USB_DM*%
X106550000Y-118000000D03*
%TO.P,U2,4,I/O2*%
%TO.N,/Main/D-*%
X106550000Y-120275000D03*
%TO.P,U2,5,VBUS*%
%TO.N,VBUS*%
X107500000Y-120275000D03*
%TO.P,U2,6,I/O1*%
%TO.N,/Main/D+*%
X108450000Y-120275000D03*
%TD*%
D17*
%TO.P,R22,1*%
%TO.N,POWER_FET_OUT*%
X106825000Y-97500000D03*
%TO.P,R22,2*%
%TO.N,Net-(Q5-Pad3)*%
X105175000Y-97500000D03*
%TD*%
D30*
%TO.P,D2,1,K*%
%TO.N,Net-(C3-Pad1)*%
X113000000Y-123712500D03*
%TO.P,D2,2,A*%
%TO.N,+5V*%
X113000000Y-125287500D03*
%TD*%
D31*
%TO.P,Q6,1,B*%
%TO.N,Net-(Q6-Pad1)*%
X118450000Y-113062500D03*
%TO.P,Q6,2,E*%
%TO.N,GND*%
X116550000Y-113062500D03*
%TO.P,Q6,3,C*%
%TO.N,Net-(J3-Pad3)*%
X117500000Y-114937500D03*
%TD*%
D18*
%TO.P,J3,1,Pin_1*%
%TO.N,Net-(J3-Pad1)*%
X121000000Y-109750000D03*
D19*
%TO.P,J3,2,Pin_2*%
%TO.N,Net-(J3-Pad2)*%
X121000000Y-112290000D03*
%TO.P,J3,3,Pin_3*%
%TO.N,Net-(J3-Pad3)*%
X121000000Y-114830000D03*
%TD*%
D10*
%TO.P,R27,1*%
%TO.N,DI_IN_2*%
X116675000Y-106750000D03*
%TO.P,R27,2*%
%TO.N,GND*%
X118325000Y-106750000D03*
%TD*%
D17*
%TO.P,R1,1*%
%TO.N,+3V3*%
X114066529Y-101241767D03*
%TO.P,R1,2*%
%TO.N,Net-(C4-Pad2)*%
X112416529Y-101241767D03*
%TD*%
D11*
%TO.P,R3,1*%
%TO.N,GND*%
X118000000Y-117675000D03*
%TO.P,R3,2*%
%TO.N,VUSB*%
X118000000Y-119325000D03*
%TD*%
D15*
%TO.P,R19,1*%
%TO.N,POWER_SWITCH*%
X110750000Y-101575000D03*
%TO.P,R19,2*%
%TO.N,Net-(Q5-Pad1)*%
X110750000Y-99925000D03*
%TD*%
D23*
%TO.P,D3,1,A1*%
%TO.N,TTL_A_OUT*%
X104975000Y-125287500D03*
%TO.P,D3,2,A2*%
%TO.N,GND*%
X104975000Y-123712500D03*
%TD*%
D17*
%TO.P,R26,1*%
%TO.N,Net-(J3-Pad2)*%
X118325000Y-108250000D03*
%TO.P,R26,2*%
%TO.N,DI_IN_2*%
X116675000Y-108250000D03*
%TD*%
%TO.P,R6,1*%
%TO.N,USB_DP*%
X108325000Y-116250000D03*
%TO.P,R6,2*%
%TO.N,+3V3*%
X106675000Y-116250000D03*
%TD*%
D12*
%TO.P,TP1,1,1*%
%TO.N,HALL_TTL_A*%
X104750000Y-119250000D03*
%TD*%
D11*
%TO.P,R29,1*%
%TO.N,CURRENT_SENSE_OUT*%
X103827568Y-102197638D03*
%TO.P,R29,2*%
%TO.N,GND*%
X103827568Y-103847638D03*
%TD*%
D32*
%TO.P,C8,1*%
%TO.N,GND*%
X106500000Y-123725000D03*
%TO.P,C8,2*%
%TO.N,+3V3*%
X106500000Y-125275000D03*
%TD*%
D18*
%TO.P,J2,1,Pin_1*%
%TO.N,+3.3V*%
X115254379Y-121212025D03*
D19*
%TO.P,J2,2,Pin_2*%
%TO.N,GND*%
X112714379Y-121212025D03*
%TO.P,J2,3,Pin_3*%
%TO.N,SWCLK*%
X115254379Y-118672025D03*
%TO.P,J2,4,Pin_4*%
%TO.N,SWDIO*%
X112714379Y-118672025D03*
%TD*%
D33*
%TO.P,U1,1,VDD*%
%TO.N,+3V3*%
X112300000Y-104075000D03*
%TO.P,U1,2,PC14*%
%TO.N,RFM_DIO0*%
X111500000Y-104075000D03*
%TO.P,U1,3,PC15*%
%TO.N,RFM_DIO3*%
X110700000Y-104075000D03*
%TO.P,U1,4,NRST*%
%TO.N,Net-(C4-Pad2)*%
X109900000Y-104075000D03*
%TO.P,U1,5,VDDA*%
%TO.N,+3V3*%
X109100000Y-104075000D03*
%TO.P,U1,6,PA0*%
%TO.N,POWER_SWITCH*%
X108300000Y-104075000D03*
%TO.P,U1,7,PA1*%
%TO.N,VOLTAGE_MEASUREMENT*%
X107500000Y-104075000D03*
%TO.P,U1,8,PA2*%
%TO.N,CURRENT_SENSE_OUT*%
X106700000Y-104075000D03*
D34*
%TO.P,U1,9,PA3*%
%TO.N,RFM_RST*%
X105325000Y-105450000D03*
%TO.P,U1,10,PA4*%
%TO.N,RFM_NSS*%
X105325000Y-106250000D03*
%TO.P,U1,11,PA5*%
%TO.N,SPI_SCK*%
X105325000Y-107050000D03*
%TO.P,U1,12,PA6*%
%TO.N,SPI_MISO*%
X105325000Y-107850000D03*
%TO.P,U1,13,PA7*%
%TO.N,SPI_MOSI*%
X105325000Y-108650000D03*
%TO.P,U1,14,PB0*%
%TO.N,RFM_DIO2*%
X105325000Y-109450000D03*
%TO.P,U1,15,PB1*%
%TO.N,PWM_2*%
X105325000Y-110250000D03*
%TO.P,U1,16,VSS*%
%TO.N,GND*%
X105325000Y-111050000D03*
D33*
%TO.P,U1,17,VDD*%
%TO.N,+3V3*%
X106700000Y-112425000D03*
%TO.P,U1,18,PA8*%
%TO.N,HALL_TTL_B*%
X107500000Y-112425000D03*
%TO.P,U1,19,PA9*%
%TO.N,HALL_TTL_A*%
X108300000Y-112425000D03*
%TO.P,U1,20,PA10*%
%TO.N,unconnected-(U1-Pad20)*%
X109100000Y-112425000D03*
%TO.P,U1,21,PA11*%
%TO.N,Net-(R7-Pad1)*%
X109900000Y-112425000D03*
%TO.P,U1,22,PA12*%
%TO.N,Net-(R8-Pad1)*%
X110700000Y-112425000D03*
%TO.P,U1,23,PA13*%
%TO.N,SWDIO*%
X111500000Y-112425000D03*
%TO.P,U1,24,PA14*%
%TO.N,SWCLK*%
X112300000Y-112425000D03*
D34*
%TO.P,U1,25,PA15*%
%TO.N,PWM_1*%
X113675000Y-111050000D03*
%TO.P,U1,26,PB3*%
%TO.N,VUSB*%
X113675000Y-110250000D03*
%TO.P,U1,27,PB4*%
%TO.N,LED_EXT*%
X113675000Y-109450000D03*
%TO.P,U1,28,PB5*%
%TO.N,DI_IN_2*%
X113675000Y-108650000D03*
%TO.P,U1,29,PB6*%
%TO.N,unconnected-(U1-Pad29)*%
X113675000Y-107850000D03*
%TO.P,U1,30,PB7*%
%TO.N,Net-(R5-Pad1)*%
X113675000Y-107050000D03*
%TO.P,U1,31,PH3*%
%TO.N,Net-(R4-Pad1)*%
X113675000Y-106250000D03*
%TO.P,U1,32,VSS*%
%TO.N,GND*%
X113675000Y-105450000D03*
%TD*%
D14*
%TO.P,C4,1*%
%TO.N,GND*%
X114016529Y-99741767D03*
%TO.P,C4,2*%
%TO.N,Net-(C4-Pad2)*%
X112466529Y-99741767D03*
%TD*%
D35*
%TO.P,D1,1,K*%
%TO.N,GND*%
X93925000Y-99250000D03*
%TO.P,D1,2,A*%
%TO.N,Net-(D1-Pad2)*%
X95500000Y-99250000D03*
%TD*%
D36*
%TO.P,AE1,1,A*%
%TO.N,Net-(AE1-Pad1)*%
X83550000Y-101500000D03*
D37*
%TO.P,AE1,2,Shield*%
%TO.N,GND*%
X82025000Y-100025000D03*
X82025000Y-102975000D03*
%TD*%
D32*
%TO.P,C5,1*%
%TO.N,GND*%
X83750000Y-107725000D03*
%TO.P,C5,2*%
%TO.N,+3V3*%
X83750000Y-109275000D03*
%TD*%
D11*
%TO.P,R8,1*%
%TO.N,Net-(R8-Pad1)*%
X110000000Y-116062500D03*
%TO.P,R8,2*%
%TO.N,USB_DP*%
X110000000Y-117712500D03*
%TD*%
D38*
%TO.P,U3,0*%
%TO.N,N/C*%
X89600000Y-80525000D03*
X118600000Y-92525000D03*
%TO.P,U3,1,VOUT*%
%TO.N,Net-(R11-Pad1)*%
X86300000Y-97725000D03*
%TO.P,U3,2,GND*%
%TO.N,GND*%
X88800000Y-97725000D03*
%TO.P,U3,3,VCC*%
%TO.N,+5V*%
X91300000Y-97725000D03*
%TD*%
D17*
%TO.P,R21,1*%
%TO.N,+24V*%
X109825000Y-97500000D03*
%TO.P,R21,2*%
%TO.N,POWER_FET_OUT*%
X108175000Y-97500000D03*
%TD*%
D18*
%TO.P,J6,1,Pin_1*%
%TO.N,TTL_B_OUT*%
X101400000Y-128000000D03*
D19*
%TO.P,J6,2,Pin_2*%
%TO.N,+5V*%
X103940000Y-128000000D03*
%TO.P,J6,3,Pin_3*%
%TO.N,TTL_A_OUT*%
X106480000Y-128000000D03*
%TO.P,J6,4,Pin_4*%
%TO.N,TTL_INDEX*%
X109020000Y-128000000D03*
%TO.P,J6,5,Pin_5*%
%TO.N,GND*%
X111560000Y-128000000D03*
%TD*%
D32*
%TO.P,C2,1*%
%TO.N,+3V3*%
X113989828Y-102684189D03*
%TO.P,C2,2*%
%TO.N,GND*%
X113989828Y-104234189D03*
%TD*%
D15*
%TO.P,R16,1*%
%TO.N,TTL_B_OUT*%
X101475000Y-125325000D03*
%TO.P,R16,2*%
%TO.N,HALL_TTL_B*%
X101475000Y-123675000D03*
%TD*%
%TO.P,R2,1*%
%TO.N,VBUS*%
X118000000Y-122325000D03*
%TO.P,R2,2*%
%TO.N,VUSB*%
X118000000Y-120675000D03*
%TD*%
D39*
%TO.N,GND*%
X106000000Y-122250000D03*
X87750000Y-104250000D03*
X93962500Y-100750000D03*
X81750000Y-98500000D03*
X81000000Y-104500000D03*
X81750000Y-104500000D03*
X83250000Y-98500000D03*
X82282361Y-120420052D03*
X107437195Y-98902746D03*
X87750000Y-101750000D03*
X115585594Y-113060506D03*
X84000000Y-98500000D03*
X101830000Y-116580000D03*
X115250000Y-99750000D03*
X83750000Y-106500000D03*
X105250000Y-103500000D03*
X87750000Y-103000000D03*
X82500000Y-98500000D03*
X103250000Y-98000000D03*
X82500000Y-104500000D03*
X84000000Y-104500000D03*
X81000000Y-98500000D03*
X109750000Y-119000000D03*
X100000000Y-101500000D03*
X87750000Y-100500000D03*
X83250000Y-104500000D03*
X99000000Y-122250000D03*
X117500000Y-97500000D03*
X91679942Y-120420052D03*
%TO.N,+3V3*%
X109000000Y-124750000D03*
X107500000Y-115274500D03*
X103990213Y-113990213D03*
X115500000Y-101250000D03*
X108250000Y-126250000D03*
X116500000Y-101250000D03*
X102750000Y-117500000D03*
X109500000Y-126250000D03*
X101275000Y-117525000D03*
%TO.N,+5V*%
X88500000Y-123500000D03*
X98000000Y-123500000D03*
X99500000Y-100500000D03*
%TO.N,+24V*%
X115624500Y-105250000D03*
%TO.N,PWM_1*%
X109250000Y-110750000D03*
X100250000Y-118424500D03*
%TO.N,PWM_2*%
X106750000Y-110250000D03*
X99500000Y-119000000D03*
%TO.N,VOLTAGE_MEASUREMENT*%
X114000000Y-96500000D03*
X107500000Y-102750000D03*
%TO.N,RFM_DIO3*%
X100000000Y-105500500D03*
X110250000Y-105500000D03*
%TO.N,RFM_DIO0*%
X99250000Y-106000000D03*
X111250000Y-105500000D03*
%TO.N,RFM_DIO2*%
X99000000Y-107000000D03*
X107500000Y-107000000D03*
%TO.N,Net-(R5-Pad1)*%
X112250000Y-107000000D03*
X105301348Y-104699500D03*
%TD*%
D40*
%TO.N,Net-(AE1-Pad1)*%
X86030000Y-101500000D02*
X83550000Y-101500000D01*
%TO.N,GND*%
X107750000Y-119000000D02*
X109500000Y-119000000D01*
X105000000Y-121475000D02*
X105000000Y-120750000D01*
X117187500Y-113062500D02*
X117500000Y-112750000D01*
X87750000Y-100500000D02*
X87275000Y-100025000D01*
X117250000Y-102750000D02*
X117500000Y-103000000D01*
X104975000Y-123712500D02*
X104975000Y-123000000D01*
X104925000Y-122250000D02*
X104925000Y-122950000D01*
X111500000Y-123725000D02*
X110725000Y-123725000D01*
X115587588Y-113062500D02*
X115585594Y-113060506D01*
X91675000Y-121750000D02*
X91675000Y-120424994D01*
X87275000Y-100025000D02*
X82025000Y-100025000D01*
X115198054Y-103801946D02*
X115198054Y-103051946D01*
X106500000Y-123725000D02*
X107525000Y-123725000D01*
X87750000Y-101750000D02*
X87750000Y-100500000D01*
X107437500Y-99800000D02*
X107437500Y-98903051D01*
X113989828Y-104234189D02*
X114765811Y-104234189D01*
X91675000Y-124675000D02*
X92200000Y-125200000D01*
X107437500Y-98903051D02*
X107437195Y-98902746D01*
X103250000Y-113000000D02*
X103250000Y-114250000D01*
X82175000Y-124925000D02*
X82375000Y-125125000D01*
X116550000Y-113062500D02*
X115587588Y-113062500D01*
X84250000Y-103250000D02*
X84500000Y-103500000D01*
X87250000Y-103500000D02*
X86030000Y-103500000D01*
X87750000Y-101750000D02*
X87750000Y-103000000D01*
X82175000Y-121750000D02*
X82175000Y-120527413D01*
X118325000Y-106750000D02*
X117750000Y-106750000D01*
X101830000Y-101500000D02*
X100000000Y-101500000D01*
X82025000Y-102975000D02*
X83975000Y-102975000D01*
X83562500Y-125200000D02*
X82450000Y-125200000D01*
X82670000Y-128000000D02*
X82670000Y-126580000D01*
X104902362Y-103847638D02*
X105250000Y-103500000D01*
X87750000Y-103000000D02*
X87250000Y-103500000D01*
X117500000Y-103000000D02*
X117500000Y-104000000D01*
X117500000Y-110000000D02*
X117250000Y-109750000D01*
X104296217Y-111750000D02*
X105000000Y-111750000D01*
X83562500Y-125687500D02*
X83562500Y-125200000D01*
X82025000Y-100025000D02*
X82025000Y-102975000D01*
X117750000Y-103750000D02*
X117500000Y-104000000D01*
X92170000Y-126580000D02*
X93062500Y-125687500D01*
X101775000Y-98300000D02*
X102950000Y-98300000D01*
X107525000Y-123725000D02*
X108187500Y-123062500D01*
X117750000Y-106750000D02*
X117500000Y-106500000D01*
X101830000Y-114670000D02*
X101830000Y-115500000D01*
X109250000Y-99925000D02*
X108425000Y-99925000D01*
X99975000Y-123712500D02*
X99975000Y-123000000D01*
X117250000Y-109750000D02*
X116675000Y-109750000D01*
X84500000Y-103500000D02*
X86030000Y-103500000D01*
X103827568Y-103847638D02*
X104902362Y-103847638D01*
X100075000Y-122250000D02*
X100075000Y-122900000D01*
X116550000Y-113062500D02*
X117187500Y-113062500D01*
X83750000Y-107725000D02*
X83750000Y-106500000D01*
X109500000Y-119000000D02*
X109750000Y-119000000D01*
X102950000Y-98300000D02*
X103250000Y-98000000D01*
X82175000Y-121750000D02*
X82175000Y-124925000D01*
X108187500Y-123062500D02*
X109000000Y-123062500D01*
X118000000Y-117675000D02*
X119175000Y-117675000D01*
X92200000Y-125200000D02*
X93062500Y-125200000D01*
X103250000Y-114250000D02*
X103000000Y-114500000D01*
X100075000Y-121600000D02*
X100075000Y-122250000D01*
X101830000Y-116580000D02*
X101830000Y-115500000D01*
X92170000Y-128000000D02*
X92170000Y-126580000D01*
X93062500Y-125687500D02*
X93062500Y-125200000D01*
X99950000Y-120750000D02*
X99950000Y-121475000D01*
X100075000Y-122900000D02*
X99975000Y-123000000D01*
X115500000Y-102750000D02*
X117250000Y-102750000D01*
X119175000Y-117675000D02*
X119375000Y-117875000D01*
X117500000Y-112750000D02*
X117500000Y-110000000D01*
X113675000Y-105075000D02*
X113675000Y-105450000D01*
X107437500Y-99800000D02*
X108300000Y-99800000D01*
X119960000Y-104460000D02*
X119960000Y-105040000D01*
X107500000Y-118750000D02*
X107750000Y-119000000D01*
X100075000Y-122250000D02*
X99000000Y-122250000D01*
X105325000Y-111425000D02*
X105325000Y-111050000D01*
X91675000Y-120424994D02*
X91679942Y-120420052D01*
X103865501Y-112180716D02*
X104296217Y-111750000D01*
X83975000Y-102975000D02*
X84250000Y-103250000D01*
X107500000Y-118000000D02*
X107500000Y-118750000D01*
X82450000Y-125200000D02*
X82375000Y-125125000D01*
X115241767Y-99741767D02*
X115250000Y-99750000D01*
X103452863Y-112797137D02*
X103250000Y-113000000D01*
X82175000Y-120527413D02*
X82282361Y-120420052D01*
X119960000Y-105040000D02*
X121000000Y-106080000D01*
X108425000Y-99925000D02*
X108300000Y-99800000D01*
X103865501Y-112797137D02*
X103452863Y-112797137D01*
X93925000Y-100712500D02*
X93962500Y-100750000D01*
X119250000Y-103750000D02*
X119960000Y-104460000D01*
X91675000Y-121750000D02*
X91675000Y-124675000D01*
X104925000Y-121550000D02*
X105000000Y-121475000D01*
X115198054Y-103051946D02*
X115500000Y-102750000D01*
X103865501Y-112797137D02*
X103865501Y-112180716D01*
X116075000Y-97500000D02*
X117500000Y-97500000D01*
X82670000Y-126580000D02*
X83562500Y-125687500D01*
X114765811Y-104234189D02*
X115198054Y-103801946D01*
X93925000Y-99250000D02*
X93925000Y-97500000D01*
X93925000Y-99250000D02*
X93925000Y-100712500D01*
X110062500Y-123062500D02*
X109000000Y-123062500D01*
X104925000Y-122950000D02*
X104975000Y-123000000D01*
X118325000Y-103750000D02*
X119250000Y-103750000D01*
X110725000Y-123725000D02*
X110062500Y-123062500D01*
X105000000Y-111750000D02*
X105325000Y-111425000D01*
X103000000Y-114500000D02*
X102000000Y-114500000D01*
X104925000Y-122250000D02*
X106000000Y-122250000D01*
X113989828Y-104234189D02*
X113989828Y-104760172D01*
X113989828Y-104760172D02*
X113675000Y-105075000D01*
X99950000Y-121475000D02*
X100075000Y-121600000D01*
X117500000Y-106500000D02*
X117500000Y-104000000D01*
X104975000Y-123712500D02*
X106487500Y-123712500D01*
X111560000Y-128000000D02*
X115985000Y-128000000D01*
X104925000Y-122250000D02*
X104925000Y-121550000D01*
X102000000Y-114500000D02*
X101830000Y-114670000D01*
X119375000Y-117875000D02*
X120750000Y-117875000D01*
X106487500Y-123712500D02*
X106500000Y-123725000D01*
X114016529Y-99741767D02*
X115241767Y-99741767D01*
X118325000Y-103750000D02*
X117750000Y-103750000D01*
D41*
%TO.N,+3V3*%
X85830000Y-109500000D02*
X84750000Y-109500000D01*
D40*
X109100000Y-105850000D02*
X109100000Y-105650000D01*
X113989828Y-102010172D02*
X114066529Y-101933471D01*
D41*
X84525000Y-109275000D02*
X84750000Y-109500000D01*
D42*
X84500000Y-117500000D02*
X101250000Y-117500000D01*
D40*
X107000000Y-111000000D02*
X108000000Y-111000000D01*
X109100000Y-109900000D02*
X109100000Y-105650000D01*
D42*
X108050000Y-126050000D02*
X108250000Y-126250000D01*
D40*
X104750000Y-113477208D02*
X104738604Y-113488604D01*
D42*
X114074762Y-101250000D02*
X114066529Y-101241767D01*
X108050000Y-124937500D02*
X108050000Y-126050000D01*
D40*
X104952863Y-112797137D02*
X104750000Y-113000000D01*
X106675000Y-116137500D02*
X107362500Y-116137500D01*
D42*
X83750000Y-109275000D02*
X83750000Y-110750000D01*
D40*
X111750000Y-106250000D02*
X109500000Y-106250000D01*
X113989828Y-102684189D02*
X113989828Y-102010172D01*
X106700000Y-111300000D02*
X107000000Y-111000000D01*
D42*
X83750000Y-110750000D02*
X83750000Y-116750000D01*
D40*
X104236995Y-113990213D02*
X103990213Y-113990213D01*
D41*
X83750000Y-109275000D02*
X84525000Y-109275000D01*
D40*
X105952863Y-112797137D02*
X106325000Y-112425000D01*
D42*
X83750000Y-116750000D02*
X84500000Y-117500000D01*
D40*
X104750000Y-113000000D02*
X104750000Y-113477208D01*
X112300000Y-105700000D02*
X111750000Y-106250000D01*
X112300000Y-102950000D02*
X112565811Y-102684189D01*
D42*
X101250000Y-117500000D02*
X101275000Y-117525000D01*
D40*
X104738604Y-113488604D02*
X104236995Y-113990213D01*
X107362500Y-116137500D02*
X107500000Y-116000000D01*
X112565811Y-102684189D02*
X113989828Y-102684189D01*
X108050000Y-124937500D02*
X108812500Y-124937500D01*
X107500000Y-116000000D02*
X107500000Y-115274500D01*
X106700000Y-112425000D02*
X106700000Y-111300000D01*
X83775000Y-109250000D02*
X83750000Y-109275000D01*
X105415501Y-112797137D02*
X105952863Y-112797137D01*
X112300000Y-104075000D02*
X112300000Y-102950000D01*
X112300000Y-104075000D02*
X112300000Y-105700000D01*
X108000000Y-111000000D02*
X109100000Y-109900000D01*
X106325000Y-112425000D02*
X106700000Y-112425000D01*
X107562500Y-124937500D02*
X108050000Y-124937500D01*
X108812500Y-124937500D02*
X109000000Y-124750000D01*
X106500000Y-125275000D02*
X107225000Y-125275000D01*
X105415501Y-112797137D02*
X104952863Y-112797137D01*
D42*
X108250000Y-126250000D02*
X109500000Y-126250000D01*
D40*
X109500000Y-106250000D02*
X109100000Y-105850000D01*
X114066529Y-101933471D02*
X114066529Y-101241767D01*
X109100000Y-105650000D02*
X109100000Y-104075000D01*
D42*
X115500000Y-101250000D02*
X114074762Y-101250000D01*
D40*
X107225000Y-125275000D02*
X107562500Y-124937500D01*
%TO.N,HALL_TTL_A*%
X103750000Y-119250000D02*
X103450000Y-119550000D01*
X103450000Y-118550000D02*
X104000000Y-118000000D01*
X103525000Y-121550000D02*
X103450000Y-121475000D01*
X103450000Y-120750000D02*
X103450000Y-119550000D01*
X104000000Y-118000000D02*
X104000000Y-115500000D01*
X103525000Y-122250000D02*
X103525000Y-122950000D01*
X103525000Y-122950000D02*
X103475000Y-123000000D01*
X103525000Y-122250000D02*
X103525000Y-121550000D01*
X104000000Y-115500000D02*
X105300000Y-114200000D01*
X108300000Y-113550000D02*
X108300000Y-112425000D01*
X105300000Y-114200000D02*
X107650000Y-114200000D01*
X104750000Y-119250000D02*
X103750000Y-119250000D01*
X103450000Y-119550000D02*
X103450000Y-118550000D01*
X103450000Y-121475000D02*
X103450000Y-120750000D01*
X107650000Y-114200000D02*
X108300000Y-113550000D01*
X103475000Y-123675000D02*
X103475000Y-123000000D01*
%TO.N,HALL_TTL_B*%
X101500000Y-120750000D02*
X101475000Y-120775000D01*
X103000000Y-118363604D02*
X103550000Y-117813604D01*
X102750000Y-119250000D02*
X103000000Y-119500000D01*
X107500000Y-113500000D02*
X107500000Y-112425000D01*
X103000000Y-119750000D02*
X103000000Y-119500000D01*
X103550000Y-117813604D02*
X103550000Y-115313604D01*
X101475000Y-120775000D02*
X101475000Y-122250000D01*
X102000000Y-119250000D02*
X102750000Y-119250000D01*
X101500000Y-120750000D02*
X102000000Y-120750000D01*
X105113604Y-113750000D02*
X107250000Y-113750000D01*
X103000000Y-119500000D02*
X103000000Y-118363604D01*
X107250000Y-113750000D02*
X107500000Y-113500000D01*
X101475000Y-123675000D02*
X101475000Y-122250000D01*
X102000000Y-120750000D02*
X103000000Y-119750000D01*
X103550000Y-115313604D02*
X105113604Y-113750000D01*
%TO.N,Net-(D1-Pad2)*%
X97000000Y-98250000D02*
X97000000Y-97675000D01*
X95500000Y-99250000D02*
X95500000Y-98750000D01*
X95500000Y-98750000D02*
X95750000Y-98500000D01*
X95750000Y-98500000D02*
X96750000Y-98500000D01*
X96750000Y-98500000D02*
X97000000Y-98250000D01*
%TO.N,TTL_A_OUT*%
X104975000Y-126225000D02*
X105500000Y-126750000D01*
X105500000Y-126750000D02*
X106250000Y-126750000D01*
X106250000Y-126750000D02*
X106480000Y-126980000D01*
X104975000Y-125287500D02*
X104975000Y-126225000D01*
X106480000Y-126980000D02*
X106480000Y-128000000D01*
X104937500Y-125325000D02*
X104975000Y-125287500D01*
X103475000Y-125325000D02*
X104937500Y-125325000D01*
%TO.N,TTL_B_OUT*%
X101475000Y-125325000D02*
X101400000Y-125400000D01*
X101400000Y-125400000D02*
X101400000Y-128000000D01*
X100012500Y-125325000D02*
X99975000Y-125287500D01*
X101475000Y-125325000D02*
X100012500Y-125325000D01*
%TO.N,+5V*%
X88425000Y-123425000D02*
X88500000Y-123500000D01*
X87250000Y-123425000D02*
X88425000Y-123425000D01*
X99500000Y-99250000D02*
X99500000Y-100500000D01*
X96765000Y-123425000D02*
X97925000Y-123425000D01*
X97925000Y-123425000D02*
X98000000Y-123500000D01*
X118037500Y-125287500D02*
X118500000Y-125750000D01*
X113000000Y-125287500D02*
X118037500Y-125287500D01*
X118500000Y-125750000D02*
X118500000Y-128000000D01*
%TO.N,Net-(R28-Pad1)*%
X99500000Y-97350000D02*
X100350000Y-97350000D01*
X100500000Y-99000000D02*
X100750000Y-99250000D01*
X103797974Y-99250000D02*
X103834610Y-99213364D01*
X100500000Y-97500000D02*
X100500000Y-99000000D01*
X100750000Y-99250000D02*
X101775000Y-99250000D01*
X101775000Y-99250000D02*
X103797974Y-99250000D01*
X100350000Y-97350000D02*
X100500000Y-97500000D01*
%TO.N,VBUS*%
X109926040Y-121575000D02*
X107825000Y-121575000D01*
X110675520Y-122324480D02*
X109926040Y-121575000D01*
X110675520Y-122324480D02*
X110676040Y-122325000D01*
X118750000Y-122250000D02*
X118075000Y-122250000D01*
X117175000Y-122325000D02*
X117000000Y-122500000D01*
X119250000Y-122750000D02*
X118750000Y-122250000D01*
X107825000Y-121575000D02*
X107500000Y-121250000D01*
X110851040Y-122500000D02*
X110675520Y-122324480D01*
X117000000Y-122500000D02*
X110851040Y-122500000D01*
X120530000Y-122750000D02*
X119250000Y-122750000D01*
X118000000Y-122325000D02*
X117175000Y-122325000D01*
X107500000Y-121250000D02*
X107500000Y-120275000D01*
X118075000Y-122250000D02*
X118000000Y-122325000D01*
D43*
%TO.N,/Main/D-*%
X107000000Y-122000000D02*
X109750000Y-122000000D01*
X117500000Y-123500000D02*
X121250000Y-123500000D01*
X106550000Y-120275000D02*
X106550000Y-121550000D01*
X109750000Y-122000000D02*
X110725000Y-122975000D01*
X106550000Y-121550000D02*
X107000000Y-122000000D01*
X110725000Y-122975000D02*
X116975000Y-122975000D01*
X121530000Y-123220000D02*
X121530000Y-122100000D01*
X116975000Y-122975000D02*
X117500000Y-123500000D01*
X121250000Y-123500000D02*
X121530000Y-123220000D01*
%TO.N,/Main/D+*%
X111225000Y-120275000D02*
X111500000Y-120000000D01*
X108450000Y-120275000D02*
X111225000Y-120275000D01*
X116750000Y-120500000D02*
X116750000Y-121000000D01*
X111500000Y-120000000D02*
X116250000Y-120000000D01*
X116750000Y-121000000D02*
X117200000Y-121450000D01*
X117200000Y-121450000D02*
X120530000Y-121450000D01*
X116250000Y-120000000D02*
X116750000Y-120500000D01*
D40*
%TO.N,SWCLK*%
X113000000Y-116750000D02*
X112300000Y-116050000D01*
X114750000Y-116750000D02*
X113000000Y-116750000D01*
X115254379Y-118672025D02*
X115254379Y-117254379D01*
X112300000Y-116050000D02*
X112300000Y-112425000D01*
X115254379Y-117254379D02*
X114750000Y-116750000D01*
%TO.N,SWDIO*%
X111500000Y-116250000D02*
X111500000Y-112425000D01*
X112714379Y-117464379D02*
X111500000Y-116250000D01*
X112714379Y-118672025D02*
X112714379Y-117464379D01*
%TO.N,DI_IN_2*%
X115750000Y-108250000D02*
X115500000Y-108500000D01*
X113675000Y-108650000D02*
X115350000Y-108650000D01*
X116675000Y-108250000D02*
X116675000Y-106750000D01*
X116675000Y-108250000D02*
X115750000Y-108250000D01*
X115350000Y-108650000D02*
X115500000Y-108500000D01*
%TO.N,PWM_OUT_2*%
X94937500Y-124937500D02*
X94937500Y-124250000D01*
X96750000Y-126250000D02*
X96750000Y-125090000D01*
X95075000Y-125075000D02*
X94937500Y-124937500D01*
X96765000Y-125075000D02*
X95075000Y-125075000D01*
X96750000Y-125090000D02*
X96765000Y-125075000D01*
X97250000Y-128000000D02*
X97250000Y-126750000D01*
X97250000Y-126750000D02*
X96750000Y-126250000D01*
%TO.N,PWM_OUT_1*%
X87750000Y-128000000D02*
X87750000Y-126750000D01*
X87250000Y-126250000D02*
X87250000Y-125075000D01*
X85575000Y-125075000D02*
X85437500Y-124937500D01*
X87250000Y-125075000D02*
X85575000Y-125075000D01*
X87750000Y-126750000D02*
X87250000Y-126250000D01*
X85437500Y-124937500D02*
X85437500Y-124250000D01*
%TO.N,+24V*%
X116675000Y-105250000D02*
X115624500Y-105250000D01*
X118250000Y-100750000D02*
X118250000Y-99863604D01*
X109825000Y-97500000D02*
X111425000Y-97500000D01*
X109991767Y-98491767D02*
X116508233Y-98491767D01*
X118500000Y-101000000D02*
X118250000Y-100750000D01*
X121000000Y-101000000D02*
X118500000Y-101000000D01*
X109825000Y-97500000D02*
X109825000Y-98325000D01*
X116878163Y-98491767D02*
X116508233Y-98491767D01*
X118250000Y-99863604D02*
X116878163Y-98491767D01*
X109825000Y-98325000D02*
X109991767Y-98491767D01*
%TO.N,Net-(Q1-Pad1)*%
X83825000Y-122425000D02*
X83825000Y-121750000D01*
X83825000Y-121750000D02*
X85175000Y-121750000D01*
X83562500Y-123300000D02*
X83562500Y-122687500D01*
X83562500Y-122687500D02*
X83825000Y-122425000D01*
%TO.N,Net-(Q3-Pad1)*%
X93062500Y-123300000D02*
X93062500Y-122937500D01*
X93325000Y-121750000D02*
X94675000Y-121750000D01*
X93325000Y-122675000D02*
X93325000Y-121750000D01*
X93062500Y-122937500D02*
X93325000Y-122675000D01*
%TO.N,VUSB*%
X114500000Y-110250000D02*
X114750000Y-110500000D01*
X116750000Y-117750000D02*
X116750000Y-119000000D01*
X114750000Y-110500000D02*
X114750000Y-115750000D01*
X114750000Y-115750000D02*
X116750000Y-117750000D01*
X118000000Y-119325000D02*
X118000000Y-120675000D01*
X113675000Y-110250000D02*
X114500000Y-110250000D01*
X117075000Y-119325000D02*
X118000000Y-119325000D01*
X116750000Y-119000000D02*
X117075000Y-119325000D01*
%TO.N,USB_DP*%
X109287500Y-117712500D02*
X109000000Y-118000000D01*
X109000000Y-118000000D02*
X108450000Y-118000000D01*
X108450000Y-118000000D02*
X108450000Y-116950000D01*
X108325000Y-116250000D02*
X108325000Y-116825000D01*
X110000000Y-117712500D02*
X109287500Y-117712500D01*
X108325000Y-116825000D02*
X108450000Y-116950000D01*
%TO.N,USB_DM*%
X106000000Y-118000000D02*
X105712500Y-117712500D01*
X105712500Y-117712500D02*
X105000000Y-117712500D01*
X106550000Y-118000000D02*
X106000000Y-118000000D01*
%TO.N,PWM_1*%
X87750000Y-118250000D02*
X86825000Y-119175000D01*
X110250000Y-110750000D02*
X110550000Y-111050000D01*
X100250000Y-118424500D02*
X100075500Y-118250000D01*
X100075500Y-118250000D02*
X87750000Y-118250000D01*
X109250000Y-110750000D02*
X110250000Y-110750000D01*
X113675000Y-111050000D02*
X110550000Y-111050000D01*
X86825000Y-119175000D02*
X86825000Y-121750000D01*
%TO.N,CURRENT_SENSE_OUT*%
X106197638Y-102197638D02*
X103827568Y-102197638D01*
X103834610Y-100863364D02*
X103834610Y-102190596D01*
X103834610Y-102190596D02*
X103827568Y-102197638D01*
X106700000Y-104075000D02*
X106700000Y-102700000D01*
X106700000Y-102700000D02*
X106197638Y-102197638D01*
%TO.N,PWM_2*%
X96325000Y-121750000D02*
X96325000Y-119325000D01*
X96650000Y-119000000D02*
X96325000Y-119325000D01*
X105325000Y-110250000D02*
X106750000Y-110250000D01*
X99500000Y-119000000D02*
X96650000Y-119000000D01*
%TO.N,VOLTAGE_MEASUREMENT*%
X114000000Y-96500000D02*
X114425000Y-96925000D01*
X114425000Y-96925000D02*
X114425000Y-97500000D01*
X113075000Y-97500000D02*
X114425000Y-97500000D01*
X107500000Y-104075000D02*
X107500000Y-102750000D01*
%TO.N,SPI_SCK*%
X103300000Y-109200000D02*
X103300000Y-107950000D01*
X103300000Y-107950000D02*
X104200000Y-107050000D01*
X101830000Y-109500000D02*
X103000000Y-109500000D01*
X103000000Y-109500000D02*
X103300000Y-109200000D01*
X104200000Y-107050000D02*
X105325000Y-107050000D01*
%TO.N,SPI_MISO*%
X101830000Y-111500000D02*
X103250000Y-111500000D01*
X103750000Y-108500000D02*
X104400000Y-107850000D01*
X104400000Y-107850000D02*
X105325000Y-107850000D01*
X103750000Y-111000000D02*
X103750000Y-108500000D01*
X103250000Y-111500000D02*
X103750000Y-111000000D01*
%TO.N,SPI_MOSI*%
X101830000Y-112670000D02*
X102175000Y-112325000D01*
X104250000Y-109000000D02*
X104600000Y-108650000D01*
X104250000Y-111159821D02*
X104250000Y-109000000D01*
X101830000Y-113500000D02*
X101830000Y-112670000D01*
X103090501Y-112319320D02*
X104250000Y-111159821D01*
X104600000Y-108650000D02*
X105325000Y-108650000D01*
X103090501Y-112325000D02*
X103090501Y-112319320D01*
X102175000Y-112325000D02*
X103090501Y-112325000D01*
%TO.N,RFM_NSS*%
X101830000Y-107500000D02*
X103113604Y-107500000D01*
X104363604Y-106250000D02*
X105325000Y-106250000D01*
X103113604Y-107500000D02*
X104363604Y-106250000D01*
%TO.N,RFM_RST*%
X104000000Y-105500000D02*
X101830000Y-105500000D01*
X105325000Y-105450000D02*
X104050000Y-105450000D01*
X104050000Y-105450000D02*
X104000000Y-105500000D01*
%TO.N,RFM_DIO3*%
X99867698Y-105368198D02*
X100000000Y-105500500D01*
X85830000Y-105500000D02*
X98736396Y-105500000D01*
X110700000Y-105050000D02*
X110250000Y-105500000D01*
X110700000Y-104075000D02*
X110700000Y-105050000D01*
X98736396Y-105500000D02*
X98868198Y-105368198D01*
X98868198Y-105368198D02*
X99867698Y-105368198D01*
%TO.N,RFM_DIO0*%
X111500000Y-105250000D02*
X111250000Y-105500000D01*
X85830000Y-111500000D02*
X87000000Y-111500000D01*
X111500000Y-104075000D02*
X111500000Y-105250000D01*
X88000000Y-110500000D02*
X88000000Y-107000000D01*
X88000000Y-107000000D02*
X89000000Y-106000000D01*
X89000000Y-106000000D02*
X99250000Y-106000000D01*
X87000000Y-111500000D02*
X88000000Y-110500000D01*
%TO.N,RFM_DIO2*%
X89300000Y-106450000D02*
X97500000Y-106450000D01*
X88500000Y-110500000D02*
X88500000Y-107250000D01*
X97500000Y-106450000D02*
X98200000Y-106450000D01*
X98200000Y-106450000D02*
X98500000Y-106750000D01*
X88500000Y-115000000D02*
X88500000Y-110500000D01*
X88000000Y-115500000D02*
X88500000Y-115000000D01*
X107500000Y-109250000D02*
X107500000Y-107000000D01*
X98500000Y-106750000D02*
X98750000Y-107000000D01*
X88500000Y-107250000D02*
X89250000Y-106500000D01*
X89250000Y-106500000D02*
X89300000Y-106450000D01*
X85830000Y-115500000D02*
X88000000Y-115500000D01*
X98750000Y-107000000D02*
X99000000Y-107000000D01*
X105325000Y-109450000D02*
X107300000Y-109450000D01*
X107300000Y-109450000D02*
X107500000Y-109250000D01*
%TO.N,Net-(C4-Pad2)*%
X109900000Y-104075000D02*
X109900000Y-103100000D01*
X112425000Y-102075000D02*
X112416529Y-102066529D01*
X112416529Y-102066529D02*
X112416529Y-101241767D01*
X112425000Y-102075000D02*
X111750000Y-102750000D01*
X112500000Y-100500000D02*
X112500000Y-99775238D01*
X112500000Y-99775238D02*
X112466529Y-99741767D01*
X112416529Y-101241767D02*
X112416529Y-100583471D01*
X110250000Y-102750000D02*
X111750000Y-102750000D01*
X109900000Y-103100000D02*
X110250000Y-102750000D01*
X112416529Y-100583471D02*
X112500000Y-100500000D01*
%TO.N,Net-(R4-Pad1)*%
X115000000Y-106000000D02*
X115000000Y-104750000D01*
X115000000Y-104750000D02*
X116000000Y-103750000D01*
X113675000Y-106250000D02*
X114750000Y-106250000D01*
X116000000Y-103750000D02*
X116675000Y-103750000D01*
X114750000Y-106250000D02*
X115000000Y-106000000D01*
%TO.N,Net-(R7-Pad1)*%
X109100000Y-114650000D02*
X109900000Y-113850000D01*
X109900000Y-113350000D02*
X109900000Y-112425000D01*
X105000000Y-116062500D02*
X105000000Y-115136396D01*
X105000000Y-115136396D02*
X105486396Y-114650000D01*
X109900000Y-113850000D02*
X109900000Y-113350000D01*
X105486396Y-114650000D02*
X109100000Y-114650000D01*
%TO.N,Net-(R8-Pad1)*%
X110000000Y-116062500D02*
X110000000Y-115136396D01*
X110000000Y-115136396D02*
X110700000Y-114436396D01*
X110700000Y-114436396D02*
X110700000Y-114200000D01*
X110700000Y-112425000D02*
X110700000Y-114200000D01*
%TO.N,Net-(Q5-Pad1)*%
X110750000Y-100500000D02*
X110750000Y-99925000D01*
X109500000Y-100750000D02*
X110500000Y-100750000D01*
X108550000Y-101700000D02*
X108675000Y-101575000D01*
X109250000Y-101000000D02*
X109500000Y-100750000D01*
X109250000Y-101575000D02*
X109250000Y-101000000D01*
X109250000Y-101575000D02*
X108675000Y-101575000D01*
X110500000Y-100750000D02*
X110750000Y-100500000D01*
X107437500Y-101700000D02*
X108550000Y-101700000D01*
%TO.N,Net-(Q5-Pad3)*%
X105175000Y-98675000D02*
X105562500Y-99062500D01*
X105562500Y-99062500D02*
X105562500Y-100750000D01*
X105175000Y-97500000D02*
X105175000Y-98675000D01*
%TO.N,POWER_SWITCH*%
X108700000Y-102300000D02*
X110450000Y-102300000D01*
X110750000Y-102000000D02*
X110750000Y-101575000D01*
X108300000Y-102700000D02*
X108700000Y-102300000D01*
X108300000Y-104075000D02*
X108300000Y-102700000D01*
X110450000Y-102300000D02*
X110750000Y-102000000D01*
%TO.N,POWER_FET_OUT*%
X106825000Y-97500000D02*
X108175000Y-97500000D01*
X119790000Y-103540000D02*
X121000000Y-103540000D01*
X119790000Y-103540000D02*
X117750000Y-101500000D01*
X117750000Y-100000000D02*
X116691767Y-98941767D01*
X108175000Y-98675000D02*
X108175000Y-97500000D01*
X117750000Y-101500000D02*
X117750000Y-100000000D01*
X108441767Y-98941767D02*
X108175000Y-98675000D01*
X116691767Y-98941767D02*
X108441767Y-98941767D01*
%TO.N,Net-(Q6-Pad1)*%
X118250000Y-111325000D02*
X118325000Y-111250000D01*
X118450000Y-113062500D02*
X118450000Y-112200000D01*
X118450000Y-112200000D02*
X118250000Y-112000000D01*
X118325000Y-109750000D02*
X118325000Y-111250000D01*
X118250000Y-112000000D02*
X118250000Y-111325000D01*
%TO.N,LED_EXT*%
X114700000Y-109450000D02*
X113675000Y-109450000D01*
X115250000Y-111000000D02*
X115250000Y-110000000D01*
X115250000Y-110000000D02*
X114700000Y-109450000D01*
X115500000Y-111250000D02*
X115250000Y-111000000D01*
X116675000Y-111250000D02*
X115500000Y-111250000D01*
%TO.N,Net-(J3-Pad1)*%
X119700000Y-105950000D02*
X119000000Y-105250000D01*
X119000000Y-105250000D02*
X118325000Y-105250000D01*
X121000000Y-109750000D02*
X120000000Y-109750000D01*
X119700000Y-109450000D02*
X119700000Y-105950000D01*
X120000000Y-109750000D02*
X119700000Y-109450000D01*
%TO.N,Net-(J3-Pad3)*%
X117607500Y-114830000D02*
X121000000Y-114830000D01*
X117500000Y-114937500D02*
X117607500Y-114830000D01*
%TO.N,Net-(J3-Pad2)*%
X119250000Y-108750000D02*
X118750000Y-108250000D01*
X120040000Y-112290000D02*
X119250000Y-111500000D01*
X118750000Y-108250000D02*
X118325000Y-108250000D01*
X119250000Y-111500000D02*
X119250000Y-108750000D01*
X121000000Y-112290000D02*
X120040000Y-112290000D01*
%TO.N,Net-(R5-Pad1)*%
X113675000Y-107050000D02*
X112300000Y-107050000D01*
X97000000Y-103750000D02*
X97750000Y-104500000D01*
X97750000Y-104500000D02*
X103250000Y-104500000D01*
X103449500Y-104699500D02*
X103250000Y-104500000D01*
X105301348Y-104699500D02*
X103449500Y-104699500D01*
X112300000Y-107050000D02*
X112250000Y-107000000D01*
X97000000Y-99325000D02*
X97000000Y-103750000D01*
%TO.N,Net-(C3-Pad1)*%
X111500000Y-125275000D02*
X111500000Y-124750000D01*
X110687500Y-124937500D02*
X109950000Y-124937500D01*
X113000000Y-124250000D02*
X113000000Y-123712500D01*
X111500000Y-125275000D02*
X111025000Y-125275000D01*
X111750000Y-124500000D02*
X112750000Y-124500000D01*
X112750000Y-124500000D02*
X113000000Y-124250000D01*
X111500000Y-124750000D02*
X111750000Y-124500000D01*
X111025000Y-125275000D02*
X110687500Y-124937500D01*
%TO.N,Net-(R11-Pad1)*%
X86750000Y-96000000D02*
X94250000Y-96000000D01*
X95575000Y-97500000D02*
X95575000Y-96575000D01*
X94750000Y-96000000D02*
X94250000Y-96000000D01*
X86300000Y-96450000D02*
X86750000Y-96000000D01*
X101250000Y-96000000D02*
X94750000Y-96000000D01*
X86300000Y-97725000D02*
X86300000Y-96450000D01*
X95575000Y-96575000D02*
X95000000Y-96000000D01*
X101775000Y-97350000D02*
X101775000Y-96525000D01*
X95000000Y-96000000D02*
X94750000Y-96000000D01*
X101775000Y-96525000D02*
X101250000Y-96000000D01*
%TD*%
%TA.AperFunction,Conductor*%
%TO.N,+3V3*%
G36*
X124683621Y-99020002D02*
G01*
X124730114Y-99073658D01*
X124741500Y-99126000D01*
X124741500Y-121200633D01*
X124740000Y-121220018D01*
X124737690Y-121234851D01*
X124737690Y-121234855D01*
X124736309Y-121243724D01*
X124737243Y-121250865D01*
X124737440Y-121255375D01*
X124737435Y-121255780D01*
X124737480Y-121256304D01*
X124741801Y-121355251D01*
X124753555Y-121624455D01*
X124754378Y-121643316D01*
X124805764Y-122033639D01*
X124806361Y-122036334D01*
X124806362Y-122036337D01*
X124820476Y-122100000D01*
X124890975Y-122417997D01*
X124891800Y-122420614D01*
X124891802Y-122420621D01*
X125007948Y-122788988D01*
X125009360Y-122793467D01*
X125160019Y-123157190D01*
X125192716Y-123220000D01*
X125235763Y-123302693D01*
X125250000Y-123360873D01*
X125250000Y-131615500D01*
X125229998Y-131683621D01*
X125176342Y-131730114D01*
X125124000Y-131741500D01*
X80126000Y-131741500D01*
X80057879Y-131721498D01*
X80011386Y-131667842D01*
X80000000Y-131615500D01*
X80000000Y-123360873D01*
X80014237Y-123302693D01*
X80057284Y-123220000D01*
X80089981Y-123157190D01*
X80240640Y-122793467D01*
X80242053Y-122788988D01*
X80358198Y-122420621D01*
X80358200Y-122420614D01*
X80359025Y-122417997D01*
X80429524Y-122100000D01*
X80443638Y-122036337D01*
X80443639Y-122036334D01*
X80444236Y-122033639D01*
X80495622Y-121643316D01*
X80511443Y-121280965D01*
X80512368Y-121272202D01*
X80512333Y-121272199D01*
X80512767Y-121267359D01*
X80513576Y-121262552D01*
X80513729Y-121250000D01*
X80509773Y-121222376D01*
X80508500Y-121204514D01*
X80508500Y-109545438D01*
X82767000Y-109545438D01*
X82767337Y-109551953D01*
X82776894Y-109644057D01*
X82779788Y-109657456D01*
X82829381Y-109806107D01*
X82835555Y-109819286D01*
X82917788Y-109952173D01*
X82926824Y-109963574D01*
X83037429Y-110073986D01*
X83048840Y-110082998D01*
X83181880Y-110165004D01*
X83195061Y-110171151D01*
X83343814Y-110220491D01*
X83357190Y-110223358D01*
X83448097Y-110232672D01*
X83454513Y-110233000D01*
X83477885Y-110233000D01*
X83493124Y-110228525D01*
X83494329Y-110227135D01*
X83496000Y-110219452D01*
X83496000Y-109547115D01*
X83491525Y-109531876D01*
X83490135Y-109530671D01*
X83482452Y-109529000D01*
X82785115Y-109529000D01*
X82769876Y-109533475D01*
X82768671Y-109534865D01*
X82767000Y-109542548D01*
X82767000Y-109545438D01*
X80508500Y-109545438D01*
X80508500Y-105639500D01*
X80528502Y-105571379D01*
X80582158Y-105524886D01*
X80634500Y-105513500D01*
X83377779Y-105513500D01*
X83445900Y-105533502D01*
X83492393Y-105587158D01*
X83502497Y-105657432D01*
X83473003Y-105722012D01*
X83418384Y-105758778D01*
X83403579Y-105763818D01*
X83397575Y-105767512D01*
X83255095Y-105855166D01*
X83255092Y-105855168D01*
X83249088Y-105858862D01*
X83244053Y-105863793D01*
X83244050Y-105863795D01*
X83178451Y-105928035D01*
X83119493Y-105985771D01*
X83021235Y-106138238D01*
X83018826Y-106144858D01*
X83018824Y-106144861D01*
X82965818Y-106290495D01*
X82959197Y-106308685D01*
X82936463Y-106488640D01*
X82954163Y-106669160D01*
X82974632Y-106730690D01*
X83009195Y-106834592D01*
X83009197Y-106834596D01*
X83010045Y-106837145D01*
X83010045Y-106837146D01*
X83011418Y-106841273D01*
X83010693Y-106841514D01*
X83020301Y-106906322D01*
X82991091Y-106971032D01*
X82984681Y-106977953D01*
X82920448Y-107042298D01*
X82916608Y-107048528D01*
X82916607Y-107048529D01*
X82855041Y-107148408D01*
X82830698Y-107187899D01*
X82776851Y-107350243D01*
X82776151Y-107357080D01*
X82776150Y-107357082D01*
X82772305Y-107394612D01*
X82766500Y-107451268D01*
X82766500Y-107998732D01*
X82766837Y-108001978D01*
X82766837Y-108001982D01*
X82770375Y-108036083D01*
X82777113Y-108101019D01*
X82779295Y-108107559D01*
X82828116Y-108253891D01*
X82831244Y-108263268D01*
X82835096Y-108269492D01*
X82835096Y-108269493D01*
X82844787Y-108285153D01*
X82921248Y-108408713D01*
X82926430Y-108413886D01*
X82930977Y-108419623D01*
X82929170Y-108421055D01*
X82957902Y-108473575D01*
X82952892Y-108544395D01*
X82929501Y-108580853D01*
X82930552Y-108581683D01*
X82917002Y-108598840D01*
X82834996Y-108731880D01*
X82828849Y-108745061D01*
X82779509Y-108893814D01*
X82776642Y-108907190D01*
X82767328Y-108998097D01*
X82767071Y-109003126D01*
X82771475Y-109018124D01*
X82772865Y-109019329D01*
X82780548Y-109021000D01*
X84647000Y-109021000D01*
X84715121Y-109041002D01*
X84761614Y-109094658D01*
X84773000Y-109147000D01*
X84773000Y-109227885D01*
X84777475Y-109243124D01*
X84778865Y-109244329D01*
X84786548Y-109246000D01*
X85958000Y-109246000D01*
X86026121Y-109266002D01*
X86072614Y-109319658D01*
X86084000Y-109372000D01*
X86084000Y-109628000D01*
X86063998Y-109696121D01*
X86010342Y-109742614D01*
X85958000Y-109754000D01*
X84408000Y-109754000D01*
X84339879Y-109733998D01*
X84293386Y-109680342D01*
X84282000Y-109628000D01*
X84282000Y-109547115D01*
X84277525Y-109531876D01*
X84276135Y-109530671D01*
X84268452Y-109529000D01*
X84022115Y-109529000D01*
X84006876Y-109533475D01*
X84005671Y-109534865D01*
X84004000Y-109542548D01*
X84004000Y-110214885D01*
X84008475Y-110230124D01*
X84009865Y-110231329D01*
X84017548Y-110233000D01*
X84045438Y-110233000D01*
X84051953Y-110232663D01*
X84144057Y-110223106D01*
X84157456Y-110220212D01*
X84234711Y-110194438D01*
X84305661Y-110191854D01*
X84366745Y-110228038D01*
X84385110Y-110253459D01*
X84385213Y-110253647D01*
X84461715Y-110355724D01*
X84474274Y-110368283D01*
X84515075Y-110398862D01*
X84557589Y-110455722D01*
X84562614Y-110526540D01*
X84528554Y-110588834D01*
X84515075Y-110600513D01*
X84466739Y-110636739D01*
X84379385Y-110753295D01*
X84328255Y-110889684D01*
X84321500Y-110951866D01*
X84321500Y-112048134D01*
X84328255Y-112110316D01*
X84379385Y-112246705D01*
X84466739Y-112363261D01*
X84514660Y-112399176D01*
X84557173Y-112456033D01*
X84562199Y-112526851D01*
X84528139Y-112589145D01*
X84514670Y-112600817D01*
X84466739Y-112636739D01*
X84379385Y-112753295D01*
X84328255Y-112889684D01*
X84321500Y-112951866D01*
X84321500Y-114048134D01*
X84328255Y-114110316D01*
X84379385Y-114246705D01*
X84466739Y-114363261D01*
X84514660Y-114399176D01*
X84557173Y-114456033D01*
X84562199Y-114526851D01*
X84528139Y-114589145D01*
X84514670Y-114600817D01*
X84466739Y-114636739D01*
X84379385Y-114753295D01*
X84328255Y-114889684D01*
X84321500Y-114951866D01*
X84321500Y-116048134D01*
X84328255Y-116110316D01*
X84379385Y-116246705D01*
X84466739Y-116363261D01*
X84583295Y-116450615D01*
X84719684Y-116501745D01*
X84781866Y-116508500D01*
X86878134Y-116508500D01*
X86940316Y-116501745D01*
X87076705Y-116450615D01*
X87193261Y-116363261D01*
X87280615Y-116246705D01*
X87283769Y-116238293D01*
X87292401Y-116215269D01*
X87335043Y-116158505D01*
X87401605Y-116133806D01*
X87410382Y-116133500D01*
X87921233Y-116133500D01*
X87932416Y-116134027D01*
X87939909Y-116135702D01*
X87947835Y-116135453D01*
X87947836Y-116135453D01*
X88007986Y-116133562D01*
X88011945Y-116133500D01*
X88039856Y-116133500D01*
X88043791Y-116133003D01*
X88043856Y-116132995D01*
X88055693Y-116132062D01*
X88087951Y-116131048D01*
X88091970Y-116130922D01*
X88099889Y-116130673D01*
X88119343Y-116125021D01*
X88138700Y-116121013D01*
X88150930Y-116119468D01*
X88150931Y-116119468D01*
X88158797Y-116118474D01*
X88166168Y-116115555D01*
X88166170Y-116115555D01*
X88199912Y-116102196D01*
X88211142Y-116098351D01*
X88245983Y-116088229D01*
X88245984Y-116088229D01*
X88253593Y-116086018D01*
X88260412Y-116081985D01*
X88260417Y-116081983D01*
X88271028Y-116075707D01*
X88288776Y-116067012D01*
X88307617Y-116059552D01*
X88315960Y-116053491D01*
X88343387Y-116033564D01*
X88353307Y-116027048D01*
X88384535Y-116008580D01*
X88384538Y-116008578D01*
X88391362Y-116004542D01*
X88405683Y-115990221D01*
X88420717Y-115977380D01*
X88430693Y-115970132D01*
X88437107Y-115965472D01*
X88465288Y-115931407D01*
X88473278Y-115922626D01*
X88892258Y-115503647D01*
X88900537Y-115496113D01*
X88907018Y-115492000D01*
X88953644Y-115442348D01*
X88956398Y-115439507D01*
X88976135Y-115419770D01*
X88978615Y-115416573D01*
X88986320Y-115407551D01*
X89011159Y-115381100D01*
X89016586Y-115375321D01*
X89020405Y-115368375D01*
X89020407Y-115368372D01*
X89026348Y-115357566D01*
X89037199Y-115341047D01*
X89040762Y-115336453D01*
X89049614Y-115325041D01*
X89052759Y-115317772D01*
X89052762Y-115317768D01*
X89067174Y-115284463D01*
X89072391Y-115273813D01*
X89093695Y-115235060D01*
X89098733Y-115215437D01*
X89105137Y-115196734D01*
X89110033Y-115185420D01*
X89110033Y-115185419D01*
X89113181Y-115178145D01*
X89114420Y-115170322D01*
X89114423Y-115170312D01*
X89120099Y-115134476D01*
X89122505Y-115122856D01*
X89131528Y-115087711D01*
X89131528Y-115087710D01*
X89133500Y-115080030D01*
X89133500Y-115059776D01*
X89135051Y-115040065D01*
X89136980Y-115027886D01*
X89138220Y-115020057D01*
X89134059Y-114976038D01*
X89133500Y-114964181D01*
X89133500Y-107564594D01*
X89153502Y-107496473D01*
X89170405Y-107475499D01*
X89525499Y-107120405D01*
X89587811Y-107086379D01*
X89614594Y-107083500D01*
X97885405Y-107083500D01*
X97953526Y-107103502D01*
X97974500Y-107120405D01*
X98080230Y-107226135D01*
X98080233Y-107226137D01*
X98246343Y-107392247D01*
X98253887Y-107400537D01*
X98258000Y-107407018D01*
X98263777Y-107412443D01*
X98307667Y-107453658D01*
X98310509Y-107456413D01*
X98330230Y-107476134D01*
X98333425Y-107478612D01*
X98342446Y-107486318D01*
X98374277Y-107516209D01*
X98378632Y-107520502D01*
X98481382Y-107626902D01*
X98500238Y-107639241D01*
X98623535Y-107719924D01*
X98633159Y-107726222D01*
X98639763Y-107728678D01*
X98639765Y-107728679D01*
X98796558Y-107786990D01*
X98796560Y-107786990D01*
X98803168Y-107789448D01*
X98886995Y-107800633D01*
X98975980Y-107812507D01*
X98975984Y-107812507D01*
X98982961Y-107813438D01*
X98989972Y-107812800D01*
X98989976Y-107812800D01*
X99132459Y-107799832D01*
X99163600Y-107796998D01*
X99170302Y-107794820D01*
X99170304Y-107794820D01*
X99329409Y-107743124D01*
X99329412Y-107743123D01*
X99336108Y-107740947D01*
X99466033Y-107663496D01*
X99485860Y-107651677D01*
X99485862Y-107651676D01*
X99491912Y-107648069D01*
X99623266Y-107522982D01*
X99723643Y-107371902D01*
X99769609Y-107250896D01*
X99785555Y-107208920D01*
X99785556Y-107208918D01*
X99788055Y-107202338D01*
X99790960Y-107181669D01*
X99812748Y-107026639D01*
X99812748Y-107026636D01*
X99813299Y-107022717D01*
X99813616Y-107000000D01*
X99793397Y-106819745D01*
X99789848Y-106809552D01*
X99780797Y-106783564D01*
X99762384Y-106730687D01*
X99758870Y-106659780D01*
X99794483Y-106598006D01*
X99873266Y-106522982D01*
X99973643Y-106371902D01*
X99973714Y-106371715D01*
X100020773Y-106322233D01*
X100072493Y-106305790D01*
X100156579Y-106298137D01*
X100163600Y-106297498D01*
X100282030Y-106259018D01*
X100352995Y-106256990D01*
X100413793Y-106293653D01*
X100421790Y-106303286D01*
X100460672Y-106355166D01*
X100466739Y-106363261D01*
X100514660Y-106399176D01*
X100557173Y-106456033D01*
X100562199Y-106526851D01*
X100528139Y-106589145D01*
X100514670Y-106600817D01*
X100466739Y-106636739D01*
X100379385Y-106753295D01*
X100328255Y-106889684D01*
X100321500Y-106951866D01*
X100321500Y-108048134D01*
X100328255Y-108110316D01*
X100379385Y-108246705D01*
X100466739Y-108363261D01*
X100514660Y-108399176D01*
X100557173Y-108456033D01*
X100562199Y-108526851D01*
X100528139Y-108589145D01*
X100514670Y-108600817D01*
X100466739Y-108636739D01*
X100379385Y-108753295D01*
X100328255Y-108889684D01*
X100321500Y-108951866D01*
X100321500Y-110048134D01*
X100328255Y-110110316D01*
X100379385Y-110246705D01*
X100466739Y-110363261D01*
X100514660Y-110399176D01*
X100557173Y-110456033D01*
X100562199Y-110526851D01*
X100528139Y-110589145D01*
X100514670Y-110600817D01*
X100466739Y-110636739D01*
X100379385Y-110753295D01*
X100328255Y-110889684D01*
X100321500Y-110951866D01*
X100321500Y-112048134D01*
X100328255Y-112110316D01*
X100379385Y-112246705D01*
X100466739Y-112363261D01*
X100514660Y-112399176D01*
X100557173Y-112456033D01*
X100562199Y-112526851D01*
X100528139Y-112589145D01*
X100514670Y-112600817D01*
X100466739Y-112636739D01*
X100379385Y-112753295D01*
X100328255Y-112889684D01*
X100321500Y-112951866D01*
X100321500Y-114048134D01*
X100328255Y-114110316D01*
X100379385Y-114246705D01*
X100466739Y-114363261D01*
X100514660Y-114399176D01*
X100557173Y-114456033D01*
X100562199Y-114526851D01*
X100528139Y-114589145D01*
X100514670Y-114600817D01*
X100466739Y-114636739D01*
X100379385Y-114753295D01*
X100328255Y-114889684D01*
X100321500Y-114951866D01*
X100321500Y-116048134D01*
X100328255Y-116110316D01*
X100379385Y-116246705D01*
X100466739Y-116363261D01*
X100583295Y-116450615D01*
X100719684Y-116501745D01*
X100781866Y-116508500D01*
X100896316Y-116508500D01*
X100964437Y-116528502D01*
X101010930Y-116582158D01*
X101021715Y-116622205D01*
X101034163Y-116749160D01*
X101091418Y-116921273D01*
X101095065Y-116927295D01*
X101095066Y-116927297D01*
X101181407Y-117069863D01*
X101185380Y-117076424D01*
X101190269Y-117081487D01*
X101190270Y-117081488D01*
X101223234Y-117115623D01*
X101311382Y-117206902D01*
X101463159Y-117306222D01*
X101469763Y-117308678D01*
X101469765Y-117308679D01*
X101626558Y-117366990D01*
X101626560Y-117366990D01*
X101633168Y-117369448D01*
X101716995Y-117380633D01*
X101805980Y-117392507D01*
X101805984Y-117392507D01*
X101812961Y-117393438D01*
X101819972Y-117392800D01*
X101819976Y-117392800D01*
X101962459Y-117379832D01*
X101993600Y-117376998D01*
X102000302Y-117374820D01*
X102000304Y-117374820D01*
X102159409Y-117323124D01*
X102159412Y-117323123D01*
X102166108Y-117320947D01*
X102321912Y-117228069D01*
X102453266Y-117102982D01*
X102553643Y-116951902D01*
X102602176Y-116824139D01*
X102615555Y-116788920D01*
X102615556Y-116788918D01*
X102618055Y-116782338D01*
X102619035Y-116775366D01*
X102641297Y-116616964D01*
X102670585Y-116552290D01*
X102730189Y-116513717D01*
X102766071Y-116508500D01*
X102790500Y-116508500D01*
X102858621Y-116528502D01*
X102905114Y-116582158D01*
X102916500Y-116634500D01*
X102916500Y-117499009D01*
X102896498Y-117567130D01*
X102879595Y-117588104D01*
X102607747Y-117859952D01*
X102599461Y-117867492D01*
X102592982Y-117871604D01*
X102587557Y-117877381D01*
X102546357Y-117921255D01*
X102543602Y-117924097D01*
X102523865Y-117943834D01*
X102521385Y-117947031D01*
X102513682Y-117956051D01*
X102483414Y-117988283D01*
X102479595Y-117995229D01*
X102479593Y-117995232D01*
X102473652Y-118006038D01*
X102462801Y-118022557D01*
X102450386Y-118038563D01*
X102447241Y-118045832D01*
X102447238Y-118045836D01*
X102432826Y-118079141D01*
X102427609Y-118089791D01*
X102406305Y-118128544D01*
X102404334Y-118136219D01*
X102404334Y-118136220D01*
X102401267Y-118148166D01*
X102394863Y-118166870D01*
X102388243Y-118182169D01*
X102388242Y-118182170D01*
X102386919Y-118185229D01*
X102386819Y-118185459D01*
X102386289Y-118185229D01*
X102351070Y-118240378D01*
X102286574Y-118270057D01*
X102231027Y-118265756D01*
X102203768Y-118257318D01*
X102197643Y-118256674D01*
X102197642Y-118256674D01*
X102013204Y-118237289D01*
X102013202Y-118237289D01*
X102007075Y-118236645D01*
X101924576Y-118244153D01*
X101816251Y-118254011D01*
X101816248Y-118254012D01*
X101810112Y-118254570D01*
X101804206Y-118256308D01*
X101804202Y-118256309D01*
X101711563Y-118283574D01*
X101620381Y-118310410D01*
X101614923Y-118313263D01*
X101614919Y-118313265D01*
X101530783Y-118357251D01*
X101445110Y-118402040D01*
X101290975Y-118525968D01*
X101286650Y-118531123D01*
X101285626Y-118532343D01*
X101284688Y-118532967D01*
X101282612Y-118535000D01*
X101282226Y-118534605D01*
X101226517Y-118571670D01*
X101155529Y-118572797D01*
X101095201Y-118535367D01*
X101064687Y-118471262D01*
X101063702Y-118447223D01*
X101063299Y-118447217D01*
X101063561Y-118428462D01*
X101063561Y-118428457D01*
X101063616Y-118424500D01*
X101043397Y-118244245D01*
X101040945Y-118237204D01*
X100986064Y-118079606D01*
X100986062Y-118079603D01*
X100983745Y-118072948D01*
X100935183Y-117995232D01*
X100891359Y-117925098D01*
X100887626Y-117919124D01*
X100882664Y-117914127D01*
X100764778Y-117795415D01*
X100764774Y-117795412D01*
X100759815Y-117790418D01*
X100743193Y-117779869D01*
X100682609Y-117741422D01*
X100606666Y-117693227D01*
X100546697Y-117671873D01*
X100442425Y-117634743D01*
X100442420Y-117634742D01*
X100435790Y-117632381D01*
X100428802Y-117631548D01*
X100428799Y-117631547D01*
X100289602Y-117614949D01*
X100255680Y-117610904D01*
X100248677Y-117611640D01*
X100248676Y-117611640D01*
X100187003Y-117618122D01*
X100160779Y-117617848D01*
X100155530Y-117616500D01*
X100135276Y-117616500D01*
X100115565Y-117614949D01*
X100103386Y-117613020D01*
X100095557Y-117611780D01*
X100066286Y-117614547D01*
X100051539Y-117615941D01*
X100039681Y-117616500D01*
X87828768Y-117616500D01*
X87817585Y-117615973D01*
X87810092Y-117614298D01*
X87802166Y-117614547D01*
X87802165Y-117614547D01*
X87742002Y-117616438D01*
X87738044Y-117616500D01*
X87710144Y-117616500D01*
X87706154Y-117617004D01*
X87694320Y-117617936D01*
X87650111Y-117619326D01*
X87642495Y-117621539D01*
X87642493Y-117621539D01*
X87630652Y-117624979D01*
X87611293Y-117628988D01*
X87609983Y-117629154D01*
X87591203Y-117631526D01*
X87583837Y-117634442D01*
X87583831Y-117634444D01*
X87550098Y-117647800D01*
X87538868Y-117651645D01*
X87522508Y-117656398D01*
X87496407Y-117663981D01*
X87489584Y-117668016D01*
X87478966Y-117674295D01*
X87461213Y-117682992D01*
X87453568Y-117686019D01*
X87442383Y-117690448D01*
X87435968Y-117695109D01*
X87406612Y-117716437D01*
X87396695Y-117722951D01*
X87358638Y-117745458D01*
X87344317Y-117759779D01*
X87329284Y-117772619D01*
X87312893Y-117784528D01*
X87307842Y-117790633D01*
X87307837Y-117790638D01*
X87284701Y-117818604D01*
X87276713Y-117827382D01*
X86432747Y-118671348D01*
X86424461Y-118678888D01*
X86417982Y-118683000D01*
X86412557Y-118688777D01*
X86371357Y-118732651D01*
X86368602Y-118735493D01*
X86348865Y-118755230D01*
X86346385Y-118758427D01*
X86338682Y-118767447D01*
X86308414Y-118799679D01*
X86304595Y-118806625D01*
X86304593Y-118806628D01*
X86298652Y-118817434D01*
X86287801Y-118833953D01*
X86275386Y-118849959D01*
X86272241Y-118857228D01*
X86272238Y-118857232D01*
X86257826Y-118890537D01*
X86252609Y-118901187D01*
X86231305Y-118939940D01*
X86229334Y-118947615D01*
X86229334Y-118947616D01*
X86226267Y-118959562D01*
X86219863Y-118978266D01*
X86211819Y-118996855D01*
X86210580Y-119004678D01*
X86210577Y-119004688D01*
X86204901Y-119040524D01*
X86202495Y-119052144D01*
X86194201Y-119084450D01*
X86191500Y-119094970D01*
X86191500Y-119115224D01*
X86189949Y-119134934D01*
X86186780Y-119154943D01*
X86187526Y-119162835D01*
X86190941Y-119198961D01*
X86191500Y-119210819D01*
X86191500Y-120854290D01*
X86171498Y-120922411D01*
X86154595Y-120943385D01*
X86089095Y-121008885D01*
X86026783Y-121042911D01*
X85955968Y-121037846D01*
X85910905Y-121008885D01*
X85815381Y-120913361D01*
X85668699Y-120824528D01*
X85661452Y-120822257D01*
X85661450Y-120822256D01*
X85583484Y-120797823D01*
X85505062Y-120773247D01*
X85431635Y-120766500D01*
X85428737Y-120766500D01*
X85174335Y-120766501D01*
X84918366Y-120766501D01*
X84915508Y-120766764D01*
X84915499Y-120766764D01*
X84879996Y-120770026D01*
X84844938Y-120773247D01*
X84838560Y-120775246D01*
X84838559Y-120775246D01*
X84688550Y-120822256D01*
X84688548Y-120822257D01*
X84681301Y-120824528D01*
X84565270Y-120894798D01*
X84496642Y-120912977D01*
X84434730Y-120894798D01*
X84318699Y-120824528D01*
X84311452Y-120822257D01*
X84311450Y-120822256D01*
X84233484Y-120797823D01*
X84155062Y-120773247D01*
X84081635Y-120766500D01*
X84078737Y-120766500D01*
X83824335Y-120766501D01*
X83568366Y-120766501D01*
X83565508Y-120766764D01*
X83565499Y-120766764D01*
X83529996Y-120770026D01*
X83494938Y-120773247D01*
X83488560Y-120775246D01*
X83488559Y-120775246D01*
X83338550Y-120822256D01*
X83338548Y-120822257D01*
X83331301Y-120824528D01*
X83324805Y-120828462D01*
X83324803Y-120828463D01*
X83205741Y-120900569D01*
X83137111Y-120918748D01*
X83069548Y-120896937D01*
X83024502Y-120842061D01*
X83016275Y-120771543D01*
X83022682Y-120748049D01*
X83067916Y-120628972D01*
X83067917Y-120628970D01*
X83070416Y-120622390D01*
X83073617Y-120599612D01*
X83095109Y-120446691D01*
X83095109Y-120446688D01*
X83095660Y-120442769D01*
X83095813Y-120431790D01*
X83095922Y-120424014D01*
X83095922Y-120424009D01*
X83095977Y-120420052D01*
X83075758Y-120239797D01*
X83073441Y-120233143D01*
X83018425Y-120075158D01*
X83018423Y-120075155D01*
X83016106Y-120068500D01*
X82919987Y-119914676D01*
X82906302Y-119900895D01*
X82797139Y-119790967D01*
X82797135Y-119790964D01*
X82792176Y-119785970D01*
X82781219Y-119779016D01*
X82698028Y-119726222D01*
X82639027Y-119688779D01*
X82609824Y-119678380D01*
X82474786Y-119630295D01*
X82474781Y-119630294D01*
X82468151Y-119627933D01*
X82461163Y-119627100D01*
X82461160Y-119627099D01*
X82338059Y-119612420D01*
X82288041Y-119606456D01*
X82281038Y-119607192D01*
X82281037Y-119607192D01*
X82114649Y-119624680D01*
X82114647Y-119624681D01*
X82107649Y-119625416D01*
X81935940Y-119683870D01*
X81889382Y-119712513D01*
X81787456Y-119775218D01*
X81787453Y-119775220D01*
X81781449Y-119778914D01*
X81776414Y-119783845D01*
X81776411Y-119783847D01*
X81656886Y-119900895D01*
X81651854Y-119905823D01*
X81594159Y-119995348D01*
X81559887Y-120048529D01*
X81553596Y-120058290D01*
X81551187Y-120064910D01*
X81551185Y-120064913D01*
X81511188Y-120174804D01*
X81491558Y-120228737D01*
X81468824Y-120408692D01*
X81486524Y-120589212D01*
X81522968Y-120698765D01*
X81535058Y-120735109D01*
X81541500Y-120774881D01*
X81541500Y-120854290D01*
X81521498Y-120922411D01*
X81504595Y-120943385D01*
X81413361Y-121034619D01*
X81324528Y-121181301D01*
X81322257Y-121188548D01*
X81322256Y-121188550D01*
X81317253Y-121204514D01*
X81273247Y-121344938D01*
X81266500Y-121418365D01*
X81266501Y-122081634D01*
X81266764Y-122084492D01*
X81266764Y-122084501D01*
X81267585Y-122093435D01*
X81273247Y-122155062D01*
X81275246Y-122161440D01*
X81275246Y-122161441D01*
X81318790Y-122300388D01*
X81324528Y-122318699D01*
X81413361Y-122465381D01*
X81504595Y-122556615D01*
X81538621Y-122618927D01*
X81541500Y-122645710D01*
X81541500Y-124846233D01*
X81540973Y-124857416D01*
X81539298Y-124864909D01*
X81539547Y-124872835D01*
X81539547Y-124872836D01*
X81541438Y-124932986D01*
X81541500Y-124936945D01*
X81541500Y-124964856D01*
X81541997Y-124968790D01*
X81541997Y-124968791D01*
X81542005Y-124968856D01*
X81542938Y-124980693D01*
X81544327Y-125024889D01*
X81548784Y-125040229D01*
X81549978Y-125044339D01*
X81553987Y-125063700D01*
X81554577Y-125068366D01*
X81556526Y-125083797D01*
X81559445Y-125091168D01*
X81559445Y-125091170D01*
X81572804Y-125124912D01*
X81576649Y-125136142D01*
X81578621Y-125142931D01*
X81588982Y-125178593D01*
X81593015Y-125185412D01*
X81593017Y-125185417D01*
X81599293Y-125196028D01*
X81607988Y-125213776D01*
X81615448Y-125232617D01*
X81620110Y-125239033D01*
X81620110Y-125239034D01*
X81641436Y-125268387D01*
X81647952Y-125278307D01*
X81665867Y-125308599D01*
X81670458Y-125316362D01*
X81684779Y-125330683D01*
X81697619Y-125345716D01*
X81709528Y-125362107D01*
X81715634Y-125367158D01*
X81743605Y-125390298D01*
X81752384Y-125398288D01*
X81870458Y-125516362D01*
X81946345Y-125592250D01*
X81953886Y-125600536D01*
X81958000Y-125607018D01*
X81963778Y-125612444D01*
X81963779Y-125612445D01*
X82007653Y-125653645D01*
X82010493Y-125656398D01*
X82030230Y-125676135D01*
X82033427Y-125678615D01*
X82042447Y-125686318D01*
X82074679Y-125716586D01*
X82081625Y-125720405D01*
X82081628Y-125720407D01*
X82092434Y-125726348D01*
X82108953Y-125737199D01*
X82124959Y-125749614D01*
X82132228Y-125752759D01*
X82132232Y-125752762D01*
X82165537Y-125767174D01*
X82176187Y-125772391D01*
X82214940Y-125793695D01*
X82222615Y-125795666D01*
X82222616Y-125795666D01*
X82234562Y-125798733D01*
X82253267Y-125805137D01*
X82271855Y-125813181D01*
X82277416Y-125814062D01*
X82336389Y-125851728D01*
X82366064Y-125916226D01*
X82356157Y-125986528D01*
X82330492Y-126023603D01*
X82277747Y-126076348D01*
X82269461Y-126083888D01*
X82262982Y-126088000D01*
X82257557Y-126093777D01*
X82216357Y-126137651D01*
X82213602Y-126140493D01*
X82193865Y-126160230D01*
X82191385Y-126163427D01*
X82183682Y-126172447D01*
X82153414Y-126204679D01*
X82149595Y-126211625D01*
X82149593Y-126211628D01*
X82143652Y-126222434D01*
X82132801Y-126238953D01*
X82120386Y-126254959D01*
X82117241Y-126262228D01*
X82117238Y-126262232D01*
X82102826Y-126295537D01*
X82097609Y-126306187D01*
X82076305Y-126344940D01*
X82074334Y-126352615D01*
X82074334Y-126352616D01*
X82071267Y-126364562D01*
X82064863Y-126383266D01*
X82056819Y-126401855D01*
X82055580Y-126409678D01*
X82055577Y-126409688D01*
X82049901Y-126445524D01*
X82047495Y-126457144D01*
X82044082Y-126470437D01*
X82036500Y-126499970D01*
X82036500Y-126520224D01*
X82034949Y-126539934D01*
X82031780Y-126559943D01*
X82034493Y-126588638D01*
X82035941Y-126603961D01*
X82036500Y-126615819D01*
X82036500Y-126721692D01*
X82016498Y-126789813D01*
X81968683Y-126833453D01*
X81943607Y-126846507D01*
X81939474Y-126849610D01*
X81939471Y-126849612D01*
X81797765Y-126956008D01*
X81764965Y-126980635D01*
X81725525Y-127021907D01*
X81653729Y-127097037D01*
X81610629Y-127142138D01*
X81607720Y-127146403D01*
X81607714Y-127146411D01*
X81589838Y-127172617D01*
X81484743Y-127326680D01*
X81390688Y-127529305D01*
X81330989Y-127744570D01*
X81307251Y-127966695D01*
X81320110Y-128189715D01*
X81321247Y-128194761D01*
X81321248Y-128194767D01*
X81345304Y-128301508D01*
X81369222Y-128407639D01*
X81453266Y-128614616D01*
X81490685Y-128675678D01*
X81567291Y-128800688D01*
X81569987Y-128805088D01*
X81716250Y-128973938D01*
X81888126Y-129116632D01*
X82081000Y-129229338D01*
X82289692Y-129309030D01*
X82294760Y-129310061D01*
X82294763Y-129310062D01*
X82402017Y-129331883D01*
X82508597Y-129353567D01*
X82513772Y-129353757D01*
X82513774Y-129353757D01*
X82726673Y-129361564D01*
X82726677Y-129361564D01*
X82731837Y-129361753D01*
X82736957Y-129361097D01*
X82736959Y-129361097D01*
X82948288Y-129334025D01*
X82948289Y-129334025D01*
X82953416Y-129333368D01*
X82958366Y-129331883D01*
X83162429Y-129270661D01*
X83162434Y-129270659D01*
X83167384Y-129269174D01*
X83367994Y-129170896D01*
X83549860Y-129041173D01*
X83708096Y-128883489D01*
X83767594Y-128800689D01*
X83838453Y-128702077D01*
X83839776Y-128703028D01*
X83886645Y-128659857D01*
X83956580Y-128647625D01*
X84022026Y-128675144D01*
X84049875Y-128706994D01*
X84109987Y-128805088D01*
X84256250Y-128973938D01*
X84428126Y-129116632D01*
X84621000Y-129229338D01*
X84829692Y-129309030D01*
X84834760Y-129310061D01*
X84834763Y-129310062D01*
X84942017Y-129331883D01*
X85048597Y-129353567D01*
X85053772Y-129353757D01*
X85053774Y-129353757D01*
X85266673Y-129361564D01*
X85266677Y-129361564D01*
X85271837Y-129361753D01*
X85276957Y-129361097D01*
X85276959Y-129361097D01*
X85488288Y-129334025D01*
X85488289Y-129334025D01*
X85493416Y-129333368D01*
X85498366Y-129331883D01*
X85702429Y-129270661D01*
X85702434Y-129270659D01*
X85707384Y-129269174D01*
X85907994Y-129170896D01*
X86089860Y-129041173D01*
X86198091Y-128933319D01*
X86260462Y-128899404D01*
X86331268Y-128904592D01*
X86388030Y-128947238D01*
X86405012Y-128978341D01*
X86427201Y-129037529D01*
X86449385Y-129096705D01*
X86536739Y-129213261D01*
X86653295Y-129300615D01*
X86789684Y-129351745D01*
X86851866Y-129358500D01*
X88648134Y-129358500D01*
X88710316Y-129351745D01*
X88846705Y-129300615D01*
X88963261Y-129213261D01*
X89050615Y-129096705D01*
X89101745Y-128960316D01*
X89108500Y-128898134D01*
X89108500Y-127101866D01*
X89101745Y-127039684D01*
X89050615Y-126903295D01*
X88963261Y-126786739D01*
X88846705Y-126699385D01*
X88710316Y-126648255D01*
X88648134Y-126641500D01*
X88474018Y-126641500D01*
X88405897Y-126621498D01*
X88356866Y-126561884D01*
X88352198Y-126550094D01*
X88348354Y-126538865D01*
X88341565Y-126515500D01*
X88336018Y-126496407D01*
X88325707Y-126478972D01*
X88317012Y-126461224D01*
X88309552Y-126442383D01*
X88290508Y-126416170D01*
X88283564Y-126406613D01*
X88277048Y-126396693D01*
X88258580Y-126365465D01*
X88258578Y-126365462D01*
X88254542Y-126358638D01*
X88240221Y-126344317D01*
X88227380Y-126329283D01*
X88220132Y-126319307D01*
X88215472Y-126312893D01*
X88181407Y-126284712D01*
X88172626Y-126276722D01*
X87933994Y-126038089D01*
X87899969Y-125975777D01*
X87905034Y-125904961D01*
X87947581Y-125848126D01*
X87957820Y-125841218D01*
X87958607Y-125840742D01*
X87958882Y-125840575D01*
X87958883Y-125840574D01*
X87965381Y-125836639D01*
X88086639Y-125715381D01*
X88175472Y-125568699D01*
X88179061Y-125557249D01*
X88209156Y-125461213D01*
X88226753Y-125405062D01*
X88233500Y-125331635D01*
X88233499Y-124818366D01*
X88233114Y-124814169D01*
X88228777Y-124766970D01*
X88226753Y-124744938D01*
X88223621Y-124734944D01*
X88177744Y-124588550D01*
X88177743Y-124588548D01*
X88175472Y-124581301D01*
X88097649Y-124452799D01*
X88079470Y-124384169D01*
X88101281Y-124316606D01*
X88156156Y-124271560D01*
X88226675Y-124263333D01*
X88249339Y-124269429D01*
X88303168Y-124289448D01*
X88386995Y-124300633D01*
X88475980Y-124312507D01*
X88475984Y-124312507D01*
X88482961Y-124313438D01*
X88489972Y-124312800D01*
X88489976Y-124312800D01*
X88632459Y-124299832D01*
X88663600Y-124296998D01*
X88670302Y-124294820D01*
X88670304Y-124294820D01*
X88829409Y-124243124D01*
X88829412Y-124243123D01*
X88836108Y-124240947D01*
X88991912Y-124148069D01*
X89123266Y-124022982D01*
X89223643Y-123871902D01*
X89269204Y-123751963D01*
X89285555Y-123708920D01*
X89285556Y-123708918D01*
X89288055Y-123702338D01*
X89299570Y-123620405D01*
X89312748Y-123526639D01*
X89312748Y-123526636D01*
X89313299Y-123522717D01*
X89313616Y-123500000D01*
X89293397Y-123319745D01*
X89248136Y-123189773D01*
X89236064Y-123155106D01*
X89236062Y-123155103D01*
X89233745Y-123148448D01*
X89193160Y-123083498D01*
X89141359Y-123000598D01*
X89137626Y-122994624D01*
X89132664Y-122989627D01*
X89014778Y-122870915D01*
X89014774Y-122870912D01*
X89009815Y-122865918D01*
X89000774Y-122860180D01*
X88899654Y-122796008D01*
X88856666Y-122768727D01*
X88784958Y-122743193D01*
X88692425Y-122710243D01*
X88692420Y-122710242D01*
X88685790Y-122707881D01*
X88678802Y-122707048D01*
X88678799Y-122707047D01*
X88555698Y-122692368D01*
X88505680Y-122686404D01*
X88498677Y-122687140D01*
X88498676Y-122687140D01*
X88332288Y-122704628D01*
X88332286Y-122704629D01*
X88325288Y-122705364D01*
X88268565Y-122724674D01*
X88162364Y-122760827D01*
X88091431Y-122763845D01*
X88032664Y-122730644D01*
X87965381Y-122663361D01*
X87818699Y-122574528D01*
X87721438Y-122544048D01*
X87662416Y-122504590D01*
X87634096Y-122439486D01*
X87645470Y-122369407D01*
X87651342Y-122358543D01*
X87671537Y-122325197D01*
X87671538Y-122325195D01*
X87675472Y-122318699D01*
X87681211Y-122300388D01*
X87724752Y-122161446D01*
X87726753Y-122155062D01*
X87733500Y-122081635D01*
X87733499Y-121418366D01*
X87733234Y-121415474D01*
X87727683Y-121355064D01*
X87726753Y-121344938D01*
X87716828Y-121313268D01*
X87677744Y-121188550D01*
X87677743Y-121188548D01*
X87675472Y-121181301D01*
X87586639Y-121034619D01*
X87495405Y-120943385D01*
X87461379Y-120881073D01*
X87458500Y-120854290D01*
X87458500Y-119489594D01*
X87478502Y-119421473D01*
X87495405Y-119400499D01*
X87975499Y-118920405D01*
X88037811Y-118886379D01*
X88064594Y-118883500D01*
X95631742Y-118883500D01*
X95699863Y-118903502D01*
X95746356Y-118957158D01*
X95756460Y-119027432D01*
X95742157Y-119070200D01*
X95731305Y-119089940D01*
X95729334Y-119097615D01*
X95729334Y-119097616D01*
X95726267Y-119109562D01*
X95719863Y-119128266D01*
X95711819Y-119146855D01*
X95710580Y-119154678D01*
X95710577Y-119154688D01*
X95704901Y-119190524D01*
X95702495Y-119202144D01*
X95696144Y-119226883D01*
X95691500Y-119244970D01*
X95691500Y-119265224D01*
X95689949Y-119284934D01*
X95686780Y-119304943D01*
X95687526Y-119312835D01*
X95690941Y-119348961D01*
X95691500Y-119360819D01*
X95691500Y-120854290D01*
X95671498Y-120922411D01*
X95654595Y-120943385D01*
X95589095Y-121008885D01*
X95526783Y-121042911D01*
X95455968Y-121037846D01*
X95410905Y-121008885D01*
X95315381Y-120913361D01*
X95168699Y-120824528D01*
X95161452Y-120822257D01*
X95161450Y-120822256D01*
X95083484Y-120797823D01*
X95005062Y-120773247D01*
X94931635Y-120766500D01*
X94928737Y-120766500D01*
X94674335Y-120766501D01*
X94418366Y-120766501D01*
X94415508Y-120766764D01*
X94415499Y-120766764D01*
X94379996Y-120770026D01*
X94344938Y-120773247D01*
X94338560Y-120775246D01*
X94338559Y-120775246D01*
X94188550Y-120822256D01*
X94188548Y-120822257D01*
X94181301Y-120824528D01*
X94065270Y-120894798D01*
X93996642Y-120912977D01*
X93934730Y-120894798D01*
X93818699Y-120824528D01*
X93811452Y-120822257D01*
X93811450Y-120822256D01*
X93733484Y-120797823D01*
X93655062Y-120773247D01*
X93581635Y-120766500D01*
X93578737Y-120766500D01*
X93324335Y-120766501D01*
X93068366Y-120766501D01*
X93065508Y-120766764D01*
X93065499Y-120766764D01*
X93029996Y-120770026D01*
X92994938Y-120773247D01*
X92988560Y-120775246D01*
X92988559Y-120775246D01*
X92838550Y-120822256D01*
X92838548Y-120822257D01*
X92831301Y-120824528D01*
X92684619Y-120913361D01*
X92589095Y-121008885D01*
X92526783Y-121042911D01*
X92455968Y-121037846D01*
X92410905Y-121008885D01*
X92392836Y-120990816D01*
X92358810Y-120928504D01*
X92363875Y-120857689D01*
X92376982Y-120831995D01*
X92398239Y-120800000D01*
X92403585Y-120791954D01*
X92467997Y-120622390D01*
X92471198Y-120599612D01*
X92492690Y-120446691D01*
X92492690Y-120446688D01*
X92493241Y-120442769D01*
X92493394Y-120431790D01*
X92493503Y-120424014D01*
X92493503Y-120424009D01*
X92493558Y-120420052D01*
X92473339Y-120239797D01*
X92471022Y-120233143D01*
X92416006Y-120075158D01*
X92416004Y-120075155D01*
X92413687Y-120068500D01*
X92317568Y-119914676D01*
X92303883Y-119900895D01*
X92194720Y-119790967D01*
X92194716Y-119790964D01*
X92189757Y-119785970D01*
X92178800Y-119779016D01*
X92095609Y-119726222D01*
X92036608Y-119688779D01*
X92007405Y-119678380D01*
X91872367Y-119630295D01*
X91872362Y-119630294D01*
X91865732Y-119627933D01*
X91858744Y-119627100D01*
X91858741Y-119627099D01*
X91735640Y-119612420D01*
X91685622Y-119606456D01*
X91678619Y-119607192D01*
X91678618Y-119607192D01*
X91512230Y-119624680D01*
X91512228Y-119624681D01*
X91505230Y-119625416D01*
X91333521Y-119683870D01*
X91286963Y-119712513D01*
X91185037Y-119775218D01*
X91185034Y-119775220D01*
X91179030Y-119778914D01*
X91173995Y-119783845D01*
X91173992Y-119783847D01*
X91054467Y-119900895D01*
X91049435Y-119905823D01*
X90991740Y-119995348D01*
X90957468Y-120048529D01*
X90951177Y-120058290D01*
X90948768Y-120064910D01*
X90948766Y-120064913D01*
X90908769Y-120174804D01*
X90889139Y-120228737D01*
X90866405Y-120408692D01*
X90884105Y-120589212D01*
X90941360Y-120761325D01*
X90945007Y-120767347D01*
X90982704Y-120829593D01*
X91000882Y-120898223D01*
X90979071Y-120965786D01*
X90964022Y-120983958D01*
X90913361Y-121034619D01*
X90824528Y-121181301D01*
X90822257Y-121188548D01*
X90822256Y-121188550D01*
X90817253Y-121204514D01*
X90773247Y-121344938D01*
X90766500Y-121418365D01*
X90766501Y-122081634D01*
X90766764Y-122084492D01*
X90766764Y-122084501D01*
X90767585Y-122093435D01*
X90773247Y-122155062D01*
X90775246Y-122161440D01*
X90775246Y-122161441D01*
X90818790Y-122300388D01*
X90824528Y-122318699D01*
X90913361Y-122465381D01*
X91004595Y-122556615D01*
X91038621Y-122618927D01*
X91041500Y-122645710D01*
X91041500Y-124596233D01*
X91040973Y-124607416D01*
X91039298Y-124614909D01*
X91039547Y-124622835D01*
X91039547Y-124622836D01*
X91041438Y-124682986D01*
X91041500Y-124686945D01*
X91041500Y-124714856D01*
X91041997Y-124718790D01*
X91041997Y-124718791D01*
X91042005Y-124718856D01*
X91042938Y-124730693D01*
X91044327Y-124774889D01*
X91049978Y-124794339D01*
X91053987Y-124813700D01*
X91054862Y-124820622D01*
X91056526Y-124833797D01*
X91059445Y-124841168D01*
X91059445Y-124841170D01*
X91072804Y-124874912D01*
X91076649Y-124886142D01*
X91088982Y-124928593D01*
X91093015Y-124935412D01*
X91093017Y-124935417D01*
X91099293Y-124946028D01*
X91107988Y-124963776D01*
X91115448Y-124982617D01*
X91120110Y-124989033D01*
X91120110Y-124989034D01*
X91141436Y-125018387D01*
X91147952Y-125028307D01*
X91163065Y-125053861D01*
X91170458Y-125066362D01*
X91184779Y-125080683D01*
X91197619Y-125095716D01*
X91209528Y-125112107D01*
X91241413Y-125138484D01*
X91243593Y-125140288D01*
X91252374Y-125148278D01*
X91696353Y-125592258D01*
X91703887Y-125600537D01*
X91708000Y-125607018D01*
X91737729Y-125634935D01*
X91757651Y-125653643D01*
X91760493Y-125656398D01*
X91780230Y-125676135D01*
X91783427Y-125678615D01*
X91792447Y-125686318D01*
X91824679Y-125716586D01*
X91831625Y-125720405D01*
X91831628Y-125720407D01*
X91842434Y-125726348D01*
X91858953Y-125737199D01*
X91874959Y-125749614D01*
X91880625Y-125752066D01*
X91928546Y-125803388D01*
X91941252Y-125873238D01*
X91914178Y-125938870D01*
X91905054Y-125949041D01*
X91777742Y-126076353D01*
X91769463Y-126083887D01*
X91762982Y-126088000D01*
X91724506Y-126128973D01*
X91716357Y-126137651D01*
X91713602Y-126140493D01*
X91693865Y-126160230D01*
X91691385Y-126163427D01*
X91683682Y-126172447D01*
X91653414Y-126204679D01*
X91649595Y-126211625D01*
X91649593Y-126211628D01*
X91643652Y-126222434D01*
X91632801Y-126238953D01*
X91620386Y-126254959D01*
X91617241Y-126262228D01*
X91617238Y-126262232D01*
X91602826Y-126295537D01*
X91597609Y-126306187D01*
X91576305Y-126344940D01*
X91574334Y-126352615D01*
X91574334Y-126352616D01*
X91571267Y-126364562D01*
X91564863Y-126383266D01*
X91556819Y-126401855D01*
X91555580Y-126409678D01*
X91555577Y-126409688D01*
X91549901Y-126445524D01*
X91547495Y-126457144D01*
X91544082Y-126470437D01*
X91536500Y-126499970D01*
X91536500Y-126520224D01*
X91534949Y-126539934D01*
X91531780Y-126559943D01*
X91534493Y-126588638D01*
X91535941Y-126603961D01*
X91536500Y-126615819D01*
X91536500Y-126721692D01*
X91516498Y-126789813D01*
X91468683Y-126833453D01*
X91443607Y-126846507D01*
X91439474Y-126849610D01*
X91439471Y-126849612D01*
X91297765Y-126956008D01*
X91264965Y-126980635D01*
X91225525Y-127021907D01*
X91153729Y-127097037D01*
X91110629Y-127142138D01*
X91107720Y-127146403D01*
X91107714Y-127146411D01*
X91089838Y-127172617D01*
X90984743Y-127326680D01*
X90890688Y-127529305D01*
X90830989Y-127744570D01*
X90807251Y-127966695D01*
X90820110Y-128189715D01*
X90821247Y-128194761D01*
X90821248Y-128194767D01*
X90845304Y-128301508D01*
X90869222Y-128407639D01*
X90953266Y-128614616D01*
X90990685Y-128675678D01*
X91067291Y-128800688D01*
X91069987Y-128805088D01*
X91216250Y-128973938D01*
X91388126Y-129116632D01*
X91581000Y-129229338D01*
X91789692Y-129309030D01*
X91794760Y-129310061D01*
X91794763Y-129310062D01*
X91902017Y-129331883D01*
X92008597Y-129353567D01*
X92013772Y-129353757D01*
X92013774Y-129353757D01*
X92226673Y-129361564D01*
X92226677Y-129361564D01*
X92231837Y-129361753D01*
X92236957Y-129361097D01*
X92236959Y-129361097D01*
X92448288Y-129334025D01*
X92448289Y-129334025D01*
X92453416Y-129333368D01*
X92458366Y-129331883D01*
X92662429Y-129270661D01*
X92662434Y-129270659D01*
X92667384Y-129269174D01*
X92867994Y-129170896D01*
X93049860Y-129041173D01*
X93208096Y-128883489D01*
X93267594Y-128800689D01*
X93338453Y-128702077D01*
X93339776Y-128703028D01*
X93386645Y-128659857D01*
X93456580Y-128647625D01*
X93522026Y-128675144D01*
X93549875Y-128706994D01*
X93609987Y-128805088D01*
X93756250Y-128973938D01*
X93928126Y-129116632D01*
X94121000Y-129229338D01*
X94329692Y-129309030D01*
X94334760Y-129310061D01*
X94334763Y-129310062D01*
X94442017Y-129331883D01*
X94548597Y-129353567D01*
X94553772Y-129353757D01*
X94553774Y-129353757D01*
X94766673Y-129361564D01*
X94766677Y-129361564D01*
X94771837Y-129361753D01*
X94776957Y-129361097D01*
X94776959Y-129361097D01*
X94988288Y-129334025D01*
X94988289Y-129334025D01*
X94993416Y-129333368D01*
X94998366Y-129331883D01*
X95202429Y-129270661D01*
X95202434Y-129270659D01*
X95207384Y-129269174D01*
X95407994Y-129170896D01*
X95589860Y-129041173D01*
X95698091Y-128933319D01*
X95760462Y-128899404D01*
X95831268Y-128904592D01*
X95888030Y-128947238D01*
X95905012Y-128978341D01*
X95927201Y-129037529D01*
X95949385Y-129096705D01*
X96036739Y-129213261D01*
X96153295Y-129300615D01*
X96289684Y-129351745D01*
X96351866Y-129358500D01*
X98148134Y-129358500D01*
X98210316Y-129351745D01*
X98346705Y-129300615D01*
X98463261Y-129213261D01*
X98550615Y-129096705D01*
X98601745Y-128960316D01*
X98608500Y-128898134D01*
X98608500Y-127101866D01*
X98601745Y-127039684D01*
X98550615Y-126903295D01*
X98463261Y-126786739D01*
X98346705Y-126699385D01*
X98210316Y-126648255D01*
X98148134Y-126641500D01*
X97974018Y-126641500D01*
X97905897Y-126621498D01*
X97856866Y-126561884D01*
X97852198Y-126550094D01*
X97848354Y-126538865D01*
X97841565Y-126515500D01*
X97836018Y-126496407D01*
X97825707Y-126478972D01*
X97817012Y-126461224D01*
X97809552Y-126442383D01*
X97790508Y-126416170D01*
X97783564Y-126406613D01*
X97777048Y-126396693D01*
X97758580Y-126365465D01*
X97758578Y-126365462D01*
X97754542Y-126358638D01*
X97740221Y-126344317D01*
X97727380Y-126329283D01*
X97720132Y-126319307D01*
X97715472Y-126312893D01*
X97681407Y-126284712D01*
X97672626Y-126276722D01*
X97439652Y-126043747D01*
X97405627Y-125981435D01*
X97410692Y-125910619D01*
X97453239Y-125853784D01*
X97463479Y-125846875D01*
X97473879Y-125840577D01*
X97473882Y-125840575D01*
X97480381Y-125836639D01*
X97601639Y-125715381D01*
X97690472Y-125568699D01*
X97694061Y-125557249D01*
X97724156Y-125461213D01*
X97741753Y-125405062D01*
X97748500Y-125331635D01*
X97748499Y-124818366D01*
X97748114Y-124814169D01*
X97743777Y-124766970D01*
X97741753Y-124744938D01*
X97738621Y-124734944D01*
X97692744Y-124588550D01*
X97692743Y-124588548D01*
X97690472Y-124581301D01*
X97617010Y-124460000D01*
X97598831Y-124391370D01*
X97620642Y-124323807D01*
X97675517Y-124278761D01*
X97746036Y-124270534D01*
X97768702Y-124276630D01*
X97803168Y-124289448D01*
X97886995Y-124300633D01*
X97975980Y-124312507D01*
X97975984Y-124312507D01*
X97982961Y-124313438D01*
X97989972Y-124312800D01*
X97989976Y-124312800D01*
X98132459Y-124299832D01*
X98163600Y-124296998D01*
X98170302Y-124294820D01*
X98170304Y-124294820D01*
X98329409Y-124243124D01*
X98329412Y-124243123D01*
X98336108Y-124240947D01*
X98491912Y-124148069D01*
X98623266Y-124022982D01*
X98723643Y-123871902D01*
X98747712Y-123808541D01*
X98790601Y-123751963D01*
X98857270Y-123727554D01*
X98926552Y-123743064D01*
X98976450Y-123793568D01*
X98991500Y-123853285D01*
X98991500Y-123979572D01*
X99002022Y-124080982D01*
X99055692Y-124241849D01*
X99144929Y-124386055D01*
X99150106Y-124391223D01*
X99151143Y-124392259D01*
X99169805Y-124410887D01*
X99203884Y-124473168D01*
X99198882Y-124543988D01*
X99169960Y-124589078D01*
X99144136Y-124614947D01*
X99055151Y-124759308D01*
X99052846Y-124766256D01*
X99052846Y-124766257D01*
X99013082Y-124886142D01*
X99001762Y-124920269D01*
X98991500Y-125020428D01*
X98991500Y-125554572D01*
X98991837Y-125557818D01*
X98991837Y-125557822D01*
X98992966Y-125568699D01*
X99002022Y-125655982D01*
X99055692Y-125816849D01*
X99144929Y-125961055D01*
X99264947Y-126080864D01*
X99409308Y-126169849D01*
X99416256Y-126172154D01*
X99416257Y-126172154D01*
X99563738Y-126221072D01*
X99563740Y-126221072D01*
X99570269Y-126223238D01*
X99670428Y-126233500D01*
X100279572Y-126233500D01*
X100282818Y-126233163D01*
X100282822Y-126233163D01*
X100316603Y-126229658D01*
X100380982Y-126222978D01*
X100541849Y-126169308D01*
X100548070Y-126165458D01*
X100548075Y-126165456D01*
X100574198Y-126149291D01*
X100642651Y-126130454D01*
X100710420Y-126151616D01*
X100755990Y-126206058D01*
X100766500Y-126256436D01*
X100766500Y-126515500D01*
X100746498Y-126583621D01*
X100692842Y-126630114D01*
X100640500Y-126641500D01*
X100501866Y-126641500D01*
X100439684Y-126648255D01*
X100303295Y-126699385D01*
X100186739Y-126786739D01*
X100099385Y-126903295D01*
X100048255Y-127039684D01*
X100041500Y-127101866D01*
X100041500Y-128898134D01*
X100048255Y-128960316D01*
X100099385Y-129096705D01*
X100186739Y-129213261D01*
X100303295Y-129300615D01*
X100439684Y-129351745D01*
X100501866Y-129358500D01*
X102298134Y-129358500D01*
X102360316Y-129351745D01*
X102496705Y-129300615D01*
X102613261Y-129213261D01*
X102700615Y-129096705D01*
X102722799Y-129037529D01*
X102744598Y-128979382D01*
X102787240Y-128922618D01*
X102853802Y-128897918D01*
X102923150Y-128913126D01*
X102957817Y-128941114D01*
X102986250Y-128973938D01*
X103158126Y-129116632D01*
X103351000Y-129229338D01*
X103559692Y-129309030D01*
X103564760Y-129310061D01*
X103564763Y-129310062D01*
X103672017Y-129331883D01*
X103778597Y-129353567D01*
X103783772Y-129353757D01*
X103783774Y-129353757D01*
X103996673Y-129361564D01*
X103996677Y-129361564D01*
X104001837Y-129361753D01*
X104006957Y-129361097D01*
X104006959Y-129361097D01*
X104218288Y-129334025D01*
X104218289Y-129334025D01*
X104223416Y-129333368D01*
X104228366Y-129331883D01*
X104432429Y-129270661D01*
X104432434Y-129270659D01*
X104437384Y-129269174D01*
X104637994Y-129170896D01*
X104819860Y-129041173D01*
X104978096Y-128883489D01*
X105037594Y-128800689D01*
X105108453Y-128702077D01*
X105109776Y-128703028D01*
X105156645Y-128659857D01*
X105226580Y-128647625D01*
X105292026Y-128675144D01*
X105319875Y-128706994D01*
X105379987Y-128805088D01*
X105526250Y-128973938D01*
X105698126Y-129116632D01*
X105891000Y-129229338D01*
X106099692Y-129309030D01*
X106104760Y-129310061D01*
X106104763Y-129310062D01*
X106212017Y-129331883D01*
X106318597Y-129353567D01*
X106323772Y-129353757D01*
X106323774Y-129353757D01*
X106536673Y-129361564D01*
X106536677Y-129361564D01*
X106541837Y-129361753D01*
X106546957Y-129361097D01*
X106546959Y-129361097D01*
X106758288Y-129334025D01*
X106758289Y-129334025D01*
X106763416Y-129333368D01*
X106768366Y-129331883D01*
X106972429Y-129270661D01*
X106972434Y-129270659D01*
X106977384Y-129269174D01*
X107177994Y-129170896D01*
X107359860Y-129041173D01*
X107518096Y-128883489D01*
X107577594Y-128800689D01*
X107648453Y-128702077D01*
X107649776Y-128703028D01*
X107696645Y-128659857D01*
X107766580Y-128647625D01*
X107832026Y-128675144D01*
X107859875Y-128706994D01*
X107919987Y-128805088D01*
X108066250Y-128973938D01*
X108238126Y-129116632D01*
X108431000Y-129229338D01*
X108639692Y-129309030D01*
X108644760Y-129310061D01*
X108644763Y-129310062D01*
X108752017Y-129331883D01*
X108858597Y-129353567D01*
X108863772Y-129353757D01*
X108863774Y-129353757D01*
X109076673Y-129361564D01*
X109076677Y-129361564D01*
X109081837Y-129361753D01*
X109086957Y-129361097D01*
X109086959Y-129361097D01*
X109298288Y-129334025D01*
X109298289Y-129334025D01*
X109303416Y-129333368D01*
X109308366Y-129331883D01*
X109512429Y-129270661D01*
X109512434Y-129270659D01*
X109517384Y-129269174D01*
X109717994Y-129170896D01*
X109899860Y-129041173D01*
X110058096Y-128883489D01*
X110117594Y-128800689D01*
X110188453Y-128702077D01*
X110189776Y-128703028D01*
X110236645Y-128659857D01*
X110306580Y-128647625D01*
X110372026Y-128675144D01*
X110399875Y-128706994D01*
X110459987Y-128805088D01*
X110606250Y-128973938D01*
X110778126Y-129116632D01*
X110971000Y-129229338D01*
X111179692Y-129309030D01*
X111184760Y-129310061D01*
X111184763Y-129310062D01*
X111292017Y-129331883D01*
X111398597Y-129353567D01*
X111403772Y-129353757D01*
X111403774Y-129353757D01*
X111616673Y-129361564D01*
X111616677Y-129361564D01*
X111621837Y-129361753D01*
X111626957Y-129361097D01*
X111626959Y-129361097D01*
X111838288Y-129334025D01*
X111838289Y-129334025D01*
X111843416Y-129333368D01*
X111848366Y-129331883D01*
X112052429Y-129270661D01*
X112052434Y-129270659D01*
X112057384Y-129269174D01*
X112257994Y-129170896D01*
X112439860Y-129041173D01*
X112598096Y-128883489D01*
X112657594Y-128800689D01*
X112725435Y-128706277D01*
X112728453Y-128702077D01*
X112730746Y-128697437D01*
X112732446Y-128694608D01*
X112784674Y-128646518D01*
X112840451Y-128633500D01*
X114684274Y-128633500D01*
X114752395Y-128653502D01*
X114791707Y-128693665D01*
X114859987Y-128805088D01*
X115006250Y-128973938D01*
X115178126Y-129116632D01*
X115371000Y-129229338D01*
X115579692Y-129309030D01*
X115584760Y-129310061D01*
X115584763Y-129310062D01*
X115692017Y-129331883D01*
X115798597Y-129353567D01*
X115803772Y-129353757D01*
X115803774Y-129353757D01*
X116016673Y-129361564D01*
X116016677Y-129361564D01*
X116021837Y-129361753D01*
X116026957Y-129361097D01*
X116026959Y-129361097D01*
X116238288Y-129334025D01*
X116238289Y-129334025D01*
X116243416Y-129333368D01*
X116248366Y-129331883D01*
X116452429Y-129270661D01*
X116452434Y-129270659D01*
X116457384Y-129269174D01*
X116657994Y-129170896D01*
X116839860Y-129041173D01*
X116948091Y-128933319D01*
X117010462Y-128899404D01*
X117081268Y-128904592D01*
X117138030Y-128947238D01*
X117155012Y-128978341D01*
X117177201Y-129037529D01*
X117199385Y-129096705D01*
X117286739Y-129213261D01*
X117403295Y-129300615D01*
X117539684Y-129351745D01*
X117601866Y-129358500D01*
X119398134Y-129358500D01*
X119460316Y-129351745D01*
X119596705Y-129300615D01*
X119713261Y-129213261D01*
X119800615Y-129096705D01*
X119851745Y-128960316D01*
X119858500Y-128898134D01*
X119858500Y-127101866D01*
X119851745Y-127039684D01*
X119800615Y-126903295D01*
X119713261Y-126786739D01*
X119596705Y-126699385D01*
X119460316Y-126648255D01*
X119398134Y-126641500D01*
X119259500Y-126641500D01*
X119191379Y-126621498D01*
X119144886Y-126567842D01*
X119133500Y-126515500D01*
X119133500Y-125828768D01*
X119134027Y-125817585D01*
X119135702Y-125810092D01*
X119133562Y-125742001D01*
X119133500Y-125738044D01*
X119133500Y-125710144D01*
X119132996Y-125706153D01*
X119132063Y-125694311D01*
X119131910Y-125689421D01*
X119130674Y-125650111D01*
X119128462Y-125642497D01*
X119128461Y-125642492D01*
X119125023Y-125630659D01*
X119121012Y-125611295D01*
X119119467Y-125599064D01*
X119118474Y-125591203D01*
X119115557Y-125583836D01*
X119115556Y-125583831D01*
X119102198Y-125550092D01*
X119098354Y-125538865D01*
X119088230Y-125504022D01*
X119086018Y-125496407D01*
X119075707Y-125478972D01*
X119067012Y-125461224D01*
X119059552Y-125442383D01*
X119033564Y-125406613D01*
X119027048Y-125396693D01*
X119008580Y-125365465D01*
X119008578Y-125365462D01*
X119004542Y-125358638D01*
X118990221Y-125344317D01*
X118977380Y-125329283D01*
X118970132Y-125319307D01*
X118965472Y-125312893D01*
X118931407Y-125284712D01*
X118922626Y-125276722D01*
X118541147Y-124895242D01*
X118533613Y-124886963D01*
X118529500Y-124880482D01*
X118479848Y-124833856D01*
X118477007Y-124831102D01*
X118457270Y-124811365D01*
X118454073Y-124808885D01*
X118445051Y-124801180D01*
X118418600Y-124776341D01*
X118412821Y-124770914D01*
X118405875Y-124767095D01*
X118405872Y-124767093D01*
X118395066Y-124761152D01*
X118378547Y-124750301D01*
X118378083Y-124749941D01*
X118362541Y-124737886D01*
X118355272Y-124734741D01*
X118355268Y-124734738D01*
X118321963Y-124720326D01*
X118311313Y-124715109D01*
X118272560Y-124693805D01*
X118252937Y-124688767D01*
X118234234Y-124682363D01*
X118222920Y-124677467D01*
X118222919Y-124677467D01*
X118215645Y-124674319D01*
X118207822Y-124673080D01*
X118207812Y-124673077D01*
X118171976Y-124667401D01*
X118160356Y-124664995D01*
X118125211Y-124655972D01*
X118125210Y-124655972D01*
X118117530Y-124654000D01*
X118097276Y-124654000D01*
X118077565Y-124652449D01*
X118065386Y-124650520D01*
X118057557Y-124649280D01*
X118049665Y-124650026D01*
X118013539Y-124653441D01*
X118001681Y-124654000D01*
X113921647Y-124654000D01*
X113853526Y-124633998D01*
X113830695Y-124613321D01*
X113830072Y-124613946D01*
X113807243Y-124591157D01*
X113805195Y-124589113D01*
X113771116Y-124526832D01*
X113776118Y-124456012D01*
X113805040Y-124410922D01*
X113825693Y-124390233D01*
X113830864Y-124385053D01*
X113839220Y-124371498D01*
X113875582Y-124312507D01*
X113919849Y-124240692D01*
X113930624Y-124208207D01*
X113971072Y-124086262D01*
X113971072Y-124086260D01*
X113973238Y-124079731D01*
X113983500Y-123979572D01*
X113983500Y-123709500D01*
X114003502Y-123641379D01*
X114057158Y-123594886D01*
X114109500Y-123583500D01*
X116670761Y-123583500D01*
X116738882Y-123603502D01*
X116759856Y-123620405D01*
X117035685Y-123896234D01*
X117046552Y-123908625D01*
X117066013Y-123933987D01*
X117072563Y-123939013D01*
X117097925Y-123958474D01*
X117097931Y-123958480D01*
X117186571Y-124026496D01*
X117193124Y-124031524D01*
X117341149Y-124092838D01*
X117349336Y-124093916D01*
X117349337Y-124093916D01*
X117360542Y-124095391D01*
X117384302Y-124098519D01*
X117460115Y-124108500D01*
X117460118Y-124108500D01*
X117460126Y-124108501D01*
X117491811Y-124112672D01*
X117500000Y-124113750D01*
X117531693Y-124109578D01*
X117548136Y-124108500D01*
X119544542Y-124108500D01*
X119612663Y-124128502D01*
X119659156Y-124182158D01*
X119669260Y-124252432D01*
X119639766Y-124317012D01*
X119628852Y-124328136D01*
X119558479Y-124391500D01*
X119552453Y-124396926D01*
X119548572Y-124402268D01*
X119548570Y-124402270D01*
X119456094Y-124529552D01*
X119437112Y-124555679D01*
X119434428Y-124561707D01*
X119434427Y-124561709D01*
X119364490Y-124718791D01*
X119357298Y-124734944D01*
X119336899Y-124830914D01*
X119320603Y-124907583D01*
X119316500Y-124926885D01*
X119316500Y-125123115D01*
X119317872Y-125129568D01*
X119317872Y-125129572D01*
X119331391Y-125193171D01*
X119357298Y-125315056D01*
X119359983Y-125321086D01*
X119359983Y-125321087D01*
X119434050Y-125487443D01*
X119437112Y-125494321D01*
X119440992Y-125499662D01*
X119440993Y-125499663D01*
X119544765Y-125642492D01*
X119552453Y-125653074D01*
X119557363Y-125657495D01*
X119557364Y-125657496D01*
X119673185Y-125761781D01*
X119698280Y-125784377D01*
X119797183Y-125841479D01*
X119852192Y-125873238D01*
X119868220Y-125882492D01*
X119899837Y-125892765D01*
X120048566Y-125941090D01*
X120048567Y-125941090D01*
X120054845Y-125943130D01*
X120061408Y-125943820D01*
X120061409Y-125943820D01*
X120084405Y-125946237D01*
X120201078Y-125958500D01*
X121298922Y-125958500D01*
X121415595Y-125946237D01*
X121438591Y-125943820D01*
X121438592Y-125943820D01*
X121445155Y-125943130D01*
X121451433Y-125941090D01*
X121451434Y-125941090D01*
X121600163Y-125892765D01*
X121631780Y-125882492D01*
X121647809Y-125873238D01*
X121702817Y-125841479D01*
X121801720Y-125784377D01*
X121826816Y-125761781D01*
X121942636Y-125657496D01*
X121942637Y-125657495D01*
X121947547Y-125653074D01*
X121955236Y-125642492D01*
X122059007Y-125499663D01*
X122059008Y-125499662D01*
X122062888Y-125494321D01*
X122065951Y-125487443D01*
X122140017Y-125321087D01*
X122140017Y-125321086D01*
X122142702Y-125315056D01*
X122168609Y-125193171D01*
X122182128Y-125129572D01*
X122182128Y-125129568D01*
X122183500Y-125123115D01*
X122183500Y-124926885D01*
X122179398Y-124907583D01*
X122163101Y-124830915D01*
X122142702Y-124734944D01*
X122135510Y-124718791D01*
X122065573Y-124561709D01*
X122065572Y-124561707D01*
X122062888Y-124555679D01*
X122043906Y-124529552D01*
X121951430Y-124402270D01*
X121951428Y-124402268D01*
X121947547Y-124396926D01*
X121941521Y-124391500D01*
X121806628Y-124270042D01*
X121806627Y-124270041D01*
X121801720Y-124265623D01*
X121651217Y-124178730D01*
X121602224Y-124127348D01*
X121588788Y-124057634D01*
X121615174Y-123991723D01*
X121637511Y-123969650D01*
X121652072Y-123958477D01*
X121652075Y-123958474D01*
X121683987Y-123933987D01*
X121699630Y-123913601D01*
X121703452Y-123908621D01*
X121714319Y-123896230D01*
X121926234Y-123684315D01*
X121938625Y-123673448D01*
X121957437Y-123659013D01*
X121963987Y-123653987D01*
X121988474Y-123622075D01*
X121988478Y-123622071D01*
X122061524Y-123526876D01*
X122122838Y-123378851D01*
X122125463Y-123358910D01*
X122138500Y-123259885D01*
X122138500Y-123259880D01*
X122143750Y-123220000D01*
X122139578Y-123188307D01*
X122138500Y-123171864D01*
X122138500Y-122860180D01*
X122158502Y-122792059D01*
X122170864Y-122775869D01*
X122184070Y-122761203D01*
X122250757Y-122687140D01*
X122280891Y-122653673D01*
X122280892Y-122653672D01*
X122285310Y-122648765D01*
X122318503Y-122591273D01*
X122379595Y-122485458D01*
X122379596Y-122485457D01*
X122382899Y-122479735D01*
X122443212Y-122294109D01*
X122463614Y-122100000D01*
X122443212Y-121905891D01*
X122382899Y-121720265D01*
X122343969Y-121652835D01*
X122288613Y-121556956D01*
X122285310Y-121551235D01*
X122270072Y-121534311D01*
X122239354Y-121470305D01*
X122248117Y-121399851D01*
X122270072Y-121365688D01*
X122280891Y-121353673D01*
X122280892Y-121353672D01*
X122285310Y-121348765D01*
X122328926Y-121273220D01*
X122379595Y-121185458D01*
X122379596Y-121185457D01*
X122382899Y-121179735D01*
X122426525Y-121045466D01*
X122441172Y-121000388D01*
X122441172Y-121000387D01*
X122443212Y-120994109D01*
X122445347Y-120973801D01*
X122462924Y-120806565D01*
X122463614Y-120800000D01*
X122443212Y-120605891D01*
X122439965Y-120595896D01*
X122384941Y-120426550D01*
X122382899Y-120420265D01*
X122376218Y-120408692D01*
X122288613Y-120256956D01*
X122285310Y-120251235D01*
X122275011Y-120239797D01*
X122159125Y-120111093D01*
X122159123Y-120111092D01*
X122154710Y-120106190D01*
X121996807Y-119991467D01*
X121990779Y-119988783D01*
X121990777Y-119988782D01*
X121824534Y-119914765D01*
X121824532Y-119914764D01*
X121818503Y-119912080D01*
X121723046Y-119891790D01*
X121634046Y-119872872D01*
X121634042Y-119872872D01*
X121627589Y-119871500D01*
X121507336Y-119871500D01*
X121439215Y-119851498D01*
X121392722Y-119797842D01*
X121387502Y-119784433D01*
X121385039Y-119776851D01*
X121382899Y-119770265D01*
X121355244Y-119722364D01*
X121288613Y-119606956D01*
X121285310Y-119601235D01*
X121231550Y-119541529D01*
X121159125Y-119461093D01*
X121159123Y-119461092D01*
X121154710Y-119456190D01*
X121147549Y-119450987D01*
X121002149Y-119345348D01*
X121002148Y-119345347D01*
X120996807Y-119341467D01*
X120990779Y-119338783D01*
X120990777Y-119338782D01*
X120824534Y-119264765D01*
X120824532Y-119264764D01*
X120818503Y-119262080D01*
X120705437Y-119238047D01*
X120634046Y-119222872D01*
X120634042Y-119222872D01*
X120627589Y-119221500D01*
X120432411Y-119221500D01*
X120425958Y-119222872D01*
X120425954Y-119222872D01*
X120354563Y-119238047D01*
X120241497Y-119262080D01*
X120235468Y-119264764D01*
X120235466Y-119264765D01*
X120069223Y-119338782D01*
X120069221Y-119338783D01*
X120063193Y-119341467D01*
X120057852Y-119345347D01*
X120057851Y-119345348D01*
X119912451Y-119450987D01*
X119905290Y-119456190D01*
X119900877Y-119461092D01*
X119900875Y-119461093D01*
X119828450Y-119541529D01*
X119774690Y-119601235D01*
X119771387Y-119606956D01*
X119704757Y-119722364D01*
X119677101Y-119770265D01*
X119675060Y-119776548D01*
X119675059Y-119776550D01*
X119630151Y-119914765D01*
X119616788Y-119955891D01*
X119616098Y-119962454D01*
X119616098Y-119962455D01*
X119604952Y-120068500D01*
X119596386Y-120150000D01*
X119597076Y-120156565D01*
X119606511Y-120246327D01*
X119616788Y-120344109D01*
X119677101Y-120529735D01*
X119680404Y-120535457D01*
X119680405Y-120535458D01*
X119747979Y-120652500D01*
X119764717Y-120721496D01*
X119741496Y-120788587D01*
X119685689Y-120832474D01*
X119638860Y-120841500D01*
X119109500Y-120841500D01*
X119041379Y-120821498D01*
X118994886Y-120767842D01*
X118983500Y-120715500D01*
X118983499Y-120421249D01*
X118983499Y-120418366D01*
X118982611Y-120408692D01*
X118979974Y-120379996D01*
X118976753Y-120344938D01*
X118942528Y-120235727D01*
X118927744Y-120188550D01*
X118927743Y-120188548D01*
X118925472Y-120181301D01*
X118855202Y-120065270D01*
X118837023Y-119996642D01*
X118855202Y-119934729D01*
X118857476Y-119930975D01*
X118925472Y-119818699D01*
X118936211Y-119784433D01*
X118965372Y-119691379D01*
X118976753Y-119655062D01*
X118983500Y-119581635D01*
X118983499Y-119068366D01*
X118976753Y-118994938D01*
X118965667Y-118959562D01*
X118927744Y-118838550D01*
X118927743Y-118838548D01*
X118925472Y-118831301D01*
X118836639Y-118684619D01*
X118741115Y-118589095D01*
X118707089Y-118526783D01*
X118712154Y-118455968D01*
X118741115Y-118410905D01*
X118789761Y-118362259D01*
X118852073Y-118328233D01*
X118922888Y-118333298D01*
X118956112Y-118351818D01*
X118957322Y-118352757D01*
X118958452Y-118353634D01*
X118967445Y-118361317D01*
X118993036Y-118385347D01*
X118999679Y-118391586D01*
X119006622Y-118395403D01*
X119017431Y-118401345D01*
X119033953Y-118412198D01*
X119049959Y-118424614D01*
X119057237Y-118427764D01*
X119057238Y-118427764D01*
X119090537Y-118442174D01*
X119101187Y-118447391D01*
X119139940Y-118468695D01*
X119147615Y-118470666D01*
X119147616Y-118470666D01*
X119159562Y-118473733D01*
X119178267Y-118480137D01*
X119196855Y-118488181D01*
X119204678Y-118489420D01*
X119204688Y-118489423D01*
X119240524Y-118495099D01*
X119252144Y-118497505D01*
X119287289Y-118506528D01*
X119294970Y-118508500D01*
X119315224Y-118508500D01*
X119334934Y-118510051D01*
X119354943Y-118513220D01*
X119362835Y-118512474D01*
X119398961Y-118509059D01*
X119410819Y-118508500D01*
X119510113Y-118508500D01*
X119578234Y-118528502D01*
X119594423Y-118540864D01*
X119659249Y-118599233D01*
X119698280Y-118634377D01*
X119868220Y-118732492D01*
X119874506Y-118734534D01*
X119874505Y-118734534D01*
X120048566Y-118791090D01*
X120048567Y-118791090D01*
X120054845Y-118793130D01*
X120061408Y-118793820D01*
X120061409Y-118793820D01*
X120084405Y-118796237D01*
X120201078Y-118808500D01*
X121298922Y-118808500D01*
X121415595Y-118796237D01*
X121438591Y-118793820D01*
X121438592Y-118793820D01*
X121445155Y-118793130D01*
X121451433Y-118791090D01*
X121451434Y-118791090D01*
X121625495Y-118734534D01*
X121625494Y-118734534D01*
X121631780Y-118732492D01*
X121801720Y-118634377D01*
X121840752Y-118599233D01*
X121942636Y-118507496D01*
X121942637Y-118507495D01*
X121947547Y-118503074D01*
X121953342Y-118495099D01*
X122059007Y-118349663D01*
X122059008Y-118349662D01*
X122062888Y-118344321D01*
X122079197Y-118307692D01*
X122140017Y-118171087D01*
X122140017Y-118171086D01*
X122142702Y-118165056D01*
X122171863Y-118027865D01*
X122182128Y-117979572D01*
X122182128Y-117979568D01*
X122183500Y-117973115D01*
X122183500Y-117776885D01*
X122178013Y-117751067D01*
X122157095Y-117652660D01*
X122142702Y-117584944D01*
X122117096Y-117527432D01*
X122065573Y-117411709D01*
X122065572Y-117411707D01*
X122062888Y-117405679D01*
X122059007Y-117400337D01*
X121951430Y-117252270D01*
X121951428Y-117252268D01*
X121947547Y-117246926D01*
X121903096Y-117206902D01*
X121806628Y-117120042D01*
X121806627Y-117120041D01*
X121801720Y-117115623D01*
X121676751Y-117043472D01*
X121637503Y-117020812D01*
X121637502Y-117020811D01*
X121631780Y-117017508D01*
X121554059Y-116992255D01*
X121451434Y-116958910D01*
X121451433Y-116958910D01*
X121445155Y-116956870D01*
X121438592Y-116956180D01*
X121438591Y-116956180D01*
X121415595Y-116953763D01*
X121298922Y-116941500D01*
X120201078Y-116941500D01*
X120084405Y-116953763D01*
X120061409Y-116956180D01*
X120061408Y-116956180D01*
X120054845Y-116956870D01*
X120048567Y-116958910D01*
X120048566Y-116958910D01*
X119945941Y-116992255D01*
X119868220Y-117017508D01*
X119862498Y-117020811D01*
X119862497Y-117020812D01*
X119704002Y-117112319D01*
X119703999Y-117112321D01*
X119698280Y-117115623D01*
X119693372Y-117120042D01*
X119693371Y-117120043D01*
X119679225Y-117132780D01*
X119615217Y-117163497D01*
X119544764Y-117154732D01*
X119534232Y-117149567D01*
X119532587Y-117148663D01*
X119516047Y-117137801D01*
X119515583Y-117137441D01*
X119500041Y-117125386D01*
X119492772Y-117122241D01*
X119492768Y-117122238D01*
X119459463Y-117107826D01*
X119448813Y-117102609D01*
X119410060Y-117081305D01*
X119390437Y-117076267D01*
X119371734Y-117069863D01*
X119360420Y-117064967D01*
X119360419Y-117064967D01*
X119353145Y-117061819D01*
X119345322Y-117060580D01*
X119345312Y-117060577D01*
X119309476Y-117054901D01*
X119297856Y-117052495D01*
X119262711Y-117043472D01*
X119262710Y-117043472D01*
X119255030Y-117041500D01*
X119234776Y-117041500D01*
X119215065Y-117039949D01*
X119213746Y-117039740D01*
X119195057Y-117036780D01*
X119187165Y-117037526D01*
X119151039Y-117040941D01*
X119139181Y-117041500D01*
X118895710Y-117041500D01*
X118827589Y-117021498D01*
X118806615Y-117004595D01*
X118715381Y-116913361D01*
X118568699Y-116824528D01*
X118561452Y-116822257D01*
X118561450Y-116822256D01*
X118455074Y-116788920D01*
X118405062Y-116773247D01*
X118331635Y-116766500D01*
X118328737Y-116766500D01*
X117999140Y-116766501D01*
X117668366Y-116766501D01*
X117665508Y-116766764D01*
X117665499Y-116766764D01*
X117629996Y-116770026D01*
X117594938Y-116773247D01*
X117588560Y-116775246D01*
X117588559Y-116775246D01*
X117438550Y-116822256D01*
X117438548Y-116822257D01*
X117431301Y-116824528D01*
X117284619Y-116913361D01*
X117163361Y-117034619D01*
X117159194Y-117041500D01*
X117158783Y-117042179D01*
X117158114Y-117042791D01*
X117154738Y-117047096D01*
X117154021Y-117046533D01*
X117106387Y-117090087D01*
X117036408Y-117102063D01*
X116971063Y-117074303D01*
X116961910Y-117066006D01*
X116215040Y-116319135D01*
X115420405Y-115524500D01*
X115386379Y-115462188D01*
X115383500Y-115435405D01*
X115383500Y-113993181D01*
X115403502Y-113925060D01*
X115457158Y-113878567D01*
X115526164Y-113868288D01*
X115561573Y-113873013D01*
X115561578Y-113873013D01*
X115568555Y-113873944D01*
X115575566Y-113873306D01*
X115575570Y-113873306D01*
X115677920Y-113863991D01*
X115747574Y-113877736D01*
X115797792Y-113925331D01*
X115875547Y-114056807D01*
X115993193Y-114174453D01*
X116000017Y-114178489D01*
X116000020Y-114178491D01*
X116030472Y-114196500D01*
X116136399Y-114259145D01*
X116144010Y-114261356D01*
X116144012Y-114261357D01*
X116196231Y-114276528D01*
X116296169Y-114305562D01*
X116302574Y-114306066D01*
X116302579Y-114306067D01*
X116331042Y-114308307D01*
X116331050Y-114308307D01*
X116333498Y-114308500D01*
X116565500Y-114308500D01*
X116633621Y-114328502D01*
X116680114Y-114382158D01*
X116691500Y-114434500D01*
X116691500Y-115591502D01*
X116694438Y-115628831D01*
X116712183Y-115689909D01*
X116732534Y-115759958D01*
X116740855Y-115788601D01*
X116747615Y-115800031D01*
X116821509Y-115924980D01*
X116821511Y-115924983D01*
X116825547Y-115931807D01*
X116943193Y-116049453D01*
X116950017Y-116053489D01*
X116950020Y-116053491D01*
X117023413Y-116096895D01*
X117086399Y-116134145D01*
X117094010Y-116136356D01*
X117094012Y-116136357D01*
X117146231Y-116151528D01*
X117246169Y-116180562D01*
X117252574Y-116181066D01*
X117252579Y-116181067D01*
X117281042Y-116183307D01*
X117281050Y-116183307D01*
X117283498Y-116183500D01*
X117716502Y-116183500D01*
X117718950Y-116183307D01*
X117718958Y-116183307D01*
X117747421Y-116181067D01*
X117747426Y-116181066D01*
X117753831Y-116180562D01*
X117853769Y-116151528D01*
X117905988Y-116136357D01*
X117905990Y-116136356D01*
X117913601Y-116134145D01*
X117976587Y-116096895D01*
X118049980Y-116053491D01*
X118049983Y-116053489D01*
X118056807Y-116049453D01*
X118174453Y-115931807D01*
X118178489Y-115924983D01*
X118178491Y-115924980D01*
X118252385Y-115800031D01*
X118259145Y-115788601D01*
X118267467Y-115759958D01*
X118287817Y-115689909D01*
X118305562Y-115628831D01*
X118308500Y-115591502D01*
X118308500Y-115589033D01*
X118308597Y-115586561D01*
X118309354Y-115586591D01*
X118328502Y-115521379D01*
X118382158Y-115474886D01*
X118434500Y-115463500D01*
X119724274Y-115463500D01*
X119792395Y-115483502D01*
X119831707Y-115523665D01*
X119899987Y-115635088D01*
X120046250Y-115803938D01*
X120218126Y-115946632D01*
X120411000Y-116059338D01*
X120415825Y-116061180D01*
X120415826Y-116061181D01*
X120464048Y-116079595D01*
X120619692Y-116139030D01*
X120624760Y-116140061D01*
X120624763Y-116140062D01*
X120715414Y-116158505D01*
X120838597Y-116183567D01*
X120843772Y-116183757D01*
X120843774Y-116183757D01*
X121056673Y-116191564D01*
X121056677Y-116191564D01*
X121061837Y-116191753D01*
X121066957Y-116191097D01*
X121066959Y-116191097D01*
X121278288Y-116164025D01*
X121278289Y-116164025D01*
X121283416Y-116163368D01*
X121299625Y-116158505D01*
X121492429Y-116100661D01*
X121492434Y-116100659D01*
X121497384Y-116099174D01*
X121697994Y-116000896D01*
X121879860Y-115871173D01*
X122038096Y-115713489D01*
X122062119Y-115680058D01*
X122165435Y-115536277D01*
X122168453Y-115532077D01*
X122172611Y-115523665D01*
X122265136Y-115336453D01*
X122265137Y-115336451D01*
X122267430Y-115331811D01*
X122311907Y-115185420D01*
X122330865Y-115123023D01*
X122330865Y-115123021D01*
X122332370Y-115118069D01*
X122361529Y-114896590D01*
X122363156Y-114830000D01*
X122344852Y-114607361D01*
X122290431Y-114390702D01*
X122201354Y-114185840D01*
X122147413Y-114102460D01*
X122082822Y-114002617D01*
X122082820Y-114002614D01*
X122080014Y-113998277D01*
X121929670Y-113833051D01*
X121925619Y-113829852D01*
X121925615Y-113829848D01*
X121758414Y-113697800D01*
X121758410Y-113697798D01*
X121754359Y-113694598D01*
X121713053Y-113671796D01*
X121663084Y-113621364D01*
X121648312Y-113551921D01*
X121673428Y-113485516D01*
X121700780Y-113458909D01*
X121744603Y-113427650D01*
X121879860Y-113331173D01*
X122038096Y-113173489D01*
X122044928Y-113163982D01*
X122165435Y-112996277D01*
X122168453Y-112992077D01*
X122188327Y-112951866D01*
X122265136Y-112796453D01*
X122265137Y-112796451D01*
X122267430Y-112791811D01*
X122332370Y-112578069D01*
X122361529Y-112356590D01*
X122363156Y-112290000D01*
X122344852Y-112067361D01*
X122290431Y-111850702D01*
X122201354Y-111645840D01*
X122080014Y-111458277D01*
X122034845Y-111408637D01*
X121932798Y-111296488D01*
X121901746Y-111232642D01*
X121910141Y-111162143D01*
X121955317Y-111107375D01*
X121981761Y-111093706D01*
X122088297Y-111053767D01*
X122096705Y-111050615D01*
X122213261Y-110963261D01*
X122300615Y-110846705D01*
X122351745Y-110710316D01*
X122358500Y-110648134D01*
X122358500Y-108851866D01*
X122351745Y-108789684D01*
X122300615Y-108653295D01*
X122213261Y-108536739D01*
X122096705Y-108449385D01*
X121960316Y-108398255D01*
X121898134Y-108391500D01*
X120459500Y-108391500D01*
X120391379Y-108371498D01*
X120344886Y-108317842D01*
X120333500Y-108265500D01*
X120333500Y-107462733D01*
X120353502Y-107394612D01*
X120407158Y-107348119D01*
X120477432Y-107338015D01*
X120504449Y-107345023D01*
X120553946Y-107363924D01*
X120619692Y-107389030D01*
X120624760Y-107390061D01*
X120624763Y-107390062D01*
X120708105Y-107407018D01*
X120838597Y-107433567D01*
X120843772Y-107433757D01*
X120843774Y-107433757D01*
X121056673Y-107441564D01*
X121056677Y-107441564D01*
X121061837Y-107441753D01*
X121066957Y-107441097D01*
X121066959Y-107441097D01*
X121278288Y-107414025D01*
X121278289Y-107414025D01*
X121283416Y-107413368D01*
X121288366Y-107411883D01*
X121492429Y-107350661D01*
X121492434Y-107350659D01*
X121497384Y-107349174D01*
X121697994Y-107250896D01*
X121879860Y-107121173D01*
X121916661Y-107084501D01*
X121978661Y-107022717D01*
X122038096Y-106963489D01*
X122049202Y-106948034D01*
X122165435Y-106786277D01*
X122168453Y-106782077D01*
X122170939Y-106777048D01*
X122265136Y-106586453D01*
X122265137Y-106586451D01*
X122267430Y-106581811D01*
X122332370Y-106368069D01*
X122361529Y-106146590D01*
X122361733Y-106138238D01*
X122363074Y-106083365D01*
X122363074Y-106083361D01*
X122363156Y-106080000D01*
X122344852Y-105857361D01*
X122290431Y-105640702D01*
X122201354Y-105435840D01*
X122142476Y-105344829D01*
X122082822Y-105252617D01*
X122082820Y-105252614D01*
X122080014Y-105248277D01*
X121929670Y-105083051D01*
X121925619Y-105079852D01*
X121925615Y-105079848D01*
X121758414Y-104947800D01*
X121758410Y-104947798D01*
X121754359Y-104944598D01*
X121713053Y-104921796D01*
X121663084Y-104871364D01*
X121648312Y-104801921D01*
X121673428Y-104735516D01*
X121700780Y-104708909D01*
X121785048Y-104648801D01*
X121879860Y-104581173D01*
X122038096Y-104423489D01*
X122168453Y-104242077D01*
X122179821Y-104219077D01*
X122265136Y-104046453D01*
X122265137Y-104046451D01*
X122267430Y-104041811D01*
X122332370Y-103828069D01*
X122361529Y-103606590D01*
X122361611Y-103603240D01*
X122363074Y-103543365D01*
X122363074Y-103543361D01*
X122363156Y-103540000D01*
X122344852Y-103317361D01*
X122290431Y-103100702D01*
X122201354Y-102895840D01*
X122114577Y-102761703D01*
X122082822Y-102712617D01*
X122082820Y-102712614D01*
X122080014Y-102708277D01*
X122067915Y-102694980D01*
X121932798Y-102546488D01*
X121901746Y-102482642D01*
X121910141Y-102412143D01*
X121955317Y-102357375D01*
X121981761Y-102343706D01*
X122088297Y-102303767D01*
X122096705Y-102300615D01*
X122213261Y-102213261D01*
X122300615Y-102096705D01*
X122351745Y-101960316D01*
X122358500Y-101898134D01*
X122358500Y-100101866D01*
X122351745Y-100039684D01*
X122300615Y-99903295D01*
X122213261Y-99786739D01*
X122096705Y-99699385D01*
X121960316Y-99648255D01*
X121898134Y-99641500D01*
X120101866Y-99641500D01*
X120039684Y-99648255D01*
X119903295Y-99699385D01*
X119786739Y-99786739D01*
X119699385Y-99903295D01*
X119648255Y-100039684D01*
X119641500Y-100101866D01*
X119641500Y-100240500D01*
X119621498Y-100308621D01*
X119567842Y-100355114D01*
X119515500Y-100366500D01*
X119009500Y-100366500D01*
X118941379Y-100346498D01*
X118894886Y-100292842D01*
X118883500Y-100240500D01*
X118883500Y-99942367D01*
X118884027Y-99931183D01*
X118885701Y-99923695D01*
X118883562Y-99855636D01*
X118883500Y-99851679D01*
X118883500Y-99823748D01*
X118882994Y-99819742D01*
X118882061Y-99807896D01*
X118880922Y-99771641D01*
X118880673Y-99763714D01*
X118875022Y-99744262D01*
X118871014Y-99724910D01*
X118869468Y-99712672D01*
X118869467Y-99712670D01*
X118868474Y-99704807D01*
X118852194Y-99663690D01*
X118848359Y-99652489D01*
X118836018Y-99610010D01*
X118831985Y-99603191D01*
X118831983Y-99603186D01*
X118825707Y-99592575D01*
X118817010Y-99574825D01*
X118809552Y-99555987D01*
X118783571Y-99520227D01*
X118777053Y-99510305D01*
X118758578Y-99479064D01*
X118758574Y-99479059D01*
X118754542Y-99472241D01*
X118740218Y-99457917D01*
X118727376Y-99442882D01*
X118715472Y-99426497D01*
X118681406Y-99398315D01*
X118672627Y-99390326D01*
X118497396Y-99215095D01*
X118463370Y-99152783D01*
X118468435Y-99081968D01*
X118510982Y-99025132D01*
X118577502Y-99000321D01*
X118586491Y-99000000D01*
X124615500Y-99000000D01*
X124683621Y-99020002D01*
G37*
%TD.AperFunction*%
%TA.AperFunction,Conductor*%
G36*
X109083621Y-124328502D02*
G01*
X109130114Y-124382158D01*
X109141500Y-124434500D01*
X109141500Y-125591502D01*
X109141693Y-125593950D01*
X109141693Y-125593958D01*
X109143927Y-125622333D01*
X109144438Y-125628831D01*
X109168738Y-125712473D01*
X109188586Y-125780790D01*
X109190855Y-125788601D01*
X109198654Y-125801789D01*
X109271509Y-125924980D01*
X109271511Y-125924983D01*
X109275547Y-125931807D01*
X109393193Y-126049453D01*
X109400017Y-126053489D01*
X109400020Y-126053491D01*
X109498582Y-126111780D01*
X109536399Y-126134145D01*
X109544010Y-126136356D01*
X109544012Y-126136357D01*
X109558249Y-126140493D01*
X109696169Y-126180562D01*
X109702574Y-126181066D01*
X109702579Y-126181067D01*
X109731042Y-126183307D01*
X109731050Y-126183307D01*
X109733498Y-126183500D01*
X110166502Y-126183500D01*
X110168950Y-126183307D01*
X110168958Y-126183307D01*
X110197421Y-126181067D01*
X110197426Y-126181066D01*
X110203831Y-126180562D01*
X110341751Y-126140493D01*
X110355988Y-126136357D01*
X110355990Y-126136356D01*
X110363601Y-126134145D01*
X110401418Y-126111780D01*
X110499980Y-126053491D01*
X110499983Y-126053489D01*
X110506807Y-126049453D01*
X110545348Y-126010912D01*
X110607660Y-125976886D01*
X110678475Y-125981951D01*
X110723461Y-126010835D01*
X110787113Y-126074377D01*
X110787118Y-126074381D01*
X110792298Y-126079552D01*
X110798528Y-126083392D01*
X110798529Y-126083393D01*
X110931660Y-126165456D01*
X110937899Y-126169302D01*
X111100243Y-126223149D01*
X111107080Y-126223849D01*
X111107082Y-126223850D01*
X111148401Y-126228083D01*
X111201268Y-126233500D01*
X111798732Y-126233500D01*
X111801978Y-126233163D01*
X111801982Y-126233163D01*
X111836083Y-126229625D01*
X111901019Y-126222887D01*
X111972916Y-126198900D01*
X112056324Y-126171073D01*
X112056326Y-126171072D01*
X112063268Y-126168756D01*
X112071995Y-126163356D01*
X112125163Y-126130454D01*
X112181368Y-126095674D01*
X112249819Y-126076836D01*
X112313784Y-126095558D01*
X112434308Y-126169849D01*
X112441256Y-126172154D01*
X112441257Y-126172154D01*
X112588738Y-126221072D01*
X112588740Y-126221072D01*
X112595269Y-126223238D01*
X112695428Y-126233500D01*
X113304572Y-126233500D01*
X113307818Y-126233163D01*
X113307822Y-126233163D01*
X113341603Y-126229658D01*
X113405982Y-126222978D01*
X113566849Y-126169308D01*
X113711055Y-126080071D01*
X113830864Y-125960053D01*
X113832696Y-125961882D01*
X113880723Y-125927840D01*
X113921673Y-125921000D01*
X117722905Y-125921000D01*
X117791026Y-125941002D01*
X117812003Y-125957907D01*
X117829598Y-125975503D01*
X117863621Y-126037816D01*
X117866500Y-126064596D01*
X117866500Y-126515500D01*
X117846498Y-126583621D01*
X117792842Y-126630114D01*
X117740500Y-126641500D01*
X117601866Y-126641500D01*
X117539684Y-126648255D01*
X117403295Y-126699385D01*
X117286739Y-126786739D01*
X117199385Y-126903295D01*
X117196233Y-126911703D01*
X117154919Y-127021907D01*
X117112277Y-127078671D01*
X117045716Y-127103371D01*
X116976367Y-127088163D01*
X116943743Y-127062476D01*
X116893151Y-127006875D01*
X116893142Y-127006866D01*
X116889670Y-127003051D01*
X116885616Y-126999849D01*
X116885615Y-126999848D01*
X116718414Y-126867800D01*
X116718410Y-126867798D01*
X116714359Y-126864598D01*
X116518789Y-126756638D01*
X116513920Y-126754914D01*
X116513916Y-126754912D01*
X116313087Y-126683795D01*
X116313083Y-126683794D01*
X116308212Y-126682069D01*
X116303119Y-126681162D01*
X116303116Y-126681161D01*
X116093373Y-126643800D01*
X116093367Y-126643799D01*
X116088284Y-126642894D01*
X116014452Y-126641992D01*
X115870081Y-126640228D01*
X115870079Y-126640228D01*
X115864911Y-126640165D01*
X115644091Y-126673955D01*
X115431756Y-126743357D01*
X115233607Y-126846507D01*
X115229474Y-126849610D01*
X115229471Y-126849612D01*
X115087765Y-126956008D01*
X115054965Y-126980635D01*
X115015525Y-127021907D01*
X114943729Y-127097037D01*
X114900629Y-127142138D01*
X114897720Y-127146403D01*
X114897714Y-127146411D01*
X114785095Y-127311504D01*
X114730184Y-127356507D01*
X114681007Y-127366500D01*
X112836805Y-127366500D01*
X112768684Y-127346498D01*
X112731013Y-127308940D01*
X112642822Y-127172617D01*
X112642820Y-127172614D01*
X112640014Y-127168277D01*
X112489670Y-127003051D01*
X112485616Y-126999849D01*
X112485615Y-126999848D01*
X112318414Y-126867800D01*
X112318410Y-126867798D01*
X112314359Y-126864598D01*
X112118789Y-126756638D01*
X112113920Y-126754914D01*
X112113916Y-126754912D01*
X111913087Y-126683795D01*
X111913083Y-126683794D01*
X111908212Y-126682069D01*
X111903119Y-126681162D01*
X111903116Y-126681161D01*
X111693373Y-126643800D01*
X111693367Y-126643799D01*
X111688284Y-126642894D01*
X111614452Y-126641992D01*
X111470081Y-126640228D01*
X111470079Y-126640228D01*
X111464911Y-126640165D01*
X111244091Y-126673955D01*
X111031756Y-126743357D01*
X110833607Y-126846507D01*
X110829474Y-126849610D01*
X110829471Y-126849612D01*
X110687765Y-126956008D01*
X110654965Y-126980635D01*
X110615525Y-127021907D01*
X110543729Y-127097037D01*
X110500629Y-127142138D01*
X110393201Y-127299621D01*
X110338293Y-127344621D01*
X110267768Y-127352792D01*
X110204021Y-127321538D01*
X110183324Y-127297054D01*
X110102822Y-127172617D01*
X110102820Y-127172614D01*
X110100014Y-127168277D01*
X109949670Y-127003051D01*
X109945616Y-126999849D01*
X109945615Y-126999848D01*
X109778414Y-126867800D01*
X109778410Y-126867798D01*
X109774359Y-126864598D01*
X109578789Y-126756638D01*
X109573920Y-126754914D01*
X109573916Y-126754912D01*
X109373087Y-126683795D01*
X109373083Y-126683794D01*
X109368212Y-126682069D01*
X109363119Y-126681162D01*
X109363116Y-126681161D01*
X109153373Y-126643800D01*
X109153367Y-126643799D01*
X109148284Y-126642894D01*
X109074452Y-126641992D01*
X108930081Y-126640228D01*
X108930079Y-126640228D01*
X108924911Y-126640165D01*
X108704091Y-126673955D01*
X108491756Y-126743357D01*
X108293607Y-126846507D01*
X108289474Y-126849610D01*
X108289471Y-126849612D01*
X108147765Y-126956008D01*
X108114965Y-126980635D01*
X108075525Y-127021907D01*
X108003729Y-127097037D01*
X107960629Y-127142138D01*
X107853201Y-127299621D01*
X107798293Y-127344621D01*
X107727768Y-127352792D01*
X107664021Y-127321538D01*
X107643324Y-127297054D01*
X107562822Y-127172617D01*
X107562820Y-127172614D01*
X107560014Y-127168277D01*
X107409670Y-127003051D01*
X107405616Y-126999849D01*
X107405615Y-126999848D01*
X107238414Y-126867800D01*
X107238410Y-126867798D01*
X107234359Y-126864598D01*
X107197260Y-126844118D01*
X107127259Y-126805476D01*
X107077288Y-126755043D01*
X107071613Y-126741195D01*
X107071379Y-126741296D01*
X107068229Y-126734017D01*
X107066018Y-126726407D01*
X107055707Y-126708972D01*
X107047012Y-126691224D01*
X107039552Y-126672383D01*
X107016714Y-126640948D01*
X107013564Y-126636613D01*
X107007048Y-126626693D01*
X106988580Y-126595465D01*
X106988578Y-126595462D01*
X106984542Y-126588638D01*
X106970218Y-126574314D01*
X106957383Y-126559287D01*
X106945472Y-126542893D01*
X106933051Y-126532617D01*
X106911408Y-126514713D01*
X106902628Y-126506723D01*
X106831319Y-126435414D01*
X106797293Y-126373102D01*
X106802358Y-126302287D01*
X106844905Y-126245451D01*
X106893815Y-126223159D01*
X106907449Y-126220215D01*
X107056107Y-126170619D01*
X107069286Y-126164445D01*
X107202173Y-126082212D01*
X107213579Y-126073172D01*
X107276371Y-126010270D01*
X107338653Y-125976190D01*
X107409473Y-125981193D01*
X107454639Y-126010192D01*
X107487896Y-126043449D01*
X107500322Y-126053089D01*
X107629779Y-126129648D01*
X107644210Y-126135893D01*
X107778605Y-126174939D01*
X107792706Y-126174899D01*
X107796000Y-126167630D01*
X107796000Y-126161878D01*
X108304000Y-126161878D01*
X108307973Y-126175409D01*
X108315871Y-126176544D01*
X108455790Y-126135893D01*
X108470221Y-126129648D01*
X108599678Y-126053089D01*
X108612104Y-126043449D01*
X108718449Y-125937104D01*
X108728089Y-125924678D01*
X108804648Y-125795221D01*
X108810893Y-125780790D01*
X108853269Y-125634935D01*
X108855570Y-125622333D01*
X108857807Y-125593916D01*
X108858000Y-125588986D01*
X108858000Y-125209615D01*
X108853525Y-125194376D01*
X108852135Y-125193171D01*
X108844452Y-125191500D01*
X108322115Y-125191500D01*
X108306876Y-125195975D01*
X108305671Y-125197365D01*
X108304000Y-125205048D01*
X108304000Y-126161878D01*
X107796000Y-126161878D01*
X107796000Y-124809500D01*
X107816002Y-124741379D01*
X107869658Y-124694886D01*
X107922000Y-124683500D01*
X108839884Y-124683500D01*
X108855123Y-124679025D01*
X108856328Y-124677635D01*
X108857999Y-124669952D01*
X108857999Y-124434500D01*
X108878001Y-124366379D01*
X108931657Y-124319886D01*
X108983999Y-124308500D01*
X109015500Y-124308500D01*
X109083621Y-124328502D01*
G37*
%TD.AperFunction*%
%TA.AperFunction,Conductor*%
G36*
X109178921Y-104952436D02*
G01*
X109208454Y-104986519D01*
X109270458Y-105091363D01*
X109313095Y-105134000D01*
X109347121Y-105196312D01*
X109350000Y-105223095D01*
X109350000Y-105304743D01*
X109354475Y-105319982D01*
X109366473Y-105330378D01*
X109398114Y-105344829D01*
X109436497Y-105404556D01*
X109440606Y-105455844D01*
X109436463Y-105488640D01*
X109454163Y-105669160D01*
X109511418Y-105841273D01*
X109515065Y-105847295D01*
X109515066Y-105847297D01*
X109529668Y-105871407D01*
X109605380Y-105996424D01*
X109610269Y-106001487D01*
X109610270Y-106001488D01*
X109665386Y-106058562D01*
X109731382Y-106126902D01*
X109787887Y-106163878D01*
X109858741Y-106210243D01*
X109883159Y-106226222D01*
X109889763Y-106228678D01*
X109889765Y-106228679D01*
X110046558Y-106286990D01*
X110046560Y-106286990D01*
X110053168Y-106289448D01*
X110118288Y-106298137D01*
X110225980Y-106312507D01*
X110225984Y-106312507D01*
X110232961Y-106313438D01*
X110239972Y-106312800D01*
X110239976Y-106312800D01*
X110382459Y-106299832D01*
X110413600Y-106296998D01*
X110420302Y-106294820D01*
X110420304Y-106294820D01*
X110579409Y-106243124D01*
X110579412Y-106243123D01*
X110586108Y-106240947D01*
X110685701Y-106181577D01*
X110754454Y-106163878D01*
X110819210Y-106184375D01*
X110875670Y-106221321D01*
X110883159Y-106226222D01*
X110889763Y-106228678D01*
X110889765Y-106228679D01*
X111046558Y-106286990D01*
X111046560Y-106286990D01*
X111053168Y-106289448D01*
X111118288Y-106298137D01*
X111225980Y-106312507D01*
X111225984Y-106312507D01*
X111232961Y-106313438D01*
X111239972Y-106312800D01*
X111239976Y-106312800D01*
X111382459Y-106299832D01*
X111413600Y-106296998D01*
X111420302Y-106294820D01*
X111420304Y-106294820D01*
X111473818Y-106277432D01*
X111499308Y-106269150D01*
X111570274Y-106267122D01*
X111631072Y-106303785D01*
X111662398Y-106367497D01*
X111654305Y-106438031D01*
X111628908Y-106475324D01*
X111628979Y-106475382D01*
X111628314Y-106476198D01*
X111626402Y-106479005D01*
X111619493Y-106485771D01*
X111521235Y-106638238D01*
X111518826Y-106644858D01*
X111518824Y-106644861D01*
X111461606Y-106802066D01*
X111459197Y-106808685D01*
X111436463Y-106988640D01*
X111454163Y-107169160D01*
X111511418Y-107341273D01*
X111515065Y-107347295D01*
X111515066Y-107347297D01*
X111599260Y-107486318D01*
X111605380Y-107496424D01*
X111610269Y-107501487D01*
X111610270Y-107501488D01*
X111624486Y-107516209D01*
X111731382Y-107626902D01*
X111750238Y-107639241D01*
X111873535Y-107719924D01*
X111883159Y-107726222D01*
X111889763Y-107728678D01*
X111889765Y-107728679D01*
X112046558Y-107786990D01*
X112046560Y-107786990D01*
X112053168Y-107789448D01*
X112136995Y-107800633D01*
X112225980Y-107812507D01*
X112225984Y-107812507D01*
X112232961Y-107813438D01*
X112239972Y-107812800D01*
X112239977Y-107812800D01*
X112279082Y-107809241D01*
X112348735Y-107822987D01*
X112399899Y-107872208D01*
X112416501Y-107934720D01*
X112416501Y-108038978D01*
X112417114Y-108046766D01*
X112417489Y-108051531D01*
X112419326Y-108074889D01*
X112421120Y-108081063D01*
X112421121Y-108081070D01*
X112459988Y-108214847D01*
X112459988Y-108285153D01*
X112424090Y-108408713D01*
X112419326Y-108425111D01*
X112418821Y-108431530D01*
X112416693Y-108458562D01*
X112416692Y-108458575D01*
X112416500Y-108461021D01*
X112416501Y-108838978D01*
X112419326Y-108874889D01*
X112421120Y-108881063D01*
X112421121Y-108881070D01*
X112459988Y-109014847D01*
X112459988Y-109085153D01*
X112421123Y-109218925D01*
X112419326Y-109225111D01*
X112418821Y-109231530D01*
X112416693Y-109258562D01*
X112416692Y-109258575D01*
X112416500Y-109261021D01*
X112416501Y-109638978D01*
X112416695Y-109641443D01*
X112417955Y-109657456D01*
X112419326Y-109674889D01*
X112421120Y-109681063D01*
X112421121Y-109681070D01*
X112459988Y-109814847D01*
X112459988Y-109885153D01*
X112423846Y-110009552D01*
X112419326Y-110025111D01*
X112418821Y-110031530D01*
X112416693Y-110058562D01*
X112416692Y-110058575D01*
X112416500Y-110061021D01*
X112416501Y-110238297D01*
X112416501Y-110290499D01*
X112396499Y-110358620D01*
X112342844Y-110405113D01*
X112290501Y-110416500D01*
X110864595Y-110416500D01*
X110796474Y-110396498D01*
X110775500Y-110379595D01*
X110753652Y-110357747D01*
X110746112Y-110349461D01*
X110742000Y-110342982D01*
X110692347Y-110296355D01*
X110689506Y-110293601D01*
X110669770Y-110273865D01*
X110666573Y-110271385D01*
X110657551Y-110263680D01*
X110625321Y-110233414D01*
X110618375Y-110229595D01*
X110618372Y-110229593D01*
X110607566Y-110223652D01*
X110591047Y-110212801D01*
X110590583Y-110212441D01*
X110575041Y-110200386D01*
X110567772Y-110197241D01*
X110567768Y-110197238D01*
X110534463Y-110182826D01*
X110523813Y-110177609D01*
X110485060Y-110156305D01*
X110465437Y-110151267D01*
X110446734Y-110144863D01*
X110435420Y-110139967D01*
X110435419Y-110139967D01*
X110428145Y-110136819D01*
X110420322Y-110135580D01*
X110420312Y-110135577D01*
X110384476Y-110129901D01*
X110372856Y-110127495D01*
X110337711Y-110118472D01*
X110337710Y-110118472D01*
X110330030Y-110116500D01*
X110309776Y-110116500D01*
X110290065Y-110114949D01*
X110277886Y-110113020D01*
X110270057Y-110111780D01*
X110262165Y-110112526D01*
X110226039Y-110115941D01*
X110214181Y-110116500D01*
X109797338Y-110116500D01*
X109729824Y-110096885D01*
X109653004Y-110048134D01*
X109606666Y-110018727D01*
X109577463Y-110008328D01*
X109442425Y-109960243D01*
X109442420Y-109960242D01*
X109435790Y-109957881D01*
X109428802Y-109957048D01*
X109428799Y-109957047D01*
X109287690Y-109940221D01*
X109255680Y-109936404D01*
X109248677Y-109937140D01*
X109248676Y-109937140D01*
X109082288Y-109954628D01*
X109082286Y-109954629D01*
X109075288Y-109955364D01*
X108903579Y-110013818D01*
X108889457Y-110022506D01*
X108755095Y-110105166D01*
X108755092Y-110105168D01*
X108749088Y-110108862D01*
X108744053Y-110113793D01*
X108744050Y-110113795D01*
X108624525Y-110230843D01*
X108619493Y-110235771D01*
X108521235Y-110388238D01*
X108518826Y-110394858D01*
X108518824Y-110394861D01*
X108470897Y-110526540D01*
X108459197Y-110558685D01*
X108436463Y-110738640D01*
X108454163Y-110919160D01*
X108456387Y-110925845D01*
X108481297Y-111000728D01*
X108483820Y-111071680D01*
X108447583Y-111132732D01*
X108384091Y-111164502D01*
X108361740Y-111166500D01*
X108118231Y-111166501D01*
X108111022Y-111166501D01*
X108103234Y-111167114D01*
X108081526Y-111168821D01*
X108081523Y-111168822D01*
X108075111Y-111169326D01*
X108068937Y-111171120D01*
X108068930Y-111171121D01*
X107935153Y-111209988D01*
X107864847Y-111209988D01*
X107731075Y-111171123D01*
X107731073Y-111171123D01*
X107724889Y-111169326D01*
X107712238Y-111168330D01*
X107691438Y-111166693D01*
X107691425Y-111166692D01*
X107688979Y-111166500D01*
X107500115Y-111166500D01*
X107311022Y-111166501D01*
X107303234Y-111167114D01*
X107281526Y-111168821D01*
X107281523Y-111168822D01*
X107275111Y-111169326D01*
X107268933Y-111171121D01*
X107268927Y-111171122D01*
X107267237Y-111171613D01*
X107266254Y-111171610D01*
X107262591Y-111172279D01*
X107262467Y-111171599D01*
X107196241Y-111171410D01*
X107136625Y-111132856D01*
X107107317Y-111068191D01*
X107117621Y-110997946D01*
X107167568Y-110942387D01*
X107235860Y-110901677D01*
X107235862Y-110901676D01*
X107241912Y-110898069D01*
X107373266Y-110772982D01*
X107473643Y-110621902D01*
X107523179Y-110491500D01*
X107535555Y-110458920D01*
X107535556Y-110458918D01*
X107538055Y-110452338D01*
X107547064Y-110388238D01*
X107562748Y-110276639D01*
X107562748Y-110276636D01*
X107563299Y-110272717D01*
X107563616Y-110250000D01*
X107550050Y-110129058D01*
X107562334Y-110059134D01*
X107608567Y-110010860D01*
X107607617Y-110009552D01*
X107643387Y-109983564D01*
X107653307Y-109977048D01*
X107684535Y-109958580D01*
X107684538Y-109958578D01*
X107691362Y-109954542D01*
X107705683Y-109940221D01*
X107720717Y-109927380D01*
X107730694Y-109920131D01*
X107737107Y-109915472D01*
X107765298Y-109881395D01*
X107773288Y-109872616D01*
X107892247Y-109753657D01*
X107900537Y-109746113D01*
X107907018Y-109742000D01*
X107953659Y-109692332D01*
X107956413Y-109689491D01*
X107976135Y-109669769D01*
X107978619Y-109666567D01*
X107986317Y-109657555D01*
X108011161Y-109631098D01*
X108016586Y-109625321D01*
X108026347Y-109607566D01*
X108037198Y-109591047D01*
X108049614Y-109575041D01*
X108061699Y-109547115D01*
X108067174Y-109534463D01*
X108072391Y-109523813D01*
X108093695Y-109485060D01*
X108098733Y-109465437D01*
X108105137Y-109446734D01*
X108110033Y-109435420D01*
X108110033Y-109435419D01*
X108113181Y-109428145D01*
X108114420Y-109420322D01*
X108114423Y-109420312D01*
X108120099Y-109384476D01*
X108122505Y-109372856D01*
X108131528Y-109337711D01*
X108131528Y-109337710D01*
X108133500Y-109330030D01*
X108133500Y-109309776D01*
X108135051Y-109290065D01*
X108136980Y-109277886D01*
X108138220Y-109270057D01*
X108134059Y-109226038D01*
X108133500Y-109214181D01*
X108133500Y-107545620D01*
X108154552Y-107475893D01*
X108189098Y-107423897D01*
X108223643Y-107371902D01*
X108269609Y-107250896D01*
X108285555Y-107208920D01*
X108285556Y-107208918D01*
X108288055Y-107202338D01*
X108290960Y-107181669D01*
X108312748Y-107026639D01*
X108312748Y-107026636D01*
X108313299Y-107022717D01*
X108313616Y-107000000D01*
X108293397Y-106819745D01*
X108290863Y-106812469D01*
X108236064Y-106655106D01*
X108236062Y-106655103D01*
X108233745Y-106648448D01*
X108227365Y-106638238D01*
X108141359Y-106500598D01*
X108137626Y-106494624D01*
X108130457Y-106487405D01*
X108014778Y-106370915D01*
X108014774Y-106370912D01*
X108009815Y-106365918D01*
X107998697Y-106358862D01*
X107915068Y-106305790D01*
X107856666Y-106268727D01*
X107794821Y-106246705D01*
X107692425Y-106210243D01*
X107692420Y-106210242D01*
X107685790Y-106207881D01*
X107678802Y-106207048D01*
X107678799Y-106207047D01*
X107525580Y-106188777D01*
X107505680Y-106186404D01*
X107498677Y-106187140D01*
X107498676Y-106187140D01*
X107332288Y-106204628D01*
X107332286Y-106204629D01*
X107325288Y-106205364D01*
X107153579Y-106263818D01*
X107105083Y-106293653D01*
X107005095Y-106355166D01*
X107005092Y-106355168D01*
X106999088Y-106358862D01*
X106994053Y-106363793D01*
X106994050Y-106363795D01*
X106876402Y-106479005D01*
X106869493Y-106485771D01*
X106805707Y-106584747D01*
X106751995Y-106631170D01*
X106681708Y-106641185D01*
X106617165Y-106611610D01*
X106578857Y-106551835D01*
X106578806Y-106487603D01*
X106577721Y-106487405D01*
X106578801Y-106481491D01*
X106578801Y-106481338D01*
X106578877Y-106481078D01*
X106578879Y-106481068D01*
X106580674Y-106474889D01*
X106582158Y-106456033D01*
X106583307Y-106441438D01*
X106583308Y-106441425D01*
X106583500Y-106438979D01*
X106583499Y-106061022D01*
X106580674Y-106025111D01*
X106578880Y-106018937D01*
X106578879Y-106018930D01*
X106540012Y-105885153D01*
X106540012Y-105814847D01*
X106578877Y-105681075D01*
X106578878Y-105681070D01*
X106580674Y-105674889D01*
X106582970Y-105645720D01*
X106583307Y-105641438D01*
X106583308Y-105641425D01*
X106583500Y-105638979D01*
X106583499Y-105459500D01*
X106603501Y-105391380D01*
X106657156Y-105344887D01*
X106709498Y-105333500D01*
X106883095Y-105333499D01*
X106888978Y-105333499D01*
X106896766Y-105332886D01*
X106918474Y-105331179D01*
X106918477Y-105331178D01*
X106924889Y-105330674D01*
X106931063Y-105328880D01*
X106931070Y-105328879D01*
X107064847Y-105290012D01*
X107135153Y-105290012D01*
X107268925Y-105328877D01*
X107268927Y-105328877D01*
X107275111Y-105330674D01*
X107287762Y-105331670D01*
X107308562Y-105333307D01*
X107308575Y-105333308D01*
X107311021Y-105333500D01*
X107499885Y-105333500D01*
X107688978Y-105333499D01*
X107696766Y-105332886D01*
X107718474Y-105331179D01*
X107718477Y-105331178D01*
X107724889Y-105330674D01*
X107731063Y-105328880D01*
X107731070Y-105328879D01*
X107864847Y-105290012D01*
X107935153Y-105290012D01*
X108068925Y-105328877D01*
X108068927Y-105328877D01*
X108075111Y-105330674D01*
X108087762Y-105331670D01*
X108108562Y-105333307D01*
X108108575Y-105333308D01*
X108111021Y-105333500D01*
X108299885Y-105333500D01*
X108488978Y-105333499D01*
X108496766Y-105332886D01*
X108518474Y-105331179D01*
X108518477Y-105331178D01*
X108524889Y-105330674D01*
X108531063Y-105328880D01*
X108531070Y-105328879D01*
X108665743Y-105289752D01*
X108736049Y-105289752D01*
X108832605Y-105317804D01*
X108846705Y-105317764D01*
X108850000Y-105310494D01*
X108850000Y-105223095D01*
X108870002Y-105154974D01*
X108886905Y-105134000D01*
X108929542Y-105091363D01*
X108991546Y-104986519D01*
X109043439Y-104938066D01*
X109113289Y-104925361D01*
X109178921Y-104952436D01*
G37*
%TD.AperFunction*%
%TA.AperFunction,Conductor*%
G36*
X112492121Y-103845002D02*
G01*
X112538614Y-103898658D01*
X112550000Y-103951000D01*
X112550000Y-104891487D01*
X112532454Y-104955626D01*
X112463982Y-105071407D01*
X112419326Y-105225111D01*
X112418821Y-105231530D01*
X112416693Y-105258562D01*
X112416692Y-105258575D01*
X112416500Y-105261021D01*
X112416501Y-105638978D01*
X112419326Y-105674889D01*
X112421120Y-105681063D01*
X112421121Y-105681070D01*
X112459988Y-105814847D01*
X112459988Y-105885153D01*
X112426189Y-106001488D01*
X112419326Y-106025111D01*
X112418821Y-106031530D01*
X112416693Y-106058562D01*
X112416692Y-106058575D01*
X112416500Y-106061021D01*
X112416500Y-106063663D01*
X112416492Y-106063689D01*
X112416403Y-106065963D01*
X112415831Y-106065941D01*
X112396498Y-106131784D01*
X112342842Y-106178277D01*
X112275581Y-106188777D01*
X112269778Y-106188085D01*
X112255680Y-106186404D01*
X112248677Y-106187140D01*
X112248676Y-106187140D01*
X112082288Y-106204628D01*
X112082286Y-106204629D01*
X112075288Y-106205364D01*
X112004018Y-106229626D01*
X111933087Y-106232644D01*
X111871783Y-106196834D01*
X111839572Y-106133565D01*
X111846679Y-106062925D01*
X111866890Y-106029360D01*
X111868168Y-106027837D01*
X111873266Y-106022982D01*
X111973643Y-105871902D01*
X112016615Y-105758778D01*
X112035555Y-105708920D01*
X112035556Y-105708918D01*
X112038055Y-105702338D01*
X112040295Y-105686404D01*
X112056620Y-105570240D01*
X112065753Y-105537745D01*
X112067166Y-105534479D01*
X112072383Y-105523827D01*
X112093695Y-105485060D01*
X112095666Y-105477383D01*
X112095668Y-105477378D01*
X112098732Y-105465442D01*
X112105138Y-105446730D01*
X112110034Y-105435417D01*
X112113181Y-105428145D01*
X112120097Y-105384481D01*
X112122504Y-105372860D01*
X112131528Y-105337711D01*
X112131528Y-105337710D01*
X112133500Y-105330030D01*
X112133500Y-105309769D01*
X112135051Y-105290058D01*
X112135100Y-105289752D01*
X112138219Y-105270057D01*
X112134059Y-105226046D01*
X112133500Y-105214189D01*
X112133500Y-105119140D01*
X112151046Y-105055001D01*
X112206984Y-104960414D01*
X112211018Y-104953593D01*
X112234908Y-104871364D01*
X112253878Y-104806072D01*
X112253879Y-104806069D01*
X112255674Y-104799889D01*
X112256883Y-104784532D01*
X112258307Y-104766438D01*
X112258308Y-104766425D01*
X112258500Y-104763979D01*
X112258499Y-103950999D01*
X112278501Y-103882879D01*
X112332157Y-103836386D01*
X112384499Y-103825000D01*
X112424000Y-103825000D01*
X112492121Y-103845002D01*
G37*
%TD.AperFunction*%
%TA.AperFunction,Conductor*%
G36*
X116445294Y-99595269D02*
G01*
X116466268Y-99612172D01*
X117079595Y-100225499D01*
X117113621Y-100287811D01*
X117116500Y-100314594D01*
X117116500Y-101421233D01*
X117115973Y-101432416D01*
X117114298Y-101439909D01*
X117114547Y-101447835D01*
X117114547Y-101447836D01*
X117116438Y-101507986D01*
X117116500Y-101511945D01*
X117116500Y-101539856D01*
X117116997Y-101543790D01*
X117116997Y-101543791D01*
X117117005Y-101543856D01*
X117117938Y-101555693D01*
X117119327Y-101599889D01*
X117124978Y-101619339D01*
X117128987Y-101638700D01*
X117131526Y-101658797D01*
X117134445Y-101666168D01*
X117134445Y-101666170D01*
X117147804Y-101699912D01*
X117151649Y-101711142D01*
X117161771Y-101745983D01*
X117163982Y-101753593D01*
X117168015Y-101760412D01*
X117168017Y-101760417D01*
X117174293Y-101771028D01*
X117182988Y-101788776D01*
X117190448Y-101807617D01*
X117195110Y-101814033D01*
X117195110Y-101814034D01*
X117216436Y-101843387D01*
X117222952Y-101853307D01*
X117245458Y-101891362D01*
X117255501Y-101901405D01*
X117289527Y-101963717D01*
X117284462Y-102034532D01*
X117241915Y-102091368D01*
X117175395Y-102116179D01*
X117166406Y-102116500D01*
X115578767Y-102116500D01*
X115567584Y-102115973D01*
X115560091Y-102114298D01*
X115552165Y-102114547D01*
X115552164Y-102114547D01*
X115492014Y-102116438D01*
X115488055Y-102116500D01*
X115460144Y-102116500D01*
X115456210Y-102116997D01*
X115456209Y-102116997D01*
X115456144Y-102117005D01*
X115444307Y-102117938D01*
X115412490Y-102118938D01*
X115408029Y-102119078D01*
X115400110Y-102119327D01*
X115382454Y-102124456D01*
X115380658Y-102124978D01*
X115361306Y-102128986D01*
X115354235Y-102129880D01*
X115341203Y-102131526D01*
X115333834Y-102134443D01*
X115333832Y-102134444D01*
X115300097Y-102147800D01*
X115288869Y-102151645D01*
X115246407Y-102163982D01*
X115239584Y-102168017D01*
X115239582Y-102168018D01*
X115228972Y-102174293D01*
X115211224Y-102182988D01*
X115192383Y-102190448D01*
X115185967Y-102195110D01*
X115185966Y-102195110D01*
X115156613Y-102216436D01*
X115146692Y-102222952D01*
X115108638Y-102245458D01*
X115107798Y-102244038D01*
X115050404Y-102266571D01*
X114980782Y-102252669D01*
X114929727Y-102203334D01*
X114919741Y-102180940D01*
X114910447Y-102153082D01*
X114904273Y-102139904D01*
X114850169Y-102052472D01*
X114831331Y-101984020D01*
X114849537Y-101920897D01*
X114912608Y-101816755D01*
X114918814Y-101803010D01*
X114965785Y-101653123D01*
X114968398Y-101640073D01*
X114974263Y-101576246D01*
X114974529Y-101570458D01*
X114974529Y-101513882D01*
X114970054Y-101498643D01*
X114968664Y-101497438D01*
X114960981Y-101495767D01*
X114338644Y-101495767D01*
X114323405Y-101500242D01*
X114322200Y-101501632D01*
X114320529Y-101509315D01*
X114320529Y-102153242D01*
X114300527Y-102221363D01*
X114251020Y-102264261D01*
X114245499Y-102270632D01*
X114243828Y-102278315D01*
X114243828Y-102812189D01*
X114223826Y-102880310D01*
X114170170Y-102926803D01*
X114117828Y-102938189D01*
X113024943Y-102938189D01*
X113009703Y-102942664D01*
X113006945Y-102945847D01*
X112947218Y-102984230D01*
X112876222Y-102984230D01*
X112828318Y-102955807D01*
X112827920Y-102956320D01*
X112823808Y-102953131D01*
X112822626Y-102952429D01*
X112821665Y-102951468D01*
X112809229Y-102941821D01*
X112725880Y-102892529D01*
X112677427Y-102840636D01*
X112664722Y-102770785D01*
X112691797Y-102705154D01*
X112700924Y-102694980D01*
X112822182Y-102573722D01*
X112840453Y-102558606D01*
X112840715Y-102558428D01*
X112840717Y-102558426D01*
X112847271Y-102553972D01*
X112853870Y-102546488D01*
X112884429Y-102511825D01*
X112889848Y-102506056D01*
X112901134Y-102494770D01*
X112910930Y-102482142D01*
X112915961Y-102476060D01*
X112918777Y-102472866D01*
X112978827Y-102434994D01*
X113013292Y-102430189D01*
X113717713Y-102430189D01*
X113732952Y-102425714D01*
X113734157Y-102424324D01*
X113735828Y-102416641D01*
X113735828Y-101797714D01*
X113755830Y-101729593D01*
X113805337Y-101686695D01*
X113810858Y-101680324D01*
X113812529Y-101672641D01*
X113812529Y-101113767D01*
X113832531Y-101045646D01*
X113886187Y-100999153D01*
X113938529Y-100987767D01*
X114956413Y-100987767D01*
X114971652Y-100983292D01*
X114972857Y-100981902D01*
X114974528Y-100974219D01*
X114974528Y-100913062D01*
X114974265Y-100907313D01*
X114968397Y-100843452D01*
X114965786Y-100830416D01*
X114925955Y-100703312D01*
X114924671Y-100632327D01*
X114961968Y-100571916D01*
X115026005Y-100541260D01*
X115062851Y-100540740D01*
X115127641Y-100549385D01*
X115225980Y-100562507D01*
X115225984Y-100562507D01*
X115232961Y-100563438D01*
X115239972Y-100562800D01*
X115239976Y-100562800D01*
X115387372Y-100549385D01*
X115413600Y-100546998D01*
X115420302Y-100544820D01*
X115420304Y-100544820D01*
X115579409Y-100493124D01*
X115579412Y-100493123D01*
X115586108Y-100490947D01*
X115682513Y-100433478D01*
X115735860Y-100401677D01*
X115735862Y-100401676D01*
X115741912Y-100398069D01*
X115873266Y-100272982D01*
X115973643Y-100121902D01*
X116019267Y-100001797D01*
X116035555Y-99958920D01*
X116035556Y-99958918D01*
X116038055Y-99952338D01*
X116041123Y-99930510D01*
X116062748Y-99776639D01*
X116062748Y-99776636D01*
X116063299Y-99772717D01*
X116063616Y-99750000D01*
X116059725Y-99715313D01*
X116072009Y-99645387D01*
X116120148Y-99593202D01*
X116184940Y-99575267D01*
X116377173Y-99575267D01*
X116445294Y-99595269D01*
G37*
%TD.AperFunction*%
%TD*%
%TA.AperFunction,Conductor*%
%TO.N,GND*%
G36*
X84636384Y-98020002D02*
G01*
X84682877Y-98073658D01*
X84690782Y-98096586D01*
X84724473Y-98236920D01*
X84823952Y-98477084D01*
X84959777Y-98698729D01*
X85128602Y-98896398D01*
X85132364Y-98899611D01*
X85274514Y-99021018D01*
X85326271Y-99065223D01*
X85547916Y-99201048D01*
X85552486Y-99202941D01*
X85552488Y-99202942D01*
X85783507Y-99298633D01*
X85788080Y-99300527D01*
X85874543Y-99321285D01*
X86036037Y-99360056D01*
X86036043Y-99360057D01*
X86040850Y-99361211D01*
X86300000Y-99381607D01*
X86559150Y-99361211D01*
X86563957Y-99360057D01*
X86563963Y-99360056D01*
X86725457Y-99321285D01*
X86811920Y-99300527D01*
X86816493Y-99298633D01*
X87047512Y-99202942D01*
X87047514Y-99202941D01*
X87052084Y-99201048D01*
X87273729Y-99065223D01*
X87325487Y-99021018D01*
X87467636Y-98899611D01*
X87471398Y-98896398D01*
X87640223Y-98698729D01*
X87776048Y-98477084D01*
X87828218Y-98351135D01*
X87855531Y-98310259D01*
X88165790Y-98000000D01*
X88250000Y-98000000D01*
X88250000Y-98634211D01*
X87835510Y-99048701D01*
X87828118Y-99062239D01*
X87832439Y-99068416D01*
X88043924Y-99198014D01*
X88052718Y-99202495D01*
X88172218Y-99251993D01*
X88227499Y-99296541D01*
X88250000Y-99368402D01*
X88250000Y-104740500D01*
X88229998Y-104808621D01*
X88176342Y-104855114D01*
X88124000Y-104866500D01*
X87410382Y-104866500D01*
X87342261Y-104846498D01*
X87295768Y-104792842D01*
X87292401Y-104784731D01*
X87283769Y-104761707D01*
X87283767Y-104761703D01*
X87280615Y-104753295D01*
X87193261Y-104636739D01*
X87144926Y-104600514D01*
X87102411Y-104543655D01*
X87097385Y-104472836D01*
X87131445Y-104410543D01*
X87144925Y-104398862D01*
X87185726Y-104368283D01*
X87198285Y-104355724D01*
X87274786Y-104253649D01*
X87283324Y-104238054D01*
X87328478Y-104117606D01*
X87332105Y-104102351D01*
X87337631Y-104051486D01*
X87338000Y-104044672D01*
X87338000Y-103772115D01*
X87333525Y-103756876D01*
X87332135Y-103755671D01*
X87324452Y-103754000D01*
X84340116Y-103754000D01*
X84324877Y-103758475D01*
X84323672Y-103759865D01*
X84322001Y-103767548D01*
X84322001Y-104044669D01*
X84322371Y-104051490D01*
X84327895Y-104102352D01*
X84331521Y-104117604D01*
X84376676Y-104238054D01*
X84385214Y-104253649D01*
X84461715Y-104355724D01*
X84474274Y-104368283D01*
X84515075Y-104398862D01*
X84557589Y-104455722D01*
X84562614Y-104526540D01*
X84528554Y-104588834D01*
X84515075Y-104600513D01*
X84466739Y-104636739D01*
X84379385Y-104753295D01*
X84373880Y-104767978D01*
X84334135Y-104874000D01*
X84328255Y-104889684D01*
X84327402Y-104897540D01*
X84326069Y-104903145D01*
X84290852Y-104964792D01*
X84227898Y-104997613D01*
X84203486Y-105000000D01*
X80634500Y-105000000D01*
X80566379Y-104979998D01*
X80519886Y-104926342D01*
X80508500Y-104874000D01*
X80508500Y-104068226D01*
X80528502Y-104000105D01*
X80582158Y-103953612D01*
X80652432Y-103943508D01*
X80678730Y-103950244D01*
X80807394Y-103998478D01*
X80822649Y-104002105D01*
X80873514Y-104007631D01*
X80880328Y-104008000D01*
X81752885Y-104008000D01*
X81768124Y-104003525D01*
X81769329Y-104002135D01*
X81771000Y-103994452D01*
X81771000Y-103989884D01*
X82279000Y-103989884D01*
X82283475Y-104005123D01*
X82284865Y-104006328D01*
X82292548Y-104007999D01*
X83169669Y-104007999D01*
X83176490Y-104007629D01*
X83227352Y-104002105D01*
X83242604Y-103998479D01*
X83363054Y-103953324D01*
X83378649Y-103944786D01*
X83480724Y-103868285D01*
X83493285Y-103855724D01*
X83569786Y-103753649D01*
X83578324Y-103738054D01*
X83623478Y-103617606D01*
X83627105Y-103602351D01*
X83632631Y-103551486D01*
X83633000Y-103544672D01*
X83633000Y-103247115D01*
X83628525Y-103231876D01*
X83627135Y-103230671D01*
X83619452Y-103229000D01*
X82297115Y-103229000D01*
X82281876Y-103233475D01*
X82280671Y-103234865D01*
X82279000Y-103242548D01*
X82279000Y-103989884D01*
X81771000Y-103989884D01*
X81771000Y-102702885D01*
X82279000Y-102702885D01*
X82283475Y-102718124D01*
X82284865Y-102719329D01*
X82292548Y-102721000D01*
X83614884Y-102721000D01*
X83630123Y-102716525D01*
X83631328Y-102715135D01*
X83632999Y-102707452D01*
X83632999Y-102634500D01*
X83653001Y-102566379D01*
X83706657Y-102519886D01*
X83758999Y-102508500D01*
X84123134Y-102508500D01*
X84185316Y-102501745D01*
X84314807Y-102453201D01*
X84385613Y-102448018D01*
X84447982Y-102481939D01*
X84482112Y-102544194D01*
X84477165Y-102615018D01*
X84459863Y-102646748D01*
X84385211Y-102746356D01*
X84376676Y-102761946D01*
X84331522Y-102882394D01*
X84327895Y-102897649D01*
X84322369Y-102948514D01*
X84322000Y-102955328D01*
X84322000Y-103227885D01*
X84326475Y-103243124D01*
X84327865Y-103244329D01*
X84335548Y-103246000D01*
X87319884Y-103246000D01*
X87335123Y-103241525D01*
X87336328Y-103240135D01*
X87337999Y-103232452D01*
X87337999Y-102955331D01*
X87337629Y-102948510D01*
X87332105Y-102897648D01*
X87328479Y-102882396D01*
X87283324Y-102761946D01*
X87274786Y-102746351D01*
X87198285Y-102644276D01*
X87185726Y-102631717D01*
X87144925Y-102601138D01*
X87102411Y-102544278D01*
X87097386Y-102473460D01*
X87131446Y-102411166D01*
X87144926Y-102399486D01*
X87186081Y-102368642D01*
X87193261Y-102363261D01*
X87280615Y-102246705D01*
X87331745Y-102110316D01*
X87338500Y-102048134D01*
X87338500Y-100951866D01*
X87331745Y-100889684D01*
X87280615Y-100753295D01*
X87193261Y-100636739D01*
X87076705Y-100549385D01*
X86940316Y-100498255D01*
X86878134Y-100491500D01*
X84781866Y-100491500D01*
X84719684Y-100498255D01*
X84583295Y-100549385D01*
X84528063Y-100590779D01*
X84461559Y-100615626D01*
X84392177Y-100600573D01*
X84376944Y-100590785D01*
X84321705Y-100549385D01*
X84185316Y-100498255D01*
X84123134Y-100491500D01*
X83759000Y-100491500D01*
X83690879Y-100471498D01*
X83644386Y-100417842D01*
X83633000Y-100365500D01*
X83633000Y-100297115D01*
X83628525Y-100281876D01*
X83627135Y-100280671D01*
X83619452Y-100279000D01*
X82297115Y-100279000D01*
X82281876Y-100283475D01*
X82280671Y-100284865D01*
X82279000Y-100292548D01*
X82279000Y-101039884D01*
X82283475Y-101055123D01*
X82284865Y-101056328D01*
X82292548Y-101057999D01*
X82390500Y-101057999D01*
X82458621Y-101078001D01*
X82505114Y-101131657D01*
X82516500Y-101183999D01*
X82516500Y-101816000D01*
X82496498Y-101884121D01*
X82442842Y-101930614D01*
X82390500Y-101942000D01*
X82297115Y-101942000D01*
X82281876Y-101946475D01*
X82280671Y-101947865D01*
X82279000Y-101955548D01*
X82279000Y-102702885D01*
X81771000Y-102702885D01*
X81771000Y-101960116D01*
X81766525Y-101944877D01*
X81765135Y-101943672D01*
X81757452Y-101942001D01*
X80880331Y-101942001D01*
X80873510Y-101942371D01*
X80822648Y-101947895D01*
X80807396Y-101951521D01*
X80678730Y-101999756D01*
X80607923Y-102004939D01*
X80545554Y-101971018D01*
X80511424Y-101908763D01*
X80508500Y-101881774D01*
X80508500Y-101118226D01*
X80528502Y-101050105D01*
X80582158Y-101003612D01*
X80652432Y-100993508D01*
X80678730Y-101000244D01*
X80807394Y-101048478D01*
X80822649Y-101052105D01*
X80873514Y-101057631D01*
X80880328Y-101058000D01*
X81752885Y-101058000D01*
X81768124Y-101053525D01*
X81769329Y-101052135D01*
X81771000Y-101044452D01*
X81771000Y-99752885D01*
X82279000Y-99752885D01*
X82283475Y-99768124D01*
X82284865Y-99769329D01*
X82292548Y-99771000D01*
X83614884Y-99771000D01*
X83630123Y-99766525D01*
X83631328Y-99765135D01*
X83632999Y-99757452D01*
X83632999Y-99455331D01*
X83632629Y-99448510D01*
X83627105Y-99397648D01*
X83623479Y-99382396D01*
X83578324Y-99261946D01*
X83569786Y-99246351D01*
X83493285Y-99144276D01*
X83480724Y-99131715D01*
X83378649Y-99055214D01*
X83363054Y-99046676D01*
X83242606Y-99001522D01*
X83227351Y-98997895D01*
X83176486Y-98992369D01*
X83169672Y-98992000D01*
X82297115Y-98992000D01*
X82281876Y-98996475D01*
X82280671Y-98997865D01*
X82279000Y-99005548D01*
X82279000Y-99752885D01*
X81771000Y-99752885D01*
X81771000Y-99010116D01*
X81766525Y-98994877D01*
X81765135Y-98993672D01*
X81757452Y-98992001D01*
X80880331Y-98992001D01*
X80873510Y-98992371D01*
X80822648Y-98997895D01*
X80807396Y-99001521D01*
X80678730Y-99049756D01*
X80607923Y-99054939D01*
X80545554Y-99021018D01*
X80511424Y-98958763D01*
X80508500Y-98931774D01*
X80508500Y-98126000D01*
X80528502Y-98057879D01*
X80582158Y-98011386D01*
X80634500Y-98000000D01*
X84568263Y-98000000D01*
X84636384Y-98020002D01*
G37*
%TD.AperFunction*%
%TD*%
M02*
