%TF.GenerationSoftware,KiCad,Pcbnew,(6.0.6)*%
%TF.CreationDate,2022-10-17T00:58:35+02:00*%
%TF.ProjectId,Spanner,5370616e-6e65-4722-9e6b-696361645f70,rev?*%
%TF.SameCoordinates,Original*%
%TF.FileFunction,Soldermask,Top*%
%TF.FilePolarity,Negative*%
%FSLAX46Y46*%
G04 Gerber Fmt 4.6, Leading zero omitted, Abs format (unit mm)*
G04 Created by KiCad (PCBNEW (6.0.6)) date 2022-10-17 00:58:35*
%MOMM*%
%LPD*%
G01*
G04 APERTURE LIST*
G04 Aperture macros list*
%AMRoundRect*
0 Rectangle with rounded corners*
0 $1 Rounding radius*
0 $2 $3 $4 $5 $6 $7 $8 $9 X,Y pos of 4 corners*
0 Add a 4 corners polygon primitive as box body*
4,1,4,$2,$3,$4,$5,$6,$7,$8,$9,$2,$3,0*
0 Add four circle primitives for the rounded corners*
1,1,$1+$1,$2,$3*
1,1,$1+$1,$4,$5*
1,1,$1+$1,$6,$7*
1,1,$1+$1,$8,$9*
0 Add four rect primitives between the rounded corners*
20,1,$1+$1,$2,$3,$4,$5,0*
20,1,$1+$1,$4,$5,$6,$7,0*
20,1,$1+$1,$6,$7,$8,$9,0*
20,1,$1+$1,$8,$9,$2,$3,0*%
G04 Aperture macros list end*
%ADD10RoundRect,0.200000X-0.200000X-0.275000X0.200000X-0.275000X0.200000X0.275000X-0.200000X0.275000X0*%
%ADD11RoundRect,0.200000X-0.275000X0.200000X-0.275000X-0.200000X0.275000X-0.200000X0.275000X0.200000X0*%
%ADD12C,1.000000*%
%ADD13RoundRect,0.150000X-0.587500X-0.150000X0.587500X-0.150000X0.587500X0.150000X-0.587500X0.150000X0*%
%ADD14RoundRect,0.225000X0.225000X0.250000X-0.225000X0.250000X-0.225000X-0.250000X0.225000X-0.250000X0*%
%ADD15RoundRect,0.200000X0.275000X-0.200000X0.275000X0.200000X-0.275000X0.200000X-0.275000X-0.200000X0*%
%ADD16R,0.600000X0.700000*%
%ADD17C,3.200000*%
%ADD18RoundRect,0.200000X0.200000X0.275000X-0.200000X0.275000X-0.200000X-0.275000X0.200000X-0.275000X0*%
%ADD19R,1.700000X1.700000*%
%ADD20O,1.700000X1.700000*%
%ADD21RoundRect,0.150000X0.150000X-0.587500X0.150000X0.587500X-0.150000X0.587500X-0.150000X-0.587500X0*%
%ADD22RoundRect,0.150000X0.587500X0.150000X-0.587500X0.150000X-0.587500X-0.150000X0.587500X-0.150000X0*%
%ADD23R,2.000000X1.000000*%
%ADD24RoundRect,0.218750X0.256250X-0.218750X0.256250X0.218750X-0.256250X0.218750X-0.256250X-0.218750X0*%
%ADD25RoundRect,0.225000X0.250000X-0.225000X0.250000X0.225000X-0.250000X0.225000X-0.250000X-0.225000X0*%
%ADD26R,0.840000X0.840000*%
%ADD27C,0.840000*%
%ADD28O,1.850000X0.850000*%
%ADD29RoundRect,0.150000X0.512500X0.150000X-0.512500X0.150000X-0.512500X-0.150000X0.512500X-0.150000X0*%
%ADD30RoundRect,0.150000X-0.150000X0.512500X-0.150000X-0.512500X0.150000X-0.512500X0.150000X0.512500X0*%
%ADD31RoundRect,0.218750X-0.256250X0.218750X-0.256250X-0.218750X0.256250X-0.218750X0.256250X0.218750X0*%
%ADD32RoundRect,0.150000X-0.150000X0.587500X-0.150000X-0.587500X0.150000X-0.587500X0.150000X0.587500X0*%
%ADD33RoundRect,0.225000X-0.250000X0.225000X-0.250000X-0.225000X0.250000X-0.225000X0.250000X0.225000X0*%
%ADD34RoundRect,0.125000X-0.125000X0.625000X-0.125000X-0.625000X0.125000X-0.625000X0.125000X0.625000X0*%
%ADD35RoundRect,0.125000X-0.625000X0.125000X-0.625000X-0.125000X0.625000X-0.125000X0.625000X0.125000X0*%
%ADD36RoundRect,0.218750X-0.218750X-0.256250X0.218750X-0.256250X0.218750X0.256250X-0.218750X0.256250X0*%
%ADD37R,1.050000X1.000000*%
%ADD38R,2.200000X1.050000*%
%ADD39C,2.286000*%
G04 APERTURE END LIST*
D10*
%TO.C,R10*%
X82175000Y-121750000D03*
X83825000Y-121750000D03*
%TD*%
D11*
%TO.C,R20*%
X109250000Y-99925000D03*
X109250000Y-101575000D03*
%TD*%
D12*
%TO.C,TP2*%
X102000000Y-119250000D03*
%TD*%
D13*
%TO.C,Q3*%
X93062500Y-123300000D03*
X93062500Y-125200000D03*
X94937500Y-124250000D03*
%TD*%
D10*
%TO.C,R4*%
X116675000Y-103750000D03*
X118325000Y-103750000D03*
%TD*%
D14*
%TO.C,C1*%
X105415501Y-112797137D03*
X103865501Y-112797137D03*
%TD*%
D10*
%TO.C,R24*%
X116675000Y-109750000D03*
X118325000Y-109750000D03*
%TD*%
D15*
%TO.C,R5*%
X97000000Y-99325000D03*
X97000000Y-97675000D03*
%TD*%
D16*
%TO.C,D4*%
X103525000Y-122250000D03*
X104925000Y-122250000D03*
%TD*%
D17*
%TO.C,H1*%
X76250000Y-80500000D03*
%TD*%
D11*
%TO.C,R1k1*%
X87250000Y-123425000D03*
X87250000Y-125075000D03*
%TD*%
D16*
%TO.C,D5*%
X101475000Y-122250000D03*
X100075000Y-122250000D03*
%TD*%
D13*
%TO.C,Q1*%
X83562500Y-123300000D03*
X83562500Y-125200000D03*
X85437500Y-124250000D03*
%TD*%
D10*
%TO.C,R18*%
X114425000Y-97500000D03*
X116075000Y-97500000D03*
%TD*%
D14*
%TO.C,C6*%
X105000000Y-120750000D03*
X103450000Y-120750000D03*
%TD*%
D10*
%TO.C,R23*%
X116675000Y-111250000D03*
X118325000Y-111250000D03*
%TD*%
D18*
%TO.C,R11*%
X95575000Y-97500000D03*
X93925000Y-97500000D03*
%TD*%
D19*
%TO.C,J5*%
X87750000Y-128000000D03*
D20*
X85210000Y-128000000D03*
X82670000Y-128000000D03*
%TD*%
D18*
%TO.C,R25*%
X118325000Y-105250000D03*
X116675000Y-105250000D03*
%TD*%
D21*
%TO.C,U5*%
X108050000Y-124937500D03*
X109950000Y-124937500D03*
X109000000Y-123062500D03*
%TD*%
D11*
%TO.C,R7*%
X105000000Y-116062500D03*
X105000000Y-117712500D03*
%TD*%
D22*
%TO.C,Q5*%
X107437500Y-101700000D03*
X107437500Y-99800000D03*
X105562500Y-100750000D03*
%TD*%
D11*
%TO.C,R14*%
X96765000Y-123425000D03*
X96765000Y-125075000D03*
%TD*%
D23*
%TO.C,U4*%
X101830000Y-115500000D03*
X101830000Y-113500000D03*
X101830000Y-111500000D03*
X101830000Y-109500000D03*
X101830000Y-107500000D03*
X101830000Y-105500000D03*
X101830000Y-103500000D03*
X101830000Y-101500000D03*
X85830000Y-101500000D03*
X85830000Y-103500000D03*
X85830000Y-105500000D03*
X85830000Y-107500000D03*
X85830000Y-109500000D03*
X85830000Y-111500000D03*
X85830000Y-113500000D03*
X85830000Y-115500000D03*
%TD*%
D14*
%TO.C,C7*%
X101500000Y-120750000D03*
X99950000Y-120750000D03*
%TD*%
D24*
%TO.C,D6*%
X99975000Y-125287500D03*
X99975000Y-123712500D03*
%TD*%
D25*
%TO.C,C3*%
X111500000Y-125275000D03*
X111500000Y-123725000D03*
%TD*%
D19*
%TO.C,J8*%
X121000000Y-101000000D03*
D20*
X121000000Y-103540000D03*
X121000000Y-106080000D03*
%TD*%
D19*
%TO.C,J4*%
X97250000Y-128000000D03*
D20*
X94710000Y-128000000D03*
X92170000Y-128000000D03*
%TD*%
D19*
%TO.C,J7*%
X118500000Y-128000000D03*
D20*
X115960000Y-128000000D03*
%TD*%
D26*
%TO.C,J1*%
X120530000Y-122750000D03*
D27*
X121530000Y-122100000D03*
X120530000Y-121450000D03*
X121530000Y-120800000D03*
X120530000Y-120150000D03*
D28*
X120750000Y-125025000D03*
X120750000Y-117875000D03*
%TD*%
D11*
%TO.C,R28*%
X103834610Y-99213364D03*
X103834610Y-100863364D03*
%TD*%
D29*
%TO.C,U6*%
X101775000Y-99250000D03*
X101775000Y-98300000D03*
X101775000Y-97350000D03*
X99500000Y-97350000D03*
X99500000Y-99250000D03*
%TD*%
D18*
%TO.C,R12*%
X96325000Y-121750000D03*
X94675000Y-121750000D03*
%TD*%
%TO.C,R9*%
X86825000Y-121750000D03*
X85175000Y-121750000D03*
%TD*%
D15*
%TO.C,R15*%
X103475000Y-125325000D03*
X103475000Y-123675000D03*
%TD*%
D10*
%TO.C,R17*%
X111175000Y-97500000D03*
X112825000Y-97500000D03*
%TD*%
%TO.C,R13*%
X91675000Y-121750000D03*
X93325000Y-121750000D03*
%TD*%
D30*
%TO.C,U2*%
X108450000Y-118000000D03*
X107500000Y-118000000D03*
X106550000Y-118000000D03*
X106550000Y-120275000D03*
X107500000Y-120275000D03*
X108450000Y-120275000D03*
%TD*%
D17*
%TO.C,H2*%
X129000000Y-128750000D03*
%TD*%
D18*
%TO.C,R22*%
X106825000Y-97500000D03*
X105175000Y-97500000D03*
%TD*%
D31*
%TO.C,D2*%
X113000000Y-123712500D03*
X113000000Y-125287500D03*
%TD*%
D32*
%TO.C,Q6*%
X118450000Y-113062500D03*
X116550000Y-113062500D03*
X117500000Y-114937500D03*
%TD*%
D19*
%TO.C,J3*%
X121000000Y-109750000D03*
D20*
X121000000Y-112290000D03*
X121000000Y-114830000D03*
%TD*%
D10*
%TO.C,R27*%
X116675000Y-106750000D03*
X118325000Y-106750000D03*
%TD*%
D18*
%TO.C,R1*%
X114066529Y-101241767D03*
X112416529Y-101241767D03*
%TD*%
D11*
%TO.C,R3*%
X118000000Y-117675000D03*
X118000000Y-119325000D03*
%TD*%
D15*
%TO.C,R19*%
X110750000Y-101575000D03*
X110750000Y-99925000D03*
%TD*%
D17*
%TO.C,H4*%
X129000000Y-80500000D03*
%TD*%
D24*
%TO.C,D3*%
X104975000Y-125287500D03*
X104975000Y-123712500D03*
%TD*%
D18*
%TO.C,R26*%
X118325000Y-108250000D03*
X116675000Y-108250000D03*
%TD*%
%TO.C,R6*%
X108325000Y-116250000D03*
X106675000Y-116250000D03*
%TD*%
D12*
%TO.C,TP1*%
X104750000Y-119250000D03*
%TD*%
D11*
%TO.C,R29*%
X103827568Y-102197638D03*
X103827568Y-103847638D03*
%TD*%
D33*
%TO.C,C8*%
X106500000Y-123725000D03*
X106500000Y-125275000D03*
%TD*%
D19*
%TO.C,J2*%
X115254379Y-121212025D03*
D20*
X112714379Y-121212025D03*
X115254379Y-118672025D03*
X112714379Y-118672025D03*
%TD*%
D34*
%TO.C,U1*%
X112300000Y-104075000D03*
X111500000Y-104075000D03*
X110700000Y-104075000D03*
X109900000Y-104075000D03*
X109100000Y-104075000D03*
X108300000Y-104075000D03*
X107500000Y-104075000D03*
X106700000Y-104075000D03*
D35*
X105325000Y-105450000D03*
X105325000Y-106250000D03*
X105325000Y-107050000D03*
X105325000Y-107850000D03*
X105325000Y-108650000D03*
X105325000Y-109450000D03*
X105325000Y-110250000D03*
X105325000Y-111050000D03*
D34*
X106700000Y-112425000D03*
X107500000Y-112425000D03*
X108300000Y-112425000D03*
X109100000Y-112425000D03*
X109900000Y-112425000D03*
X110700000Y-112425000D03*
X111500000Y-112425000D03*
X112300000Y-112425000D03*
D35*
X113675000Y-111050000D03*
X113675000Y-110250000D03*
X113675000Y-109450000D03*
X113675000Y-108650000D03*
X113675000Y-107850000D03*
X113675000Y-107050000D03*
X113675000Y-106250000D03*
X113675000Y-105450000D03*
%TD*%
D14*
%TO.C,C4*%
X114016529Y-99741767D03*
X112466529Y-99741767D03*
%TD*%
D36*
%TO.C,D1*%
X93925000Y-99250000D03*
X95500000Y-99250000D03*
%TD*%
D37*
%TO.C,AE1*%
X83550000Y-101500000D03*
D38*
X82025000Y-100025000D03*
X82025000Y-102975000D03*
%TD*%
D33*
%TO.C,C5*%
X83750000Y-107725000D03*
X83750000Y-109275000D03*
%TD*%
D11*
%TO.C,R8*%
X110000000Y-116062500D03*
X110000000Y-117712500D03*
%TD*%
D39*
%TO.C,U3*%
X89600000Y-80525000D03*
X118600000Y-92525000D03*
X86300000Y-97725000D03*
X88800000Y-97725000D03*
X91300000Y-97725000D03*
%TD*%
D18*
%TO.C,R21*%
X109825000Y-97500000D03*
X108175000Y-97500000D03*
%TD*%
D19*
%TO.C,J6*%
X101400000Y-128000000D03*
D20*
X103940000Y-128000000D03*
X106480000Y-128000000D03*
X109020000Y-128000000D03*
X111560000Y-128000000D03*
%TD*%
D33*
%TO.C,C2*%
X113989828Y-102684189D03*
X113989828Y-104234189D03*
%TD*%
D15*
%TO.C,R16*%
X101475000Y-125325000D03*
X101475000Y-123675000D03*
%TD*%
D17*
%TO.C,H3*%
X76250000Y-128750000D03*
%TD*%
D15*
%TO.C,R2*%
X118000000Y-122325000D03*
X118000000Y-120675000D03*
%TD*%
M02*
