%TF.GenerationSoftware,KiCad,Pcbnew,(6.0.6)*%
%TF.CreationDate,2022-10-17T00:58:35+02:00*%
%TF.ProjectId,Spanner,5370616e-6e65-4722-9e6b-696361645f70,rev?*%
%TF.SameCoordinates,Original*%
%TF.FileFunction,Profile,NP*%
%FSLAX46Y46*%
G04 Gerber Fmt 4.6, Leading zero omitted, Abs format (unit mm)*
G04 Created by KiCad (PCBNEW (6.0.6)) date 2022-10-17 00:58:35*
%MOMM*%
%LPD*%
G01*
G04 APERTURE LIST*
%TA.AperFunction,Profile*%
%ADD10C,0.100000*%
%TD*%
G04 APERTURE END LIST*
D10*
X132000000Y-84250000D02*
X129250000Y-84250000D01*
X80000000Y-88250000D02*
G75*
G03*
X76000000Y-84250000I-4000000J0D01*
G01*
X73250000Y-125250000D02*
X76000000Y-125250000D01*
X132000000Y-132250000D02*
G75*
G03*
X132500000Y-131750000I0J500000D01*
G01*
X132500000Y-131750000D02*
X132500000Y-125750000D01*
X132500000Y-77500000D02*
G75*
G03*
X132000000Y-77000000I-500000J0D01*
G01*
X72750000Y-131750000D02*
G75*
G03*
X73250000Y-132250000I500000J0D01*
G01*
X125250000Y-132250000D02*
X132000000Y-132250000D01*
X72750000Y-131750000D02*
X72750000Y-125750000D01*
X125250000Y-121250000D02*
X125250000Y-88250000D01*
X132000000Y-125250000D02*
X129250000Y-125250000D01*
X132500000Y-125750000D02*
G75*
G03*
X132000000Y-125250000I-500000J0D01*
G01*
X72750000Y-83750000D02*
G75*
G03*
X73250000Y-84250000I500000J0D01*
G01*
X125250000Y-77000000D02*
X132000000Y-77000000D01*
X132500000Y-77500000D02*
X132500000Y-83750000D01*
X132000000Y-84250000D02*
G75*
G03*
X132500000Y-83750000I0J500000D01*
G01*
X73250000Y-84250000D02*
X76000000Y-84250000D01*
X72750000Y-77500000D02*
X72750000Y-83750000D01*
X80000000Y-77000000D02*
X73250000Y-77000000D01*
X80000000Y-132250000D02*
X125250000Y-132250000D01*
X80000000Y-88250000D02*
X80000000Y-121250000D01*
X73250000Y-125250000D02*
G75*
G03*
X72750000Y-125750000I0J-500000D01*
G01*
X76000000Y-125250000D02*
G75*
G03*
X80000000Y-121250000I0J4000000D01*
G01*
X125250000Y-77000000D02*
X80000000Y-77000000D01*
X125250000Y-121250000D02*
G75*
G03*
X129250000Y-125250000I4000000J0D01*
G01*
X80000000Y-132250000D02*
X73250000Y-132250000D01*
X129250000Y-84250000D02*
G75*
G03*
X125250000Y-88250000I0J-4000000D01*
G01*
X73250000Y-77000000D02*
G75*
G03*
X72750000Y-77500000I0J-500000D01*
G01*
M02*
