M48
; DRILL file {KiCad (6.0.6)} date Mon Oct 17 00:58:38 2022
; FORMAT={-:-/ absolute / inch / decimal}
; #@! TF.CreationDate,2022-10-17T00:58:38+02:00
; #@! TF.GenerationSoftware,Kicad,Pcbnew,(6.0.6)
; #@! TF.FileFunction,Plated,1,2,PTH
FMAT,2
INCH
; #@! TA.AperFunction,Plated,PTH,ViaDrill
T1C0.0118
; #@! TA.AperFunction,Plated,PTH,ComponentDrill
T2C0.0138
; #@! TA.AperFunction,Plated,PTH,ComponentDrill
T3C0.0173
; #@! TA.AperFunction,Plated,PTH,ComponentDrill
T4C0.0394
; #@! TA.AperFunction,Plated,PTH,ComponentDrill
T5C0.0433
%
G90
G05
T1
X3.189Y-3.878
X3.189Y-4.1142
X3.2185Y-3.878
X3.2185Y-4.1142
X3.2395Y-4.7409
X3.248Y-3.878
X3.248Y-4.1142
X3.2776Y-3.878
X3.2776Y-4.1142
X3.2972Y-4.1929
X3.3071Y-3.878
X3.3071Y-4.1142
X3.4547Y-3.9567
X3.4547Y-4.0059
X3.4547Y-4.0551
X3.4547Y-4.1043
X3.4843Y-4.8622
X3.6094Y-4.7409
X3.6993Y-3.9665
X3.8583Y-4.8622
X3.8976Y-4.2126
X3.8976Y-4.813
X3.9075Y-4.1732
X3.9173Y-3.9567
X3.9173Y-4.685
X3.937Y-3.9961
X3.937Y-4.1536
X3.9469Y-4.6624
X3.9872Y-4.627
X4.0091Y-4.5898
X4.0453Y-4.626
X4.065Y-3.8583
X4.0941Y-4.4878
X4.1437Y-4.0748
X4.1457Y-4.122
X4.1732Y-4.813
X4.2028Y-4.3406
X4.2298Y-3.8938
X4.2323Y-4.0453
X4.2323Y-4.2126
X4.2323Y-4.5384
X4.2618Y-4.9705
X4.2913Y-4.9114
X4.3012Y-4.3602
X4.311Y-4.9705
X4.3209Y-4.685
X4.3406Y-4.1535
X4.3799Y-4.1535
X4.4193Y-4.2126
X4.4882Y-3.7992
X4.5374Y-3.9272
X4.5472Y-3.9862
X4.5506Y-4.4512
X4.5521Y-4.1437
X4.5866Y-3.9862
X4.626Y-3.8386
T3
X4.7453Y-4.7303
X4.7453Y-4.7815
X4.7453Y-4.8327
X4.7846Y-4.7559
X4.7846Y-4.8071
T4
X3.2547Y-5.0394
X3.3547Y-5.0394
X3.4547Y-5.0394
X3.6287Y-5.0394
X3.7287Y-5.0394
X3.8287Y-5.0394
X3.9921Y-5.0394
X4.0921Y-5.0394
X4.1921Y-5.0394
X4.2921Y-5.0394
X4.3921Y-5.0394
X4.4376Y-4.6721
X4.4376Y-4.7721
X4.5376Y-4.6721
X4.5376Y-4.7721
X4.5654Y-5.0394
X4.6654Y-5.0394
X4.7638Y-3.9764
X4.7638Y-4.0764
X4.7638Y-4.1764
X4.7638Y-4.3209
X4.7638Y-4.4209
X4.7638Y-4.5209
T5
X3.3976Y-3.8474
X3.4961Y-3.8474
X3.5276Y-3.1703
X3.5945Y-3.8474
X4.6693Y-3.6427
T2
G00X4.7343Y-4.6407
M15
G01X4.7736Y-4.6407
M16
G05
G00X4.7343Y-4.9222
M15
G01X4.7736Y-4.9222
M16
G05
T0
M30
